M48
;DRILL file {KiCad 4.0.2+dfsg1-stable} date dim. 11 sept. 2016 16:24:26 CEST
;FORMAT={-:-/ absolute / metric / decimal}
FMAT,2
METRIC,TZ
T1C0.900
T2C1.016
T3C1.200
T4C1.524
T5C1.750
T6C3.200
%
G90
G05
M71
T1
X103.2Y38.8
X103.2Y33.8
T2
X90.44Y-45.
X92.98Y-45.
X95.52Y-45.
X98.06Y-45.
X100.6Y-45.
X111.3Y-60.
X113.84Y-60.
X116.38Y-60.
X118.92Y-60.
X121.46Y-60.
X124.Y-60.
T3
X83.Y25.9
X85.5Y25.9
X85.5Y19.9
X91.5Y-36.1
X93.Y-28.1
X103.Y25.9
X103.Y19.9
X108.Y33.8
X110.Y-22.1
X113.Y-28.1
X114.5Y-36.1
X115.Y25.9
X115.Y-22.1
X120.Y33.8
X120.5Y25.9
X120.5Y19.9
X123.Y25.9
T4
X89.5Y39.04
X89.5Y33.96
X129.Y-0.16
X129.Y-5.24
X129.1Y-14.56
X129.1Y-19.64
T5
X102.6Y-49.2
X106.485Y-49.2
T6
X82.5Y39.
X101.Y-62.5
X132.Y39.
T0
M30
