G04 #@! TF.FileFunction,Profile,NP*
%FSLAX46Y46*%
G04 Gerber Fmt 4.6, Leading zero omitted, Abs format (unit mm)*
G04 Created by KiCad (PCBNEW 4.0.2+dfsg1-stable) date dim. 11 sept. 2016 16:29:45 CEST*
%MOMM*%
G01*
G04 APERTURE LIST*
%ADD10C,0.150000*%
%ADD11C,0.200000*%
G04 APERTURE END LIST*
D10*
D11*
X106000000Y-41000000D02*
X103500000Y-41000000D01*
X106000000Y-43000000D02*
X106000000Y-41000000D01*
X103500000Y-43000000D02*
X106000000Y-43000000D01*
X103500000Y-41000000D02*
X103500000Y-43000000D01*
X101500000Y-41000000D02*
X93500000Y-41000000D01*
X101500000Y-43000000D02*
X101500000Y-41000000D01*
X93500000Y-43000000D02*
X101500000Y-43000000D01*
X93500000Y-41000000D02*
X93500000Y-43000000D01*
X86000000Y-41000000D02*
X86000000Y-37000000D01*
X92500000Y-41000000D02*
X86000000Y-41000000D01*
X92500000Y-43000000D02*
X92500000Y-41000000D01*
X86000000Y-43000000D02*
X92500000Y-43000000D01*
X80000000Y-37000000D02*
X86000000Y-37000000D01*
X80000000Y41500000D02*
X80000000Y-37000000D01*
X134500000Y41500000D02*
X80000000Y41500000D01*
X134500000Y-22000000D02*
X134500000Y41500000D01*
X117000000Y-39500000D02*
X134500000Y-22000000D01*
X110500000Y-39500000D02*
X117000000Y-39500000D01*
X109000000Y-41000000D02*
X110500000Y-39500000D01*
X107500000Y-41000000D02*
X109000000Y-41000000D01*
X107500000Y-43000000D02*
X107500000Y-41000000D01*
X109000000Y-43000000D02*
X107500000Y-43000000D01*
X86000000Y-65000000D02*
X86000000Y-43000000D01*
X128000000Y-65000000D02*
X86000000Y-65000000D01*
X128000000Y-47500000D02*
X128000000Y-65000000D01*
X109000000Y-48000000D02*
X109000000Y-43000000D01*
X122000000Y-48000000D02*
X109000000Y-48000000D01*
X122000000Y-47500000D02*
X122000000Y-48000000D01*
X128000000Y-47500000D02*
X122000000Y-47500000D01*
M02*
