G04 #@! TF.FileFunction,Other,Fab,Top*
%FSLAX46Y46*%
G04 Gerber Fmt 4.6, Leading zero omitted, Abs format (unit mm)*
G04 Created by KiCad (PCBNEW 4.0.5+dfsg1-4) date Mon Feb 20 16:27:22 2017*
%MOMM*%
%LPD*%
G01*
G04 APERTURE LIST*
%ADD10C,0.150000*%
%ADD11C,0.300000*%
%ADD12C,0.200000*%
G04 APERTURE END LIST*
D10*
X83700000Y46676190D02*
X83814286Y46638095D01*
X84004762Y46638095D01*
X84080952Y46676190D01*
X84119048Y46714286D01*
X84157143Y46790476D01*
X84157143Y46866667D01*
X84119048Y46942857D01*
X84080952Y46980952D01*
X84004762Y47019048D01*
X83852381Y47057143D01*
X83776190Y47095238D01*
X83738095Y47133333D01*
X83700000Y47209524D01*
X83700000Y47285714D01*
X83738095Y47361905D01*
X83776190Y47400000D01*
X83852381Y47438095D01*
X84042857Y47438095D01*
X84157143Y47400000D01*
X84423810Y47171429D02*
X84576191Y46638095D01*
X84728572Y47019048D01*
X84880953Y46638095D01*
X85033334Y47171429D01*
X85338095Y46638095D02*
X85338095Y47171429D01*
X85338095Y47438095D02*
X85300000Y47400000D01*
X85338095Y47361905D01*
X85376190Y47400000D01*
X85338095Y47438095D01*
X85338095Y47361905D01*
X85604761Y47171429D02*
X85909523Y47171429D01*
X85719047Y47438095D02*
X85719047Y46752381D01*
X85757142Y46676190D01*
X85833333Y46638095D01*
X85909523Y46638095D01*
X86519047Y46676190D02*
X86442857Y46638095D01*
X86290476Y46638095D01*
X86214285Y46676190D01*
X86176190Y46714286D01*
X86138095Y46790476D01*
X86138095Y47019048D01*
X86176190Y47095238D01*
X86214285Y47133333D01*
X86290476Y47171429D01*
X86442857Y47171429D01*
X86519047Y47133333D01*
X86861904Y46638095D02*
X86861904Y47438095D01*
X87204761Y46638095D02*
X87204761Y47057143D01*
X87166666Y47133333D01*
X87090476Y47171429D01*
X86976190Y47171429D01*
X86899999Y47133333D01*
X86861904Y47095238D01*
X88080952Y47438095D02*
X88347619Y46638095D01*
X88614286Y47438095D01*
X88842857Y47361905D02*
X88880952Y47400000D01*
X88957143Y47438095D01*
X89147619Y47438095D01*
X89223809Y47400000D01*
X89261905Y47361905D01*
X89300000Y47285714D01*
X89300000Y47209524D01*
X89261905Y47095238D01*
X88804762Y46638095D01*
X89300000Y46638095D01*
X67538095Y47351190D02*
X67614285Y47313095D01*
X67766666Y47313095D01*
X67842857Y47351190D01*
X67880952Y47427381D01*
X67880952Y47465476D01*
X67842857Y47541667D01*
X67766666Y47579762D01*
X67652381Y47579762D01*
X67576190Y47617857D01*
X67538095Y47694048D01*
X67538095Y47732143D01*
X67576190Y47808333D01*
X67652381Y47846429D01*
X67766666Y47846429D01*
X67842857Y47808333D01*
X68223809Y47313095D02*
X68223809Y47846429D01*
X68223809Y48113095D02*
X68185714Y48075000D01*
X68223809Y48036905D01*
X68261904Y48075000D01*
X68223809Y48113095D01*
X68223809Y48036905D01*
X68604761Y47313095D02*
X68604761Y47846429D01*
X68604761Y47770238D02*
X68642856Y47808333D01*
X68719047Y47846429D01*
X68833333Y47846429D01*
X68909523Y47808333D01*
X68947618Y47732143D01*
X68947618Y47313095D01*
X68947618Y47732143D02*
X68985714Y47808333D01*
X69061904Y47846429D01*
X69176190Y47846429D01*
X69252380Y47808333D01*
X69290475Y47732143D01*
X69290475Y47313095D01*
X69785714Y47313095D02*
X69709523Y47351190D01*
X69671428Y47389286D01*
X69633333Y47465476D01*
X69633333Y47694048D01*
X69671428Y47770238D01*
X69709523Y47808333D01*
X69785714Y47846429D01*
X69900000Y47846429D01*
X69976190Y47808333D01*
X70014285Y47770238D01*
X70052381Y47694048D01*
X70052381Y47465476D01*
X70014285Y47389286D01*
X69976190Y47351190D01*
X69900000Y47313095D01*
X69785714Y47313095D01*
X70395238Y47846429D02*
X70395238Y47313095D01*
X70395238Y47770238D02*
X70433333Y47808333D01*
X70509524Y47846429D01*
X70623810Y47846429D01*
X70700000Y47808333D01*
X70738095Y47732143D01*
X70738095Y47313095D01*
X71461905Y47351190D02*
X71385715Y47313095D01*
X71233334Y47313095D01*
X71157143Y47351190D01*
X71119048Y47389286D01*
X71080953Y47465476D01*
X71080953Y47694048D01*
X71119048Y47770238D01*
X71157143Y47808333D01*
X71233334Y47846429D01*
X71385715Y47846429D01*
X71461905Y47808333D01*
X71919048Y47313095D02*
X71842857Y47351190D01*
X71804762Y47389286D01*
X71766667Y47465476D01*
X71766667Y47694048D01*
X71804762Y47770238D01*
X71842857Y47808333D01*
X71919048Y47846429D01*
X72033334Y47846429D01*
X72109524Y47808333D01*
X72147619Y47770238D01*
X72185715Y47694048D01*
X72185715Y47465476D01*
X72147619Y47389286D01*
X72109524Y47351190D01*
X72033334Y47313095D01*
X71919048Y47313095D01*
X72528572Y47313095D02*
X72528572Y47846429D01*
X72528572Y47694048D02*
X72566667Y47770238D01*
X72604763Y47808333D01*
X72680953Y47846429D01*
X72757144Y47846429D01*
X72909524Y47846429D02*
X73214286Y47846429D01*
X73023810Y48113095D02*
X73023810Y47427381D01*
X73061905Y47351190D01*
X73138096Y47313095D01*
X73214286Y47313095D01*
X73785715Y47351190D02*
X73709525Y47313095D01*
X73557144Y47313095D01*
X73480953Y47351190D01*
X73442858Y47427381D01*
X73442858Y47732143D01*
X73480953Y47808333D01*
X73557144Y47846429D01*
X73709525Y47846429D01*
X73785715Y47808333D01*
X73823810Y47732143D01*
X73823810Y47655952D01*
X73442858Y47579762D01*
X74090477Y47313095D02*
X74509524Y47846429D01*
X74090477Y47846429D02*
X74509524Y47313095D01*
X74814286Y47617857D02*
X75423810Y47617857D01*
X67480951Y45963095D02*
X67480951Y46763095D01*
X67480951Y46001190D02*
X67404761Y45963095D01*
X67252380Y45963095D01*
X67176189Y46001190D01*
X67138094Y46039286D01*
X67099999Y46115476D01*
X67099999Y46344048D01*
X67138094Y46420238D01*
X67176189Y46458333D01*
X67252380Y46496429D01*
X67404761Y46496429D01*
X67480951Y46458333D01*
X67976190Y45963095D02*
X67899999Y46001190D01*
X67861904Y46039286D01*
X67823809Y46115476D01*
X67823809Y46344048D01*
X67861904Y46420238D01*
X67899999Y46458333D01*
X67976190Y46496429D01*
X68090476Y46496429D01*
X68166666Y46458333D01*
X68204761Y46420238D01*
X68242857Y46344048D01*
X68242857Y46115476D01*
X68204761Y46039286D01*
X68166666Y46001190D01*
X68090476Y45963095D01*
X67976190Y45963095D01*
X68585714Y45963095D02*
X68585714Y46496429D01*
X68585714Y46420238D02*
X68623809Y46458333D01*
X68700000Y46496429D01*
X68814286Y46496429D01*
X68890476Y46458333D01*
X68928571Y46382143D01*
X68928571Y45963095D01*
X68928571Y46382143D02*
X68966667Y46458333D01*
X69042857Y46496429D01*
X69157143Y46496429D01*
X69233333Y46458333D01*
X69271428Y46382143D01*
X69271428Y45963095D01*
X69766667Y45963095D02*
X69690476Y46001190D01*
X69652381Y46039286D01*
X69614286Y46115476D01*
X69614286Y46344048D01*
X69652381Y46420238D01*
X69690476Y46458333D01*
X69766667Y46496429D01*
X69880953Y46496429D01*
X69957143Y46458333D01*
X69995238Y46420238D01*
X70033334Y46344048D01*
X70033334Y46115476D01*
X69995238Y46039286D01*
X69957143Y46001190D01*
X69880953Y45963095D01*
X69766667Y45963095D01*
X70871429Y46344048D02*
X70833334Y46382143D01*
X70757144Y46420238D01*
X70680953Y46420238D01*
X70604763Y46382143D01*
X70566667Y46344048D01*
X70528572Y46267857D01*
X70528572Y46191667D01*
X70566667Y46115476D01*
X70604763Y46077381D01*
X70680953Y46039286D01*
X70757144Y46039286D01*
X70833334Y46077381D01*
X70871429Y46115476D01*
X70871429Y46420238D02*
X70871429Y46115476D01*
X70909525Y46077381D01*
X70947620Y46077381D01*
X71023810Y46115476D01*
X71061905Y46191667D01*
X71061905Y46382143D01*
X70985715Y46496429D01*
X70871429Y46572619D01*
X70719048Y46610714D01*
X70566667Y46572619D01*
X70452382Y46496429D01*
X70376191Y46382143D01*
X70338096Y46229762D01*
X70376191Y46077381D01*
X70452382Y45963095D01*
X70566667Y45886905D01*
X70719048Y45848810D01*
X70871429Y45886905D01*
X70985715Y45963095D01*
X71328572Y46496429D02*
X71519048Y45963095D01*
X71709524Y46496429D02*
X71519048Y45963095D01*
X71442857Y45772619D01*
X71404762Y45734524D01*
X71328572Y45696429D01*
X72357143Y45963095D02*
X72357143Y46382143D01*
X72319048Y46458333D01*
X72242858Y46496429D01*
X72090477Y46496429D01*
X72014286Y46458333D01*
X72357143Y46001190D02*
X72280953Y45963095D01*
X72090477Y45963095D01*
X72014286Y46001190D01*
X71976191Y46077381D01*
X71976191Y46153571D01*
X72014286Y46229762D01*
X72090477Y46267857D01*
X72280953Y46267857D01*
X72357143Y46305952D01*
X72738096Y45963095D02*
X72738096Y46763095D01*
X73080953Y45963095D02*
X73080953Y46382143D01*
X73042858Y46458333D01*
X72966668Y46496429D01*
X72852382Y46496429D01*
X72776191Y46458333D01*
X72738096Y46420238D01*
X73576192Y45963095D02*
X73500001Y46001190D01*
X73461906Y46039286D01*
X73423811Y46115476D01*
X73423811Y46344048D01*
X73461906Y46420238D01*
X73500001Y46458333D01*
X73576192Y46496429D01*
X73690478Y46496429D01*
X73766668Y46458333D01*
X73804763Y46420238D01*
X73842859Y46344048D01*
X73842859Y46115476D01*
X73804763Y46039286D01*
X73766668Y46001190D01*
X73690478Y45963095D01*
X73576192Y45963095D01*
X74300002Y45963095D02*
X74223811Y46001190D01*
X74185716Y46039286D01*
X74147621Y46115476D01*
X74147621Y46344048D01*
X74185716Y46420238D01*
X74223811Y46458333D01*
X74300002Y46496429D01*
X74414288Y46496429D01*
X74490478Y46458333D01*
X74528573Y46420238D01*
X74566669Y46344048D01*
X74566669Y46115476D01*
X74528573Y46039286D01*
X74490478Y46001190D01*
X74414288Y45963095D01*
X74300002Y45963095D01*
X74909526Y46039286D02*
X74947621Y46001190D01*
X74909526Y45963095D01*
X74871431Y46001190D01*
X74909526Y46039286D01*
X74909526Y45963095D01*
X75176192Y46496429D02*
X75480954Y46496429D01*
X75290478Y45963095D02*
X75290478Y46648810D01*
X75328573Y46725000D01*
X75404764Y46763095D01*
X75480954Y46763095D01*
X75747621Y45963095D02*
X75747621Y46496429D01*
X75747621Y46344048D02*
X75785716Y46420238D01*
X75823812Y46458333D01*
X75900002Y46496429D01*
X75976193Y46496429D01*
D11*
X46785714Y82917857D02*
X46928571Y82846429D01*
X47214286Y82846429D01*
X47357143Y82917857D01*
X47428571Y83060714D01*
X47428571Y83132143D01*
X47357143Y83275000D01*
X47214286Y83346429D01*
X47000000Y83346429D01*
X46857143Y83417857D01*
X46785714Y83560714D01*
X46785714Y83632143D01*
X46857143Y83775000D01*
X47000000Y83846429D01*
X47214286Y83846429D01*
X47357143Y83775000D01*
X48071429Y82846429D02*
X48071429Y83846429D01*
X48071429Y84346429D02*
X48000000Y84275000D01*
X48071429Y84203571D01*
X48142857Y84275000D01*
X48071429Y84346429D01*
X48071429Y84203571D01*
X48785715Y82846429D02*
X48785715Y83846429D01*
X48785715Y83703571D02*
X48857143Y83775000D01*
X49000001Y83846429D01*
X49214286Y83846429D01*
X49357143Y83775000D01*
X49428572Y83632143D01*
X49428572Y82846429D01*
X49428572Y83632143D02*
X49500001Y83775000D01*
X49642858Y83846429D01*
X49857143Y83846429D01*
X50000001Y83775000D01*
X50071429Y83632143D01*
X50071429Y82846429D01*
X51000001Y82846429D02*
X50857143Y82917857D01*
X50785715Y82989286D01*
X50714286Y83132143D01*
X50714286Y83560714D01*
X50785715Y83703571D01*
X50857143Y83775000D01*
X51000001Y83846429D01*
X51214286Y83846429D01*
X51357143Y83775000D01*
X51428572Y83703571D01*
X51500001Y83560714D01*
X51500001Y83132143D01*
X51428572Y82989286D01*
X51357143Y82917857D01*
X51214286Y82846429D01*
X51000001Y82846429D01*
X52142858Y83846429D02*
X52142858Y82846429D01*
X52142858Y83703571D02*
X52214286Y83775000D01*
X52357144Y83846429D01*
X52571429Y83846429D01*
X52714286Y83775000D01*
X52785715Y83632143D01*
X52785715Y82846429D01*
X54142858Y82917857D02*
X54000001Y82846429D01*
X53714287Y82846429D01*
X53571429Y82917857D01*
X53500001Y82989286D01*
X53428572Y83132143D01*
X53428572Y83560714D01*
X53500001Y83703571D01*
X53571429Y83775000D01*
X53714287Y83846429D01*
X54000001Y83846429D01*
X54142858Y83775000D01*
X55000001Y82846429D02*
X54857143Y82917857D01*
X54785715Y82989286D01*
X54714286Y83132143D01*
X54714286Y83560714D01*
X54785715Y83703571D01*
X54857143Y83775000D01*
X55000001Y83846429D01*
X55214286Y83846429D01*
X55357143Y83775000D01*
X55428572Y83703571D01*
X55500001Y83560714D01*
X55500001Y83132143D01*
X55428572Y82989286D01*
X55357143Y82917857D01*
X55214286Y82846429D01*
X55000001Y82846429D01*
X56142858Y82846429D02*
X56142858Y83846429D01*
X56142858Y83560714D02*
X56214286Y83703571D01*
X56285715Y83775000D01*
X56428572Y83846429D01*
X56571429Y83846429D01*
X56857143Y83846429D02*
X57428572Y83846429D01*
X57071429Y84346429D02*
X57071429Y83060714D01*
X57142857Y82917857D01*
X57285715Y82846429D01*
X57428572Y82846429D01*
X58500000Y82917857D02*
X58357143Y82846429D01*
X58071429Y82846429D01*
X57928572Y82917857D01*
X57857143Y83060714D01*
X57857143Y83632143D01*
X57928572Y83775000D01*
X58071429Y83846429D01*
X58357143Y83846429D01*
X58500000Y83775000D01*
X58571429Y83632143D01*
X58571429Y83489286D01*
X57857143Y83346429D01*
X59071429Y82846429D02*
X59857143Y83846429D01*
X59071429Y83846429D02*
X59857143Y82846429D01*
X60428572Y83417857D02*
X61571429Y83417857D01*
X62928572Y82846429D02*
X62928572Y84346429D01*
X62928572Y82917857D02*
X62785715Y82846429D01*
X62500001Y82846429D01*
X62357143Y82917857D01*
X62285715Y82989286D01*
X62214286Y83132143D01*
X62214286Y83560714D01*
X62285715Y83703571D01*
X62357143Y83775000D01*
X62500001Y83846429D01*
X62785715Y83846429D01*
X62928572Y83775000D01*
X63857144Y82846429D02*
X63714286Y82917857D01*
X63642858Y82989286D01*
X63571429Y83132143D01*
X63571429Y83560714D01*
X63642858Y83703571D01*
X63714286Y83775000D01*
X63857144Y83846429D01*
X64071429Y83846429D01*
X64214286Y83775000D01*
X64285715Y83703571D01*
X64357144Y83560714D01*
X64357144Y83132143D01*
X64285715Y82989286D01*
X64214286Y82917857D01*
X64071429Y82846429D01*
X63857144Y82846429D01*
X65000001Y82846429D02*
X65000001Y83846429D01*
X65000001Y83703571D02*
X65071429Y83775000D01*
X65214287Y83846429D01*
X65428572Y83846429D01*
X65571429Y83775000D01*
X65642858Y83632143D01*
X65642858Y82846429D01*
X65642858Y83632143D02*
X65714287Y83775000D01*
X65857144Y83846429D01*
X66071429Y83846429D01*
X66214287Y83775000D01*
X66285715Y83632143D01*
X66285715Y82846429D01*
X67214287Y82846429D02*
X67071429Y82917857D01*
X67000001Y82989286D01*
X66928572Y83132143D01*
X66928572Y83560714D01*
X67000001Y83703571D01*
X67071429Y83775000D01*
X67214287Y83846429D01*
X67428572Y83846429D01*
X67571429Y83775000D01*
X67642858Y83703571D01*
X67714287Y83560714D01*
X67714287Y83132143D01*
X67642858Y82989286D01*
X67571429Y82917857D01*
X67428572Y82846429D01*
X67214287Y82846429D01*
X69285715Y83560714D02*
X69214287Y83632143D01*
X69071430Y83703571D01*
X68928572Y83703571D01*
X68785715Y83632143D01*
X68714287Y83560714D01*
X68642858Y83417857D01*
X68642858Y83275000D01*
X68714287Y83132143D01*
X68785715Y83060714D01*
X68928572Y82989286D01*
X69071430Y82989286D01*
X69214287Y83060714D01*
X69285715Y83132143D01*
X69285715Y83703571D02*
X69285715Y83132143D01*
X69357144Y83060714D01*
X69428572Y83060714D01*
X69571430Y83132143D01*
X69642858Y83275000D01*
X69642858Y83632143D01*
X69500001Y83846429D01*
X69285715Y83989286D01*
X69000001Y84060714D01*
X68714287Y83989286D01*
X68500001Y83846429D01*
X68357144Y83632143D01*
X68285715Y83346429D01*
X68357144Y83060714D01*
X68500001Y82846429D01*
X68714287Y82703571D01*
X69000001Y82632143D01*
X69285715Y82703571D01*
X69500001Y82846429D01*
X70142858Y83846429D02*
X70500001Y82846429D01*
X70857143Y83846429D02*
X70500001Y82846429D01*
X70357143Y82489286D01*
X70285715Y82417857D01*
X70142858Y82346429D01*
X72071429Y82846429D02*
X72071429Y83632143D01*
X72000000Y83775000D01*
X71857143Y83846429D01*
X71571429Y83846429D01*
X71428572Y83775000D01*
X72071429Y82917857D02*
X71928572Y82846429D01*
X71571429Y82846429D01*
X71428572Y82917857D01*
X71357143Y83060714D01*
X71357143Y83203571D01*
X71428572Y83346429D01*
X71571429Y83417857D01*
X71928572Y83417857D01*
X72071429Y83489286D01*
X72785715Y82846429D02*
X72785715Y84346429D01*
X73428572Y82846429D02*
X73428572Y83632143D01*
X73357143Y83775000D01*
X73214286Y83846429D01*
X73000001Y83846429D01*
X72857143Y83775000D01*
X72785715Y83703571D01*
X74357144Y82846429D02*
X74214286Y82917857D01*
X74142858Y82989286D01*
X74071429Y83132143D01*
X74071429Y83560714D01*
X74142858Y83703571D01*
X74214286Y83775000D01*
X74357144Y83846429D01*
X74571429Y83846429D01*
X74714286Y83775000D01*
X74785715Y83703571D01*
X74857144Y83560714D01*
X74857144Y83132143D01*
X74785715Y82989286D01*
X74714286Y82917857D01*
X74571429Y82846429D01*
X74357144Y82846429D01*
X75714287Y82846429D02*
X75571429Y82917857D01*
X75500001Y82989286D01*
X75428572Y83132143D01*
X75428572Y83560714D01*
X75500001Y83703571D01*
X75571429Y83775000D01*
X75714287Y83846429D01*
X75928572Y83846429D01*
X76071429Y83775000D01*
X76142858Y83703571D01*
X76214287Y83560714D01*
X76214287Y83132143D01*
X76142858Y82989286D01*
X76071429Y82917857D01*
X75928572Y82846429D01*
X75714287Y82846429D01*
X76857144Y82989286D02*
X76928572Y82917857D01*
X76857144Y82846429D01*
X76785715Y82917857D01*
X76857144Y82989286D01*
X76857144Y82846429D01*
X77357144Y83846429D02*
X77928573Y83846429D01*
X77571430Y82846429D02*
X77571430Y84132143D01*
X77642858Y84275000D01*
X77785716Y84346429D01*
X77928573Y84346429D01*
X78428573Y82846429D02*
X78428573Y83846429D01*
X78428573Y83560714D02*
X78500001Y83703571D01*
X78571430Y83775000D01*
X78714287Y83846429D01*
X78857144Y83846429D01*
X59142858Y80296429D02*
X58428572Y80296429D01*
X58428572Y81796429D01*
X59642858Y80296429D02*
X59642858Y81296429D01*
X59642858Y81796429D02*
X59571429Y81725000D01*
X59642858Y81653571D01*
X59714286Y81725000D01*
X59642858Y81796429D01*
X59642858Y81653571D01*
X61000001Y81296429D02*
X61000001Y80082143D01*
X60928572Y79939286D01*
X60857144Y79867857D01*
X60714287Y79796429D01*
X60500001Y79796429D01*
X60357144Y79867857D01*
X61000001Y80367857D02*
X60857144Y80296429D01*
X60571430Y80296429D01*
X60428572Y80367857D01*
X60357144Y80439286D01*
X60285715Y80582143D01*
X60285715Y81010714D01*
X60357144Y81153571D01*
X60428572Y81225000D01*
X60571430Y81296429D01*
X60857144Y81296429D01*
X61000001Y81225000D01*
X61714287Y80296429D02*
X61714287Y81796429D01*
X62357144Y80296429D02*
X62357144Y81082143D01*
X62285715Y81225000D01*
X62142858Y81296429D01*
X61928573Y81296429D01*
X61785715Y81225000D01*
X61714287Y81153571D01*
X62857144Y81296429D02*
X63428573Y81296429D01*
X63071430Y81796429D02*
X63071430Y80510714D01*
X63142858Y80367857D01*
X63285716Y80296429D01*
X63428573Y80296429D01*
X64857144Y81796429D02*
X65357144Y80296429D01*
X65857144Y81796429D01*
X66285715Y81653571D02*
X66357144Y81725000D01*
X66500001Y81796429D01*
X66857144Y81796429D01*
X67000001Y81725000D01*
X67071430Y81653571D01*
X67142858Y81510714D01*
X67142858Y81367857D01*
X67071430Y81153571D01*
X66214287Y80296429D01*
X67142858Y80296429D01*
X96500000Y90357143D02*
X96428571Y90214286D01*
X96428571Y90000000D01*
X96500000Y89785715D01*
X96642857Y89642857D01*
X96785714Y89571429D01*
X97071429Y89500000D01*
X97285714Y89500000D01*
X97571429Y89571429D01*
X97714286Y89642857D01*
X97857143Y89785715D01*
X97928571Y90000000D01*
X97928571Y90142857D01*
X97857143Y90357143D01*
X97785714Y90428572D01*
X97285714Y90428572D01*
X97285714Y90142857D01*
X97928571Y91071429D02*
X96428571Y91071429D01*
X97928571Y91928572D01*
X96428571Y91928572D01*
X97928571Y92642858D02*
X96428571Y92642858D01*
X96428571Y93000001D01*
X96500000Y93214286D01*
X96642857Y93357144D01*
X96785714Y93428572D01*
X97071429Y93500001D01*
X97285714Y93500001D01*
X97571429Y93428572D01*
X97714286Y93357144D01*
X97857143Y93214286D01*
X97928571Y93000001D01*
X97928571Y92642858D01*
X96500000Y75857143D02*
X96428571Y75714286D01*
X96428571Y75500000D01*
X96500000Y75285715D01*
X96642857Y75142857D01*
X96785714Y75071429D01*
X97071429Y75000000D01*
X97285714Y75000000D01*
X97571429Y75071429D01*
X97714286Y75142857D01*
X97857143Y75285715D01*
X97928571Y75500000D01*
X97928571Y75642857D01*
X97857143Y75857143D01*
X97785714Y75928572D01*
X97285714Y75928572D01*
X97285714Y75642857D01*
X97928571Y76571429D02*
X96428571Y76571429D01*
X97928571Y77428572D01*
X96428571Y77428572D01*
X97928571Y78142858D02*
X96428571Y78142858D01*
X96428571Y78500001D01*
X96500000Y78714286D01*
X96642857Y78857144D01*
X96785714Y78928572D01*
X97071429Y79000001D01*
X97285714Y79000001D01*
X97571429Y78928572D01*
X97714286Y78857144D01*
X97857143Y78714286D01*
X97928571Y78500001D01*
X97928571Y78142858D01*
X97928571Y70821429D02*
X97928571Y69964286D01*
X97928571Y70392858D02*
X96428571Y70392858D01*
X96642857Y70250001D01*
X96785714Y70107143D01*
X96857143Y69964286D01*
X96571429Y71392857D02*
X96500000Y71464286D01*
X96428571Y71607143D01*
X96428571Y71964286D01*
X96500000Y72107143D01*
X96571429Y72178572D01*
X96714286Y72250000D01*
X96857143Y72250000D01*
X97071429Y72178572D01*
X97928571Y71321429D01*
X97928571Y72250000D01*
X96428571Y72678571D02*
X97928571Y73178571D01*
X96428571Y73678571D01*
X97928571Y85071429D02*
X97928571Y84214286D01*
X97928571Y84642858D02*
X96428571Y84642858D01*
X96642857Y84500001D01*
X96785714Y84357143D01*
X96857143Y84214286D01*
X96571429Y85642857D02*
X96500000Y85714286D01*
X96428571Y85857143D01*
X96428571Y86214286D01*
X96500000Y86357143D01*
X96571429Y86428572D01*
X96714286Y86500000D01*
X96857143Y86500000D01*
X97071429Y86428572D01*
X97928571Y85571429D01*
X97928571Y86500000D01*
X96428571Y86928571D02*
X97928571Y87428571D01*
X96428571Y87928571D01*
X50607143Y124571429D02*
X50607143Y126071429D01*
X51178571Y126071429D01*
X51321429Y126000000D01*
X51392857Y125928571D01*
X51464286Y125785714D01*
X51464286Y125571429D01*
X51392857Y125428571D01*
X51321429Y125357143D01*
X51178571Y125285714D01*
X50607143Y125285714D01*
X50571429Y129571429D02*
X50571429Y131071429D01*
X51428572Y129571429D01*
X51428572Y131071429D01*
D12*
X56250000Y33250000D02*
G75*
G03X56250000Y33250000I-250000J0D01*
G01*
X89500000Y26500000D02*
G75*
G03X89500000Y26500000I-250000J0D01*
G01*
X51250000Y26500000D02*
G75*
G03X51250000Y26500000I-250000J0D01*
G01*
X52000000Y48000000D02*
X52000000Y46000000D01*
X51000000Y47000000D02*
X53000000Y47000000D01*
D10*
X79800000Y31400000D02*
X79200000Y31400000D01*
X79500000Y31300000D02*
X79800000Y31000000D01*
X79200000Y31000000D02*
X79500000Y31300000D01*
X79800000Y31000000D02*
X79200000Y31000000D01*
X80100000Y30000000D02*
X80100000Y32000000D01*
X78900000Y30000000D02*
X80100000Y30000000D01*
X78900000Y32000000D02*
X78900000Y30000000D01*
X80100000Y32000000D02*
X78900000Y32000000D01*
X87250000Y30250000D02*
G75*
G03X87250000Y30250000I-250000J0D01*
G01*
X87450000Y39300000D02*
X87450000Y29700000D01*
X83050000Y39300000D02*
X87450000Y39300000D01*
X83050000Y29700000D02*
X83050000Y39300000D01*
X87450000Y29700000D02*
X83050000Y29700000D01*
X71357143Y58447619D02*
X71928572Y58447619D01*
X71642857Y57447619D02*
X71642857Y58447619D01*
X72261905Y57447619D02*
X72261905Y58447619D01*
X72642858Y58447619D01*
X72738096Y58400000D01*
X72785715Y58352381D01*
X72833334Y58257143D01*
X72833334Y58114286D01*
X72785715Y58019048D01*
X72738096Y57971429D01*
X72642858Y57923810D01*
X72261905Y57923810D01*
X73214286Y57495238D02*
X73357143Y57447619D01*
X73595239Y57447619D01*
X73690477Y57495238D01*
X73738096Y57542857D01*
X73785715Y57638095D01*
X73785715Y57733333D01*
X73738096Y57828571D01*
X73690477Y57876190D01*
X73595239Y57923810D01*
X73404762Y57971429D01*
X73309524Y58019048D01*
X73261905Y58066667D01*
X73214286Y58161905D01*
X73214286Y58257143D01*
X73261905Y58352381D01*
X73309524Y58400000D01*
X73404762Y58447619D01*
X73642858Y58447619D01*
X73785715Y58400000D01*
X74642858Y58447619D02*
X74452381Y58447619D01*
X74357143Y58400000D01*
X74309524Y58352381D01*
X74214286Y58209524D01*
X74166667Y58019048D01*
X74166667Y57638095D01*
X74214286Y57542857D01*
X74261905Y57495238D01*
X74357143Y57447619D01*
X74547620Y57447619D01*
X74642858Y57495238D01*
X74690477Y57542857D01*
X74738096Y57638095D01*
X74738096Y57876190D01*
X74690477Y57971429D01*
X74642858Y58019048D01*
X74547620Y58066667D01*
X74357143Y58066667D01*
X74261905Y58019048D01*
X74214286Y57971429D01*
X74166667Y57876190D01*
X75119048Y58352381D02*
X75166667Y58400000D01*
X75261905Y58447619D01*
X75500001Y58447619D01*
X75595239Y58400000D01*
X75642858Y58352381D01*
X75690477Y58257143D01*
X75690477Y58161905D01*
X75642858Y58019048D01*
X75071429Y57447619D01*
X75690477Y57447619D01*
X76642858Y57447619D02*
X76071429Y57447619D01*
X76357143Y57447619D02*
X76357143Y58447619D01*
X76261905Y58304762D01*
X76166667Y58209524D01*
X76071429Y58161905D01*
X76976191Y58447619D02*
X77642858Y58447619D01*
X77214286Y57447619D01*
X77976191Y58352381D02*
X78023810Y58400000D01*
X78119048Y58447619D01*
X78357144Y58447619D01*
X78452382Y58400000D01*
X78500001Y58352381D01*
X78547620Y58257143D01*
X78547620Y58161905D01*
X78500001Y58019048D01*
X77928572Y57447619D01*
X78547620Y57447619D01*
X79559524Y124892857D02*
X79511905Y124845238D01*
X79369048Y124797619D01*
X79273810Y124797619D01*
X79130952Y124845238D01*
X79035714Y124940476D01*
X78988095Y125035714D01*
X78940476Y125226190D01*
X78940476Y125369048D01*
X78988095Y125559524D01*
X79035714Y125654762D01*
X79130952Y125750000D01*
X79273810Y125797619D01*
X79369048Y125797619D01*
X79511905Y125750000D01*
X79559524Y125702381D01*
X73585714Y44861905D02*
X73623809Y44900000D01*
X73700000Y44938095D01*
X73890476Y44938095D01*
X73966666Y44900000D01*
X74004762Y44861905D01*
X74042857Y44785714D01*
X74042857Y44709524D01*
X74004762Y44595238D01*
X73547619Y44138095D01*
X74042857Y44138095D01*
X74347619Y44861905D02*
X74385714Y44900000D01*
X74461905Y44938095D01*
X74652381Y44938095D01*
X74728571Y44900000D01*
X74766667Y44861905D01*
X74804762Y44785714D01*
X74804762Y44709524D01*
X74766667Y44595238D01*
X74309524Y44138095D01*
X74804762Y44138095D01*
X75490476Y44671429D02*
X75490476Y44138095D01*
X75147619Y44671429D02*
X75147619Y44252381D01*
X75185714Y44176190D01*
X75261905Y44138095D01*
X75376191Y44138095D01*
X75452381Y44176190D01*
X75490476Y44214286D01*
X76138096Y44557143D02*
X75871429Y44557143D01*
X75871429Y44138095D02*
X75871429Y44938095D01*
X76252382Y44938095D01*
X69366667Y60747619D02*
X68795238Y60747619D01*
X69080952Y60747619D02*
X69080952Y61747619D01*
X68985714Y61604762D01*
X68890476Y61509524D01*
X68795238Y61461905D01*
X69985714Y61747619D02*
X70080953Y61747619D01*
X70176191Y61700000D01*
X70223810Y61652381D01*
X70271429Y61557143D01*
X70319048Y61366667D01*
X70319048Y61128571D01*
X70271429Y60938095D01*
X70223810Y60842857D01*
X70176191Y60795238D01*
X70080953Y60747619D01*
X69985714Y60747619D01*
X69890476Y60795238D01*
X69842857Y60842857D01*
X69795238Y60938095D01*
X69747619Y61128571D01*
X69747619Y61366667D01*
X69795238Y61557143D01*
X69842857Y61652381D01*
X69890476Y61700000D01*
X69985714Y61747619D01*
X71176191Y61414286D02*
X71176191Y60747619D01*
X70747619Y61414286D02*
X70747619Y60890476D01*
X70795238Y60795238D01*
X70890476Y60747619D01*
X71033334Y60747619D01*
X71128572Y60795238D01*
X71176191Y60842857D01*
X71985715Y61271429D02*
X71652381Y61271429D01*
X71652381Y60747619D02*
X71652381Y61747619D01*
X72128572Y61747619D01*
X73795239Y60747619D02*
X73223810Y60747619D01*
X73509524Y60747619D02*
X73509524Y61747619D01*
X73414286Y61604762D01*
X73319048Y61509524D01*
X73223810Y61461905D01*
X74176191Y61652381D02*
X74223810Y61700000D01*
X74319048Y61747619D01*
X74557144Y61747619D01*
X74652382Y61700000D01*
X74700001Y61652381D01*
X74747620Y61557143D01*
X74747620Y61461905D01*
X74700001Y61319048D01*
X74128572Y60747619D01*
X74747620Y60747619D01*
X75033334Y61747619D02*
X75366667Y60747619D01*
X75700001Y61747619D01*
X61190477Y122321429D02*
X60857143Y122321429D01*
X60857143Y121797619D02*
X60857143Y122797619D01*
X61333334Y122797619D01*
X61714286Y122797619D02*
X61714286Y121988095D01*
X61761905Y121892857D01*
X61809524Y121845238D01*
X61904762Y121797619D01*
X62095239Y121797619D01*
X62190477Y121845238D01*
X62238096Y121892857D01*
X62285715Y121988095D01*
X62285715Y122797619D01*
X62714286Y121845238D02*
X62857143Y121797619D01*
X63095239Y121797619D01*
X63190477Y121845238D01*
X63238096Y121892857D01*
X63285715Y121988095D01*
X63285715Y122083333D01*
X63238096Y122178571D01*
X63190477Y122226190D01*
X63095239Y122273810D01*
X62904762Y122321429D01*
X62809524Y122369048D01*
X62761905Y122416667D01*
X62714286Y122511905D01*
X62714286Y122607143D01*
X62761905Y122702381D01*
X62809524Y122750000D01*
X62904762Y122797619D01*
X63142858Y122797619D01*
X63285715Y122750000D01*
X63714286Y122321429D02*
X64047620Y122321429D01*
X64190477Y121797619D02*
X63714286Y121797619D01*
X63714286Y122797619D01*
X64190477Y122797619D01*
X67033334Y52466381D02*
X67080953Y52514000D01*
X67176191Y52561619D01*
X67414287Y52561619D01*
X67509525Y52514000D01*
X67557144Y52466381D01*
X67604763Y52371143D01*
X67604763Y52275905D01*
X67557144Y52133048D01*
X66985715Y51561619D01*
X67604763Y51561619D01*
X68033334Y51656857D02*
X68080953Y51609238D01*
X68033334Y51561619D01*
X67985715Y51609238D01*
X68033334Y51656857D01*
X68033334Y51561619D01*
X68461905Y52466381D02*
X68509524Y52514000D01*
X68604762Y52561619D01*
X68842858Y52561619D01*
X68938096Y52514000D01*
X68985715Y52466381D01*
X69033334Y52371143D01*
X69033334Y52275905D01*
X68985715Y52133048D01*
X68414286Y51561619D01*
X69033334Y51561619D01*
X69461905Y52228286D02*
X70223810Y51942571D01*
X69461905Y51656857D01*
X70604762Y52561619D02*
X71223810Y52561619D01*
X70890476Y52180667D01*
X71033334Y52180667D01*
X71128572Y52133048D01*
X71176191Y52085429D01*
X71223810Y51990190D01*
X71223810Y51752095D01*
X71176191Y51656857D01*
X71128572Y51609238D01*
X71033334Y51561619D01*
X70747619Y51561619D01*
X70652381Y51609238D01*
X70604762Y51656857D01*
X71652381Y51656857D02*
X71700000Y51609238D01*
X71652381Y51561619D01*
X71604762Y51609238D01*
X71652381Y51656857D01*
X71652381Y51561619D01*
X72033333Y52561619D02*
X72652381Y52561619D01*
X72319047Y52180667D01*
X72461905Y52180667D01*
X72557143Y52133048D01*
X72604762Y52085429D01*
X72652381Y51990190D01*
X72652381Y51752095D01*
X72604762Y51656857D01*
X72557143Y51609238D01*
X72461905Y51561619D01*
X72176190Y51561619D01*
X72080952Y51609238D01*
X72033333Y51656857D01*
X73509524Y52228286D02*
X73509524Y51561619D01*
X73080952Y52228286D02*
X73080952Y51704476D01*
X73128571Y51609238D01*
X73223809Y51561619D01*
X73366667Y51561619D01*
X73461905Y51609238D01*
X73509524Y51656857D01*
X73985714Y51561619D02*
X73985714Y52561619D01*
X73985714Y52085429D02*
X74557143Y52085429D01*
X74557143Y51561619D02*
X74557143Y52561619D01*
X81642857Y93047619D02*
X81642857Y94047619D01*
X82214286Y93047619D01*
X82214286Y94047619D01*
X82690476Y93047619D02*
X82690476Y94047619D01*
X83023810Y93333333D01*
X83357143Y94047619D01*
X83357143Y93047619D01*
X84023809Y94047619D02*
X84214286Y94047619D01*
X84309524Y94000000D01*
X84404762Y93904762D01*
X84452381Y93714286D01*
X84452381Y93380952D01*
X84404762Y93190476D01*
X84309524Y93095238D01*
X84214286Y93047619D01*
X84023809Y93047619D01*
X83928571Y93095238D01*
X83833333Y93190476D01*
X83785714Y93380952D01*
X83785714Y93714286D01*
X83833333Y93904762D01*
X83928571Y94000000D01*
X84023809Y94047619D01*
X84833333Y93095238D02*
X84976190Y93047619D01*
X85214286Y93047619D01*
X85309524Y93095238D01*
X85357143Y93142857D01*
X85404762Y93238095D01*
X85404762Y93333333D01*
X85357143Y93428571D01*
X85309524Y93476190D01*
X85214286Y93523810D01*
X85023809Y93571429D01*
X84928571Y93619048D01*
X84880952Y93666667D01*
X84833333Y93761905D01*
X84833333Y93857143D01*
X84880952Y93952381D01*
X84928571Y94000000D01*
X85023809Y94047619D01*
X85261905Y94047619D01*
X85404762Y94000000D01*
X81892857Y81047619D02*
X81892857Y82047619D01*
X82464286Y81047619D01*
X82464286Y82047619D01*
X82940476Y81047619D02*
X82940476Y82047619D01*
X83273810Y81333333D01*
X83607143Y82047619D01*
X83607143Y81047619D01*
X84273809Y82047619D02*
X84464286Y82047619D01*
X84559524Y82000000D01*
X84654762Y81904762D01*
X84702381Y81714286D01*
X84702381Y81380952D01*
X84654762Y81190476D01*
X84559524Y81095238D01*
X84464286Y81047619D01*
X84273809Y81047619D01*
X84178571Y81095238D01*
X84083333Y81190476D01*
X84035714Y81380952D01*
X84035714Y81714286D01*
X84083333Y81904762D01*
X84178571Y82000000D01*
X84273809Y82047619D01*
X85083333Y81095238D02*
X85226190Y81047619D01*
X85464286Y81047619D01*
X85559524Y81095238D01*
X85607143Y81142857D01*
X85654762Y81238095D01*
X85654762Y81333333D01*
X85607143Y81428571D01*
X85559524Y81476190D01*
X85464286Y81523810D01*
X85273809Y81571429D01*
X85178571Y81619048D01*
X85130952Y81666667D01*
X85083333Y81761905D01*
X85083333Y81857143D01*
X85130952Y81952381D01*
X85178571Y82000000D01*
X85273809Y82047619D01*
X85511905Y82047619D01*
X85654762Y82000000D01*
X67452381Y127166667D02*
X68452381Y127500000D01*
X67452381Y127833334D01*
X68452381Y128738096D02*
X67976190Y128404762D01*
X68452381Y128166667D02*
X67452381Y128166667D01*
X67452381Y128547620D01*
X67500000Y128642858D01*
X67547619Y128690477D01*
X67642857Y128738096D01*
X67785714Y128738096D01*
X67880952Y128690477D01*
X67928571Y128642858D01*
X67976190Y128547620D01*
X67976190Y128166667D01*
X67795238Y44661905D02*
X67833333Y44700000D01*
X67909524Y44738095D01*
X68100000Y44738095D01*
X68176190Y44700000D01*
X68214286Y44661905D01*
X68252381Y44585714D01*
X68252381Y44509524D01*
X68214286Y44395238D01*
X67757143Y43938095D01*
X68252381Y43938095D01*
X68595238Y44014286D02*
X68633333Y43976190D01*
X68595238Y43938095D01*
X68557143Y43976190D01*
X68595238Y44014286D01*
X68595238Y43938095D01*
X68938095Y44661905D02*
X68976190Y44700000D01*
X69052381Y44738095D01*
X69242857Y44738095D01*
X69319047Y44700000D01*
X69357143Y44661905D01*
X69395238Y44585714D01*
X69395238Y44509524D01*
X69357143Y44395238D01*
X68900000Y43938095D01*
X69395238Y43938095D01*
X70080952Y44471429D02*
X70080952Y43938095D01*
X69738095Y44471429D02*
X69738095Y44052381D01*
X69776190Y43976190D01*
X69852381Y43938095D01*
X69966667Y43938095D01*
X70042857Y43976190D01*
X70080952Y44014286D01*
X70728572Y44357143D02*
X70461905Y44357143D01*
X70461905Y43938095D02*
X70461905Y44738095D01*
X70842858Y44738095D01*
X82461905Y25561905D02*
X82461905Y25104762D01*
X82461905Y25333333D02*
X81661905Y25333333D01*
X81776190Y25257143D01*
X81852381Y25180952D01*
X81890476Y25104762D01*
X81661905Y26057143D02*
X81661905Y26133334D01*
X81700000Y26209524D01*
X81738095Y26247619D01*
X81814286Y26285715D01*
X81966667Y26323810D01*
X82157143Y26323810D01*
X82309524Y26285715D01*
X82385714Y26247619D01*
X82423810Y26209524D01*
X82461905Y26133334D01*
X82461905Y26057143D01*
X82423810Y25980953D01*
X82385714Y25942857D01*
X82309524Y25904762D01*
X82157143Y25866667D01*
X81966667Y25866667D01*
X81814286Y25904762D01*
X81738095Y25942857D01*
X81700000Y25980953D01*
X81661905Y26057143D01*
X81661905Y26819048D02*
X81661905Y26895239D01*
X81700000Y26971429D01*
X81738095Y27009524D01*
X81814286Y27047620D01*
X81966667Y27085715D01*
X82157143Y27085715D01*
X82309524Y27047620D01*
X82385714Y27009524D01*
X82423810Y26971429D01*
X82461905Y26895239D01*
X82461905Y26819048D01*
X82423810Y26742858D01*
X82385714Y26704762D01*
X82309524Y26666667D01*
X82157143Y26628572D01*
X81966667Y26628572D01*
X81814286Y26666667D01*
X81738095Y26704762D01*
X81700000Y26742858D01*
X81661905Y26819048D01*
X81928571Y27428572D02*
X82461905Y27428572D01*
X82004762Y27428572D02*
X81966667Y27466667D01*
X81928571Y27542858D01*
X81928571Y27657144D01*
X81966667Y27733334D01*
X82042857Y27771429D01*
X82461905Y27771429D01*
X82042857Y28419049D02*
X82042857Y28152382D01*
X82461905Y28152382D02*
X81661905Y28152382D01*
X81661905Y28533335D01*
X80611905Y33321428D02*
X80611905Y32978571D01*
X80611905Y33149999D02*
X79811905Y33149999D01*
X79926190Y33092856D01*
X80002381Y33035714D01*
X80040476Y32978571D01*
X79811905Y33692857D02*
X79811905Y33750000D01*
X79850000Y33807143D01*
X79888095Y33835714D01*
X79964286Y33864285D01*
X80116667Y33892857D01*
X80307143Y33892857D01*
X80459524Y33864285D01*
X80535714Y33835714D01*
X80573810Y33807143D01*
X80611905Y33750000D01*
X80611905Y33692857D01*
X80573810Y33635714D01*
X80535714Y33607143D01*
X80459524Y33578571D01*
X80307143Y33550000D01*
X80116667Y33550000D01*
X79964286Y33578571D01*
X79888095Y33607143D01*
X79850000Y33635714D01*
X79811905Y33692857D01*
X79811905Y34264286D02*
X79811905Y34321429D01*
X79850000Y34378572D01*
X79888095Y34407143D01*
X79964286Y34435714D01*
X80116667Y34464286D01*
X80307143Y34464286D01*
X80459524Y34435714D01*
X80535714Y34407143D01*
X80573810Y34378572D01*
X80611905Y34321429D01*
X80611905Y34264286D01*
X80573810Y34207143D01*
X80535714Y34178572D01*
X80459524Y34150000D01*
X80307143Y34121429D01*
X80116667Y34121429D01*
X79964286Y34150000D01*
X79888095Y34178572D01*
X79850000Y34207143D01*
X79811905Y34264286D01*
X80078571Y34721429D02*
X80611905Y34721429D01*
X80154762Y34721429D02*
X80116667Y34750001D01*
X80078571Y34807143D01*
X80078571Y34892858D01*
X80116667Y34950001D01*
X80192857Y34978572D01*
X80611905Y34978572D01*
X80192857Y35464286D02*
X80192857Y35264286D01*
X80611905Y35264286D02*
X79811905Y35264286D01*
X79811905Y35550000D01*
X79952381Y38702381D02*
X79952381Y38130952D01*
X79952381Y38416666D02*
X78952381Y38416666D01*
X79095238Y38321428D01*
X79190476Y38226190D01*
X79238095Y38130952D01*
X78952381Y39321428D02*
X78952381Y39416667D01*
X79000000Y39511905D01*
X79047619Y39559524D01*
X79142857Y39607143D01*
X79333333Y39654762D01*
X79571429Y39654762D01*
X79761905Y39607143D01*
X79857143Y39559524D01*
X79904762Y39511905D01*
X79952381Y39416667D01*
X79952381Y39321428D01*
X79904762Y39226190D01*
X79857143Y39178571D01*
X79761905Y39130952D01*
X79571429Y39083333D01*
X79333333Y39083333D01*
X79142857Y39130952D01*
X79047619Y39178571D01*
X79000000Y39226190D01*
X78952381Y39321428D01*
X78952381Y40273809D02*
X78952381Y40369048D01*
X79000000Y40464286D01*
X79047619Y40511905D01*
X79142857Y40559524D01*
X79333333Y40607143D01*
X79571429Y40607143D01*
X79761905Y40559524D01*
X79857143Y40511905D01*
X79904762Y40464286D01*
X79952381Y40369048D01*
X79952381Y40273809D01*
X79904762Y40178571D01*
X79857143Y40130952D01*
X79761905Y40083333D01*
X79571429Y40035714D01*
X79333333Y40035714D01*
X79142857Y40083333D01*
X79047619Y40130952D01*
X79000000Y40178571D01*
X78952381Y40273809D01*
X79285714Y41035714D02*
X79952381Y41035714D01*
X79380952Y41035714D02*
X79333333Y41083333D01*
X79285714Y41178571D01*
X79285714Y41321429D01*
X79333333Y41416667D01*
X79428571Y41464286D01*
X79952381Y41464286D01*
X79428571Y42273810D02*
X79428571Y41940476D01*
X79952381Y41940476D02*
X78952381Y41940476D01*
X78952381Y42416667D01*
X81252381Y42047619D02*
X80680952Y42047619D01*
X80966666Y42047619D02*
X80966666Y43047619D01*
X80871428Y42904762D01*
X80776190Y42809524D01*
X80680952Y42761905D01*
X81871428Y43047619D02*
X81966667Y43047619D01*
X82061905Y43000000D01*
X82109524Y42952381D01*
X82157143Y42857143D01*
X82204762Y42666667D01*
X82204762Y42428571D01*
X82157143Y42238095D01*
X82109524Y42142857D01*
X82061905Y42095238D01*
X81966667Y42047619D01*
X81871428Y42047619D01*
X81776190Y42095238D01*
X81728571Y42142857D01*
X81680952Y42238095D01*
X81633333Y42428571D01*
X81633333Y42666667D01*
X81680952Y42857143D01*
X81728571Y42952381D01*
X81776190Y43000000D01*
X81871428Y43047619D01*
X82823809Y43047619D02*
X82919048Y43047619D01*
X83014286Y43000000D01*
X83061905Y42952381D01*
X83109524Y42857143D01*
X83157143Y42666667D01*
X83157143Y42428571D01*
X83109524Y42238095D01*
X83061905Y42142857D01*
X83014286Y42095238D01*
X82919048Y42047619D01*
X82823809Y42047619D01*
X82728571Y42095238D01*
X82680952Y42142857D01*
X82633333Y42238095D01*
X82585714Y42428571D01*
X82585714Y42666667D01*
X82633333Y42857143D01*
X82680952Y42952381D01*
X82728571Y43000000D01*
X82823809Y43047619D01*
X83585714Y42714286D02*
X83585714Y42047619D01*
X83585714Y42619048D02*
X83633333Y42666667D01*
X83728571Y42714286D01*
X83871429Y42714286D01*
X83966667Y42666667D01*
X84014286Y42571429D01*
X84014286Y42047619D01*
X84823810Y42571429D02*
X84490476Y42571429D01*
X84490476Y42047619D02*
X84490476Y43047619D01*
X84966667Y43047619D01*
X70904762Y41047619D02*
X70333333Y41047619D01*
X70619047Y41047619D02*
X70619047Y42047619D01*
X70523809Y41904762D01*
X70428571Y41809524D01*
X70333333Y41761905D01*
X71523809Y42047619D02*
X71619048Y42047619D01*
X71714286Y42000000D01*
X71761905Y41952381D01*
X71809524Y41857143D01*
X71857143Y41666667D01*
X71857143Y41428571D01*
X71809524Y41238095D01*
X71761905Y41142857D01*
X71714286Y41095238D01*
X71619048Y41047619D01*
X71523809Y41047619D01*
X71428571Y41095238D01*
X71380952Y41142857D01*
X71333333Y41238095D01*
X71285714Y41428571D01*
X71285714Y41666667D01*
X71333333Y41857143D01*
X71380952Y41952381D01*
X71428571Y42000000D01*
X71523809Y42047619D01*
X72285714Y41047619D02*
X72285714Y42047619D01*
X72380952Y41428571D02*
X72666667Y41047619D01*
X72666667Y41714286D02*
X72285714Y41333333D01*
X76961905Y35542857D02*
X76961905Y35200000D01*
X76961905Y35371428D02*
X76161905Y35371428D01*
X76276190Y35314285D01*
X76352381Y35257143D01*
X76390476Y35200000D01*
X76161905Y35914286D02*
X76161905Y35971429D01*
X76200000Y36028572D01*
X76238095Y36057143D01*
X76314286Y36085714D01*
X76466667Y36114286D01*
X76657143Y36114286D01*
X76809524Y36085714D01*
X76885714Y36057143D01*
X76923810Y36028572D01*
X76961905Y35971429D01*
X76961905Y35914286D01*
X76923810Y35857143D01*
X76885714Y35828572D01*
X76809524Y35800000D01*
X76657143Y35771429D01*
X76466667Y35771429D01*
X76314286Y35800000D01*
X76238095Y35828572D01*
X76200000Y35857143D01*
X76161905Y35914286D01*
X76961905Y36371429D02*
X76161905Y36371429D01*
X76657143Y36428572D02*
X76961905Y36600001D01*
X76428571Y36600001D02*
X76733333Y36371429D01*
X51452381Y42309524D02*
X50976190Y41976190D01*
X51452381Y41738095D02*
X50452381Y41738095D01*
X50452381Y42119048D01*
X50500000Y42214286D01*
X50547619Y42261905D01*
X50642857Y42309524D01*
X50785714Y42309524D01*
X50880952Y42261905D01*
X50928571Y42214286D01*
X50976190Y42119048D01*
X50976190Y41738095D01*
X73423810Y34638095D02*
X72966667Y34638095D01*
X73195238Y34638095D02*
X73195238Y35438095D01*
X73119048Y35323810D01*
X73042857Y35247619D01*
X72966667Y35209524D01*
X73919048Y35438095D02*
X73995239Y35438095D01*
X74071429Y35400000D01*
X74109524Y35361905D01*
X74147620Y35285714D01*
X74185715Y35133333D01*
X74185715Y34942857D01*
X74147620Y34790476D01*
X74109524Y34714286D01*
X74071429Y34676190D01*
X73995239Y34638095D01*
X73919048Y34638095D01*
X73842858Y34676190D01*
X73804762Y34714286D01*
X73766667Y34790476D01*
X73728572Y34942857D01*
X73728572Y35133333D01*
X73766667Y35285714D01*
X73804762Y35361905D01*
X73842858Y35400000D01*
X73919048Y35438095D01*
X74528572Y34638095D02*
X74528572Y35438095D01*
X74604763Y34942857D02*
X74833334Y34638095D01*
X74833334Y35171429D02*
X74528572Y34866667D01*
X75516666Y30638095D02*
X75116666Y30638095D01*
X75316666Y30638095D02*
X75316666Y31438095D01*
X75250000Y31323810D01*
X75183333Y31247619D01*
X75116666Y31209524D01*
X75950000Y31438095D02*
X76016667Y31438095D01*
X76083333Y31400000D01*
X76116667Y31361905D01*
X76150000Y31285714D01*
X76183333Y31133333D01*
X76183333Y30942857D01*
X76150000Y30790476D01*
X76116667Y30714286D01*
X76083333Y30676190D01*
X76016667Y30638095D01*
X75950000Y30638095D01*
X75883333Y30676190D01*
X75850000Y30714286D01*
X75816667Y30790476D01*
X75783333Y30942857D01*
X75783333Y31133333D01*
X75816667Y31285714D01*
X75850000Y31361905D01*
X75883333Y31400000D01*
X75950000Y31438095D01*
X76483334Y30638095D02*
X76483334Y31438095D01*
X76883334Y30638095D02*
X76583334Y31095238D01*
X76883334Y31438095D02*
X76483334Y30980952D01*
X81742857Y29761905D02*
X81780952Y29800000D01*
X81857143Y29838095D01*
X82047619Y29838095D01*
X82123809Y29800000D01*
X82161905Y29761905D01*
X82200000Y29685714D01*
X82200000Y29609524D01*
X82161905Y29495238D01*
X81704762Y29038095D01*
X82200000Y29038095D01*
X82542857Y29114286D02*
X82580952Y29076190D01*
X82542857Y29038095D01*
X82504762Y29076190D01*
X82542857Y29114286D01*
X82542857Y29038095D01*
X82885714Y29761905D02*
X82923809Y29800000D01*
X83000000Y29838095D01*
X83190476Y29838095D01*
X83266666Y29800000D01*
X83304762Y29761905D01*
X83342857Y29685714D01*
X83342857Y29609524D01*
X83304762Y29495238D01*
X82847619Y29038095D01*
X83342857Y29038095D01*
X83685714Y29038095D02*
X83685714Y29838095D01*
X83952381Y29266667D01*
X84219048Y29838095D01*
X84219048Y29038095D01*
X79861905Y25771429D02*
X79861905Y25314286D01*
X79861905Y25542857D02*
X79061905Y25542857D01*
X79176190Y25466667D01*
X79252381Y25390476D01*
X79290476Y25314286D01*
X79861905Y26114286D02*
X79061905Y26114286D01*
X79633333Y26380953D01*
X79061905Y26647620D01*
X79861905Y26647620D01*
X85952381Y30047619D02*
X84952381Y30047619D01*
X84952381Y30428572D01*
X85000000Y30523810D01*
X85047619Y30571429D01*
X85142857Y30619048D01*
X85285714Y30619048D01*
X85380952Y30571429D01*
X85428571Y30523810D01*
X85476190Y30428572D01*
X85476190Y30047619D01*
X85857143Y31619048D02*
X85904762Y31571429D01*
X85952381Y31428572D01*
X85952381Y31333334D01*
X85904762Y31190476D01*
X85809524Y31095238D01*
X85714286Y31047619D01*
X85523810Y31000000D01*
X85380952Y31000000D01*
X85190476Y31047619D01*
X85095238Y31095238D01*
X85000000Y31190476D01*
X84952381Y31333334D01*
X84952381Y31428572D01*
X85000000Y31571429D01*
X85047619Y31619048D01*
X85428571Y32380953D02*
X85428571Y32047619D01*
X85952381Y32047619D02*
X84952381Y32047619D01*
X84952381Y32523810D01*
X85380952Y33047619D02*
X85333333Y32952381D01*
X85285714Y32904762D01*
X85190476Y32857143D01*
X85142857Y32857143D01*
X85047619Y32904762D01*
X85000000Y32952381D01*
X84952381Y33047619D01*
X84952381Y33238096D01*
X85000000Y33333334D01*
X85047619Y33380953D01*
X85142857Y33428572D01*
X85190476Y33428572D01*
X85285714Y33380953D01*
X85333333Y33333334D01*
X85380952Y33238096D01*
X85380952Y33047619D01*
X85428571Y32952381D01*
X85476190Y32904762D01*
X85571429Y32857143D01*
X85761905Y32857143D01*
X85857143Y32904762D01*
X85904762Y32952381D01*
X85952381Y33047619D01*
X85952381Y33238096D01*
X85904762Y33333334D01*
X85857143Y33380953D01*
X85761905Y33428572D01*
X85571429Y33428572D01*
X85476190Y33380953D01*
X85428571Y33333334D01*
X85380952Y33238096D01*
X85380952Y34000000D02*
X85333333Y33904762D01*
X85285714Y33857143D01*
X85190476Y33809524D01*
X85142857Y33809524D01*
X85047619Y33857143D01*
X85000000Y33904762D01*
X84952381Y34000000D01*
X84952381Y34190477D01*
X85000000Y34285715D01*
X85047619Y34333334D01*
X85142857Y34380953D01*
X85190476Y34380953D01*
X85285714Y34333334D01*
X85333333Y34285715D01*
X85380952Y34190477D01*
X85380952Y34000000D01*
X85428571Y33904762D01*
X85476190Y33857143D01*
X85571429Y33809524D01*
X85761905Y33809524D01*
X85857143Y33857143D01*
X85904762Y33904762D01*
X85952381Y34000000D01*
X85952381Y34190477D01*
X85904762Y34285715D01*
X85857143Y34333334D01*
X85761905Y34380953D01*
X85571429Y34380953D01*
X85476190Y34333334D01*
X85428571Y34285715D01*
X85380952Y34190477D01*
X85380952Y34952381D02*
X85333333Y34857143D01*
X85285714Y34809524D01*
X85190476Y34761905D01*
X85142857Y34761905D01*
X85047619Y34809524D01*
X85000000Y34857143D01*
X84952381Y34952381D01*
X84952381Y35142858D01*
X85000000Y35238096D01*
X85047619Y35285715D01*
X85142857Y35333334D01*
X85190476Y35333334D01*
X85285714Y35285715D01*
X85333333Y35238096D01*
X85380952Y35142858D01*
X85380952Y34952381D01*
X85428571Y34857143D01*
X85476190Y34809524D01*
X85571429Y34761905D01*
X85761905Y34761905D01*
X85857143Y34809524D01*
X85904762Y34857143D01*
X85952381Y34952381D01*
X85952381Y35142858D01*
X85904762Y35238096D01*
X85857143Y35285715D01*
X85761905Y35333334D01*
X85571429Y35333334D01*
X85476190Y35285715D01*
X85428571Y35238096D01*
X85380952Y35142858D01*
X84952381Y36238096D02*
X84952381Y35761905D01*
X85428571Y35714286D01*
X85380952Y35761905D01*
X85333333Y35857143D01*
X85333333Y36095239D01*
X85380952Y36190477D01*
X85428571Y36238096D01*
X85523810Y36285715D01*
X85761905Y36285715D01*
X85857143Y36238096D01*
X85904762Y36190477D01*
X85952381Y36095239D01*
X85952381Y35857143D01*
X85904762Y35761905D01*
X85857143Y35714286D01*
X84952381Y36571429D02*
X84952381Y37142858D01*
X85952381Y36857143D02*
X84952381Y36857143D01*
X85904762Y37428572D02*
X85952381Y37571429D01*
X85952381Y37809525D01*
X85904762Y37904763D01*
X85857143Y37952382D01*
X85761905Y38000001D01*
X85666667Y38000001D01*
X85571429Y37952382D01*
X85523810Y37904763D01*
X85476190Y37809525D01*
X85428571Y37619048D01*
X85380952Y37523810D01*
X85333333Y37476191D01*
X85238095Y37428572D01*
X85142857Y37428572D01*
X85047619Y37476191D01*
X85000000Y37523810D01*
X84952381Y37619048D01*
X84952381Y37857144D01*
X85000000Y38000001D01*
X66952381Y55214286D02*
X66952381Y54642857D01*
X66952381Y54928571D02*
X65952381Y54928571D01*
X66095238Y54833333D01*
X66190476Y54738095D01*
X66238095Y54642857D01*
X66952381Y55642857D02*
X65952381Y55642857D01*
X66666667Y55976191D01*
X65952381Y56309524D01*
X66952381Y56309524D01*
X65952381Y56909524D02*
X65952381Y57528572D01*
X66333333Y57195238D01*
X66333333Y57338096D01*
X66380952Y57433334D01*
X66428571Y57480953D01*
X66523810Y57528572D01*
X66761905Y57528572D01*
X66857143Y57480953D01*
X66904762Y57433334D01*
X66952381Y57338096D01*
X66952381Y57052381D01*
X66904762Y56957143D01*
X66857143Y56909524D01*
X66380952Y58100000D02*
X66333333Y58004762D01*
X66285714Y57957143D01*
X66190476Y57909524D01*
X66142857Y57909524D01*
X66047619Y57957143D01*
X66000000Y58004762D01*
X65952381Y58100000D01*
X65952381Y58290477D01*
X66000000Y58385715D01*
X66047619Y58433334D01*
X66142857Y58480953D01*
X66190476Y58480953D01*
X66285714Y58433334D01*
X66333333Y58385715D01*
X66380952Y58290477D01*
X66380952Y58100000D01*
X66428571Y58004762D01*
X66476190Y57957143D01*
X66571429Y57909524D01*
X66761905Y57909524D01*
X66857143Y57957143D01*
X66904762Y58004762D01*
X66952381Y58100000D01*
X66952381Y58290477D01*
X66904762Y58385715D01*
X66857143Y58433334D01*
X66761905Y58480953D01*
X66571429Y58480953D01*
X66476190Y58433334D01*
X66428571Y58385715D01*
X66380952Y58290477D01*
X65952381Y59100000D02*
X65952381Y59195239D01*
X66000000Y59290477D01*
X66047619Y59338096D01*
X66142857Y59385715D01*
X66333333Y59433334D01*
X66571429Y59433334D01*
X66761905Y59385715D01*
X66857143Y59338096D01*
X66904762Y59290477D01*
X66952381Y59195239D01*
X66952381Y59100000D01*
X66904762Y59004762D01*
X66857143Y58957143D01*
X66761905Y58909524D01*
X66571429Y58861905D01*
X66333333Y58861905D01*
X66142857Y58909524D01*
X66047619Y58957143D01*
X66000000Y59004762D01*
X65952381Y59100000D01*
X66952381Y59861905D02*
X65952381Y59861905D01*
X66571429Y59957143D02*
X66952381Y60242858D01*
X66285714Y60242858D02*
X66666667Y59861905D01*
X77561905Y34961905D02*
X77561905Y35038096D01*
X77600000Y35114286D01*
X77638095Y35152381D01*
X77714286Y35190477D01*
X77866667Y35228572D01*
X78057143Y35228572D01*
X78209524Y35190477D01*
X78285714Y35152381D01*
X78323810Y35114286D01*
X78361905Y35038096D01*
X78361905Y34961905D01*
X78323810Y34885715D01*
X78285714Y34847619D01*
X78209524Y34809524D01*
X78057143Y34771429D01*
X77866667Y34771429D01*
X77714286Y34809524D01*
X77638095Y34847619D01*
X77600000Y34885715D01*
X77561905Y34961905D01*
X78261905Y27071429D02*
X77461905Y27071429D01*
X78261905Y27528572D01*
X77461905Y27528572D01*
X78185714Y28366667D02*
X78223810Y28328572D01*
X78261905Y28214286D01*
X78261905Y28138096D01*
X78223810Y28023810D01*
X78147619Y27947619D01*
X78071429Y27909524D01*
X77919048Y27871429D01*
X77804762Y27871429D01*
X77652381Y27909524D01*
X77576190Y27947619D01*
X77500000Y28023810D01*
X77461905Y28138096D01*
X77461905Y28214286D01*
X77500000Y28328572D01*
X77538095Y28366667D01*
M02*
