M48
;DRILL file {KiCad 4.0.4+dfsg2-stable} date Tue Jan 17 01:22:04 2017
;FORMAT={-:-/ absolute / inch / decimal}
FMAT,2
INCH,TZ
T1C0.035
T2C0.039
T3C0.040
T4C0.047
T5C0.060
T6C0.120
T7C0.126
%
G90
G05
M72
T1
X2.6693Y5.126
X2.6693Y4.9291
T2
X2.1654Y1.8465
X2.1654Y1.6935
X3.0217Y1.5961
X3.0217Y1.4961
T3
X2.0827Y1.5433
X2.0827Y1.4433
X2.0827Y1.3433
X2.0827Y1.2433
X2.0827Y1.1433
X2.0827Y1.0433
X2.2047Y1.5898
X2.2047Y1.4898
X2.2047Y1.3898
X3.5906Y1.8433
X3.5906Y1.7433
X3.5906Y1.6433
X3.5906Y1.5433
X3.5906Y1.4433
X3.5906Y1.3433
X3.5906Y1.2433
X3.5906Y1.1433
X3.5906Y1.0433
T4
X1.874Y4.6181
X1.9724Y4.6181
X1.9724Y4.3819
X2.2087Y2.1772
X2.2677Y2.4921
X2.6614Y4.6181
X2.6614Y4.3819
X2.8583Y4.9291
X2.937Y2.7283
X3.0551Y2.4921
X3.1142Y2.1772
X3.1339Y4.6181
X3.1339Y2.7283
X3.3307Y4.9291
X3.3504Y4.6181
X3.3504Y4.3819
X3.4488Y4.6181
T5
X2.1299Y5.1354
X2.1299Y4.9354
X3.685Y3.5921
X3.685Y3.3921
X3.689Y3.0252
X3.689Y2.8252
T6
X3.3661Y1.063
T7
X1.8701Y5.1378
X3.1693Y1.811
X3.7795Y5.1378
T0
M30
