G04 #@! TF.FileFunction,Legend,Top*
%FSLAX46Y46*%
G04 Gerber Fmt 4.6, Leading zero omitted, Abs format (unit mm)*
G04 Created by KiCad (PCBNEW 4.0.0~rc1a-stable) date sam. 21 nov. 2015 23:43:41 CET*
%MOMM*%
G01*
G04 APERTURE LIST*
%ADD10C,0.150000*%
%ADD11C,0.203200*%
%ADD12C,0.101600*%
%ADD13C,0.127000*%
%ADD14C,0.381000*%
%ADD15C,0.304800*%
%ADD16C,0.119380*%
%ADD17C,0.078740*%
%ADD18C,0.190500*%
%ADD19C,0.088900*%
%ADD20C,0.100000*%
%ADD21C,0.120000*%
%ADD22C,0.114300*%
%ADD23C,0.152400*%
%ADD24C,0.129540*%
G04 APERTURE END LIST*
D10*
X94361905Y-63495239D02*
X93561905Y-63495239D01*
X93561905Y-63304763D01*
X93600000Y-63190477D01*
X93676190Y-63114286D01*
X93752381Y-63076191D01*
X93904762Y-63038096D01*
X94019048Y-63038096D01*
X94171429Y-63076191D01*
X94247619Y-63114286D01*
X94323810Y-63190477D01*
X94361905Y-63304763D01*
X94361905Y-63495239D01*
X94361905Y-62580953D02*
X94323810Y-62657144D01*
X94285714Y-62695239D01*
X94209524Y-62733334D01*
X93980952Y-62733334D01*
X93904762Y-62695239D01*
X93866667Y-62657144D01*
X93828571Y-62580953D01*
X93828571Y-62466667D01*
X93866667Y-62390477D01*
X93904762Y-62352382D01*
X93980952Y-62314286D01*
X94209524Y-62314286D01*
X94285714Y-62352382D01*
X94323810Y-62390477D01*
X94361905Y-62466667D01*
X94361905Y-62580953D01*
X94361905Y-61971429D02*
X93828571Y-61971429D01*
X93904762Y-61971429D02*
X93866667Y-61933334D01*
X93828571Y-61857143D01*
X93828571Y-61742857D01*
X93866667Y-61666667D01*
X93942857Y-61628572D01*
X94361905Y-61628572D01*
X93942857Y-61628572D02*
X93866667Y-61590476D01*
X93828571Y-61514286D01*
X93828571Y-61400000D01*
X93866667Y-61323810D01*
X93942857Y-61285715D01*
X94361905Y-61285715D01*
X94361905Y-60790476D02*
X94323810Y-60866667D01*
X94285714Y-60904762D01*
X94209524Y-60942857D01*
X93980952Y-60942857D01*
X93904762Y-60904762D01*
X93866667Y-60866667D01*
X93828571Y-60790476D01*
X93828571Y-60676190D01*
X93866667Y-60600000D01*
X93904762Y-60561905D01*
X93980952Y-60523809D01*
X94209524Y-60523809D01*
X94285714Y-60561905D01*
X94323810Y-60600000D01*
X94361905Y-60676190D01*
X94361905Y-60790476D01*
X93561905Y-59685714D02*
X94361905Y-59419047D01*
X93561905Y-59152380D01*
X93638095Y-58923809D02*
X93600000Y-58885714D01*
X93561905Y-58809523D01*
X93561905Y-58619047D01*
X93600000Y-58542857D01*
X93638095Y-58504761D01*
X93714286Y-58466666D01*
X93790476Y-58466666D01*
X93904762Y-58504761D01*
X94361905Y-58961904D01*
X94361905Y-58466666D01*
X95673810Y-73664287D02*
X95711905Y-73588097D01*
X95711905Y-73435716D01*
X95673810Y-73359525D01*
X95597619Y-73321430D01*
X95559524Y-73321430D01*
X95483333Y-73359525D01*
X95445238Y-73435716D01*
X95445238Y-73550001D01*
X95407143Y-73626192D01*
X95330952Y-73664287D01*
X95292857Y-73664287D01*
X95216667Y-73626192D01*
X95178571Y-73550001D01*
X95178571Y-73435716D01*
X95216667Y-73359525D01*
X95711905Y-72978573D02*
X95178571Y-72978573D01*
X94911905Y-72978573D02*
X94950000Y-73016668D01*
X94988095Y-72978573D01*
X94950000Y-72940478D01*
X94911905Y-72978573D01*
X94988095Y-72978573D01*
X95711905Y-72597621D02*
X95178571Y-72597621D01*
X95254762Y-72597621D02*
X95216667Y-72559526D01*
X95178571Y-72483335D01*
X95178571Y-72369049D01*
X95216667Y-72292859D01*
X95292857Y-72254764D01*
X95711905Y-72254764D01*
X95292857Y-72254764D02*
X95216667Y-72216668D01*
X95178571Y-72140478D01*
X95178571Y-72026192D01*
X95216667Y-71950002D01*
X95292857Y-71911907D01*
X95711905Y-71911907D01*
X95711905Y-71416668D02*
X95673810Y-71492859D01*
X95635714Y-71530954D01*
X95559524Y-71569049D01*
X95330952Y-71569049D01*
X95254762Y-71530954D01*
X95216667Y-71492859D01*
X95178571Y-71416668D01*
X95178571Y-71302382D01*
X95216667Y-71226192D01*
X95254762Y-71188097D01*
X95330952Y-71150001D01*
X95559524Y-71150001D01*
X95635714Y-71188097D01*
X95673810Y-71226192D01*
X95711905Y-71302382D01*
X95711905Y-71416668D01*
X95178571Y-70807144D02*
X95711905Y-70807144D01*
X95254762Y-70807144D02*
X95216667Y-70769049D01*
X95178571Y-70692858D01*
X95178571Y-70578572D01*
X95216667Y-70502382D01*
X95292857Y-70464287D01*
X95711905Y-70464287D01*
X95673810Y-69740477D02*
X95711905Y-69816667D01*
X95711905Y-69969048D01*
X95673810Y-70045239D01*
X95635714Y-70083334D01*
X95559524Y-70121429D01*
X95330952Y-70121429D01*
X95254762Y-70083334D01*
X95216667Y-70045239D01*
X95178571Y-69969048D01*
X95178571Y-69816667D01*
X95216667Y-69740477D01*
X95711905Y-69283334D02*
X95673810Y-69359525D01*
X95635714Y-69397620D01*
X95559524Y-69435715D01*
X95330952Y-69435715D01*
X95254762Y-69397620D01*
X95216667Y-69359525D01*
X95178571Y-69283334D01*
X95178571Y-69169048D01*
X95216667Y-69092858D01*
X95254762Y-69054763D01*
X95330952Y-69016667D01*
X95559524Y-69016667D01*
X95635714Y-69054763D01*
X95673810Y-69092858D01*
X95711905Y-69169048D01*
X95711905Y-69283334D01*
X95711905Y-68673810D02*
X95178571Y-68673810D01*
X95330952Y-68673810D02*
X95254762Y-68635715D01*
X95216667Y-68597619D01*
X95178571Y-68521429D01*
X95178571Y-68445238D01*
X95178571Y-68292858D02*
X95178571Y-67988096D01*
X94911905Y-68178572D02*
X95597619Y-68178572D01*
X95673810Y-68140477D01*
X95711905Y-68064286D01*
X95711905Y-67988096D01*
X95673810Y-67416667D02*
X95711905Y-67492857D01*
X95711905Y-67645238D01*
X95673810Y-67721429D01*
X95597619Y-67759524D01*
X95292857Y-67759524D01*
X95216667Y-67721429D01*
X95178571Y-67645238D01*
X95178571Y-67492857D01*
X95216667Y-67416667D01*
X95292857Y-67378572D01*
X95369048Y-67378572D01*
X95445238Y-67759524D01*
X95711905Y-67111905D02*
X95178571Y-66692858D01*
X95178571Y-67111905D02*
X95711905Y-66692858D01*
X95407143Y-66388096D02*
X95407143Y-65778572D01*
X95711905Y-65054763D02*
X94911905Y-65054763D01*
X95673810Y-65054763D02*
X95711905Y-65130953D01*
X95711905Y-65283334D01*
X95673810Y-65359525D01*
X95635714Y-65397620D01*
X95559524Y-65435715D01*
X95330952Y-65435715D01*
X95254762Y-65397620D01*
X95216667Y-65359525D01*
X95178571Y-65283334D01*
X95178571Y-65130953D01*
X95216667Y-65054763D01*
X95711905Y-64559524D02*
X95673810Y-64635715D01*
X95635714Y-64673810D01*
X95559524Y-64711905D01*
X95330952Y-64711905D01*
X95254762Y-64673810D01*
X95216667Y-64635715D01*
X95178571Y-64559524D01*
X95178571Y-64445238D01*
X95216667Y-64369048D01*
X95254762Y-64330953D01*
X95330952Y-64292857D01*
X95559524Y-64292857D01*
X95635714Y-64330953D01*
X95673810Y-64369048D01*
X95711905Y-64445238D01*
X95711905Y-64559524D01*
X95711905Y-63950000D02*
X95178571Y-63950000D01*
X95254762Y-63950000D02*
X95216667Y-63911905D01*
X95178571Y-63835714D01*
X95178571Y-63721428D01*
X95216667Y-63645238D01*
X95292857Y-63607143D01*
X95711905Y-63607143D01*
X95292857Y-63607143D02*
X95216667Y-63569047D01*
X95178571Y-63492857D01*
X95178571Y-63378571D01*
X95216667Y-63302381D01*
X95292857Y-63264286D01*
X95711905Y-63264286D01*
X95711905Y-62769047D02*
X95673810Y-62845238D01*
X95635714Y-62883333D01*
X95559524Y-62921428D01*
X95330952Y-62921428D01*
X95254762Y-62883333D01*
X95216667Y-62845238D01*
X95178571Y-62769047D01*
X95178571Y-62654761D01*
X95216667Y-62578571D01*
X95254762Y-62540476D01*
X95330952Y-62502380D01*
X95559524Y-62502380D01*
X95635714Y-62540476D01*
X95673810Y-62578571D01*
X95711905Y-62654761D01*
X95711905Y-62769047D01*
X95330952Y-61664285D02*
X95292857Y-61702380D01*
X95254762Y-61778570D01*
X95254762Y-61854761D01*
X95292857Y-61930951D01*
X95330952Y-61969047D01*
X95407143Y-62007142D01*
X95483333Y-62007142D01*
X95559524Y-61969047D01*
X95597619Y-61930951D01*
X95635714Y-61854761D01*
X95635714Y-61778570D01*
X95597619Y-61702380D01*
X95559524Y-61664285D01*
X95254762Y-61664285D02*
X95559524Y-61664285D01*
X95597619Y-61626189D01*
X95597619Y-61588094D01*
X95559524Y-61511904D01*
X95483333Y-61473809D01*
X95292857Y-61473809D01*
X95178571Y-61549999D01*
X95102381Y-61664285D01*
X95064286Y-61816666D01*
X95102381Y-61969047D01*
X95178571Y-62083332D01*
X95292857Y-62159523D01*
X95445238Y-62197618D01*
X95597619Y-62159523D01*
X95711905Y-62083332D01*
X95788095Y-61969047D01*
X95826190Y-61816666D01*
X95788095Y-61664285D01*
X95711905Y-61549999D01*
X95178571Y-61207142D02*
X95711905Y-61016666D01*
X95178571Y-60826190D02*
X95711905Y-61016666D01*
X95902381Y-61092857D01*
X95940476Y-61130952D01*
X95978571Y-61207142D01*
X95711905Y-60178571D02*
X95292857Y-60178571D01*
X95216667Y-60216666D01*
X95178571Y-60292856D01*
X95178571Y-60445237D01*
X95216667Y-60521428D01*
X95673810Y-60178571D02*
X95711905Y-60254761D01*
X95711905Y-60445237D01*
X95673810Y-60521428D01*
X95597619Y-60559523D01*
X95521429Y-60559523D01*
X95445238Y-60521428D01*
X95407143Y-60445237D01*
X95407143Y-60254761D01*
X95369048Y-60178571D01*
X95711905Y-59797618D02*
X94911905Y-59797618D01*
X95711905Y-59454761D02*
X95292857Y-59454761D01*
X95216667Y-59492856D01*
X95178571Y-59569046D01*
X95178571Y-59683332D01*
X95216667Y-59759523D01*
X95254762Y-59797618D01*
X95711905Y-58959522D02*
X95673810Y-59035713D01*
X95635714Y-59073808D01*
X95559524Y-59111903D01*
X95330952Y-59111903D01*
X95254762Y-59073808D01*
X95216667Y-59035713D01*
X95178571Y-58959522D01*
X95178571Y-58845236D01*
X95216667Y-58769046D01*
X95254762Y-58730951D01*
X95330952Y-58692855D01*
X95559524Y-58692855D01*
X95635714Y-58730951D01*
X95673810Y-58769046D01*
X95711905Y-58845236D01*
X95711905Y-58959522D01*
X95711905Y-58235712D02*
X95673810Y-58311903D01*
X95635714Y-58349998D01*
X95559524Y-58388093D01*
X95330952Y-58388093D01*
X95254762Y-58349998D01*
X95216667Y-58311903D01*
X95178571Y-58235712D01*
X95178571Y-58121426D01*
X95216667Y-58045236D01*
X95254762Y-58007141D01*
X95330952Y-57969045D01*
X95559524Y-57969045D01*
X95635714Y-58007141D01*
X95673810Y-58045236D01*
X95711905Y-58121426D01*
X95711905Y-58235712D01*
X95635714Y-57626188D02*
X95673810Y-57588093D01*
X95711905Y-57626188D01*
X95673810Y-57664283D01*
X95635714Y-57626188D01*
X95711905Y-57626188D01*
X95178571Y-57359522D02*
X95178571Y-57054760D01*
X95711905Y-57245236D02*
X95026190Y-57245236D01*
X94950000Y-57207141D01*
X94911905Y-57130950D01*
X94911905Y-57054760D01*
X95711905Y-56788093D02*
X95178571Y-56788093D01*
X95330952Y-56788093D02*
X95254762Y-56749998D01*
X95216667Y-56711902D01*
X95178571Y-56635712D01*
X95178571Y-56559521D01*
X94323810Y-74550001D02*
X94361905Y-74435715D01*
X94361905Y-74245239D01*
X94323810Y-74169049D01*
X94285714Y-74130953D01*
X94209524Y-74092858D01*
X94133333Y-74092858D01*
X94057143Y-74130953D01*
X94019048Y-74169049D01*
X93980952Y-74245239D01*
X93942857Y-74397620D01*
X93904762Y-74473811D01*
X93866667Y-74511906D01*
X93790476Y-74550001D01*
X93714286Y-74550001D01*
X93638095Y-74511906D01*
X93600000Y-74473811D01*
X93561905Y-74397620D01*
X93561905Y-74207144D01*
X93600000Y-74092858D01*
X94361905Y-73750001D02*
X93828571Y-73750001D01*
X93561905Y-73750001D02*
X93600000Y-73788096D01*
X93638095Y-73750001D01*
X93600000Y-73711906D01*
X93561905Y-73750001D01*
X93638095Y-73750001D01*
X94361905Y-73369049D02*
X93828571Y-73369049D01*
X93904762Y-73369049D02*
X93866667Y-73330954D01*
X93828571Y-73254763D01*
X93828571Y-73140477D01*
X93866667Y-73064287D01*
X93942857Y-73026192D01*
X94361905Y-73026192D01*
X93942857Y-73026192D02*
X93866667Y-72988096D01*
X93828571Y-72911906D01*
X93828571Y-72797620D01*
X93866667Y-72721430D01*
X93942857Y-72683335D01*
X94361905Y-72683335D01*
X94361905Y-72188096D02*
X94323810Y-72264287D01*
X94285714Y-72302382D01*
X94209524Y-72340477D01*
X93980952Y-72340477D01*
X93904762Y-72302382D01*
X93866667Y-72264287D01*
X93828571Y-72188096D01*
X93828571Y-72073810D01*
X93866667Y-71997620D01*
X93904762Y-71959525D01*
X93980952Y-71921429D01*
X94209524Y-71921429D01*
X94285714Y-71959525D01*
X94323810Y-71997620D01*
X94361905Y-72073810D01*
X94361905Y-72188096D01*
X93828571Y-71578572D02*
X94361905Y-71578572D01*
X93904762Y-71578572D02*
X93866667Y-71540477D01*
X93828571Y-71464286D01*
X93828571Y-71350000D01*
X93866667Y-71273810D01*
X93942857Y-71235715D01*
X94361905Y-71235715D01*
X93942857Y-69978571D02*
X93942857Y-70245238D01*
X94361905Y-70245238D02*
X93561905Y-70245238D01*
X93561905Y-69864285D01*
X94361905Y-69445238D02*
X94323810Y-69521429D01*
X94285714Y-69559524D01*
X94209524Y-69597619D01*
X93980952Y-69597619D01*
X93904762Y-69559524D01*
X93866667Y-69521429D01*
X93828571Y-69445238D01*
X93828571Y-69330952D01*
X93866667Y-69254762D01*
X93904762Y-69216667D01*
X93980952Y-69178571D01*
X94209524Y-69178571D01*
X94285714Y-69216667D01*
X94323810Y-69254762D01*
X94361905Y-69330952D01*
X94361905Y-69445238D01*
X93828571Y-68492857D02*
X94361905Y-68492857D01*
X93828571Y-68835714D02*
X94247619Y-68835714D01*
X94323810Y-68797619D01*
X94361905Y-68721428D01*
X94361905Y-68607142D01*
X94323810Y-68530952D01*
X94285714Y-68492857D01*
X94361905Y-68111904D02*
X93828571Y-68111904D01*
X93980952Y-68111904D02*
X93904762Y-68073809D01*
X93866667Y-68035713D01*
X93828571Y-67959523D01*
X93828571Y-67883332D01*
X93828571Y-67273809D02*
X94628571Y-67273809D01*
X94323810Y-67273809D02*
X94361905Y-67349999D01*
X94361905Y-67502380D01*
X94323810Y-67578571D01*
X94285714Y-67616666D01*
X94209524Y-67654761D01*
X93980952Y-67654761D01*
X93904762Y-67616666D01*
X93866667Y-67578571D01*
X93828571Y-67502380D01*
X93828571Y-67349999D01*
X93866667Y-67273809D01*
X93828571Y-66549999D02*
X94361905Y-66549999D01*
X93828571Y-66892856D02*
X94247619Y-66892856D01*
X94323810Y-66854761D01*
X94361905Y-66778570D01*
X94361905Y-66664284D01*
X94323810Y-66588094D01*
X94285714Y-66549999D01*
X94361905Y-66169046D02*
X93828571Y-66169046D01*
X93561905Y-66169046D02*
X93600000Y-66207141D01*
X93638095Y-66169046D01*
X93600000Y-66130951D01*
X93561905Y-66169046D01*
X93638095Y-66169046D01*
X94323810Y-65483332D02*
X94361905Y-65559522D01*
X94361905Y-65711903D01*
X94323810Y-65788094D01*
X94247619Y-65826189D01*
X93942857Y-65826189D01*
X93866667Y-65788094D01*
X93828571Y-65711903D01*
X93828571Y-65559522D01*
X93866667Y-65483332D01*
X93942857Y-65445237D01*
X94019048Y-65445237D01*
X94095238Y-65826189D01*
X94361905Y-65102380D02*
X93828571Y-65102380D01*
X93980952Y-65102380D02*
X93904762Y-65064285D01*
X93866667Y-65026189D01*
X93828571Y-64949999D01*
X93828571Y-64873808D01*
D11*
X49001020Y-56050620D02*
X52998980Y-56050620D01*
X52998980Y-56050620D02*
X52998980Y-66449380D01*
X52998980Y-66449380D02*
X49001020Y-66449380D01*
X49001020Y-66449380D02*
X49001020Y-56050620D01*
X48602240Y-55250520D02*
X53397760Y-55250520D01*
X53397760Y-55250520D02*
X53397760Y-67249480D01*
X53397760Y-67249480D02*
X48602240Y-67249480D01*
X48602240Y-67249480D02*
X48602240Y-55250520D01*
X51698500Y-67348540D02*
X51698500Y-67749860D01*
X51698500Y-67749860D02*
X50301500Y-67749860D01*
X50301500Y-67749860D02*
X50301500Y-67348540D01*
X52198880Y-67348540D02*
X52198880Y-67749860D01*
X52198880Y-67749860D02*
X52597660Y-67749860D01*
X52597660Y-67749860D02*
X52597660Y-67348540D01*
X49801120Y-67348540D02*
X49801120Y-67749860D01*
X49801120Y-67749860D02*
X49402340Y-67749860D01*
X49402340Y-67749860D02*
X49402340Y-67348540D01*
X52198880Y-55151460D02*
X52198880Y-54750140D01*
X52198880Y-54750140D02*
X52597660Y-54750140D01*
X52597660Y-54750140D02*
X52597660Y-55151460D01*
X49801120Y-55151460D02*
X49801120Y-54750140D01*
X49801120Y-54750140D02*
X49402340Y-54750140D01*
X49402340Y-54750140D02*
X49402340Y-55151460D01*
X51698500Y-55151460D02*
X51698500Y-54750140D01*
X51698500Y-54750140D02*
X50301500Y-54750140D01*
X50301500Y-54750140D02*
X50301500Y-55151460D01*
D12*
X52597660Y-66548440D02*
X52597660Y-66848160D01*
X52597660Y-66848160D02*
X52597660Y-67147880D01*
X51000000Y-66548440D02*
X51000000Y-66848160D01*
X51000000Y-66848160D02*
X51000000Y-67147880D01*
X52297940Y-67147880D02*
X52297940Y-66848160D01*
X52297940Y-66848160D02*
X51299720Y-66848160D01*
X51299720Y-66848160D02*
X51299720Y-67147880D01*
X52297940Y-66548440D02*
X52597660Y-66848160D01*
X51299720Y-66548440D02*
X51000000Y-66848160D01*
X52399540Y-66749100D02*
X52297940Y-66848160D01*
X51198120Y-66749100D02*
X51299720Y-66848160D01*
D10*
X61539000Y-74620000D02*
X61539000Y-67620000D01*
X54539000Y-67620000D02*
X54539000Y-74620000D01*
D13*
X84893000Y-43960000D02*
X82607000Y-43960000D01*
X82607000Y-43960000D02*
X82607000Y-45611000D01*
X84893000Y-47389000D02*
X84893000Y-49040000D01*
X84893000Y-49040000D02*
X82607000Y-49040000D01*
X82607000Y-49040000D02*
X82607000Y-47389000D01*
X84893000Y-45611000D02*
X84893000Y-43960000D01*
X81854274Y-72262172D02*
X80237828Y-70645726D01*
X80237828Y-70645726D02*
X79070395Y-71813159D01*
X79429605Y-74686841D02*
X78262172Y-75854274D01*
X78262172Y-75854274D02*
X76645726Y-74237828D01*
X76645726Y-74237828D02*
X77813159Y-73070395D01*
X80686841Y-73429605D02*
X81854274Y-72262172D01*
X72290000Y-76893000D02*
X72290000Y-74607000D01*
X72290000Y-74607000D02*
X70639000Y-74607000D01*
X68861000Y-76893000D02*
X67210000Y-76893000D01*
X67210000Y-76893000D02*
X67210000Y-74607000D01*
X67210000Y-74607000D02*
X68861000Y-74607000D01*
X70639000Y-76893000D02*
X72290000Y-76893000D01*
X77143000Y-75710000D02*
X74857000Y-75710000D01*
X74857000Y-75710000D02*
X74857000Y-77361000D01*
X77143000Y-79139000D02*
X77143000Y-80790000D01*
X77143000Y-80790000D02*
X74857000Y-80790000D01*
X74857000Y-80790000D02*
X74857000Y-79139000D01*
X77143000Y-77361000D02*
X77143000Y-75710000D01*
X91257000Y-58140000D02*
X93543000Y-58140000D01*
X93543000Y-58140000D02*
X93543000Y-56489000D01*
X91257000Y-54711000D02*
X91257000Y-53060000D01*
X91257000Y-53060000D02*
X93543000Y-53060000D01*
X93543000Y-53060000D02*
X93543000Y-54711000D01*
X91257000Y-56489000D02*
X91257000Y-58140000D01*
X67357000Y-63365000D02*
X69643000Y-63365000D01*
X69643000Y-63365000D02*
X69643000Y-64635000D01*
X69643000Y-64635000D02*
X67357000Y-64635000D01*
X67357000Y-64635000D02*
X67357000Y-63365000D01*
X74865000Y-59393000D02*
X74865000Y-57107000D01*
X74865000Y-57107000D02*
X76135000Y-57107000D01*
X76135000Y-57107000D02*
X76135000Y-59393000D01*
X76135000Y-59393000D02*
X74865000Y-59393000D01*
X67357000Y-61615000D02*
X69643000Y-61615000D01*
X69643000Y-61615000D02*
X69643000Y-62885000D01*
X69643000Y-62885000D02*
X67357000Y-62885000D01*
X67357000Y-62885000D02*
X67357000Y-61615000D01*
X53385000Y-50857000D02*
X53385000Y-53143000D01*
X53385000Y-53143000D02*
X52115000Y-53143000D01*
X52115000Y-53143000D02*
X52115000Y-50857000D01*
X52115000Y-50857000D02*
X53385000Y-50857000D01*
X93726000Y-50673000D02*
X93726000Y-52959000D01*
X93726000Y-52959000D02*
X92456000Y-52959000D01*
X92456000Y-52959000D02*
X92456000Y-50673000D01*
X92456000Y-50673000D02*
X93726000Y-50673000D01*
X88393000Y-49885000D02*
X86107000Y-49885000D01*
X86107000Y-49885000D02*
X86107000Y-48615000D01*
X86107000Y-48615000D02*
X88393000Y-48615000D01*
X88393000Y-48615000D02*
X88393000Y-49885000D01*
D11*
X91232000Y-58612000D02*
X91232000Y-62930000D01*
X91232000Y-62930000D02*
X91740000Y-62930000D01*
X87168000Y-58612000D02*
X87168000Y-62930000D01*
X87168000Y-62930000D02*
X86660000Y-62930000D01*
X87168000Y-69661000D02*
X87168000Y-65470000D01*
X87168000Y-65470000D02*
X86660000Y-65470000D01*
X91232000Y-69661000D02*
X91232000Y-65470000D01*
X91232000Y-65470000D02*
X91740000Y-65470000D01*
X91740000Y-69661000D02*
X91740000Y-58612000D01*
X86660000Y-58612000D02*
X86660000Y-69661000D01*
X86660000Y-58612000D02*
X91740000Y-58612000D01*
X91740000Y-69661000D02*
X86660000Y-69661000D01*
D14*
X78439141Y-67652962D02*
X72152962Y-73939141D01*
X72152962Y-73939141D02*
X68560859Y-70347038D01*
X68560859Y-70347038D02*
X74847038Y-64060859D01*
X74847038Y-64060859D02*
X78439141Y-67652962D01*
X77092102Y-66305923D02*
X76194077Y-67203949D01*
X76194077Y-67203949D02*
X75296051Y-66305923D01*
X75296051Y-66305923D02*
X76194077Y-65407898D01*
D15*
X83784000Y-68356000D02*
X83784000Y-61244000D01*
X83784000Y-61244000D02*
X85816000Y-61244000D01*
X85816000Y-61244000D02*
X85816000Y-68356000D01*
X85816000Y-68356000D02*
X83784000Y-68356000D01*
X84292000Y-68356000D02*
X83784000Y-67848000D01*
D10*
X80115000Y-56445000D02*
X80115000Y-55810000D01*
X80115000Y-55810000D02*
X81385000Y-55810000D01*
X81385000Y-55810000D02*
X81385000Y-56445000D01*
X81385000Y-56445000D02*
X84560000Y-56445000D01*
X84560000Y-56445000D02*
X84560000Y-50095000D01*
X84560000Y-50095000D02*
X76940000Y-50095000D01*
X76940000Y-50095000D02*
X76940000Y-56445000D01*
X76940000Y-56445000D02*
X80115000Y-56445000D01*
D13*
X48905605Y-49587000D02*
G75*
G03X48905605Y-49587000I-179605J0D01*
G01*
X51647000Y-51238000D02*
X51647000Y-49714000D01*
X51647000Y-49714000D02*
X48853000Y-49714000D01*
X48853000Y-49714000D02*
X48853000Y-51238000D01*
X48853000Y-52762000D02*
X48853000Y-54286000D01*
X48853000Y-54286000D02*
X51647000Y-54286000D01*
X51647000Y-54286000D02*
X51647000Y-52762000D01*
X53905605Y-49587000D02*
G75*
G03X53905605Y-49587000I-179605J0D01*
G01*
X56647000Y-51238000D02*
X56647000Y-49714000D01*
X56647000Y-49714000D02*
X53853000Y-49714000D01*
X53853000Y-49714000D02*
X53853000Y-51238000D01*
X53853000Y-52762000D02*
X53853000Y-54286000D01*
X53853000Y-54286000D02*
X56647000Y-54286000D01*
X56647000Y-54286000D02*
X56647000Y-52762000D01*
D16*
X57976000Y-62869000D02*
X61024000Y-62869000D01*
X61024000Y-62869000D02*
X61024000Y-63631000D01*
X61024000Y-63631000D02*
X57976000Y-63631000D01*
X57976000Y-63631000D02*
X57976000Y-62869000D01*
D17*
X88901590Y-52992020D02*
G75*
G03X88901590Y-52992020I-159070J0D01*
G01*
X87884000Y-50546000D02*
X88900000Y-50546000D01*
X87884000Y-53149500D02*
X88900000Y-53149500D01*
X88900000Y-50546000D02*
X88900000Y-53149500D01*
X87884000Y-53149500D02*
X87884000Y-50546000D01*
D13*
X55365000Y-49393000D02*
X55365000Y-47107000D01*
X55365000Y-47107000D02*
X56635000Y-47107000D01*
X56635000Y-47107000D02*
X56635000Y-49393000D01*
X56635000Y-49393000D02*
X55365000Y-49393000D01*
X56643000Y-45135000D02*
X54357000Y-45135000D01*
X54357000Y-45135000D02*
X54357000Y-43865000D01*
X54357000Y-43865000D02*
X56643000Y-43865000D01*
X56643000Y-43865000D02*
X56643000Y-45135000D01*
X56643000Y-46635000D02*
X54357000Y-46635000D01*
X54357000Y-46635000D02*
X54357000Y-45365000D01*
X54357000Y-45365000D02*
X56643000Y-45365000D01*
X56643000Y-45365000D02*
X56643000Y-46635000D01*
D18*
X91556840Y-51290220D02*
X90307160Y-51290220D01*
X91356180Y-51716940D02*
X90507820Y-51716940D01*
X90507820Y-51716940D02*
X90932000Y-51290220D01*
X90932000Y-51290220D02*
X91356180Y-51716940D01*
X90307160Y-50965100D02*
X90431620Y-50965100D01*
X91556840Y-50965100D02*
X91432380Y-50965100D01*
X90307160Y-52666900D02*
X90431620Y-52666900D01*
X91556840Y-52666900D02*
X91432380Y-52666900D01*
X90312240Y-50965100D02*
X90312240Y-52666900D01*
X91561920Y-50965100D02*
X91561920Y-52666900D01*
X89098740Y-48024700D02*
X86401260Y-48024700D01*
X86401260Y-46475300D02*
X89098740Y-46475300D01*
X87048960Y-46475300D02*
X87048960Y-48024700D01*
X87048960Y-47250000D02*
X87650940Y-46650560D01*
X87650940Y-46650560D02*
X87650940Y-47849440D01*
X87650940Y-47849440D02*
X87048960Y-47250000D01*
D13*
X91635000Y-47607000D02*
X91635000Y-49893000D01*
X91635000Y-49893000D02*
X90365000Y-49893000D01*
X90365000Y-49893000D02*
X90365000Y-47607000D01*
X90365000Y-47607000D02*
X91635000Y-47607000D01*
X76135000Y-48357000D02*
X76135000Y-50643000D01*
X76135000Y-50643000D02*
X74865000Y-50643000D01*
X74865000Y-50643000D02*
X74865000Y-48357000D01*
X74865000Y-48357000D02*
X76135000Y-48357000D01*
D10*
X62159000Y-41324000D02*
X72659000Y-41324000D01*
X72659000Y-41324000D02*
X72659000Y-42324000D01*
X72659000Y-42324000D02*
X62159000Y-42324000D01*
X62159000Y-42324000D02*
X62159000Y-41324000D01*
X62159000Y-41324000D02*
X62659000Y-41324000D01*
X62659000Y-41324000D02*
X62159000Y-41324000D01*
X62159000Y-41324000D02*
X62659000Y-41324000D01*
X60659000Y-41824000D02*
G75*
G03X60659000Y-41824000I-1000000J0D01*
G01*
X57659000Y-44324000D02*
X57659000Y-39824000D01*
X57659000Y-39824000D02*
X73659000Y-39824000D01*
X73659000Y-39824000D02*
X73659000Y-44324000D01*
X57659000Y-60324000D02*
X57659000Y-61324000D01*
X57659000Y-61324000D02*
X73659000Y-61324000D01*
X73659000Y-61324000D02*
X73659000Y-60324000D01*
X72751200Y-86750000D02*
X66248800Y-86750000D01*
X72751200Y-83249880D02*
X72751200Y-90250120D01*
X81498960Y-90250120D02*
X72751200Y-90250120D01*
X81498960Y-83249880D02*
X72751200Y-83249880D01*
X58750720Y-89249360D02*
X57501040Y-89249360D01*
X58999640Y-84250640D02*
X57501040Y-84250640D01*
X71001140Y-89249360D02*
X58750720Y-89249360D01*
X70749680Y-84250640D02*
X58999640Y-84250640D01*
X81498960Y-89249360D02*
X71001140Y-89249360D01*
X81498960Y-84250640D02*
X70749680Y-84250640D01*
X81498960Y-84250640D02*
X81498960Y-89249360D01*
X82499720Y-83249880D02*
X81498960Y-83249880D01*
X82499720Y-83249880D02*
X82499720Y-90250120D01*
X82499720Y-90250120D02*
X81498960Y-90250120D01*
X57501040Y-84250640D02*
X57501040Y-89249360D01*
X66248800Y-83249880D02*
X56500280Y-83249880D01*
X56500280Y-83249880D02*
X56500280Y-90250120D01*
X66248800Y-90250120D02*
X56500280Y-90250120D01*
X66248800Y-83249880D02*
X66248800Y-90250120D01*
D19*
X46074524Y-66937381D02*
X44804524Y-66937381D01*
X44804524Y-66453572D01*
X44865000Y-66332619D01*
X44925476Y-66272143D01*
X45046429Y-66211667D01*
X45227857Y-66211667D01*
X45348810Y-66272143D01*
X45409286Y-66332619D01*
X45469762Y-66453572D01*
X45469762Y-66937381D01*
X46074524Y-65606905D02*
X46074524Y-65365000D01*
X46014048Y-65244048D01*
X45953571Y-65183572D01*
X45772143Y-65062619D01*
X45530238Y-65002143D01*
X45046429Y-65002143D01*
X44925476Y-65062619D01*
X44865000Y-65123095D01*
X44804524Y-65244048D01*
X44804524Y-65485952D01*
X44865000Y-65606905D01*
X44925476Y-65667381D01*
X45046429Y-65727857D01*
X45348810Y-65727857D01*
X45469762Y-65667381D01*
X45530238Y-65606905D01*
X45590714Y-65485952D01*
X45590714Y-65244048D01*
X45530238Y-65123095D01*
X45469762Y-65062619D01*
X45348810Y-65002143D01*
X44804524Y-64130715D02*
X44804524Y-63405000D01*
X46074524Y-63767857D02*
X44804524Y-63767857D01*
X46074524Y-62800238D02*
X46014048Y-62921191D01*
X45953571Y-62981667D01*
X45832619Y-63042143D01*
X45469762Y-63042143D01*
X45348810Y-62981667D01*
X45288333Y-62921191D01*
X45227857Y-62800238D01*
X45227857Y-62618810D01*
X45288333Y-62497858D01*
X45348810Y-62437381D01*
X45469762Y-62376905D01*
X45832619Y-62376905D01*
X45953571Y-62437381D01*
X46014048Y-62497858D01*
X46074524Y-62618810D01*
X46074524Y-62800238D01*
X45227857Y-61288333D02*
X46074524Y-61288333D01*
X45227857Y-61832619D02*
X45893095Y-61832619D01*
X46014048Y-61772143D01*
X46074524Y-61651190D01*
X46074524Y-61469762D01*
X46014048Y-61348810D01*
X45953571Y-61288333D01*
X46014048Y-60139285D02*
X46074524Y-60260238D01*
X46074524Y-60502142D01*
X46014048Y-60623095D01*
X45953571Y-60683571D01*
X45832619Y-60744047D01*
X45469762Y-60744047D01*
X45348810Y-60683571D01*
X45288333Y-60623095D01*
X45227857Y-60502142D01*
X45227857Y-60260238D01*
X45288333Y-60139285D01*
X46074524Y-59595000D02*
X44804524Y-59595000D01*
X46074524Y-59050714D02*
X45409286Y-59050714D01*
X45288333Y-59111191D01*
X45227857Y-59232143D01*
X45227857Y-59413571D01*
X45288333Y-59534524D01*
X45348810Y-59595000D01*
D10*
X52363810Y-69794381D02*
X52363810Y-68794381D01*
X53411429Y-69699143D02*
X53363810Y-69746762D01*
X53220953Y-69794381D01*
X53125715Y-69794381D01*
X52982857Y-69746762D01*
X52887619Y-69651524D01*
X52840000Y-69556286D01*
X52792381Y-69365810D01*
X52792381Y-69222952D01*
X52840000Y-69032476D01*
X52887619Y-68937238D01*
X52982857Y-68842000D01*
X53125715Y-68794381D01*
X53220953Y-68794381D01*
X53363810Y-68842000D01*
X53411429Y-68889619D01*
X54363810Y-69794381D02*
X53792381Y-69794381D01*
X54078095Y-69794381D02*
X54078095Y-68794381D01*
X53982857Y-68937238D01*
X53887619Y-69032476D01*
X53792381Y-69080095D01*
D20*
X53534142Y-70156429D02*
X53876999Y-70156429D01*
X53705570Y-70756429D02*
X53705570Y-70156429D01*
X54362713Y-70756429D02*
X54076999Y-70756429D01*
X54076999Y-70156429D01*
X54562713Y-70756429D02*
X54562713Y-70156429D01*
X55105570Y-70356429D02*
X55105570Y-70756429D01*
X54962713Y-70127857D02*
X54819856Y-70556429D01*
X55191284Y-70556429D01*
X55448428Y-70756429D02*
X55562713Y-70756429D01*
X55619856Y-70727857D01*
X55648428Y-70699286D01*
X55705570Y-70613571D01*
X55734142Y-70499286D01*
X55734142Y-70270714D01*
X55705570Y-70213571D01*
X55676999Y-70185000D01*
X55619856Y-70156429D01*
X55505570Y-70156429D01*
X55448428Y-70185000D01*
X55419856Y-70213571D01*
X55391285Y-70270714D01*
X55391285Y-70413571D01*
X55419856Y-70470714D01*
X55448428Y-70499286D01*
X55505570Y-70527857D01*
X55619856Y-70527857D01*
X55676999Y-70499286D01*
X55705570Y-70470714D01*
X55734142Y-70413571D01*
X55934142Y-70156429D02*
X56334142Y-70156429D01*
X56076999Y-70756429D01*
X56677000Y-70156429D02*
X56734143Y-70156429D01*
X56791286Y-70185000D01*
X56819857Y-70213571D01*
X56848428Y-70270714D01*
X56877000Y-70385000D01*
X56877000Y-70527857D01*
X56848428Y-70642143D01*
X56819857Y-70699286D01*
X56791286Y-70727857D01*
X56734143Y-70756429D01*
X56677000Y-70756429D01*
X56619857Y-70727857D01*
X56591286Y-70699286D01*
X56562714Y-70642143D01*
X56534143Y-70527857D01*
X56534143Y-70385000D01*
X56562714Y-70270714D01*
X56591286Y-70213571D01*
X56619857Y-70185000D01*
X56677000Y-70156429D01*
X57134143Y-70527857D02*
X57591286Y-70527857D01*
X57877000Y-70756429D02*
X57877000Y-70156429D01*
X58019857Y-70156429D01*
X58105572Y-70185000D01*
X58162714Y-70242143D01*
X58191286Y-70299286D01*
X58219857Y-70413571D01*
X58219857Y-70499286D01*
X58191286Y-70613571D01*
X58162714Y-70670714D01*
X58105572Y-70727857D01*
X58019857Y-70756429D01*
X57877000Y-70756429D01*
X58591286Y-70156429D02*
X58648429Y-70156429D01*
X58705572Y-70185000D01*
X58734143Y-70213571D01*
X58762714Y-70270714D01*
X58791286Y-70385000D01*
X58791286Y-70527857D01*
X58762714Y-70642143D01*
X58734143Y-70699286D01*
X58705572Y-70727857D01*
X58648429Y-70756429D01*
X58591286Y-70756429D01*
X58534143Y-70727857D01*
X58505572Y-70699286D01*
X58477000Y-70642143D01*
X58448429Y-70527857D01*
X58448429Y-70385000D01*
X58477000Y-70270714D01*
X58505572Y-70213571D01*
X58534143Y-70185000D01*
X58591286Y-70156429D01*
X59334143Y-70156429D02*
X59048429Y-70156429D01*
X59019858Y-70442143D01*
X59048429Y-70413571D01*
X59105572Y-70385000D01*
X59248429Y-70385000D01*
X59305572Y-70413571D01*
X59334143Y-70442143D01*
X59362715Y-70499286D01*
X59362715Y-70642143D01*
X59334143Y-70699286D01*
X59305572Y-70727857D01*
X59248429Y-70756429D01*
X59105572Y-70756429D01*
X59048429Y-70727857D01*
X59019858Y-70699286D01*
X59734144Y-70156429D02*
X59791287Y-70156429D01*
X59848430Y-70185000D01*
X59877001Y-70213571D01*
X59905572Y-70270714D01*
X59934144Y-70385000D01*
X59934144Y-70527857D01*
X59905572Y-70642143D01*
X59877001Y-70699286D01*
X59848430Y-70727857D01*
X59791287Y-70756429D01*
X59734144Y-70756429D01*
X59677001Y-70727857D01*
X59648430Y-70699286D01*
X59619858Y-70642143D01*
X59591287Y-70527857D01*
X59591287Y-70385000D01*
X59619858Y-70270714D01*
X59648430Y-70213571D01*
X59677001Y-70185000D01*
X59734144Y-70156429D01*
X60105573Y-70156429D02*
X60448430Y-70156429D01*
X60277001Y-70756429D02*
X60277001Y-70156429D01*
X60905573Y-70356429D02*
X60905573Y-70756429D01*
X60762716Y-70127857D02*
X60619859Y-70556429D01*
X60991287Y-70556429D01*
D13*
X84244714Y-42977000D02*
X83881857Y-43231000D01*
X84244714Y-43412428D02*
X83482714Y-43412428D01*
X83482714Y-43122143D01*
X83519000Y-43049571D01*
X83555286Y-43013286D01*
X83627857Y-42977000D01*
X83736714Y-42977000D01*
X83809286Y-43013286D01*
X83845571Y-43049571D01*
X83881857Y-43122143D01*
X83881857Y-43412428D01*
X84244714Y-42251286D02*
X84244714Y-42686714D01*
X84244714Y-42469000D02*
X83482714Y-42469000D01*
X83591571Y-42541571D01*
X83664143Y-42614143D01*
X83700429Y-42686714D01*
X85105286Y-47597428D02*
X85069000Y-47561142D01*
X85032714Y-47488571D01*
X85032714Y-47307142D01*
X85069000Y-47234571D01*
X85105286Y-47198285D01*
X85177857Y-47162000D01*
X85250429Y-47162000D01*
X85359286Y-47198285D01*
X85794714Y-47633714D01*
X85794714Y-47162000D01*
X85722143Y-46835428D02*
X85758429Y-46799143D01*
X85794714Y-46835428D01*
X85758429Y-46871714D01*
X85722143Y-46835428D01*
X85794714Y-46835428D01*
X85105286Y-46508857D02*
X85069000Y-46472571D01*
X85032714Y-46400000D01*
X85032714Y-46218571D01*
X85069000Y-46146000D01*
X85105286Y-46109714D01*
X85177857Y-46073429D01*
X85250429Y-46073429D01*
X85359286Y-46109714D01*
X85794714Y-46545143D01*
X85794714Y-46073429D01*
X85794714Y-45746857D02*
X85032714Y-45746857D01*
X85577000Y-45492857D01*
X85032714Y-45238857D01*
X85794714Y-45238857D01*
X80494406Y-75187169D02*
X80058223Y-75110195D01*
X80186512Y-75495063D02*
X79647697Y-74956248D01*
X79852959Y-74750985D01*
X79929934Y-74725327D01*
X79981249Y-74725328D01*
X80058223Y-74750985D01*
X80135196Y-74827959D01*
X80160854Y-74904933D01*
X80160854Y-74956248D01*
X80135196Y-75033222D01*
X79929934Y-75238484D01*
X81007564Y-74674012D02*
X80699670Y-74981906D01*
X80853617Y-74827959D02*
X80314801Y-74289143D01*
X80340459Y-74417432D01*
X80340459Y-74520064D01*
X80314802Y-74597038D01*
X80930590Y-73673354D02*
X80827959Y-73775986D01*
X80802301Y-73852959D01*
X80802301Y-73904276D01*
X80827959Y-74032565D01*
X80904933Y-74160854D01*
X81110195Y-74366117D01*
X81187170Y-74391775D01*
X81238485Y-74391776D01*
X81315458Y-74366117D01*
X81418090Y-74263485D01*
X81443748Y-74186512D01*
X81443748Y-74135196D01*
X81418089Y-74058223D01*
X81289800Y-73929934D01*
X81212827Y-73904275D01*
X81161511Y-73904276D01*
X81084538Y-73929933D01*
X80981906Y-74032565D01*
X80956248Y-74109539D01*
X80956248Y-74160854D01*
X80981906Y-74237828D01*
X78852303Y-72441777D02*
X79185856Y-72775329D01*
X78800987Y-72800987D01*
X78877961Y-72877961D01*
X78903619Y-72954935D01*
X78903620Y-73006250D01*
X78877961Y-73083224D01*
X78749672Y-73211513D01*
X78672698Y-73237172D01*
X78621382Y-73237172D01*
X78544409Y-73211513D01*
X78390462Y-73057566D01*
X78364803Y-72980593D01*
X78364803Y-72929277D01*
X79365461Y-72954934D02*
X79699013Y-73288486D01*
X79314144Y-73314144D01*
X79391119Y-73391119D01*
X79416776Y-73468092D01*
X79416777Y-73519408D01*
X79391118Y-73596381D01*
X79262829Y-73724670D01*
X79185856Y-73750329D01*
X79134539Y-73750329D01*
X79057567Y-73724671D01*
X78903619Y-73570723D01*
X78877961Y-73493750D01*
X78877961Y-73442434D01*
X80032565Y-73622038D02*
X80083881Y-73673355D01*
X80109538Y-73750328D01*
X80109538Y-73801644D01*
X80083881Y-73878618D01*
X80006907Y-74006907D01*
X79878617Y-74135196D01*
X79750329Y-74212170D01*
X79673355Y-74237828D01*
X79622039Y-74237828D01*
X79545066Y-74212170D01*
X79493750Y-74160854D01*
X79468092Y-74083881D01*
X79468092Y-74032565D01*
X79493750Y-73955591D01*
X79570723Y-73827302D01*
X79699013Y-73699013D01*
X79827302Y-73622039D01*
X79904275Y-73596381D01*
X79955591Y-73596381D01*
X80032565Y-73622038D01*
X69514143Y-74189714D02*
X69260143Y-73826857D01*
X69078715Y-74189714D02*
X69078715Y-73427714D01*
X69369000Y-73427714D01*
X69441572Y-73464000D01*
X69477857Y-73500286D01*
X69514143Y-73572857D01*
X69514143Y-73681714D01*
X69477857Y-73754286D01*
X69441572Y-73790571D01*
X69369000Y-73826857D01*
X69078715Y-73826857D01*
X70239857Y-74189714D02*
X69804429Y-74189714D01*
X70022143Y-74189714D02*
X70022143Y-73427714D01*
X69949572Y-73536571D01*
X69877000Y-73609143D01*
X69804429Y-73645429D01*
X70675286Y-73754286D02*
X70602714Y-73718000D01*
X70566429Y-73681714D01*
X70530143Y-73609143D01*
X70530143Y-73572857D01*
X70566429Y-73500286D01*
X70602714Y-73464000D01*
X70675286Y-73427714D01*
X70820429Y-73427714D01*
X70893000Y-73464000D01*
X70929286Y-73500286D01*
X70965571Y-73572857D01*
X70965571Y-73609143D01*
X70929286Y-73681714D01*
X70893000Y-73718000D01*
X70820429Y-73754286D01*
X70675286Y-73754286D01*
X70602714Y-73790571D01*
X70566429Y-73826857D01*
X70530143Y-73899429D01*
X70530143Y-74044571D01*
X70566429Y-74117143D01*
X70602714Y-74153429D01*
X70675286Y-74189714D01*
X70820429Y-74189714D01*
X70893000Y-74153429D01*
X70929286Y-74117143D01*
X70965571Y-74044571D01*
X70965571Y-73899429D01*
X70929286Y-73826857D01*
X70893000Y-73790571D01*
X70820429Y-73754286D01*
X69586714Y-76330571D02*
X70094714Y-76330571D01*
X69296429Y-76512000D02*
X69840714Y-76693428D01*
X69840714Y-76221714D01*
X69332714Y-76004000D02*
X69332714Y-75496000D01*
X70094714Y-75822571D01*
X69332714Y-75060572D02*
X69332714Y-74988000D01*
X69369000Y-74915429D01*
X69405286Y-74879143D01*
X69477857Y-74842857D01*
X69623000Y-74806572D01*
X69804429Y-74806572D01*
X69949571Y-74842857D01*
X70022143Y-74879143D01*
X70058429Y-74915429D01*
X70094714Y-74988000D01*
X70094714Y-75060572D01*
X70058429Y-75133143D01*
X70022143Y-75169429D01*
X69949571Y-75205714D01*
X69804429Y-75242000D01*
X69623000Y-75242000D01*
X69477857Y-75205714D01*
X69405286Y-75169429D01*
X69369000Y-75133143D01*
X69332714Y-75060572D01*
X78304143Y-78377000D02*
X78340429Y-78413286D01*
X78376714Y-78522143D01*
X78376714Y-78594714D01*
X78340429Y-78703571D01*
X78267857Y-78776143D01*
X78195286Y-78812428D01*
X78050143Y-78848714D01*
X77941286Y-78848714D01*
X77796143Y-78812428D01*
X77723571Y-78776143D01*
X77651000Y-78703571D01*
X77614714Y-78594714D01*
X77614714Y-78522143D01*
X77651000Y-78413286D01*
X77687286Y-78377000D01*
X77868714Y-77723857D02*
X78376714Y-77723857D01*
X77578429Y-77905286D02*
X78122714Y-78086714D01*
X78122714Y-77615000D01*
X75238000Y-77959714D02*
X75238000Y-78467714D01*
X75056571Y-77669429D02*
X74875143Y-78213714D01*
X75346857Y-78213714D01*
X75564571Y-77705714D02*
X76072571Y-77705714D01*
X75746000Y-78467714D01*
X76362857Y-77959714D02*
X76362857Y-78467714D01*
X76362857Y-78032286D02*
X76399142Y-77996000D01*
X76471714Y-77959714D01*
X76580571Y-77959714D01*
X76653142Y-77996000D01*
X76689428Y-78068571D01*
X76689428Y-78467714D01*
X77306286Y-78068571D02*
X77052286Y-78068571D01*
X77052286Y-78467714D02*
X77052286Y-77705714D01*
X77415143Y-77705714D01*
X94594714Y-55627000D02*
X94231857Y-55881000D01*
X94594714Y-56062428D02*
X93832714Y-56062428D01*
X93832714Y-55772143D01*
X93869000Y-55699571D01*
X93905286Y-55663286D01*
X93977857Y-55627000D01*
X94086714Y-55627000D01*
X94159286Y-55663286D01*
X94195571Y-55699571D01*
X94231857Y-55772143D01*
X94231857Y-56062428D01*
X93905286Y-55336714D02*
X93869000Y-55300428D01*
X93832714Y-55227857D01*
X93832714Y-55046428D01*
X93869000Y-54973857D01*
X93905286Y-54937571D01*
X93977857Y-54901286D01*
X94050429Y-54901286D01*
X94159286Y-54937571D01*
X94594714Y-55373000D01*
X94594714Y-54901286D01*
X90948572Y-55255286D02*
X90984858Y-55219000D01*
X91057429Y-55182714D01*
X91238858Y-55182714D01*
X91311429Y-55219000D01*
X91347715Y-55255286D01*
X91384000Y-55327857D01*
X91384000Y-55400429D01*
X91347715Y-55509286D01*
X90912286Y-55944714D01*
X91384000Y-55944714D01*
X91710572Y-55872143D02*
X91746857Y-55908429D01*
X91710572Y-55944714D01*
X91674286Y-55908429D01*
X91710572Y-55872143D01*
X91710572Y-55944714D01*
X92037143Y-55255286D02*
X92073429Y-55219000D01*
X92146000Y-55182714D01*
X92327429Y-55182714D01*
X92400000Y-55219000D01*
X92436286Y-55255286D01*
X92472571Y-55327857D01*
X92472571Y-55400429D01*
X92436286Y-55509286D01*
X92000857Y-55944714D01*
X92472571Y-55944714D01*
X92799143Y-55944714D02*
X92799143Y-55182714D01*
X93053143Y-55727000D01*
X93307143Y-55182714D01*
X93307143Y-55944714D01*
D21*
X70383334Y-64150000D02*
X70350000Y-64183333D01*
X70250000Y-64216667D01*
X70183334Y-64216667D01*
X70083334Y-64183333D01*
X70016667Y-64116667D01*
X69983334Y-64050000D01*
X69950000Y-63916667D01*
X69950000Y-63816667D01*
X69983334Y-63683333D01*
X70016667Y-63616667D01*
X70083334Y-63550000D01*
X70183334Y-63516667D01*
X70250000Y-63516667D01*
X70350000Y-63550000D01*
X70383334Y-63583333D01*
X70716667Y-64216667D02*
X70850000Y-64216667D01*
X70916667Y-64183333D01*
X70950000Y-64150000D01*
X71016667Y-64050000D01*
X71050000Y-63916667D01*
X71050000Y-63650000D01*
X71016667Y-63583333D01*
X70983334Y-63550000D01*
X70916667Y-63516667D01*
X70783334Y-63516667D01*
X70716667Y-63550000D01*
X70683334Y-63583333D01*
X70650000Y-63650000D01*
X70650000Y-63816667D01*
X70683334Y-63883333D01*
X70716667Y-63916667D01*
X70783334Y-63950000D01*
X70916667Y-63950000D01*
X70983334Y-63916667D01*
X71016667Y-63883333D01*
X71050000Y-63816667D01*
X65266666Y-65716667D02*
X64866666Y-65716667D01*
X65066666Y-65716667D02*
X65066666Y-65016667D01*
X65000000Y-65116667D01*
X64933333Y-65183333D01*
X64866666Y-65216667D01*
X65700000Y-65016667D02*
X65766667Y-65016667D01*
X65833333Y-65050000D01*
X65866667Y-65083333D01*
X65900000Y-65150000D01*
X65933333Y-65283333D01*
X65933333Y-65450000D01*
X65900000Y-65583333D01*
X65866667Y-65650000D01*
X65833333Y-65683333D01*
X65766667Y-65716667D01*
X65700000Y-65716667D01*
X65633333Y-65683333D01*
X65600000Y-65650000D01*
X65566667Y-65583333D01*
X65533333Y-65450000D01*
X65533333Y-65283333D01*
X65566667Y-65150000D01*
X65600000Y-65083333D01*
X65633333Y-65050000D01*
X65700000Y-65016667D01*
X66366667Y-65016667D02*
X66433334Y-65016667D01*
X66500000Y-65050000D01*
X66533334Y-65083333D01*
X66566667Y-65150000D01*
X66600000Y-65283333D01*
X66600000Y-65450000D01*
X66566667Y-65583333D01*
X66533334Y-65650000D01*
X66500000Y-65683333D01*
X66433334Y-65716667D01*
X66366667Y-65716667D01*
X66300000Y-65683333D01*
X66266667Y-65650000D01*
X66233334Y-65583333D01*
X66200000Y-65450000D01*
X66200000Y-65283333D01*
X66233334Y-65150000D01*
X66266667Y-65083333D01*
X66300000Y-65050000D01*
X66366667Y-65016667D01*
X66900001Y-65250000D02*
X66900001Y-65716667D01*
X66900001Y-65316667D02*
X66933334Y-65283333D01*
X67000001Y-65250000D01*
X67100001Y-65250000D01*
X67166667Y-65283333D01*
X67200001Y-65350000D01*
X67200001Y-65716667D01*
X67766667Y-65350000D02*
X67533334Y-65350000D01*
X67533334Y-65716667D02*
X67533334Y-65016667D01*
X67866667Y-65016667D01*
X77266667Y-58800000D02*
X76933333Y-59033334D01*
X77266667Y-59200000D02*
X76566667Y-59200000D01*
X76566667Y-58933334D01*
X76600000Y-58866667D01*
X76633333Y-58833334D01*
X76700000Y-58800000D01*
X76800000Y-58800000D01*
X76866667Y-58833334D01*
X76900000Y-58866667D01*
X76933333Y-58933334D01*
X76933333Y-59200000D01*
X77266667Y-58133334D02*
X77266667Y-58533334D01*
X77266667Y-58333334D02*
X76566667Y-58333334D01*
X76666667Y-58400000D01*
X76733333Y-58466667D01*
X76766667Y-58533334D01*
X77266667Y-57466667D02*
X77266667Y-57866667D01*
X77266667Y-57666667D02*
X76566667Y-57666667D01*
X76666667Y-57733333D01*
X76733333Y-57800000D01*
X76766667Y-57866667D01*
X75183333Y-61566667D02*
X75150000Y-61533333D01*
X75116667Y-61466667D01*
X75116667Y-61300000D01*
X75150000Y-61233333D01*
X75183333Y-61200000D01*
X75250000Y-61166667D01*
X75316667Y-61166667D01*
X75416667Y-61200000D01*
X75816667Y-61600000D01*
X75816667Y-61166667D01*
X75183333Y-60900000D02*
X75150000Y-60866666D01*
X75116667Y-60800000D01*
X75116667Y-60633333D01*
X75150000Y-60566666D01*
X75183333Y-60533333D01*
X75250000Y-60500000D01*
X75316667Y-60500000D01*
X75416667Y-60533333D01*
X75816667Y-60933333D01*
X75816667Y-60500000D01*
X75116667Y-60066666D02*
X75116667Y-59999999D01*
X75150000Y-59933333D01*
X75183333Y-59899999D01*
X75250000Y-59866666D01*
X75383333Y-59833333D01*
X75550000Y-59833333D01*
X75683333Y-59866666D01*
X75750000Y-59899999D01*
X75783333Y-59933333D01*
X75816667Y-59999999D01*
X75816667Y-60066666D01*
X75783333Y-60133333D01*
X75750000Y-60166666D01*
X75683333Y-60199999D01*
X75550000Y-60233333D01*
X75383333Y-60233333D01*
X75250000Y-60199999D01*
X75183333Y-60166666D01*
X75150000Y-60133333D01*
X75116667Y-60066666D01*
X70383334Y-62500000D02*
X70350000Y-62533333D01*
X70250000Y-62566667D01*
X70183334Y-62566667D01*
X70083334Y-62533333D01*
X70016667Y-62466667D01*
X69983334Y-62400000D01*
X69950000Y-62266667D01*
X69950000Y-62166667D01*
X69983334Y-62033333D01*
X70016667Y-61966667D01*
X70083334Y-61900000D01*
X70183334Y-61866667D01*
X70250000Y-61866667D01*
X70350000Y-61900000D01*
X70383334Y-61933333D01*
X70616667Y-61866667D02*
X71083334Y-61866667D01*
X70783334Y-62566667D01*
X65150000Y-62416667D02*
X64750000Y-62416667D01*
X64950000Y-62416667D02*
X64950000Y-61716667D01*
X64883334Y-61816667D01*
X64816667Y-61883333D01*
X64750000Y-61916667D01*
X65583334Y-61716667D02*
X65650001Y-61716667D01*
X65716667Y-61750000D01*
X65750001Y-61783333D01*
X65783334Y-61850000D01*
X65816667Y-61983333D01*
X65816667Y-62150000D01*
X65783334Y-62283333D01*
X65750001Y-62350000D01*
X65716667Y-62383333D01*
X65650001Y-62416667D01*
X65583334Y-62416667D01*
X65516667Y-62383333D01*
X65483334Y-62350000D01*
X65450001Y-62283333D01*
X65416667Y-62150000D01*
X65416667Y-61983333D01*
X65450001Y-61850000D01*
X65483334Y-61783333D01*
X65516667Y-61750000D01*
X65583334Y-61716667D01*
X66416668Y-61950000D02*
X66416668Y-62416667D01*
X66116668Y-61950000D02*
X66116668Y-62316667D01*
X66150001Y-62383333D01*
X66216668Y-62416667D01*
X66316668Y-62416667D01*
X66383334Y-62383333D01*
X66416668Y-62350000D01*
X66983334Y-62050000D02*
X66750001Y-62050000D01*
X66750001Y-62416667D02*
X66750001Y-61716667D01*
X67083334Y-61716667D01*
D10*
X52566667Y-54235714D02*
X52528572Y-54273810D01*
X52414286Y-54311905D01*
X52338096Y-54311905D01*
X52223810Y-54273810D01*
X52147619Y-54197619D01*
X52109524Y-54121429D01*
X52071429Y-53969048D01*
X52071429Y-53854762D01*
X52109524Y-53702381D01*
X52147619Y-53626190D01*
X52223810Y-53550000D01*
X52338096Y-53511905D01*
X52414286Y-53511905D01*
X52528572Y-53550000D01*
X52566667Y-53588095D01*
X52833334Y-53511905D02*
X53328572Y-53511905D01*
X53061905Y-53816667D01*
X53176191Y-53816667D01*
X53252381Y-53854762D01*
X53290477Y-53892857D01*
X53328572Y-53969048D01*
X53328572Y-54159524D01*
X53290477Y-54235714D01*
X53252381Y-54273810D01*
X53176191Y-54311905D01*
X52947619Y-54311905D01*
X52871429Y-54273810D01*
X52833334Y-54235714D01*
D21*
X53016667Y-49983334D02*
X53016667Y-50383334D01*
X53016667Y-50183334D02*
X52316667Y-50183334D01*
X52416667Y-50250000D01*
X52483333Y-50316667D01*
X52516667Y-50383334D01*
X52316667Y-49550000D02*
X52316667Y-49483333D01*
X52350000Y-49416667D01*
X52383333Y-49383333D01*
X52450000Y-49350000D01*
X52583333Y-49316667D01*
X52750000Y-49316667D01*
X52883333Y-49350000D01*
X52950000Y-49383333D01*
X52983333Y-49416667D01*
X53016667Y-49483333D01*
X53016667Y-49550000D01*
X52983333Y-49616667D01*
X52950000Y-49650000D01*
X52883333Y-49683333D01*
X52750000Y-49716667D01*
X52583333Y-49716667D01*
X52450000Y-49683333D01*
X52383333Y-49650000D01*
X52350000Y-49616667D01*
X52316667Y-49550000D01*
X52316667Y-48883333D02*
X52316667Y-48816666D01*
X52350000Y-48750000D01*
X52383333Y-48716666D01*
X52450000Y-48683333D01*
X52583333Y-48650000D01*
X52750000Y-48650000D01*
X52883333Y-48683333D01*
X52950000Y-48716666D01*
X52983333Y-48750000D01*
X53016667Y-48816666D01*
X53016667Y-48883333D01*
X52983333Y-48950000D01*
X52950000Y-48983333D01*
X52883333Y-49016666D01*
X52750000Y-49050000D01*
X52583333Y-49050000D01*
X52450000Y-49016666D01*
X52383333Y-48983333D01*
X52350000Y-48950000D01*
X52316667Y-48883333D01*
X52550000Y-48349999D02*
X53016667Y-48349999D01*
X52616667Y-48349999D02*
X52583333Y-48316666D01*
X52550000Y-48249999D01*
X52550000Y-48149999D01*
X52583333Y-48083333D01*
X52650000Y-48049999D01*
X53016667Y-48049999D01*
X52650000Y-47483333D02*
X52650000Y-47716666D01*
X53016667Y-47716666D02*
X52316667Y-47716666D01*
X52316667Y-47383333D01*
X93416667Y-50066666D02*
X93083333Y-50300000D01*
X93416667Y-50466666D02*
X92716667Y-50466666D01*
X92716667Y-50200000D01*
X92750000Y-50133333D01*
X92783333Y-50100000D01*
X92850000Y-50066666D01*
X92950000Y-50066666D01*
X93016667Y-50100000D01*
X93050000Y-50133333D01*
X93083333Y-50200000D01*
X93083333Y-50466666D01*
X92950000Y-49466666D02*
X93416667Y-49466666D01*
X92683333Y-49633333D02*
X93183333Y-49800000D01*
X93183333Y-49366666D01*
X94716667Y-52650001D02*
X94716667Y-53050001D01*
X94716667Y-52850001D02*
X94016667Y-52850001D01*
X94116667Y-52916667D01*
X94183333Y-52983334D01*
X94216667Y-53050001D01*
X94016667Y-52216667D02*
X94016667Y-52150000D01*
X94050000Y-52083334D01*
X94083333Y-52050000D01*
X94150000Y-52016667D01*
X94283333Y-51983334D01*
X94450000Y-51983334D01*
X94583333Y-52016667D01*
X94650000Y-52050000D01*
X94683333Y-52083334D01*
X94716667Y-52150000D01*
X94716667Y-52216667D01*
X94683333Y-52283334D01*
X94650000Y-52316667D01*
X94583333Y-52350000D01*
X94450000Y-52383334D01*
X94283333Y-52383334D01*
X94150000Y-52350000D01*
X94083333Y-52316667D01*
X94050000Y-52283334D01*
X94016667Y-52216667D01*
X94016667Y-51550000D02*
X94016667Y-51483333D01*
X94050000Y-51416667D01*
X94083333Y-51383333D01*
X94150000Y-51350000D01*
X94283333Y-51316667D01*
X94450000Y-51316667D01*
X94583333Y-51350000D01*
X94650000Y-51383333D01*
X94683333Y-51416667D01*
X94716667Y-51483333D01*
X94716667Y-51550000D01*
X94683333Y-51616667D01*
X94650000Y-51650000D01*
X94583333Y-51683333D01*
X94450000Y-51716667D01*
X94283333Y-51716667D01*
X94150000Y-51683333D01*
X94083333Y-51650000D01*
X94050000Y-51616667D01*
X94016667Y-51550000D01*
X94716667Y-51016666D02*
X94016667Y-51016666D01*
X94450000Y-50950000D02*
X94716667Y-50750000D01*
X94250000Y-50750000D02*
X94516667Y-51016666D01*
D10*
X89461905Y-49383333D02*
X89080952Y-49650000D01*
X89461905Y-49840476D02*
X88661905Y-49840476D01*
X88661905Y-49535714D01*
X88700000Y-49459523D01*
X88738095Y-49421428D01*
X88814286Y-49383333D01*
X88928571Y-49383333D01*
X89004762Y-49421428D01*
X89042857Y-49459523D01*
X89080952Y-49535714D01*
X89080952Y-49840476D01*
X88661905Y-48697619D02*
X88661905Y-48850000D01*
X88700000Y-48926190D01*
X88738095Y-48964285D01*
X88852381Y-49040476D01*
X89004762Y-49078571D01*
X89309524Y-49078571D01*
X89385714Y-49040476D01*
X89423810Y-49002381D01*
X89461905Y-48926190D01*
X89461905Y-48773809D01*
X89423810Y-48697619D01*
X89385714Y-48659523D01*
X89309524Y-48621428D01*
X89119048Y-48621428D01*
X89042857Y-48659523D01*
X89004762Y-48697619D01*
X88966667Y-48773809D01*
X88966667Y-48926190D01*
X89004762Y-49002381D01*
X89042857Y-49040476D01*
X89119048Y-49078571D01*
D22*
X86995310Y-49193771D02*
X86995310Y-49150228D01*
X87019500Y-49106685D01*
X87043690Y-49084914D01*
X87092071Y-49063143D01*
X87188833Y-49041371D01*
X87309786Y-49041371D01*
X87406548Y-49063143D01*
X87454929Y-49084914D01*
X87479119Y-49106685D01*
X87503310Y-49150228D01*
X87503310Y-49193771D01*
X87479119Y-49237314D01*
X87454929Y-49259085D01*
X87406548Y-49280857D01*
X87309786Y-49302628D01*
X87188833Y-49302628D01*
X87092071Y-49280857D01*
X87043690Y-49259085D01*
X87019500Y-49237314D01*
X86995310Y-49193771D01*
D15*
X63589429Y-72804000D02*
X63589429Y-73529714D01*
X62065429Y-73529714D01*
X63589429Y-71497714D02*
X63589429Y-72368571D01*
X63589429Y-71933143D02*
X62065429Y-71933143D01*
X62283143Y-72078286D01*
X62428286Y-72223428D01*
X62500857Y-72368571D01*
D21*
X92500000Y-61133333D02*
X92500000Y-61366666D01*
X92866667Y-61366666D02*
X92166667Y-61366666D01*
X92166667Y-61033333D01*
X92866667Y-60400000D02*
X92866667Y-60800000D01*
X92866667Y-60600000D02*
X92166667Y-60600000D01*
X92266667Y-60666666D01*
X92333333Y-60733333D01*
X92366667Y-60800000D01*
X92550000Y-66516666D02*
X92550000Y-66749999D01*
X92916667Y-66749999D02*
X92216667Y-66749999D01*
X92216667Y-66416666D01*
X92216667Y-66149999D02*
X92783333Y-66149999D01*
X92850000Y-66116666D01*
X92883333Y-66083333D01*
X92916667Y-66016666D01*
X92916667Y-65883333D01*
X92883333Y-65816666D01*
X92850000Y-65783333D01*
X92783333Y-65749999D01*
X92216667Y-65749999D01*
X92883333Y-65450000D02*
X92916667Y-65350000D01*
X92916667Y-65183333D01*
X92883333Y-65116666D01*
X92850000Y-65083333D01*
X92783333Y-65050000D01*
X92716667Y-65050000D01*
X92650000Y-65083333D01*
X92616667Y-65116666D01*
X92583333Y-65183333D01*
X92550000Y-65316666D01*
X92516667Y-65383333D01*
X92483333Y-65416666D01*
X92416667Y-65450000D01*
X92350000Y-65450000D01*
X92283333Y-65416666D01*
X92250000Y-65383333D01*
X92216667Y-65316666D01*
X92216667Y-65150000D01*
X92250000Y-65050000D01*
X92550000Y-64749999D02*
X92550000Y-64516666D01*
X92916667Y-64416666D02*
X92916667Y-64749999D01*
X92216667Y-64749999D01*
X92216667Y-64416666D01*
X92916667Y-63216667D02*
X92916667Y-63616667D01*
X92916667Y-63416667D02*
X92216667Y-63416667D01*
X92316667Y-63483333D01*
X92383333Y-63550000D01*
X92416667Y-63616667D01*
X92716667Y-62950000D02*
X92716667Y-62616666D01*
X92916667Y-63016666D02*
X92216667Y-62783333D01*
X92916667Y-62550000D01*
X76851820Y-65206066D02*
X77252514Y-65606759D01*
X77323224Y-65630330D01*
X77370364Y-65630330D01*
X77441076Y-65606760D01*
X77535356Y-65512479D01*
X77558926Y-65441768D01*
X77558926Y-65394628D01*
X77535356Y-65323917D01*
X77134663Y-64923223D01*
X77582497Y-64475389D02*
X77488216Y-64569671D01*
X77464646Y-64640381D01*
X77464645Y-64687521D01*
X77488216Y-64805372D01*
X77558926Y-64923224D01*
X77747488Y-65111785D01*
X77818199Y-65135355D01*
X77865339Y-65135355D01*
X77936050Y-65111785D01*
X78030331Y-65017505D01*
X78053901Y-64946793D01*
X78053901Y-64899653D01*
X78030330Y-64828943D01*
X77912480Y-64711092D01*
X77841769Y-64687521D01*
X77794629Y-64687521D01*
X77723918Y-64711091D01*
X77629637Y-64805372D01*
X77606067Y-64876083D01*
X77606067Y-64923223D01*
X77629637Y-64993935D01*
D23*
X70299180Y-71217268D02*
X69401154Y-70319242D01*
X70252140Y-70751150D01*
X69820232Y-69900164D01*
X70718258Y-70798190D01*
X70239311Y-69481085D02*
X70359048Y-69361349D01*
X70461679Y-69344243D01*
X70607074Y-69369901D01*
X70808060Y-69511019D01*
X71107402Y-69810361D01*
X71248521Y-70011348D01*
X71274179Y-70156743D01*
X71257073Y-70259374D01*
X71137337Y-70379111D01*
X71034705Y-70396217D01*
X70889310Y-70370558D01*
X70688323Y-70229440D01*
X70388982Y-69930098D01*
X70247863Y-69729111D01*
X70222205Y-69583717D01*
X70239311Y-69481085D01*
X71949836Y-69395559D02*
X71962665Y-69468257D01*
X71915625Y-69600823D01*
X71855757Y-69660690D01*
X71723192Y-69707730D01*
X71577796Y-69682072D01*
X71462336Y-69626480D01*
X71261349Y-69485362D01*
X71133060Y-69357073D01*
X70991942Y-69156086D01*
X70936349Y-69040625D01*
X70910692Y-68895230D01*
X70957732Y-68762665D01*
X71017599Y-68702797D01*
X71150165Y-68655757D01*
X71222863Y-68668586D01*
X71346876Y-68373521D02*
X71736020Y-67984376D01*
X71868585Y-68536020D01*
X71958388Y-68446218D01*
X72061020Y-68429113D01*
X72133717Y-68441942D01*
X72249177Y-68497534D01*
X72462993Y-68711349D01*
X72518585Y-68826809D01*
X72531415Y-68899507D01*
X72514309Y-69002139D01*
X72334704Y-69181744D01*
X72232072Y-69198849D01*
X72159375Y-69186020D01*
X72125165Y-67595232D02*
X72185033Y-67535363D01*
X72287664Y-67518258D01*
X72360362Y-67531086D01*
X72475823Y-67586679D01*
X72676809Y-67727797D01*
X72890624Y-67941613D01*
X73031743Y-68142599D01*
X73087335Y-68258059D01*
X73100164Y-68330758D01*
X73083059Y-68433389D01*
X73023190Y-68493257D01*
X72920559Y-68510363D01*
X72847861Y-68497533D01*
X72732401Y-68441941D01*
X72531414Y-68300823D01*
X72317598Y-68087007D01*
X72176481Y-67886021D01*
X72120888Y-67770560D01*
X72108059Y-67697863D01*
X72125165Y-67595232D01*
X72659704Y-67231745D02*
X72646875Y-67159047D01*
X72663980Y-67056416D01*
X72813651Y-66906745D01*
X72916283Y-66889639D01*
X72988980Y-66902468D01*
X73104441Y-66958061D01*
X73189967Y-67043587D01*
X73288322Y-67201811D01*
X73442269Y-68074178D01*
X73831413Y-67685034D01*
X73142928Y-66577469D02*
X73532072Y-66188325D01*
X73664637Y-66739968D01*
X73754440Y-66650166D01*
X73857072Y-66633061D01*
X73929769Y-66645890D01*
X74045229Y-66701482D01*
X74259045Y-66915298D01*
X74314637Y-67030757D01*
X74327467Y-67103455D01*
X74310361Y-67206087D01*
X74130756Y-67385692D01*
X74028124Y-67402797D01*
X73955427Y-67389968D01*
X74626808Y-66804113D02*
X74759374Y-66757074D01*
X74909045Y-66607403D01*
X74926151Y-66504771D01*
X74913321Y-66432073D01*
X74857729Y-66316614D01*
X74772203Y-66231088D01*
X74656742Y-66175495D01*
X74584045Y-66162666D01*
X74481414Y-66179771D01*
X74318914Y-66256745D01*
X74216283Y-66273851D01*
X74143585Y-66261021D01*
X74028124Y-66205429D01*
X73942598Y-66119903D01*
X73887006Y-66004442D01*
X73874177Y-65931745D01*
X73891283Y-65829114D01*
X74040953Y-65679443D01*
X74173519Y-65632404D01*
X75298190Y-66218258D02*
X74400164Y-65320232D01*
X75251150Y-65752140D01*
X74819242Y-64901154D01*
X75717268Y-65799180D01*
D21*
X85216667Y-60166666D02*
X84883333Y-60400000D01*
X85216667Y-60566666D02*
X84516667Y-60566666D01*
X84516667Y-60300000D01*
X84550000Y-60233333D01*
X84583333Y-60200000D01*
X84650000Y-60166666D01*
X84750000Y-60166666D01*
X84816667Y-60200000D01*
X84850000Y-60233333D01*
X84883333Y-60300000D01*
X84883333Y-60566666D01*
X84516667Y-59933333D02*
X84516667Y-59500000D01*
X84783333Y-59733333D01*
X84783333Y-59633333D01*
X84816667Y-59566666D01*
X84850000Y-59533333D01*
X84916667Y-59500000D01*
X85083333Y-59500000D01*
X85150000Y-59533333D01*
X85183333Y-59566666D01*
X85216667Y-59633333D01*
X85216667Y-59833333D01*
X85183333Y-59900000D01*
X85150000Y-59933333D01*
D23*
X79758191Y-58531429D02*
X79758191Y-57007429D01*
X80822572Y-58386286D02*
X80774191Y-58458857D01*
X80629048Y-58531429D01*
X80532286Y-58531429D01*
X80387144Y-58458857D01*
X80290382Y-58313714D01*
X80242001Y-58168571D01*
X80193620Y-57878286D01*
X80193620Y-57660571D01*
X80242001Y-57370286D01*
X80290382Y-57225143D01*
X80387144Y-57080000D01*
X80532286Y-57007429D01*
X80629048Y-57007429D01*
X80774191Y-57080000D01*
X80822572Y-57152571D01*
X81209620Y-57152571D02*
X81258001Y-57080000D01*
X81354763Y-57007429D01*
X81596667Y-57007429D01*
X81693429Y-57080000D01*
X81741810Y-57152571D01*
X81790191Y-57297714D01*
X81790191Y-57442857D01*
X81741810Y-57660571D01*
X81161239Y-58531429D01*
X81790191Y-58531429D01*
X81324524Y-56466167D02*
X81324524Y-55958167D01*
X82594524Y-56212167D02*
X81324524Y-56212167D01*
X82473571Y-55153834D02*
X82534048Y-55196168D01*
X82594524Y-55323168D01*
X82594524Y-55407834D01*
X82534048Y-55534834D01*
X82413095Y-55619501D01*
X82292143Y-55661834D01*
X82050238Y-55704168D01*
X81868810Y-55704168D01*
X81626905Y-55661834D01*
X81505952Y-55619501D01*
X81385000Y-55534834D01*
X81324524Y-55407834D01*
X81324524Y-55323168D01*
X81385000Y-55196168D01*
X81445476Y-55153834D01*
X82594524Y-54349501D02*
X82594524Y-54772834D01*
X81324524Y-54772834D01*
X82594524Y-54053167D02*
X81324524Y-54053167D01*
X81324524Y-53841501D01*
X81385000Y-53714501D01*
X81505952Y-53629834D01*
X81626905Y-53587501D01*
X81868810Y-53545167D01*
X82050238Y-53545167D01*
X82292143Y-53587501D01*
X82413095Y-53629834D01*
X82534048Y-53714501D01*
X82594524Y-53841501D01*
X82594524Y-54053167D01*
X82594524Y-52698501D02*
X82594524Y-53206501D01*
X82594524Y-52952501D02*
X81324524Y-52952501D01*
X81505952Y-53037167D01*
X81626905Y-53121834D01*
X81687381Y-53206501D01*
X81324524Y-52148167D02*
X81324524Y-52063500D01*
X81385000Y-51978834D01*
X81445476Y-51936500D01*
X81566429Y-51894167D01*
X81808333Y-51851834D01*
X82110714Y-51851834D01*
X82352619Y-51894167D01*
X82473571Y-51936500D01*
X82534048Y-51978834D01*
X82594524Y-52063500D01*
X82594524Y-52148167D01*
X82534048Y-52232834D01*
X82473571Y-52275167D01*
X82352619Y-52317500D01*
X82110714Y-52359834D01*
X81808333Y-52359834D01*
X81566429Y-52317500D01*
X81445476Y-52275167D01*
X81385000Y-52232834D01*
X81324524Y-52148167D01*
X81324524Y-51301500D02*
X81324524Y-51216833D01*
X81385000Y-51132167D01*
X81445476Y-51089833D01*
X81566429Y-51047500D01*
X81808333Y-51005167D01*
X82110714Y-51005167D01*
X82352619Y-51047500D01*
X82473571Y-51089833D01*
X82534048Y-51132167D01*
X82594524Y-51216833D01*
X82594524Y-51301500D01*
X82534048Y-51386167D01*
X82473571Y-51428500D01*
X82352619Y-51470833D01*
X82110714Y-51513167D01*
X81808333Y-51513167D01*
X81566429Y-51470833D01*
X81445476Y-51428500D01*
X81385000Y-51386167D01*
X81324524Y-51301500D01*
X81324524Y-50454833D02*
X81324524Y-50370166D01*
X81385000Y-50285500D01*
X81445476Y-50243166D01*
X81566429Y-50200833D01*
X81808333Y-50158500D01*
X82110714Y-50158500D01*
X82352619Y-50200833D01*
X82473571Y-50243166D01*
X82534048Y-50285500D01*
X82594524Y-50370166D01*
X82594524Y-50454833D01*
X82534048Y-50539500D01*
X82473571Y-50581833D01*
X82352619Y-50624166D01*
X82110714Y-50666500D01*
X81808333Y-50666500D01*
X81566429Y-50624166D01*
X81445476Y-50581833D01*
X81385000Y-50539500D01*
X81324524Y-50454833D01*
D13*
X50622143Y-48877000D02*
X50658429Y-48913286D01*
X50694714Y-49022143D01*
X50694714Y-49094714D01*
X50658429Y-49203571D01*
X50585857Y-49276143D01*
X50513286Y-49312428D01*
X50368143Y-49348714D01*
X50259286Y-49348714D01*
X50114143Y-49312428D01*
X50041571Y-49276143D01*
X49969000Y-49203571D01*
X49932714Y-49094714D01*
X49932714Y-49022143D01*
X49969000Y-48913286D01*
X50005286Y-48877000D01*
X49932714Y-48187571D02*
X49932714Y-48550428D01*
X50295571Y-48586714D01*
X50259286Y-48550428D01*
X50223000Y-48477857D01*
X50223000Y-48296428D01*
X50259286Y-48223857D01*
X50295571Y-48187571D01*
X50368143Y-48151286D01*
X50549571Y-48151286D01*
X50622143Y-48187571D01*
X50658429Y-48223857D01*
X50694714Y-48296428D01*
X50694714Y-48477857D01*
X50658429Y-48550428D01*
X50622143Y-48586714D01*
X48244714Y-52329286D02*
X48244714Y-52764714D01*
X48244714Y-52547000D02*
X47482714Y-52547000D01*
X47591571Y-52619571D01*
X47664143Y-52692143D01*
X47700429Y-52764714D01*
X47482714Y-51857572D02*
X47482714Y-51785000D01*
X47519000Y-51712429D01*
X47555286Y-51676143D01*
X47627857Y-51639857D01*
X47773000Y-51603572D01*
X47954429Y-51603572D01*
X48099571Y-51639857D01*
X48172143Y-51676143D01*
X48208429Y-51712429D01*
X48244714Y-51785000D01*
X48244714Y-51857572D01*
X48208429Y-51930143D01*
X48172143Y-51966429D01*
X48099571Y-52002714D01*
X47954429Y-52039000D01*
X47773000Y-52039000D01*
X47627857Y-52002714D01*
X47555286Y-51966429D01*
X47519000Y-51930143D01*
X47482714Y-51857572D01*
X47482714Y-51131858D02*
X47482714Y-51059286D01*
X47519000Y-50986715D01*
X47555286Y-50950429D01*
X47627857Y-50914143D01*
X47773000Y-50877858D01*
X47954429Y-50877858D01*
X48099571Y-50914143D01*
X48172143Y-50950429D01*
X48208429Y-50986715D01*
X48244714Y-51059286D01*
X48244714Y-51131858D01*
X48208429Y-51204429D01*
X48172143Y-51240715D01*
X48099571Y-51277000D01*
X47954429Y-51313286D01*
X47773000Y-51313286D01*
X47627857Y-51277000D01*
X47555286Y-51240715D01*
X47519000Y-51204429D01*
X47482714Y-51131858D01*
X47736714Y-50224715D02*
X48244714Y-50224715D01*
X47736714Y-50551286D02*
X48135857Y-50551286D01*
X48208429Y-50515001D01*
X48244714Y-50442429D01*
X48244714Y-50333572D01*
X48208429Y-50261001D01*
X48172143Y-50224715D01*
X47845571Y-49607857D02*
X47845571Y-49861857D01*
X48244714Y-49861857D02*
X47482714Y-49861857D01*
X47482714Y-49499000D01*
X54973000Y-56322143D02*
X54936714Y-56358429D01*
X54827857Y-56394714D01*
X54755286Y-56394714D01*
X54646429Y-56358429D01*
X54573857Y-56285857D01*
X54537572Y-56213286D01*
X54501286Y-56068143D01*
X54501286Y-55959286D01*
X54537572Y-55814143D01*
X54573857Y-55741571D01*
X54646429Y-55669000D01*
X54755286Y-55632714D01*
X54827857Y-55632714D01*
X54936714Y-55669000D01*
X54973000Y-55705286D01*
X55263286Y-55705286D02*
X55299572Y-55669000D01*
X55372143Y-55632714D01*
X55553572Y-55632714D01*
X55626143Y-55669000D01*
X55662429Y-55705286D01*
X55698714Y-55777857D01*
X55698714Y-55850429D01*
X55662429Y-55959286D01*
X55227000Y-56394714D01*
X55698714Y-56394714D01*
X54070714Y-55294714D02*
X53635286Y-55294714D01*
X53853000Y-55294714D02*
X53853000Y-54532714D01*
X53780429Y-54641571D01*
X53707857Y-54714143D01*
X53635286Y-54750429D01*
X54542428Y-54532714D02*
X54615000Y-54532714D01*
X54687571Y-54569000D01*
X54723857Y-54605286D01*
X54760143Y-54677857D01*
X54796428Y-54823000D01*
X54796428Y-55004429D01*
X54760143Y-55149571D01*
X54723857Y-55222143D01*
X54687571Y-55258429D01*
X54615000Y-55294714D01*
X54542428Y-55294714D01*
X54469857Y-55258429D01*
X54433571Y-55222143D01*
X54397286Y-55149571D01*
X54361000Y-55004429D01*
X54361000Y-54823000D01*
X54397286Y-54677857D01*
X54433571Y-54605286D01*
X54469857Y-54569000D01*
X54542428Y-54532714D01*
X55268142Y-54532714D02*
X55340714Y-54532714D01*
X55413285Y-54569000D01*
X55449571Y-54605286D01*
X55485857Y-54677857D01*
X55522142Y-54823000D01*
X55522142Y-55004429D01*
X55485857Y-55149571D01*
X55449571Y-55222143D01*
X55413285Y-55258429D01*
X55340714Y-55294714D01*
X55268142Y-55294714D01*
X55195571Y-55258429D01*
X55159285Y-55222143D01*
X55123000Y-55149571D01*
X55086714Y-55004429D01*
X55086714Y-54823000D01*
X55123000Y-54677857D01*
X55159285Y-54605286D01*
X55195571Y-54569000D01*
X55268142Y-54532714D01*
X56175285Y-54786714D02*
X56175285Y-55294714D01*
X55848714Y-54786714D02*
X55848714Y-55185857D01*
X55884999Y-55258429D01*
X55957571Y-55294714D01*
X56066428Y-55294714D01*
X56138999Y-55258429D01*
X56175285Y-55222143D01*
X56792143Y-54895571D02*
X56538143Y-54895571D01*
X56538143Y-55294714D02*
X56538143Y-54532714D01*
X56901000Y-54532714D01*
D24*
X57827429Y-64967286D02*
X57754857Y-64931000D01*
X57682286Y-64858429D01*
X57573429Y-64749571D01*
X57500857Y-64713286D01*
X57428286Y-64713286D01*
X57464571Y-64894714D02*
X57392000Y-64858429D01*
X57319429Y-64785857D01*
X57283143Y-64640714D01*
X57283143Y-64386714D01*
X57319429Y-64241571D01*
X57392000Y-64169000D01*
X57464571Y-64132714D01*
X57609714Y-64132714D01*
X57682286Y-64169000D01*
X57754857Y-64241571D01*
X57791143Y-64386714D01*
X57791143Y-64640714D01*
X57754857Y-64785857D01*
X57682286Y-64858429D01*
X57609714Y-64894714D01*
X57464571Y-64894714D01*
X58081429Y-64205286D02*
X58117715Y-64169000D01*
X58190286Y-64132714D01*
X58371715Y-64132714D01*
X58444286Y-64169000D01*
X58480572Y-64205286D01*
X58516857Y-64277857D01*
X58516857Y-64350429D01*
X58480572Y-64459286D01*
X58045143Y-64894714D01*
X58516857Y-64894714D01*
D20*
X58837334Y-65500286D02*
X58908763Y-65524095D01*
X58932572Y-65547905D01*
X58956382Y-65595524D01*
X58956382Y-65666952D01*
X58932572Y-65714571D01*
X58908763Y-65738381D01*
X58861144Y-65762190D01*
X58670668Y-65762190D01*
X58670668Y-65262190D01*
X58837334Y-65262190D01*
X58884953Y-65286000D01*
X58908763Y-65309810D01*
X58932572Y-65357429D01*
X58932572Y-65405048D01*
X58908763Y-65452667D01*
X58884953Y-65476476D01*
X58837334Y-65500286D01*
X58670668Y-65500286D01*
X59146858Y-65738381D02*
X59218287Y-65762190D01*
X59337334Y-65762190D01*
X59384953Y-65738381D01*
X59408763Y-65714571D01*
X59432572Y-65666952D01*
X59432572Y-65619333D01*
X59408763Y-65571714D01*
X59384953Y-65547905D01*
X59337334Y-65524095D01*
X59242096Y-65500286D01*
X59194477Y-65476476D01*
X59170668Y-65452667D01*
X59146858Y-65405048D01*
X59146858Y-65357429D01*
X59170668Y-65309810D01*
X59194477Y-65286000D01*
X59242096Y-65262190D01*
X59361144Y-65262190D01*
X59432572Y-65286000D01*
X59623048Y-65738381D02*
X59694477Y-65762190D01*
X59813524Y-65762190D01*
X59861143Y-65738381D01*
X59884953Y-65714571D01*
X59908762Y-65666952D01*
X59908762Y-65619333D01*
X59884953Y-65571714D01*
X59861143Y-65547905D01*
X59813524Y-65524095D01*
X59718286Y-65500286D01*
X59670667Y-65476476D01*
X59646858Y-65452667D01*
X59623048Y-65405048D01*
X59623048Y-65357429D01*
X59646858Y-65309810D01*
X59670667Y-65286000D01*
X59718286Y-65262190D01*
X59837334Y-65262190D01*
X59908762Y-65286000D01*
X60194476Y-65476476D02*
X60146857Y-65452667D01*
X60123048Y-65428857D01*
X60099238Y-65381238D01*
X60099238Y-65357429D01*
X60123048Y-65309810D01*
X60146857Y-65286000D01*
X60194476Y-65262190D01*
X60289714Y-65262190D01*
X60337333Y-65286000D01*
X60361143Y-65309810D01*
X60384952Y-65357429D01*
X60384952Y-65381238D01*
X60361143Y-65428857D01*
X60337333Y-65452667D01*
X60289714Y-65476476D01*
X60194476Y-65476476D01*
X60146857Y-65500286D01*
X60123048Y-65524095D01*
X60099238Y-65571714D01*
X60099238Y-65666952D01*
X60123048Y-65714571D01*
X60146857Y-65738381D01*
X60194476Y-65762190D01*
X60289714Y-65762190D01*
X60337333Y-65738381D01*
X60361143Y-65714571D01*
X60384952Y-65666952D01*
X60384952Y-65571714D01*
X60361143Y-65524095D01*
X60337333Y-65500286D01*
X60289714Y-65476476D01*
X60813523Y-65428857D02*
X60813523Y-65762190D01*
X60694476Y-65238381D02*
X60575428Y-65595524D01*
X60884952Y-65595524D01*
D16*
X87811429Y-54265286D02*
X87738857Y-54229000D01*
X87666286Y-54156429D01*
X87557429Y-54047571D01*
X87484857Y-54011286D01*
X87412286Y-54011286D01*
X87448571Y-54192714D02*
X87376000Y-54156429D01*
X87303429Y-54083857D01*
X87267143Y-53938714D01*
X87267143Y-53684714D01*
X87303429Y-53539571D01*
X87376000Y-53467000D01*
X87448571Y-53430714D01*
X87593714Y-53430714D01*
X87666286Y-53467000D01*
X87738857Y-53539571D01*
X87775143Y-53684714D01*
X87775143Y-53938714D01*
X87738857Y-54083857D01*
X87666286Y-54156429D01*
X87593714Y-54192714D01*
X87448571Y-54192714D01*
X88500857Y-54192714D02*
X88065429Y-54192714D01*
X88283143Y-54192714D02*
X88283143Y-53430714D01*
X88210572Y-53539571D01*
X88138000Y-53612143D01*
X88065429Y-53648429D01*
D21*
X54966667Y-48516666D02*
X54633333Y-48750000D01*
X54966667Y-48916666D02*
X54266667Y-48916666D01*
X54266667Y-48650000D01*
X54300000Y-48583333D01*
X54333333Y-48550000D01*
X54400000Y-48516666D01*
X54500000Y-48516666D01*
X54566667Y-48550000D01*
X54600000Y-48583333D01*
X54633333Y-48650000D01*
X54633333Y-48916666D01*
X54266667Y-47883333D02*
X54266667Y-48216666D01*
X54600000Y-48250000D01*
X54566667Y-48216666D01*
X54533333Y-48150000D01*
X54533333Y-47983333D01*
X54566667Y-47916666D01*
X54600000Y-47883333D01*
X54666667Y-47850000D01*
X54833333Y-47850000D01*
X54900000Y-47883333D01*
X54933333Y-47916666D01*
X54966667Y-47983333D01*
X54966667Y-48150000D01*
X54933333Y-48216666D01*
X54900000Y-48250000D01*
X53483334Y-44416667D02*
X53250000Y-44083333D01*
X53083334Y-44416667D02*
X53083334Y-43716667D01*
X53350000Y-43716667D01*
X53416667Y-43750000D01*
X53450000Y-43783333D01*
X53483334Y-43850000D01*
X53483334Y-43950000D01*
X53450000Y-44016667D01*
X53416667Y-44050000D01*
X53350000Y-44083333D01*
X53083334Y-44083333D01*
X53716667Y-43716667D02*
X54183334Y-43716667D01*
X53883334Y-44416667D01*
X51683334Y-45316667D02*
X51683334Y-44616667D01*
X52083334Y-45316667D01*
X52083334Y-44616667D01*
X52316667Y-44616667D02*
X52716667Y-44616667D01*
X52516667Y-45316667D02*
X52516667Y-44616667D01*
X53350000Y-45250000D02*
X53316666Y-45283333D01*
X53216666Y-45316667D01*
X53150000Y-45316667D01*
X53050000Y-45283333D01*
X52983333Y-45216667D01*
X52950000Y-45150000D01*
X52916666Y-45016667D01*
X52916666Y-44916667D01*
X52950000Y-44783333D01*
X52983333Y-44716667D01*
X53050000Y-44650000D01*
X53150000Y-44616667D01*
X53216666Y-44616667D01*
X53316666Y-44650000D01*
X53350000Y-44683333D01*
X53383334Y-46950000D02*
X53350000Y-46983333D01*
X53250000Y-47016667D01*
X53183334Y-47016667D01*
X53083334Y-46983333D01*
X53016667Y-46916667D01*
X52983334Y-46850000D01*
X52950000Y-46716667D01*
X52950000Y-46616667D01*
X52983334Y-46483333D01*
X53016667Y-46416667D01*
X53083334Y-46350000D01*
X53183334Y-46316667D01*
X53250000Y-46316667D01*
X53350000Y-46350000D01*
X53383334Y-46383333D01*
X53983334Y-46316667D02*
X53850000Y-46316667D01*
X53783334Y-46350000D01*
X53750000Y-46383333D01*
X53683334Y-46483333D01*
X53650000Y-46616667D01*
X53650000Y-46883333D01*
X53683334Y-46950000D01*
X53716667Y-46983333D01*
X53783334Y-47016667D01*
X53916667Y-47016667D01*
X53983334Y-46983333D01*
X54016667Y-46950000D01*
X54050000Y-46883333D01*
X54050000Y-46716667D01*
X54016667Y-46650000D01*
X53983334Y-46616667D01*
X53916667Y-46583333D01*
X53783334Y-46583333D01*
X53716667Y-46616667D01*
X53683334Y-46650000D01*
X53650000Y-46716667D01*
X50366666Y-46616667D02*
X49966666Y-46616667D01*
X50166666Y-46616667D02*
X50166666Y-45916667D01*
X50100000Y-46016667D01*
X50033333Y-46083333D01*
X49966666Y-46116667D01*
X50800000Y-45916667D02*
X50866667Y-45916667D01*
X50933333Y-45950000D01*
X50966667Y-45983333D01*
X51000000Y-46050000D01*
X51033333Y-46183333D01*
X51033333Y-46350000D01*
X51000000Y-46483333D01*
X50966667Y-46550000D01*
X50933333Y-46583333D01*
X50866667Y-46616667D01*
X50800000Y-46616667D01*
X50733333Y-46583333D01*
X50700000Y-46550000D01*
X50666667Y-46483333D01*
X50633333Y-46350000D01*
X50633333Y-46183333D01*
X50666667Y-46050000D01*
X50700000Y-45983333D01*
X50733333Y-45950000D01*
X50800000Y-45916667D01*
X51466667Y-45916667D02*
X51533334Y-45916667D01*
X51600000Y-45950000D01*
X51633334Y-45983333D01*
X51666667Y-46050000D01*
X51700000Y-46183333D01*
X51700000Y-46350000D01*
X51666667Y-46483333D01*
X51633334Y-46550000D01*
X51600000Y-46583333D01*
X51533334Y-46616667D01*
X51466667Y-46616667D01*
X51400000Y-46583333D01*
X51366667Y-46550000D01*
X51333334Y-46483333D01*
X51300000Y-46350000D01*
X51300000Y-46183333D01*
X51333334Y-46050000D01*
X51366667Y-45983333D01*
X51400000Y-45950000D01*
X51466667Y-45916667D01*
X52000001Y-46150000D02*
X52000001Y-46616667D01*
X52000001Y-46216667D02*
X52033334Y-46183333D01*
X52100001Y-46150000D01*
X52200001Y-46150000D01*
X52266667Y-46183333D01*
X52300001Y-46250000D01*
X52300001Y-46616667D01*
X52866667Y-46250000D02*
X52633334Y-46250000D01*
X52633334Y-46616667D02*
X52633334Y-45916667D01*
X52966667Y-45916667D01*
X90666667Y-54266666D02*
X89966667Y-54266666D01*
X89966667Y-54100000D01*
X90000000Y-54000000D01*
X90066667Y-53933333D01*
X90133333Y-53900000D01*
X90266667Y-53866666D01*
X90366667Y-53866666D01*
X90500000Y-53900000D01*
X90566667Y-53933333D01*
X90633333Y-54000000D01*
X90666667Y-54100000D01*
X90666667Y-54266666D01*
X90033333Y-53600000D02*
X90000000Y-53566666D01*
X89966667Y-53500000D01*
X89966667Y-53333333D01*
X90000000Y-53266666D01*
X90033333Y-53233333D01*
X90100000Y-53200000D01*
X90166667Y-53200000D01*
X90266667Y-53233333D01*
X90666667Y-53633333D01*
X90666667Y-53200000D01*
D20*
X87602143Y-46104929D02*
X87602143Y-45504929D01*
X87745000Y-45504929D01*
X87830715Y-45533500D01*
X87887857Y-45590643D01*
X87916429Y-45647786D01*
X87945000Y-45762071D01*
X87945000Y-45847786D01*
X87916429Y-45962071D01*
X87887857Y-46019214D01*
X87830715Y-46076357D01*
X87745000Y-46104929D01*
X87602143Y-46104929D01*
X88145000Y-45504929D02*
X88516429Y-45504929D01*
X88316429Y-45733500D01*
X88402143Y-45733500D01*
X88459286Y-45762071D01*
X88487857Y-45790643D01*
X88516429Y-45847786D01*
X88516429Y-45990643D01*
X88487857Y-46047786D01*
X88459286Y-46076357D01*
X88402143Y-46104929D01*
X88230715Y-46104929D01*
X88173572Y-46076357D01*
X88145000Y-46047786D01*
D21*
X92450000Y-48866666D02*
X92483333Y-48900000D01*
X92516667Y-49000000D01*
X92516667Y-49066666D01*
X92483333Y-49166666D01*
X92416667Y-49233333D01*
X92350000Y-49266666D01*
X92216667Y-49300000D01*
X92116667Y-49300000D01*
X91983333Y-49266666D01*
X91916667Y-49233333D01*
X91850000Y-49166666D01*
X91816667Y-49066666D01*
X91816667Y-49000000D01*
X91850000Y-48900000D01*
X91883333Y-48866666D01*
X92516667Y-48200000D02*
X92516667Y-48600000D01*
X92516667Y-48400000D02*
X91816667Y-48400000D01*
X91916667Y-48466666D01*
X91983333Y-48533333D01*
X92016667Y-48600000D01*
X77166667Y-49316666D02*
X76833333Y-49550000D01*
X77166667Y-49716666D02*
X76466667Y-49716666D01*
X76466667Y-49450000D01*
X76500000Y-49383333D01*
X76533333Y-49350000D01*
X76600000Y-49316666D01*
X76700000Y-49316666D01*
X76766667Y-49350000D01*
X76800000Y-49383333D01*
X76833333Y-49450000D01*
X76833333Y-49716666D01*
X76766667Y-48916666D02*
X76733333Y-48983333D01*
X76700000Y-49016666D01*
X76633333Y-49050000D01*
X76600000Y-49050000D01*
X76533333Y-49016666D01*
X76500000Y-48983333D01*
X76466667Y-48916666D01*
X76466667Y-48783333D01*
X76500000Y-48716666D01*
X76533333Y-48683333D01*
X76600000Y-48650000D01*
X76633333Y-48650000D01*
X76700000Y-48683333D01*
X76733333Y-48716666D01*
X76766667Y-48783333D01*
X76766667Y-48916666D01*
X76800000Y-48983333D01*
X76833333Y-49016666D01*
X76900000Y-49050000D01*
X77033333Y-49050000D01*
X77100000Y-49016666D01*
X77133333Y-48983333D01*
X77166667Y-48916666D01*
X77166667Y-48783333D01*
X77133333Y-48716666D01*
X77100000Y-48683333D01*
X77033333Y-48650000D01*
X76900000Y-48650000D01*
X76833333Y-48683333D01*
X76800000Y-48716666D01*
X76766667Y-48783333D01*
X75233333Y-47866667D02*
X75200000Y-47833333D01*
X75166667Y-47766667D01*
X75166667Y-47600000D01*
X75200000Y-47533333D01*
X75233333Y-47500000D01*
X75300000Y-47466667D01*
X75366667Y-47466667D01*
X75466667Y-47500000D01*
X75866667Y-47900000D01*
X75866667Y-47466667D01*
X75233333Y-47200000D02*
X75200000Y-47166666D01*
X75166667Y-47100000D01*
X75166667Y-46933333D01*
X75200000Y-46866666D01*
X75233333Y-46833333D01*
X75300000Y-46800000D01*
X75366667Y-46800000D01*
X75466667Y-46833333D01*
X75866667Y-47233333D01*
X75866667Y-46800000D01*
X75866667Y-46499999D02*
X75166667Y-46499999D01*
X75600000Y-46433333D02*
X75866667Y-46233333D01*
X75400000Y-46233333D02*
X75666667Y-46499999D01*
D10*
X65238095Y-56752381D02*
X65238095Y-57561905D01*
X65285714Y-57657143D01*
X65333333Y-57704762D01*
X65428571Y-57752381D01*
X65619048Y-57752381D01*
X65714286Y-57704762D01*
X65761905Y-57657143D01*
X65809524Y-57561905D01*
X65809524Y-56752381D01*
X66190476Y-56752381D02*
X66809524Y-56752381D01*
X66476190Y-57133333D01*
X66619048Y-57133333D01*
X66714286Y-57180952D01*
X66761905Y-57228571D01*
X66809524Y-57323810D01*
X66809524Y-57561905D01*
X66761905Y-57657143D01*
X66714286Y-57704762D01*
X66619048Y-57752381D01*
X66333333Y-57752381D01*
X66238095Y-57704762D01*
X66190476Y-57657143D01*
X66578571Y-53366667D02*
X66578571Y-53033333D01*
X67102381Y-52890476D02*
X67102381Y-53366667D01*
X66102381Y-53366667D01*
X66102381Y-52890476D01*
X67054762Y-52509524D02*
X67102381Y-52366667D01*
X67102381Y-52128571D01*
X67054762Y-52033333D01*
X67007143Y-51985714D01*
X66911905Y-51938095D01*
X66816667Y-51938095D01*
X66721429Y-51985714D01*
X66673810Y-52033333D01*
X66626190Y-52128571D01*
X66578571Y-52319048D01*
X66530952Y-52414286D01*
X66483333Y-52461905D01*
X66388095Y-52509524D01*
X66292857Y-52509524D01*
X66197619Y-52461905D01*
X66150000Y-52414286D01*
X66102381Y-52319048D01*
X66102381Y-52080952D01*
X66150000Y-51938095D01*
X67102381Y-51509524D02*
X66102381Y-51509524D01*
X66102381Y-51128571D01*
X66150000Y-51033333D01*
X66197619Y-50985714D01*
X66292857Y-50938095D01*
X66435714Y-50938095D01*
X66530952Y-50985714D01*
X66578571Y-51033333D01*
X66626190Y-51128571D01*
X66626190Y-51509524D01*
X66721429Y-50509524D02*
X66721429Y-49747619D01*
X66102381Y-49080953D02*
X66102381Y-48985714D01*
X66150000Y-48890476D01*
X66197619Y-48842857D01*
X66292857Y-48795238D01*
X66483333Y-48747619D01*
X66721429Y-48747619D01*
X66911905Y-48795238D01*
X67007143Y-48842857D01*
X67054762Y-48890476D01*
X67102381Y-48985714D01*
X67102381Y-49080953D01*
X67054762Y-49176191D01*
X67007143Y-49223810D01*
X66911905Y-49271429D01*
X66721429Y-49319048D01*
X66483333Y-49319048D01*
X66292857Y-49271429D01*
X66197619Y-49223810D01*
X66150000Y-49176191D01*
X66102381Y-49080953D01*
X66102381Y-48414286D02*
X66102381Y-47747619D01*
X67102381Y-48176191D01*
X66102381Y-47509524D02*
X67102381Y-47176191D01*
X66102381Y-46842857D01*
X66197619Y-46557143D02*
X66150000Y-46509524D01*
X66102381Y-46414286D01*
X66102381Y-46176190D01*
X66150000Y-46080952D01*
X66197619Y-46033333D01*
X66292857Y-45985714D01*
X66388095Y-45985714D01*
X66530952Y-46033333D01*
X67102381Y-46604762D01*
X67102381Y-45985714D01*
X69216667Y-85628571D02*
X68883333Y-85628571D01*
X68883333Y-86152381D02*
X68883333Y-85152381D01*
X69359524Y-85152381D01*
X69692857Y-85247619D02*
X69740476Y-85200000D01*
X69835714Y-85152381D01*
X70073810Y-85152381D01*
X70169048Y-85200000D01*
X70216667Y-85247619D01*
X70264286Y-85342857D01*
X70264286Y-85438095D01*
X70216667Y-85580952D01*
X69645238Y-86152381D01*
X70264286Y-86152381D01*
M02*
