G04 #@! TF.FileFunction,Legend,Bot*
%FSLAX46Y46*%
G04 Gerber Fmt 4.6, Leading zero omitted, Abs format (unit mm)*
G04 Created by KiCad (PCBNEW 4.0.2+dfsg1-stable) date dim. 11 sept. 2016 16:56:50 CEST*
%MOMM*%
G01*
G04 APERTURE LIST*
%ADD10C,0.150000*%
%ADD11C,0.381000*%
%ADD12C,0.304800*%
%ADD13C,0.203200*%
%ADD14C,0.101600*%
%ADD15C,0.088900*%
G04 APERTURE END LIST*
D10*
X62500000Y-90750000D02*
X61500000Y-90750000D01*
X61500000Y-90750000D02*
X61500000Y-84250000D01*
X61500000Y-84250000D02*
X57500000Y-84250000D01*
X57500000Y-84250000D02*
X57500000Y-90750000D01*
X57500000Y-90750000D02*
X56500000Y-90750000D01*
X56500000Y-90750000D02*
X56500000Y-75250000D01*
X56500000Y-75250000D02*
X57500000Y-75250000D01*
X57500000Y-75250000D02*
X57500000Y-82250000D01*
X57500000Y-82250000D02*
X61500000Y-82250000D01*
X61500000Y-82250000D02*
X61500000Y-75250000D01*
X61500000Y-75250000D02*
X62500000Y-75250000D01*
X62500000Y-75250000D02*
X62500000Y-82250000D01*
X80500000Y-75250000D02*
X80500000Y-90750000D01*
X80500000Y-90750000D02*
X79500000Y-90750000D01*
X79500000Y-90750000D02*
X79500000Y-84250000D01*
X79500000Y-84250000D02*
X75500000Y-84250000D01*
X75500000Y-84250000D02*
X75500000Y-90750000D01*
X75500000Y-90750000D02*
X74500000Y-90750000D01*
X74500000Y-90750000D02*
X74500000Y-84250000D01*
X74500000Y-84250000D02*
X62500000Y-84250000D01*
X62500000Y-84250000D02*
X62500000Y-90750000D01*
X62500000Y-82250000D02*
X74500000Y-82250000D01*
X74500000Y-75250000D02*
X74500000Y-82250000D01*
X74500000Y-75250000D02*
X75500000Y-75250000D01*
X75500000Y-82250000D02*
X75500000Y-75250000D01*
X75500000Y-82250000D02*
X79500000Y-82250000D01*
X79500000Y-75250000D02*
X79500000Y-82250000D01*
X79500000Y-75250000D02*
X80500000Y-75250000D01*
D11*
X63420000Y-81655000D02*
X63420000Y-82290000D01*
X63420000Y-82290000D02*
X73580000Y-82290000D01*
X73580000Y-82290000D02*
X73580000Y-81655000D01*
X63420000Y-77845000D02*
X63420000Y-81655000D01*
X63420000Y-81655000D02*
X73580000Y-81655000D01*
X73580000Y-81655000D02*
X73580000Y-77845000D01*
X73580000Y-77845000D02*
X63420000Y-77845000D01*
D12*
X46424000Y-79330000D02*
X56330000Y-79330000D01*
X56330000Y-69170000D02*
X46170000Y-69170000D01*
X48710000Y-69170000D02*
X48710000Y-79330000D01*
X56330000Y-69170000D02*
X56330000Y-79330000D01*
X46170000Y-79330000D02*
X46170000Y-69170000D01*
D10*
X83250000Y-43500000D02*
X83250000Y-67500000D01*
X60250000Y-66500000D02*
X60250000Y-43500000D01*
X83250000Y-67500000D02*
X61250000Y-67500000D01*
X61250000Y-67500000D02*
X60250000Y-66500000D01*
X60250000Y-43500000D02*
X83250000Y-43500000D01*
D13*
X55998980Y-45570620D02*
X52001020Y-45570620D01*
X52001020Y-45570620D02*
X52001020Y-53429380D01*
X52001020Y-53429380D02*
X55998980Y-53429380D01*
X55998980Y-53429380D02*
X55998980Y-45570620D01*
X56397760Y-44770520D02*
X51602240Y-44770520D01*
X51602240Y-44770520D02*
X51602240Y-54229480D01*
X51602240Y-54229480D02*
X56397760Y-54229480D01*
X56397760Y-54229480D02*
X56397760Y-44770520D01*
X53301500Y-54328540D02*
X53301500Y-54729860D01*
X53301500Y-54729860D02*
X54698500Y-54729860D01*
X54698500Y-54729860D02*
X54698500Y-54328540D01*
X52801120Y-54328540D02*
X52801120Y-54729860D01*
X52801120Y-54729860D02*
X52402340Y-54729860D01*
X52402340Y-54729860D02*
X52402340Y-54328540D01*
X55198880Y-54328540D02*
X55198880Y-54729860D01*
X55198880Y-54729860D02*
X55597660Y-54729860D01*
X55597660Y-54729860D02*
X55597660Y-54328540D01*
X52801120Y-44671460D02*
X52801120Y-44270140D01*
X52801120Y-44270140D02*
X52402340Y-44270140D01*
X52402340Y-44270140D02*
X52402340Y-44671460D01*
X55198880Y-44671460D02*
X55198880Y-44270140D01*
X55198880Y-44270140D02*
X55597660Y-44270140D01*
X55597660Y-44270140D02*
X55597660Y-44671460D01*
X53301500Y-44671460D02*
X53301500Y-44270140D01*
X53301500Y-44270140D02*
X54698500Y-44270140D01*
X54698500Y-44270140D02*
X54698500Y-44671460D01*
D14*
X52402340Y-53528440D02*
X52402340Y-53828160D01*
X52402340Y-53828160D02*
X52402340Y-54127880D01*
X54000000Y-53528440D02*
X54000000Y-53828160D01*
X54000000Y-53828160D02*
X54000000Y-54127880D01*
X52702060Y-54127880D02*
X52702060Y-53828160D01*
X52702060Y-53828160D02*
X53700280Y-53828160D01*
X53700280Y-53828160D02*
X53700280Y-54127880D01*
X52702060Y-53528440D02*
X52402340Y-53828160D01*
X53700280Y-53528440D02*
X54000000Y-53828160D01*
X52600460Y-53729100D02*
X52702060Y-53828160D01*
X53801880Y-53729100D02*
X53700280Y-53828160D01*
D10*
X90800000Y-58200000D02*
X90800000Y-42200000D01*
X90800000Y-42200000D02*
X84800000Y-42200000D01*
X84800000Y-42200000D02*
X84800000Y-58200000D01*
X84800000Y-58200000D02*
X90800000Y-58200000D01*
D12*
X93576000Y-69670000D02*
X83670000Y-69670000D01*
X83670000Y-79830000D02*
X93830000Y-79830000D01*
X91290000Y-79830000D02*
X91290000Y-69670000D01*
X83670000Y-79830000D02*
X83670000Y-69670000D01*
X93830000Y-69670000D02*
X93830000Y-79830000D01*
D13*
X67750095Y-75359429D02*
X67750095Y-76593143D01*
X67701714Y-76738286D01*
X67653333Y-76810857D01*
X67556571Y-76883429D01*
X67363048Y-76883429D01*
X67266286Y-76810857D01*
X67217905Y-76738286D01*
X67169524Y-76593143D01*
X67169524Y-75359429D01*
X66782476Y-75359429D02*
X66105143Y-75359429D01*
X66540571Y-76883429D01*
D12*
X55241429Y-72998143D02*
X53717429Y-72998143D01*
X53717429Y-73578715D01*
X53790000Y-73723857D01*
X53862571Y-73796429D01*
X54007714Y-73869000D01*
X54225429Y-73869000D01*
X54370571Y-73796429D01*
X54443143Y-73723857D01*
X54515714Y-73578715D01*
X54515714Y-72998143D01*
X53717429Y-74377000D02*
X53717429Y-75320429D01*
X54298000Y-74812429D01*
X54298000Y-75030143D01*
X54370571Y-75175286D01*
X54443143Y-75247857D01*
X54588286Y-75320429D01*
X54951143Y-75320429D01*
X55096286Y-75247857D01*
X55168857Y-75175286D01*
X55241429Y-75030143D01*
X55241429Y-74594715D01*
X55168857Y-74449572D01*
X55096286Y-74377000D01*
D10*
X72511905Y-54952381D02*
X71940476Y-54952381D01*
X72226191Y-55952381D02*
X72226191Y-54952381D01*
X71083333Y-55952381D02*
X71654762Y-55952381D01*
X71369048Y-55952381D02*
X71369048Y-54952381D01*
X71464286Y-55095238D01*
X71559524Y-55190476D01*
X71654762Y-55238095D01*
X74988095Y-52920381D02*
X74654762Y-53920381D01*
X74321428Y-52920381D01*
X74130952Y-52920381D02*
X73559523Y-52920381D01*
X73845238Y-53920381D02*
X73845238Y-52920381D01*
X73321428Y-52920381D02*
X72654761Y-53920381D01*
X72654761Y-52920381D02*
X73321428Y-53920381D01*
X72273809Y-53539429D02*
X71511904Y-53539429D01*
X71083333Y-53015619D02*
X71035714Y-52968000D01*
X70940476Y-52920381D01*
X70702380Y-52920381D01*
X70607142Y-52968000D01*
X70559523Y-53015619D01*
X70511904Y-53110857D01*
X70511904Y-53206095D01*
X70559523Y-53348952D01*
X71130952Y-53920381D01*
X70511904Y-53920381D01*
X69559523Y-53920381D02*
X70130952Y-53920381D01*
X69845238Y-53920381D02*
X69845238Y-52920381D01*
X69940476Y-53063238D01*
X70035714Y-53158476D01*
X70130952Y-53206095D01*
X68702380Y-53253714D02*
X68702380Y-53920381D01*
X68940476Y-52872762D02*
X69178571Y-53587048D01*
X68559523Y-53587048D01*
D15*
X49074524Y-48562619D02*
X47804524Y-48562619D01*
X47804524Y-49046428D01*
X47865000Y-49167381D01*
X47925476Y-49227857D01*
X48046429Y-49288333D01*
X48227857Y-49288333D01*
X48348810Y-49227857D01*
X48409286Y-49167381D01*
X48469762Y-49046428D01*
X48469762Y-48562619D01*
X47925476Y-49772143D02*
X47865000Y-49832619D01*
X47804524Y-49953571D01*
X47804524Y-50255952D01*
X47865000Y-50376905D01*
X47925476Y-50437381D01*
X48046429Y-50497857D01*
X48167381Y-50497857D01*
X48348810Y-50437381D01*
X49074524Y-49711667D01*
X49074524Y-50497857D01*
X59703571Y-47308810D02*
X59764048Y-47248334D01*
X59824524Y-47066905D01*
X59824524Y-46945953D01*
X59764048Y-46764525D01*
X59643095Y-46643572D01*
X59522143Y-46583096D01*
X59280238Y-46522620D01*
X59098810Y-46522620D01*
X58856905Y-46583096D01*
X58735952Y-46643572D01*
X58615000Y-46764525D01*
X58554524Y-46945953D01*
X58554524Y-47066905D01*
X58615000Y-47248334D01*
X58675476Y-47308810D01*
X58554524Y-48095001D02*
X58554524Y-48336905D01*
X58615000Y-48457858D01*
X58735952Y-48578810D01*
X58977857Y-48639286D01*
X59401190Y-48639286D01*
X59643095Y-48578810D01*
X59764048Y-48457858D01*
X59824524Y-48336905D01*
X59824524Y-48095001D01*
X59764048Y-47974048D01*
X59643095Y-47853096D01*
X59401190Y-47792620D01*
X58977857Y-47792620D01*
X58735952Y-47853096D01*
X58615000Y-47974048D01*
X58554524Y-48095001D01*
X59824524Y-49183572D02*
X58554524Y-49183572D01*
X59824524Y-49909286D01*
X58554524Y-49909286D01*
X59824524Y-50514048D02*
X58554524Y-50514048D01*
X59824524Y-51239762D01*
X58554524Y-51239762D01*
X59945476Y-51542143D02*
X59945476Y-52509762D01*
X58554524Y-53356429D02*
X58554524Y-53114524D01*
X58615000Y-52993572D01*
X58675476Y-52933095D01*
X58856905Y-52812143D01*
X59098810Y-52751667D01*
X59582619Y-52751667D01*
X59703571Y-52812143D01*
X59764048Y-52872619D01*
X59824524Y-52993572D01*
X59824524Y-53235476D01*
X59764048Y-53356429D01*
X59703571Y-53416905D01*
X59582619Y-53477381D01*
X59280238Y-53477381D01*
X59159286Y-53416905D01*
X59098810Y-53356429D01*
X59038333Y-53235476D01*
X59038333Y-52993572D01*
X59098810Y-52872619D01*
X59159286Y-52812143D01*
X59280238Y-52751667D01*
D13*
X88162857Y-50030667D02*
X88211238Y-49982286D01*
X88259619Y-49837143D01*
X88259619Y-49740381D01*
X88211238Y-49595239D01*
X88114476Y-49498477D01*
X88017714Y-49450096D01*
X87824190Y-49401715D01*
X87679048Y-49401715D01*
X87485524Y-49450096D01*
X87388762Y-49498477D01*
X87292000Y-49595239D01*
X87243619Y-49740381D01*
X87243619Y-49837143D01*
X87292000Y-49982286D01*
X87340381Y-50030667D01*
X87679048Y-50611239D02*
X87630667Y-50514477D01*
X87582286Y-50466096D01*
X87485524Y-50417715D01*
X87437143Y-50417715D01*
X87340381Y-50466096D01*
X87292000Y-50514477D01*
X87243619Y-50611239D01*
X87243619Y-50804762D01*
X87292000Y-50901524D01*
X87340381Y-50949905D01*
X87437143Y-50998286D01*
X87485524Y-50998286D01*
X87582286Y-50949905D01*
X87630667Y-50901524D01*
X87679048Y-50804762D01*
X87679048Y-50611239D01*
X87727429Y-50514477D01*
X87775810Y-50466096D01*
X87872571Y-50417715D01*
X88066095Y-50417715D01*
X88162857Y-50466096D01*
X88211238Y-50514477D01*
X88259619Y-50611239D01*
X88259619Y-50804762D01*
X88211238Y-50901524D01*
X88162857Y-50949905D01*
X88066095Y-50998286D01*
X87872571Y-50998286D01*
X87775810Y-50949905D01*
X87727429Y-50901524D01*
X87679048Y-50804762D01*
D12*
X83217429Y-73987143D02*
X81693429Y-73987143D01*
X81693429Y-74567715D01*
X81766000Y-74712857D01*
X81838571Y-74785429D01*
X81983714Y-74858000D01*
X82201429Y-74858000D01*
X82346571Y-74785429D01*
X82419143Y-74712857D01*
X82491714Y-74567715D01*
X82491714Y-73987143D01*
X83217429Y-76309429D02*
X83217429Y-75438572D01*
X83217429Y-75874000D02*
X81693429Y-75874000D01*
X81911143Y-75728857D01*
X82056286Y-75583715D01*
X82128857Y-75438572D01*
X96679429Y-70757715D02*
X95155429Y-70757715D01*
X96679429Y-71483429D02*
X95155429Y-71483429D01*
X96679429Y-72354286D01*
X95155429Y-72354286D01*
M02*
