G04 #@! TF.FileFunction,Soldermask,Top*
%FSLAX46Y46*%
G04 Gerber Fmt 4.6, Leading zero omitted, Abs format (unit mm)*
G04 Created by KiCad (PCBNEW 4.0.0~rc1a-stable) date sam. 21 nov. 2015 23:43:42 CET*
%MOMM*%
G01*
G04 APERTURE LIST*
%ADD10C,0.150000*%
%ADD11R,3.000000X3.000000*%
%ADD12C,3.000000*%
%ADD13C,2.500000*%
%ADD14R,2.500000X2.500000*%
%ADD15R,3.497580X1.498600*%
%ADD16R,2.400000X3.480000*%
%ADD17R,1.500000X1.600000*%
%ADD18R,0.500000X1.600000*%
%ADD19R,2.032000X1.524000*%
%ADD20R,1.524000X2.032000*%
%ADD21R,0.635000X1.143000*%
%ADD22R,1.143000X0.635000*%
%ADD23R,3.556000X4.191000*%
%ADD24C,1.574800*%
%ADD25C,1.600000*%
%ADD26R,1.400000X1.000000*%
%ADD27O,1.400000X1.000000*%
%ADD28C,2.000000*%
%ADD29R,2.540000X1.270000*%
%ADD30R,0.914400X0.914400*%
%ADD31R,1.000760X0.800100*%
%ADD32R,0.599440X0.599440*%
%ADD33R,0.850900X0.850900*%
%ADD34R,2.000000X1.000000*%
%ADD35C,2.349500*%
G04 APERTURE END LIST*
D10*
D11*
X51250000Y-76790000D03*
D12*
X51250000Y-71710000D03*
D13*
X63000000Y-46000000D03*
D14*
X63000000Y-64000000D03*
D13*
X80500000Y-65000000D03*
X80500000Y-46000000D03*
D15*
X53540000Y-65695000D03*
X48460000Y-64425000D03*
X53540000Y-63155000D03*
X48460000Y-61885000D03*
X53540000Y-60615000D03*
X48460000Y-59345000D03*
X53540000Y-58075000D03*
X48460000Y-56805000D03*
D16*
X56259000Y-73440000D03*
X59819000Y-73440000D03*
D17*
X60539000Y-67770000D03*
X55539000Y-67770000D03*
D18*
X58439000Y-67770000D03*
X59239000Y-67770000D03*
X57639000Y-67770000D03*
X56839000Y-67770000D03*
D19*
X83750000Y-44849000D03*
X83750000Y-48151000D03*
D10*
G36*
X80237828Y-70825331D02*
X81674669Y-72262172D01*
X80597038Y-73339803D01*
X79160197Y-71902962D01*
X80237828Y-70825331D01*
X80237828Y-70825331D01*
G37*
G36*
X77902962Y-73160197D02*
X79339803Y-74597038D01*
X78262172Y-75674669D01*
X76825331Y-74237828D01*
X77902962Y-73160197D01*
X77902962Y-73160197D01*
G37*
D20*
X71401000Y-75750000D03*
X68099000Y-75750000D03*
D19*
X76000000Y-76599000D03*
X76000000Y-79901000D03*
X92400000Y-57251000D03*
X92400000Y-53949000D03*
D21*
X67738000Y-64000000D03*
X69262000Y-64000000D03*
D22*
X75500000Y-59012000D03*
X75500000Y-57488000D03*
D21*
X67738000Y-62250000D03*
X69262000Y-62250000D03*
D22*
X52750000Y-51238000D03*
X52750000Y-52762000D03*
X93091000Y-51054000D03*
X93091000Y-52578000D03*
D21*
X88012000Y-49250000D03*
X86488000Y-49250000D03*
D12*
X65000000Y-69960000D03*
X65000000Y-75040000D03*
D23*
X89200000Y-67375000D03*
X89200000Y-61025000D03*
D24*
X72673816Y-64581714D02*
X72170922Y-64078820D01*
D10*
G36*
X70374871Y-64761319D02*
X71991317Y-66377765D01*
X70877765Y-67491317D01*
X69261319Y-65874871D01*
X70374871Y-64761319D01*
X70374871Y-64761319D01*
G37*
G36*
X68578820Y-66557370D02*
X70195266Y-68173816D01*
X69081714Y-69287368D01*
X67465268Y-67670922D01*
X68578820Y-66557370D01*
X68578820Y-66557370D01*
G37*
G36*
X74326184Y-72304734D02*
X75942630Y-73921180D01*
X74829078Y-75034732D01*
X73212632Y-73418286D01*
X74326184Y-72304734D01*
X74326184Y-72304734D01*
G37*
G36*
X76122235Y-70508683D02*
X77738681Y-72125129D01*
X76625129Y-73238681D01*
X75008683Y-71622235D01*
X76122235Y-70508683D01*
X76122235Y-70508683D01*
G37*
G36*
X77918286Y-68712632D02*
X79534732Y-70329078D01*
X78421180Y-71442630D01*
X76804734Y-69826184D01*
X77918286Y-68712632D01*
X77918286Y-68712632D01*
G37*
D25*
X84800000Y-67340000D03*
X84800000Y-62260000D03*
D26*
X85500000Y-54540000D03*
D27*
X85500000Y-52000000D03*
X76000000Y-52000000D03*
X76000000Y-54540000D03*
D28*
X87800000Y-56450000D03*
X87800000Y-43970000D03*
D29*
X50250000Y-50476000D03*
X50250000Y-53524000D03*
X55250000Y-50476000D03*
X55250000Y-53524000D03*
D11*
X88750000Y-72210000D03*
D12*
X88750000Y-77290000D03*
D30*
X58611000Y-62234000D03*
X60389000Y-62234000D03*
X59500000Y-64266000D03*
D31*
X87292180Y-51816000D03*
X89491820Y-50863500D03*
X89491820Y-52768500D03*
D22*
X56000000Y-49012000D03*
X56000000Y-47488000D03*
D21*
X56262000Y-44500000D03*
X54738000Y-44500000D03*
X56262000Y-46000000D03*
X54738000Y-46000000D03*
D32*
X90932000Y-50766980D03*
X90932000Y-52865020D03*
D33*
X86076140Y-47250000D03*
X89423860Y-47250000D03*
D22*
X91000000Y-47988000D03*
X91000000Y-49512000D03*
X75500000Y-48738000D03*
X75500000Y-50262000D03*
D34*
X58159000Y-45324000D03*
X58159000Y-47324000D03*
X58159000Y-49324000D03*
X58159000Y-51324000D03*
X58159000Y-53324000D03*
X58159000Y-55324000D03*
X58159000Y-57324000D03*
X58159000Y-59324000D03*
X73159000Y-59324000D03*
X73159000Y-57324000D03*
X73159000Y-55324000D03*
X73159000Y-53324000D03*
X73159000Y-51324000D03*
X73159000Y-49324000D03*
X73159000Y-47324000D03*
X73159000Y-45324000D03*
D14*
X64944000Y-79750000D03*
D13*
X72056000Y-79750000D03*
X68500000Y-79750000D03*
D35*
X74501260Y-86750000D03*
X79499980Y-86750000D03*
X64498740Y-86750000D03*
X59500020Y-86750000D03*
M02*
