G04 #@! TF.FileFunction,Copper,L2,Bot,Signal*
%FSLAX46Y46*%
G04 Gerber Fmt 4.6, Leading zero omitted, Abs format (unit mm)*
G04 Created by KiCad (PCBNEW 4.0.2+dfsg1-stable) date dim. 11 sept. 2016 16:56:50 CEST*
%MOMM*%
G01*
G04 APERTURE LIST*
%ADD10C,0.150000*%
%ADD11R,2.500000X2.500000*%
%ADD12C,2.500000*%
%ADD13R,3.000000X3.000000*%
%ADD14C,3.000000*%
%ADD15R,3.497580X1.498600*%
%ADD16C,1.600000*%
%ADD17C,2.000000*%
%ADD18C,2.349500*%
%ADD19C,0.700000*%
%ADD20C,0.200000*%
%ADD21C,2.500000*%
%ADD22C,2.000000*%
%ADD23C,1.500000*%
%ADD24C,0.250000*%
G04 APERTURE END LIST*
D10*
D11*
X68500000Y-79750000D03*
D12*
X72056000Y-79750000D03*
X64944000Y-79750000D03*
D13*
X51250000Y-76790000D03*
D14*
X51250000Y-71710000D03*
D12*
X63000000Y-46000000D03*
D11*
X63000000Y-64000000D03*
D12*
X80500000Y-65000000D03*
X80500000Y-46000000D03*
D15*
X51460000Y-52675000D03*
X56540000Y-51405000D03*
X51460000Y-50135000D03*
X56540000Y-48865000D03*
X51460000Y-47595000D03*
X56540000Y-46325000D03*
D14*
X65400000Y-69960000D03*
X65400000Y-75040000D03*
D16*
X84800000Y-67340000D03*
X84800000Y-62260000D03*
D17*
X87800000Y-56450000D03*
X87800000Y-43970000D03*
D13*
X88750000Y-72210000D03*
D14*
X88750000Y-77290000D03*
D18*
X74501260Y-86750000D03*
X79499980Y-86750000D03*
X64498740Y-86750000D03*
X59500020Y-86750000D03*
D19*
X55750000Y-58000000D03*
X49000000Y-52000000D03*
D17*
X56200000Y-76600000D03*
X59750000Y-76550000D03*
D19*
X56300000Y-61200000D03*
X68750000Y-53250000D03*
X51000000Y-59500000D03*
X51000000Y-62000000D03*
X56500000Y-57500000D03*
X71500000Y-47500000D03*
X65000000Y-47500000D03*
X56500000Y-63000000D03*
X64750000Y-55000000D03*
X56750000Y-65000000D03*
X69500000Y-56250000D03*
X51000000Y-56250000D03*
X59500000Y-45250000D03*
X71000000Y-59500000D03*
X51000000Y-64500000D03*
X53300000Y-45700000D03*
X48000000Y-53500000D03*
X62000000Y-51500000D03*
X73000000Y-71750000D03*
D20*
X55675000Y-58075000D02*
X48460000Y-58075000D01*
X55750000Y-58000000D02*
X55675000Y-58075000D01*
X48460000Y-58075000D02*
X48460000Y-55675000D01*
X49675000Y-52675000D02*
X51460000Y-52675000D01*
X49000000Y-52000000D02*
X49675000Y-52675000D01*
X48460000Y-55675000D02*
X51460000Y-52675000D01*
D21*
X65440000Y-75040000D02*
X68500000Y-78100000D01*
X68500000Y-78100000D02*
X68500000Y-79750000D01*
X65400000Y-75040000D02*
X65840000Y-75040000D01*
D22*
X64944000Y-75096000D02*
X65000000Y-75040000D01*
D21*
X51250000Y-71710000D02*
X51660000Y-71710000D01*
X51660000Y-71710000D02*
X52800000Y-72850000D01*
X52800000Y-72850000D02*
X54700000Y-72850000D01*
X54700000Y-72850000D02*
X56200000Y-74350000D01*
X56200000Y-74350000D02*
X56200000Y-76600000D01*
X56200000Y-76600000D02*
X56200000Y-74350000D01*
D22*
X59500020Y-86750000D02*
X59500020Y-85040020D01*
X59500020Y-85040020D02*
X51250000Y-76790000D01*
X64500000Y-86750000D02*
X59500000Y-86750000D01*
X80500000Y-56400000D02*
X80500000Y-60500000D01*
X84800000Y-62260000D02*
X82260000Y-62260000D01*
X82260000Y-62260000D02*
X80500000Y-60500000D01*
D23*
X77600000Y-63400000D02*
X80500000Y-60500000D01*
X77600000Y-66200000D02*
X77600000Y-63400000D01*
X83610000Y-72210000D02*
X77600000Y-66200000D01*
D21*
X64944000Y-79750000D02*
X64944000Y-82444000D01*
X64944000Y-82444000D02*
X66000000Y-83500000D01*
X66000000Y-83500000D02*
X73367184Y-83500000D01*
X73367184Y-83500000D02*
X73667184Y-83200000D01*
X73667184Y-83200000D02*
X75250000Y-83200000D01*
X75250000Y-83200000D02*
X86240000Y-72210000D01*
X86240000Y-72210000D02*
X88750000Y-72210000D01*
D22*
X87600000Y-43970000D02*
X82630000Y-43970000D01*
X82630000Y-43970000D02*
X81800000Y-44800000D01*
X80500000Y-46000000D02*
X80600000Y-46000000D01*
X80600000Y-46000000D02*
X81800000Y-44800000D01*
X80500000Y-46000000D02*
X80500000Y-56400000D01*
D23*
X85040000Y-72210000D02*
X83610000Y-72210000D01*
D22*
X88750000Y-72210000D02*
X85040000Y-72210000D01*
X88000000Y-67340000D02*
X84800000Y-67340000D01*
X90740000Y-67340000D02*
X88000000Y-67340000D01*
D23*
X92800000Y-58000000D02*
X92800000Y-64600000D01*
X92800000Y-64600000D02*
X92800000Y-65600000D01*
X88000000Y-67340000D02*
X90060000Y-67340000D01*
X90060000Y-67340000D02*
X92800000Y-64600000D01*
X92800000Y-65600000D02*
X92800000Y-69400000D01*
X90740000Y-67340000D02*
X91060000Y-67340000D01*
X91060000Y-67340000D02*
X92800000Y-65600000D01*
X91250000Y-56450000D02*
X92800000Y-58000000D01*
D22*
X92600000Y-74800000D02*
X92600000Y-69200000D01*
X92600000Y-69200000D02*
X90740000Y-67340000D01*
D23*
X91050000Y-56450000D02*
X91250000Y-56450000D01*
D21*
X79499980Y-86750000D02*
X79499980Y-86540020D01*
X79499980Y-86540020D02*
X88750000Y-77290000D01*
X74501260Y-86750000D02*
X79499980Y-86750000D01*
D22*
X79499980Y-86750000D02*
X79499980Y-86540020D01*
X79499980Y-86540020D02*
X88750000Y-77290000D01*
X87600000Y-56450000D02*
X91050000Y-56450000D01*
X88750000Y-77290000D02*
X90110000Y-77290000D01*
X90110000Y-77290000D02*
X92600000Y-74800000D01*
X79500000Y-86750000D02*
X74500000Y-86750000D01*
D21*
X64240000Y-69960000D02*
X59750000Y-74450000D01*
X65000000Y-69960000D02*
X64240000Y-69960000D01*
X59750000Y-74450000D02*
X59750000Y-76550000D01*
D20*
X56300000Y-61200000D02*
X64250000Y-53250000D01*
X58100000Y-47595000D02*
X63805000Y-47595000D01*
X63805000Y-47595000D02*
X64650000Y-46750000D01*
X51460000Y-47595000D02*
X58100000Y-47595000D01*
X68750000Y-50250000D02*
X68750000Y-53250000D01*
X64650000Y-46750000D02*
X65250000Y-46750000D01*
X65250000Y-46750000D02*
X68750000Y-50250000D01*
X64250000Y-53250000D02*
X68750000Y-53250000D01*
X51000000Y-59500000D02*
X51155000Y-59345000D01*
X51155000Y-59345000D02*
X53540000Y-59345000D01*
X53540000Y-61885000D02*
X54615000Y-61885000D01*
X54615000Y-61885000D02*
X56500000Y-60000000D01*
X56500000Y-57500000D02*
X56500000Y-57500000D01*
X56500000Y-60000000D02*
X56500000Y-57500000D01*
X53540000Y-61885000D02*
X51115000Y-61885000D01*
X51115000Y-61885000D02*
X51000000Y-62000000D01*
X46405000Y-63155000D02*
X48460000Y-63155000D01*
X45850000Y-62600000D02*
X46405000Y-63155000D01*
X45850000Y-52400000D02*
X45850000Y-62600000D01*
X48460000Y-63155000D02*
X55345000Y-63155000D01*
X55345000Y-63155000D02*
X64500000Y-54000000D01*
X56540000Y-48865000D02*
X49385000Y-48865000D01*
X49385000Y-48865000D02*
X45850000Y-52400000D01*
X71000000Y-48000000D02*
X71500000Y-47500000D01*
X71000000Y-52500000D02*
X71000000Y-48000000D01*
X69500000Y-54000000D02*
X71000000Y-52500000D01*
X64500000Y-54000000D02*
X69500000Y-54000000D01*
X46765000Y-60615000D02*
X48460000Y-60615000D01*
X46350000Y-60200000D02*
X46765000Y-60615000D01*
X46350000Y-52900000D02*
X46350000Y-60200000D01*
X51460000Y-50135000D02*
X62365000Y-50135000D01*
X62365000Y-50135000D02*
X65000000Y-47500000D01*
X51460000Y-50135000D02*
X49115000Y-50135000D01*
X49115000Y-50135000D02*
X46350000Y-52900000D01*
X56750000Y-63000000D02*
X56500000Y-63000000D01*
X64750000Y-55000000D02*
X56750000Y-63000000D01*
X56750000Y-65000000D02*
X56800000Y-65000000D01*
X62800000Y-59000000D02*
X66750000Y-59000000D01*
X56800000Y-65000000D02*
X62800000Y-59000000D01*
X69500000Y-56250000D02*
X66750000Y-59000000D01*
X51000000Y-56250000D02*
X51555000Y-56805000D01*
X51555000Y-56805000D02*
X53540000Y-56805000D01*
X56540000Y-46325000D02*
X58425000Y-46325000D01*
X58425000Y-46325000D02*
X59500000Y-45250000D01*
X53540000Y-64425000D02*
X51075000Y-64425000D01*
X51075000Y-64425000D02*
X51000000Y-64500000D01*
X56540000Y-51405000D02*
X61905000Y-51405000D01*
X61905000Y-51405000D02*
X62000000Y-51500000D01*
X72056000Y-79750000D02*
X72056000Y-78056000D01*
X71000000Y-77000000D02*
X71000000Y-73500000D01*
X72056000Y-78056000D02*
X71000000Y-77000000D01*
X71500000Y-79194000D02*
X72056000Y-79750000D01*
X71000000Y-73255026D02*
X71000000Y-73500000D01*
X73000000Y-71750000D02*
X72505026Y-71750000D01*
X72505026Y-71750000D02*
X71000000Y-73255026D01*
X72056000Y-79750000D02*
X72056000Y-79306000D01*
D24*
G36*
X77375000Y-48551776D02*
X77375000Y-57448224D01*
X74911612Y-59911612D01*
X74884187Y-59952963D01*
X74875000Y-60000000D01*
X74875000Y-63448224D01*
X70948224Y-67375000D01*
X67551776Y-67375000D01*
X66588388Y-66411612D01*
X66547037Y-66384187D01*
X66500000Y-66375000D01*
X63500000Y-66375000D01*
X63451368Y-66384848D01*
X63411612Y-66411612D01*
X62448224Y-67375000D01*
X42625000Y-67375000D01*
X42625000Y-67289115D01*
X42748280Y-67264593D01*
X42748281Y-67264593D01*
X42901484Y-67201134D01*
X43550331Y-66767589D01*
X43667589Y-66650331D01*
X44101134Y-66001484D01*
X44164593Y-65848281D01*
X44164593Y-65848279D01*
X44304766Y-65143579D01*
X56024874Y-65143579D01*
X56135016Y-65410143D01*
X56338784Y-65614267D01*
X56605156Y-65724874D01*
X56893579Y-65725126D01*
X57160143Y-65614984D01*
X57364267Y-65411216D01*
X57474874Y-65144844D01*
X57475003Y-64996749D01*
X58328001Y-64143750D01*
X61275000Y-64143750D01*
X61275000Y-65344484D01*
X61347315Y-65519066D01*
X61480934Y-65652686D01*
X61655517Y-65725000D01*
X62856250Y-65725000D01*
X62975000Y-65606250D01*
X62975000Y-64025000D01*
X63025000Y-64025000D01*
X63025000Y-65606250D01*
X63143750Y-65725000D01*
X64344483Y-65725000D01*
X64519066Y-65652686D01*
X64652685Y-65519066D01*
X64725000Y-65344484D01*
X64725000Y-64143750D01*
X64606250Y-64025000D01*
X63025000Y-64025000D01*
X62975000Y-64025000D01*
X61393750Y-64025000D01*
X61275000Y-64143750D01*
X58328001Y-64143750D01*
X59816235Y-62655516D01*
X61275000Y-62655516D01*
X61275000Y-63856250D01*
X61393750Y-63975000D01*
X62975000Y-63975000D01*
X62975000Y-62393750D01*
X63025000Y-62393750D01*
X63025000Y-63975000D01*
X64606250Y-63975000D01*
X64725000Y-63856250D01*
X64725000Y-62655516D01*
X64652685Y-62480934D01*
X64519066Y-62347314D01*
X64344483Y-62275000D01*
X63143750Y-62275000D01*
X63025000Y-62393750D01*
X62975000Y-62393750D01*
X62856250Y-62275000D01*
X61655517Y-62275000D01*
X61480934Y-62347314D01*
X61347315Y-62480934D01*
X61275000Y-62655516D01*
X59816235Y-62655516D01*
X62996751Y-59475000D01*
X66750000Y-59475000D01*
X66931775Y-59438843D01*
X67085876Y-59335876D01*
X69446798Y-56974954D01*
X69643579Y-56975126D01*
X69910143Y-56864984D01*
X70114267Y-56661216D01*
X70224874Y-56394844D01*
X70225126Y-56106421D01*
X70114984Y-55839857D01*
X69911216Y-55635733D01*
X69644844Y-55525126D01*
X69356421Y-55524874D01*
X69089857Y-55635016D01*
X68885733Y-55838784D01*
X68775126Y-56105156D01*
X68774953Y-56303295D01*
X66553248Y-58525000D01*
X62800000Y-58525000D01*
X62618225Y-58561157D01*
X62464124Y-58664124D01*
X62464122Y-58664127D01*
X56853158Y-64275090D01*
X56606421Y-64274874D01*
X56339857Y-64385016D01*
X56135733Y-64588784D01*
X56025126Y-64855156D01*
X56024874Y-65143579D01*
X44304766Y-65143579D01*
X44316834Y-65082914D01*
X44316834Y-64917086D01*
X44164593Y-64151720D01*
X44101134Y-63998516D01*
X43667589Y-63349669D01*
X43550331Y-63232411D01*
X42901484Y-62798866D01*
X42748281Y-62735407D01*
X42748280Y-62735407D01*
X42625000Y-62710885D01*
X42625000Y-59976040D01*
X45375000Y-57226041D01*
X45375000Y-62600000D01*
X45411157Y-62781775D01*
X45514124Y-62935876D01*
X46069122Y-63490873D01*
X46069124Y-63490876D01*
X46172092Y-63559677D01*
X46223226Y-63593844D01*
X46405000Y-63630001D01*
X46405005Y-63630000D01*
X55345000Y-63630000D01*
X55526775Y-63593843D01*
X55680876Y-63490876D01*
X55848934Y-63322818D01*
X55885016Y-63410143D01*
X56088784Y-63614267D01*
X56355156Y-63724874D01*
X56643579Y-63725126D01*
X56910143Y-63614984D01*
X57114267Y-63411216D01*
X57187925Y-63233827D01*
X64696797Y-55724954D01*
X64893579Y-55725126D01*
X65160143Y-55614984D01*
X65364267Y-55411216D01*
X65474874Y-55144844D01*
X65475126Y-54856421D01*
X65364984Y-54589857D01*
X65250327Y-54475000D01*
X69500000Y-54475000D01*
X69681775Y-54438843D01*
X69835876Y-54335876D01*
X71335873Y-52835878D01*
X71335876Y-52835876D01*
X71438843Y-52681775D01*
X71475000Y-52500000D01*
X71475000Y-48224979D01*
X71643579Y-48225126D01*
X71910143Y-48114984D01*
X72114267Y-47911216D01*
X72224874Y-47644844D01*
X72225126Y-47356421D01*
X72114984Y-47089857D01*
X71911216Y-46885733D01*
X71644844Y-46775126D01*
X71356421Y-46774874D01*
X71089857Y-46885016D01*
X70885733Y-47088784D01*
X70775126Y-47355156D01*
X70774953Y-47553295D01*
X70664124Y-47664124D01*
X70561157Y-47818225D01*
X70525000Y-48000000D01*
X70525000Y-52303249D01*
X69474910Y-53353338D01*
X69475126Y-53106421D01*
X69364984Y-52839857D01*
X69225000Y-52699628D01*
X69225000Y-50250000D01*
X69188843Y-50068225D01*
X69085876Y-49914124D01*
X69085873Y-49914122D01*
X65585876Y-46414124D01*
X65431775Y-46311157D01*
X65250000Y-46275000D01*
X64650000Y-46275000D01*
X64624757Y-46280021D01*
X64625282Y-45678186D01*
X64378412Y-45080714D01*
X63923493Y-44625000D01*
X73448224Y-44625000D01*
X77375000Y-48551776D01*
X77375000Y-48551776D01*
G37*
X77375000Y-48551776D02*
X77375000Y-57448224D01*
X74911612Y-59911612D01*
X74884187Y-59952963D01*
X74875000Y-60000000D01*
X74875000Y-63448224D01*
X70948224Y-67375000D01*
X67551776Y-67375000D01*
X66588388Y-66411612D01*
X66547037Y-66384187D01*
X66500000Y-66375000D01*
X63500000Y-66375000D01*
X63451368Y-66384848D01*
X63411612Y-66411612D01*
X62448224Y-67375000D01*
X42625000Y-67375000D01*
X42625000Y-67289115D01*
X42748280Y-67264593D01*
X42748281Y-67264593D01*
X42901484Y-67201134D01*
X43550331Y-66767589D01*
X43667589Y-66650331D01*
X44101134Y-66001484D01*
X44164593Y-65848281D01*
X44164593Y-65848279D01*
X44304766Y-65143579D01*
X56024874Y-65143579D01*
X56135016Y-65410143D01*
X56338784Y-65614267D01*
X56605156Y-65724874D01*
X56893579Y-65725126D01*
X57160143Y-65614984D01*
X57364267Y-65411216D01*
X57474874Y-65144844D01*
X57475003Y-64996749D01*
X58328001Y-64143750D01*
X61275000Y-64143750D01*
X61275000Y-65344484D01*
X61347315Y-65519066D01*
X61480934Y-65652686D01*
X61655517Y-65725000D01*
X62856250Y-65725000D01*
X62975000Y-65606250D01*
X62975000Y-64025000D01*
X63025000Y-64025000D01*
X63025000Y-65606250D01*
X63143750Y-65725000D01*
X64344483Y-65725000D01*
X64519066Y-65652686D01*
X64652685Y-65519066D01*
X64725000Y-65344484D01*
X64725000Y-64143750D01*
X64606250Y-64025000D01*
X63025000Y-64025000D01*
X62975000Y-64025000D01*
X61393750Y-64025000D01*
X61275000Y-64143750D01*
X58328001Y-64143750D01*
X59816235Y-62655516D01*
X61275000Y-62655516D01*
X61275000Y-63856250D01*
X61393750Y-63975000D01*
X62975000Y-63975000D01*
X62975000Y-62393750D01*
X63025000Y-62393750D01*
X63025000Y-63975000D01*
X64606250Y-63975000D01*
X64725000Y-63856250D01*
X64725000Y-62655516D01*
X64652685Y-62480934D01*
X64519066Y-62347314D01*
X64344483Y-62275000D01*
X63143750Y-62275000D01*
X63025000Y-62393750D01*
X62975000Y-62393750D01*
X62856250Y-62275000D01*
X61655517Y-62275000D01*
X61480934Y-62347314D01*
X61347315Y-62480934D01*
X61275000Y-62655516D01*
X59816235Y-62655516D01*
X62996751Y-59475000D01*
X66750000Y-59475000D01*
X66931775Y-59438843D01*
X67085876Y-59335876D01*
X69446798Y-56974954D01*
X69643579Y-56975126D01*
X69910143Y-56864984D01*
X70114267Y-56661216D01*
X70224874Y-56394844D01*
X70225126Y-56106421D01*
X70114984Y-55839857D01*
X69911216Y-55635733D01*
X69644844Y-55525126D01*
X69356421Y-55524874D01*
X69089857Y-55635016D01*
X68885733Y-55838784D01*
X68775126Y-56105156D01*
X68774953Y-56303295D01*
X66553248Y-58525000D01*
X62800000Y-58525000D01*
X62618225Y-58561157D01*
X62464124Y-58664124D01*
X62464122Y-58664127D01*
X56853158Y-64275090D01*
X56606421Y-64274874D01*
X56339857Y-64385016D01*
X56135733Y-64588784D01*
X56025126Y-64855156D01*
X56024874Y-65143579D01*
X44304766Y-65143579D01*
X44316834Y-65082914D01*
X44316834Y-64917086D01*
X44164593Y-64151720D01*
X44101134Y-63998516D01*
X43667589Y-63349669D01*
X43550331Y-63232411D01*
X42901484Y-62798866D01*
X42748281Y-62735407D01*
X42748280Y-62735407D01*
X42625000Y-62710885D01*
X42625000Y-59976040D01*
X45375000Y-57226041D01*
X45375000Y-62600000D01*
X45411157Y-62781775D01*
X45514124Y-62935876D01*
X46069122Y-63490873D01*
X46069124Y-63490876D01*
X46172092Y-63559677D01*
X46223226Y-63593844D01*
X46405000Y-63630001D01*
X46405005Y-63630000D01*
X55345000Y-63630000D01*
X55526775Y-63593843D01*
X55680876Y-63490876D01*
X55848934Y-63322818D01*
X55885016Y-63410143D01*
X56088784Y-63614267D01*
X56355156Y-63724874D01*
X56643579Y-63725126D01*
X56910143Y-63614984D01*
X57114267Y-63411216D01*
X57187925Y-63233827D01*
X64696797Y-55724954D01*
X64893579Y-55725126D01*
X65160143Y-55614984D01*
X65364267Y-55411216D01*
X65474874Y-55144844D01*
X65475126Y-54856421D01*
X65364984Y-54589857D01*
X65250327Y-54475000D01*
X69500000Y-54475000D01*
X69681775Y-54438843D01*
X69835876Y-54335876D01*
X71335873Y-52835878D01*
X71335876Y-52835876D01*
X71438843Y-52681775D01*
X71475000Y-52500000D01*
X71475000Y-48224979D01*
X71643579Y-48225126D01*
X71910143Y-48114984D01*
X72114267Y-47911216D01*
X72224874Y-47644844D01*
X72225126Y-47356421D01*
X72114984Y-47089857D01*
X71911216Y-46885733D01*
X71644844Y-46775126D01*
X71356421Y-46774874D01*
X71089857Y-46885016D01*
X70885733Y-47088784D01*
X70775126Y-47355156D01*
X70774953Y-47553295D01*
X70664124Y-47664124D01*
X70561157Y-47818225D01*
X70525000Y-48000000D01*
X70525000Y-52303249D01*
X69474910Y-53353338D01*
X69475126Y-53106421D01*
X69364984Y-52839857D01*
X69225000Y-52699628D01*
X69225000Y-50250000D01*
X69188843Y-50068225D01*
X69085876Y-49914124D01*
X69085873Y-49914122D01*
X65585876Y-46414124D01*
X65431775Y-46311157D01*
X65250000Y-46275000D01*
X64650000Y-46275000D01*
X64624757Y-46280021D01*
X64625282Y-45678186D01*
X64378412Y-45080714D01*
X63923493Y-44625000D01*
X73448224Y-44625000D01*
X77375000Y-48551776D01*
G36*
X68275000Y-50446751D02*
X68275000Y-52699760D01*
X68199628Y-52775000D01*
X64250005Y-52775000D01*
X64250000Y-52774999D01*
X64098384Y-52805158D01*
X64068225Y-52811157D01*
X63935262Y-52900000D01*
X63914124Y-52914124D01*
X56975000Y-59853248D01*
X56975000Y-58050240D01*
X57114267Y-57911216D01*
X57224874Y-57644844D01*
X57225126Y-57356421D01*
X57114984Y-57089857D01*
X56911216Y-56885733D01*
X56644844Y-56775126D01*
X56356421Y-56774874D01*
X56089857Y-56885016D01*
X55885733Y-57088784D01*
X55808389Y-57275050D01*
X55606421Y-57274874D01*
X55339857Y-57385016D01*
X55135733Y-57588784D01*
X55131076Y-57600000D01*
X48935000Y-57600000D01*
X48935000Y-56393579D01*
X50274874Y-56393579D01*
X50385016Y-56660143D01*
X50588784Y-56864267D01*
X50855156Y-56974874D01*
X51053296Y-56975047D01*
X51219122Y-57140873D01*
X51219124Y-57140876D01*
X51322092Y-57209677D01*
X51373226Y-57243844D01*
X51555000Y-57280001D01*
X51555005Y-57280000D01*
X53540000Y-57280000D01*
X53721775Y-57243843D01*
X53875876Y-57140876D01*
X53978843Y-56986775D01*
X54015000Y-56805000D01*
X53978843Y-56623225D01*
X53875876Y-56469124D01*
X53721775Y-56366157D01*
X53540000Y-56330000D01*
X51751751Y-56330000D01*
X51724954Y-56303203D01*
X51725126Y-56106421D01*
X51614984Y-55839857D01*
X51411216Y-55635733D01*
X51144844Y-55525126D01*
X50856421Y-55524874D01*
X50589857Y-55635016D01*
X50385733Y-55838784D01*
X50275126Y-56105156D01*
X50274874Y-56393579D01*
X48935000Y-56393579D01*
X48935000Y-55871752D01*
X51000105Y-53806646D01*
X53208790Y-53806646D01*
X53347756Y-53780498D01*
X53475389Y-53698369D01*
X53561013Y-53573054D01*
X53591136Y-53424300D01*
X53591136Y-51925700D01*
X53564988Y-51786734D01*
X53482859Y-51659101D01*
X53357544Y-51573477D01*
X53235437Y-51548750D01*
X54316210Y-51548750D01*
X54316210Y-52248784D01*
X54388525Y-52423366D01*
X54522144Y-52556986D01*
X54696727Y-52629300D01*
X56396250Y-52629300D01*
X56515000Y-52510550D01*
X56515000Y-51430000D01*
X56565000Y-51430000D01*
X56565000Y-52510550D01*
X56683750Y-52629300D01*
X58383273Y-52629300D01*
X58557856Y-52556986D01*
X58691475Y-52423366D01*
X58763790Y-52248784D01*
X58763790Y-51548750D01*
X58645040Y-51430000D01*
X56565000Y-51430000D01*
X56515000Y-51430000D01*
X54434960Y-51430000D01*
X54316210Y-51548750D01*
X53235437Y-51548750D01*
X53208790Y-51543354D01*
X49711210Y-51543354D01*
X49591119Y-51565950D01*
X49411216Y-51385733D01*
X49144844Y-51275126D01*
X48856421Y-51274874D01*
X48589857Y-51385016D01*
X48385733Y-51588784D01*
X48275126Y-51855156D01*
X48274874Y-52143579D01*
X48385016Y-52410143D01*
X48588784Y-52614267D01*
X48855156Y-52724874D01*
X49053295Y-52725047D01*
X49328864Y-53000616D01*
X49328864Y-53424300D01*
X49355012Y-53563266D01*
X49437141Y-53690899D01*
X49562456Y-53776523D01*
X49665798Y-53797450D01*
X48124124Y-55339124D01*
X48021157Y-55493225D01*
X47985000Y-55675000D01*
X47985000Y-58075000D01*
X48021157Y-58256775D01*
X48124124Y-58410876D01*
X48278225Y-58513843D01*
X48460000Y-58550000D01*
X55274629Y-58550000D01*
X55338784Y-58614267D01*
X55605156Y-58724874D01*
X55893579Y-58725126D01*
X56025000Y-58670824D01*
X56025000Y-59803249D01*
X54418248Y-61410000D01*
X51435441Y-61410000D01*
X51411216Y-61385733D01*
X51144844Y-61275126D01*
X50856421Y-61274874D01*
X50589857Y-61385016D01*
X50385733Y-61588784D01*
X50275126Y-61855156D01*
X50274874Y-62143579D01*
X50385016Y-62410143D01*
X50588784Y-62614267D01*
X50747087Y-62680000D01*
X46601751Y-62680000D01*
X46325000Y-62403248D01*
X46325000Y-60846751D01*
X46429122Y-60950873D01*
X46429124Y-60950876D01*
X46583225Y-61053843D01*
X46596186Y-61056421D01*
X46765000Y-61090001D01*
X46765005Y-61090000D01*
X48460000Y-61090000D01*
X48641775Y-61053843D01*
X48795876Y-60950876D01*
X48898843Y-60796775D01*
X48935000Y-60615000D01*
X48898843Y-60433225D01*
X48795876Y-60279124D01*
X48641775Y-60176157D01*
X48460000Y-60140000D01*
X46961751Y-60140000D01*
X46825000Y-60003248D01*
X46825000Y-59643579D01*
X50274874Y-59643579D01*
X50385016Y-59910143D01*
X50588784Y-60114267D01*
X50855156Y-60224874D01*
X51143579Y-60225126D01*
X51410143Y-60114984D01*
X51614267Y-59911216D01*
X51652143Y-59820000D01*
X53540000Y-59820000D01*
X53721775Y-59783843D01*
X53875876Y-59680876D01*
X53978843Y-59526775D01*
X54015000Y-59345000D01*
X53978843Y-59163225D01*
X53875876Y-59009124D01*
X53721775Y-58906157D01*
X53540000Y-58870000D01*
X51373327Y-58870000D01*
X51144844Y-58775126D01*
X50856421Y-58774874D01*
X50589857Y-58885016D01*
X50385733Y-59088784D01*
X50275126Y-59355156D01*
X50274874Y-59643579D01*
X46825000Y-59643579D01*
X46825000Y-53096752D01*
X49311751Y-50610000D01*
X49328864Y-50610000D01*
X49328864Y-50884300D01*
X49355012Y-51023266D01*
X49437141Y-51150899D01*
X49562456Y-51236523D01*
X49711210Y-51266646D01*
X53208790Y-51266646D01*
X53347756Y-51240498D01*
X53475389Y-51158369D01*
X53561013Y-51033054D01*
X53591136Y-50884300D01*
X53591136Y-50610000D01*
X54316210Y-50610000D01*
X54316210Y-51261250D01*
X54434960Y-51380000D01*
X56515000Y-51380000D01*
X56515000Y-51360000D01*
X56565000Y-51360000D01*
X56565000Y-51380000D01*
X58645040Y-51380000D01*
X58763790Y-51261250D01*
X58763790Y-50610000D01*
X62365000Y-50610000D01*
X62546775Y-50573843D01*
X62700876Y-50470876D01*
X64946798Y-48224954D01*
X65143579Y-48225126D01*
X65410143Y-48114984D01*
X65614267Y-47911216D01*
X65651000Y-47822752D01*
X68275000Y-50446751D01*
X68275000Y-50446751D01*
G37*
X68275000Y-50446751D02*
X68275000Y-52699760D01*
X68199628Y-52775000D01*
X64250005Y-52775000D01*
X64250000Y-52774999D01*
X64098384Y-52805158D01*
X64068225Y-52811157D01*
X63935262Y-52900000D01*
X63914124Y-52914124D01*
X56975000Y-59853248D01*
X56975000Y-58050240D01*
X57114267Y-57911216D01*
X57224874Y-57644844D01*
X57225126Y-57356421D01*
X57114984Y-57089857D01*
X56911216Y-56885733D01*
X56644844Y-56775126D01*
X56356421Y-56774874D01*
X56089857Y-56885016D01*
X55885733Y-57088784D01*
X55808389Y-57275050D01*
X55606421Y-57274874D01*
X55339857Y-57385016D01*
X55135733Y-57588784D01*
X55131076Y-57600000D01*
X48935000Y-57600000D01*
X48935000Y-56393579D01*
X50274874Y-56393579D01*
X50385016Y-56660143D01*
X50588784Y-56864267D01*
X50855156Y-56974874D01*
X51053296Y-56975047D01*
X51219122Y-57140873D01*
X51219124Y-57140876D01*
X51322092Y-57209677D01*
X51373226Y-57243844D01*
X51555000Y-57280001D01*
X51555005Y-57280000D01*
X53540000Y-57280000D01*
X53721775Y-57243843D01*
X53875876Y-57140876D01*
X53978843Y-56986775D01*
X54015000Y-56805000D01*
X53978843Y-56623225D01*
X53875876Y-56469124D01*
X53721775Y-56366157D01*
X53540000Y-56330000D01*
X51751751Y-56330000D01*
X51724954Y-56303203D01*
X51725126Y-56106421D01*
X51614984Y-55839857D01*
X51411216Y-55635733D01*
X51144844Y-55525126D01*
X50856421Y-55524874D01*
X50589857Y-55635016D01*
X50385733Y-55838784D01*
X50275126Y-56105156D01*
X50274874Y-56393579D01*
X48935000Y-56393579D01*
X48935000Y-55871752D01*
X51000105Y-53806646D01*
X53208790Y-53806646D01*
X53347756Y-53780498D01*
X53475389Y-53698369D01*
X53561013Y-53573054D01*
X53591136Y-53424300D01*
X53591136Y-51925700D01*
X53564988Y-51786734D01*
X53482859Y-51659101D01*
X53357544Y-51573477D01*
X53235437Y-51548750D01*
X54316210Y-51548750D01*
X54316210Y-52248784D01*
X54388525Y-52423366D01*
X54522144Y-52556986D01*
X54696727Y-52629300D01*
X56396250Y-52629300D01*
X56515000Y-52510550D01*
X56515000Y-51430000D01*
X56565000Y-51430000D01*
X56565000Y-52510550D01*
X56683750Y-52629300D01*
X58383273Y-52629300D01*
X58557856Y-52556986D01*
X58691475Y-52423366D01*
X58763790Y-52248784D01*
X58763790Y-51548750D01*
X58645040Y-51430000D01*
X56565000Y-51430000D01*
X56515000Y-51430000D01*
X54434960Y-51430000D01*
X54316210Y-51548750D01*
X53235437Y-51548750D01*
X53208790Y-51543354D01*
X49711210Y-51543354D01*
X49591119Y-51565950D01*
X49411216Y-51385733D01*
X49144844Y-51275126D01*
X48856421Y-51274874D01*
X48589857Y-51385016D01*
X48385733Y-51588784D01*
X48275126Y-51855156D01*
X48274874Y-52143579D01*
X48385016Y-52410143D01*
X48588784Y-52614267D01*
X48855156Y-52724874D01*
X49053295Y-52725047D01*
X49328864Y-53000616D01*
X49328864Y-53424300D01*
X49355012Y-53563266D01*
X49437141Y-53690899D01*
X49562456Y-53776523D01*
X49665798Y-53797450D01*
X48124124Y-55339124D01*
X48021157Y-55493225D01*
X47985000Y-55675000D01*
X47985000Y-58075000D01*
X48021157Y-58256775D01*
X48124124Y-58410876D01*
X48278225Y-58513843D01*
X48460000Y-58550000D01*
X55274629Y-58550000D01*
X55338784Y-58614267D01*
X55605156Y-58724874D01*
X55893579Y-58725126D01*
X56025000Y-58670824D01*
X56025000Y-59803249D01*
X54418248Y-61410000D01*
X51435441Y-61410000D01*
X51411216Y-61385733D01*
X51144844Y-61275126D01*
X50856421Y-61274874D01*
X50589857Y-61385016D01*
X50385733Y-61588784D01*
X50275126Y-61855156D01*
X50274874Y-62143579D01*
X50385016Y-62410143D01*
X50588784Y-62614267D01*
X50747087Y-62680000D01*
X46601751Y-62680000D01*
X46325000Y-62403248D01*
X46325000Y-60846751D01*
X46429122Y-60950873D01*
X46429124Y-60950876D01*
X46583225Y-61053843D01*
X46596186Y-61056421D01*
X46765000Y-61090001D01*
X46765005Y-61090000D01*
X48460000Y-61090000D01*
X48641775Y-61053843D01*
X48795876Y-60950876D01*
X48898843Y-60796775D01*
X48935000Y-60615000D01*
X48898843Y-60433225D01*
X48795876Y-60279124D01*
X48641775Y-60176157D01*
X48460000Y-60140000D01*
X46961751Y-60140000D01*
X46825000Y-60003248D01*
X46825000Y-59643579D01*
X50274874Y-59643579D01*
X50385016Y-59910143D01*
X50588784Y-60114267D01*
X50855156Y-60224874D01*
X51143579Y-60225126D01*
X51410143Y-60114984D01*
X51614267Y-59911216D01*
X51652143Y-59820000D01*
X53540000Y-59820000D01*
X53721775Y-59783843D01*
X53875876Y-59680876D01*
X53978843Y-59526775D01*
X54015000Y-59345000D01*
X53978843Y-59163225D01*
X53875876Y-59009124D01*
X53721775Y-58906157D01*
X53540000Y-58870000D01*
X51373327Y-58870000D01*
X51144844Y-58775126D01*
X50856421Y-58774874D01*
X50589857Y-58885016D01*
X50385733Y-59088784D01*
X50275126Y-59355156D01*
X50274874Y-59643579D01*
X46825000Y-59643579D01*
X46825000Y-53096752D01*
X49311751Y-50610000D01*
X49328864Y-50610000D01*
X49328864Y-50884300D01*
X49355012Y-51023266D01*
X49437141Y-51150899D01*
X49562456Y-51236523D01*
X49711210Y-51266646D01*
X53208790Y-51266646D01*
X53347756Y-51240498D01*
X53475389Y-51158369D01*
X53561013Y-51033054D01*
X53591136Y-50884300D01*
X53591136Y-50610000D01*
X54316210Y-50610000D01*
X54316210Y-51261250D01*
X54434960Y-51380000D01*
X56515000Y-51380000D01*
X56515000Y-51360000D01*
X56565000Y-51360000D01*
X56565000Y-51380000D01*
X58645040Y-51380000D01*
X58763790Y-51261250D01*
X58763790Y-50610000D01*
X62365000Y-50610000D01*
X62546775Y-50573843D01*
X62700876Y-50470876D01*
X64946798Y-48224954D01*
X65143579Y-48225126D01*
X65410143Y-48114984D01*
X65614267Y-47911216D01*
X65651000Y-47822752D01*
X68275000Y-50446751D01*
G36*
X59089857Y-44635016D02*
X58885733Y-44838784D01*
X58775126Y-45105156D01*
X58774953Y-45303296D01*
X58643628Y-45434621D01*
X58562859Y-45309101D01*
X58437544Y-45223477D01*
X58288790Y-45193354D01*
X54791210Y-45193354D01*
X54652244Y-45219502D01*
X54524611Y-45301631D01*
X54438987Y-45426946D01*
X54408864Y-45575700D01*
X54408864Y-47074300D01*
X54417463Y-47120000D01*
X53591136Y-47120000D01*
X53591136Y-46845700D01*
X53564988Y-46706734D01*
X53482859Y-46579101D01*
X53357544Y-46493477D01*
X53208790Y-46463354D01*
X49937687Y-46463354D01*
X51776041Y-44625000D01*
X59114098Y-44625000D01*
X59089857Y-44635016D01*
X59089857Y-44635016D01*
G37*
X59089857Y-44635016D02*
X58885733Y-44838784D01*
X58775126Y-45105156D01*
X58774953Y-45303296D01*
X58643628Y-45434621D01*
X58562859Y-45309101D01*
X58437544Y-45223477D01*
X58288790Y-45193354D01*
X54791210Y-45193354D01*
X54652244Y-45219502D01*
X54524611Y-45301631D01*
X54438987Y-45426946D01*
X54408864Y-45575700D01*
X54408864Y-47074300D01*
X54417463Y-47120000D01*
X53591136Y-47120000D01*
X53591136Y-46845700D01*
X53564988Y-46706734D01*
X53482859Y-46579101D01*
X53357544Y-46493477D01*
X53208790Y-46463354D01*
X49937687Y-46463354D01*
X51776041Y-44625000D01*
X59114098Y-44625000D01*
X59089857Y-44635016D01*
M02*
