M48
;DRILL file {KiCad 4.0.2+dfsg1-stable} date dim. 11 sept. 2016 16:56:52 CEST
;FORMAT={-:-/ absolute / metric / decimal}
FMAT,2
METRIC,TZ
T1C0.300
T2C0.813
T3C1.000
T4C1.016
T5C1.349
T6C1.500
T7C1.524
%
G90
G05
M71
T1
X48.Y-53.5
X49.Y-52.
X51.Y-56.25
X51.Y-59.5
X51.Y-62.
X51.Y-64.5
X53.3Y-45.7
X55.75Y-58.
X56.3Y-61.2
X56.5Y-57.5
X56.5Y-63.
X56.75Y-65.
X59.5Y-45.25
X62.Y-51.5
X64.75Y-55.
X65.Y-47.5
X68.75Y-53.25
X69.5Y-56.25
X71.Y-59.5
X71.5Y-47.5
X73.Y-71.75
T2
X84.8Y-62.26
X84.8Y-67.34
X87.8Y-43.97
X87.8Y-56.45
T3
X56.2Y-76.6
X59.75Y-76.55
T4
X64.944Y-79.75
X68.5Y-79.75
X72.056Y-79.75
T5
X59.5Y-86.75
X64.499Y-86.75
X74.501Y-86.75
X79.5Y-86.75
T6
X63.Y-46.
X63.Y-64.
X65.4Y-75.04
X80.5Y-46.
X80.5Y-65.
T7
X51.25Y-71.71
X51.25Y-76.79
X65.4Y-69.96
X88.75Y-72.21
X88.75Y-77.29
T0
M30
