G04 #@! TF.FileFunction,Copper,L1,Top,Signal*
%FSLAX46Y46*%
G04 Gerber Fmt 4.6, Leading zero omitted, Abs format (unit mm)*
G04 Created by KiCad (PCBNEW 4.0.0~rc1a-stable) date sam. 21 nov. 2015 23:43:41 CET*
%MOMM*%
G01*
G04 APERTURE LIST*
%ADD10C,0.150000*%
%ADD11R,3.000000X3.000000*%
%ADD12C,3.000000*%
%ADD13C,2.500000*%
%ADD14R,2.500000X2.500000*%
%ADD15R,3.497580X1.498600*%
%ADD16R,2.400000X3.480000*%
%ADD17R,1.500000X1.600000*%
%ADD18R,0.500000X1.600000*%
%ADD19R,2.032000X1.524000*%
%ADD20R,1.524000X2.032000*%
%ADD21R,0.635000X1.143000*%
%ADD22R,1.143000X0.635000*%
%ADD23R,3.556000X4.191000*%
%ADD24C,1.574800*%
%ADD25C,1.600000*%
%ADD26R,1.400000X1.000000*%
%ADD27O,1.400000X1.000000*%
%ADD28C,2.000000*%
%ADD29R,2.540000X1.270000*%
%ADD30R,0.914400X0.914400*%
%ADD31R,1.000760X0.800100*%
%ADD32R,0.599440X0.599440*%
%ADD33R,0.850900X0.850900*%
%ADD34R,2.000000X1.000000*%
%ADD35C,2.349500*%
%ADD36C,0.700000*%
%ADD37C,0.200000*%
%ADD38C,2.500000*%
%ADD39C,2.000000*%
%ADD40C,0.500000*%
%ADD41C,1.000000*%
%ADD42C,1.500000*%
%ADD43C,0.250000*%
G04 APERTURE END LIST*
D10*
D11*
X51250000Y-76790000D03*
D12*
X51250000Y-71710000D03*
D13*
X63000000Y-46000000D03*
D14*
X63000000Y-64000000D03*
D13*
X80500000Y-65000000D03*
X80500000Y-46000000D03*
D15*
X53540000Y-65695000D03*
X48460000Y-64425000D03*
X53540000Y-63155000D03*
X48460000Y-61885000D03*
X53540000Y-60615000D03*
X48460000Y-59345000D03*
X53540000Y-58075000D03*
X48460000Y-56805000D03*
D16*
X56259000Y-73440000D03*
X59819000Y-73440000D03*
D17*
X60539000Y-67770000D03*
X55539000Y-67770000D03*
D18*
X58439000Y-67770000D03*
X59239000Y-67770000D03*
X57639000Y-67770000D03*
X56839000Y-67770000D03*
D19*
X83750000Y-44849000D03*
X83750000Y-48151000D03*
D10*
G36*
X80237828Y-70825331D02*
X81674669Y-72262172D01*
X80597038Y-73339803D01*
X79160197Y-71902962D01*
X80237828Y-70825331D01*
X80237828Y-70825331D01*
G37*
G36*
X77902962Y-73160197D02*
X79339803Y-74597038D01*
X78262172Y-75674669D01*
X76825331Y-74237828D01*
X77902962Y-73160197D01*
X77902962Y-73160197D01*
G37*
D20*
X71401000Y-75750000D03*
X68099000Y-75750000D03*
D19*
X76000000Y-76599000D03*
X76000000Y-79901000D03*
X92400000Y-57251000D03*
X92400000Y-53949000D03*
D21*
X67738000Y-64000000D03*
X69262000Y-64000000D03*
D22*
X75500000Y-59012000D03*
X75500000Y-57488000D03*
D21*
X67738000Y-62250000D03*
X69262000Y-62250000D03*
D22*
X52750000Y-51238000D03*
X52750000Y-52762000D03*
X93091000Y-51054000D03*
X93091000Y-52578000D03*
D21*
X88012000Y-49250000D03*
X86488000Y-49250000D03*
D12*
X65000000Y-69960000D03*
X65000000Y-75040000D03*
D23*
X89200000Y-67375000D03*
X89200000Y-61025000D03*
D24*
X72673816Y-64581714D02*
X72170922Y-64078820D01*
D10*
G36*
X70374871Y-64761319D02*
X71991317Y-66377765D01*
X70877765Y-67491317D01*
X69261319Y-65874871D01*
X70374871Y-64761319D01*
X70374871Y-64761319D01*
G37*
G36*
X68578820Y-66557370D02*
X70195266Y-68173816D01*
X69081714Y-69287368D01*
X67465268Y-67670922D01*
X68578820Y-66557370D01*
X68578820Y-66557370D01*
G37*
G36*
X74326184Y-72304734D02*
X75942630Y-73921180D01*
X74829078Y-75034732D01*
X73212632Y-73418286D01*
X74326184Y-72304734D01*
X74326184Y-72304734D01*
G37*
G36*
X76122235Y-70508683D02*
X77738681Y-72125129D01*
X76625129Y-73238681D01*
X75008683Y-71622235D01*
X76122235Y-70508683D01*
X76122235Y-70508683D01*
G37*
G36*
X77918286Y-68712632D02*
X79534732Y-70329078D01*
X78421180Y-71442630D01*
X76804734Y-69826184D01*
X77918286Y-68712632D01*
X77918286Y-68712632D01*
G37*
D25*
X84800000Y-67340000D03*
X84800000Y-62260000D03*
D26*
X85500000Y-54540000D03*
D27*
X85500000Y-52000000D03*
X76000000Y-52000000D03*
X76000000Y-54540000D03*
D28*
X87800000Y-56450000D03*
X87800000Y-43970000D03*
D29*
X50250000Y-50476000D03*
X50250000Y-53524000D03*
X55250000Y-50476000D03*
X55250000Y-53524000D03*
D11*
X88750000Y-72210000D03*
D12*
X88750000Y-77290000D03*
D30*
X58611000Y-62234000D03*
X60389000Y-62234000D03*
X59500000Y-64266000D03*
D31*
X87292180Y-51816000D03*
X89491820Y-50863500D03*
X89491820Y-52768500D03*
D22*
X56000000Y-49012000D03*
X56000000Y-47488000D03*
D21*
X56262000Y-44500000D03*
X54738000Y-44500000D03*
X56262000Y-46000000D03*
X54738000Y-46000000D03*
D32*
X90932000Y-50766980D03*
X90932000Y-52865020D03*
D33*
X86076140Y-47250000D03*
X89423860Y-47250000D03*
D22*
X91000000Y-47988000D03*
X91000000Y-49512000D03*
X75500000Y-48738000D03*
X75500000Y-50262000D03*
D34*
X58159000Y-45324000D03*
X58159000Y-47324000D03*
X58159000Y-49324000D03*
X58159000Y-51324000D03*
X58159000Y-53324000D03*
X58159000Y-55324000D03*
X58159000Y-57324000D03*
X58159000Y-59324000D03*
X73159000Y-59324000D03*
X73159000Y-57324000D03*
X73159000Y-55324000D03*
X73159000Y-53324000D03*
X73159000Y-51324000D03*
X73159000Y-49324000D03*
X73159000Y-47324000D03*
X73159000Y-45324000D03*
D14*
X64944000Y-79750000D03*
D13*
X72056000Y-79750000D03*
X68500000Y-79750000D03*
D35*
X74501260Y-86750000D03*
X79499980Y-86750000D03*
X64498740Y-86750000D03*
X59500020Y-86750000D03*
D36*
X49000000Y-52000000D03*
X55750000Y-58000000D03*
D28*
X56200000Y-76600000D03*
X59750000Y-76550000D03*
D36*
X56300000Y-61200000D03*
X68750000Y-53250000D03*
X51000000Y-59500000D03*
X51000000Y-62000000D03*
X56500000Y-57500000D03*
X71500000Y-47500000D03*
X65000000Y-47500000D03*
X56500000Y-63000000D03*
X64750000Y-55000000D03*
X56750000Y-65000000D03*
X69500000Y-56250000D03*
X51000000Y-56250000D03*
X59500000Y-45250000D03*
X53300000Y-45700000D03*
X71000000Y-59500000D03*
X48000000Y-53500000D03*
X62000000Y-51500000D03*
X51000000Y-64500000D03*
X73000000Y-71750000D03*
D37*
X52750000Y-51238000D02*
X49762000Y-51238000D01*
X49762000Y-51238000D02*
X49000000Y-52000000D01*
X58611000Y-62234000D02*
X58611000Y-59776000D01*
X58611000Y-59776000D02*
X58159000Y-59324000D01*
X56000000Y-49012000D02*
X57847000Y-49012000D01*
X57847000Y-49012000D02*
X58159000Y-49324000D01*
X55250000Y-50476000D02*
X55250000Y-49762000D01*
X55250000Y-49762000D02*
X56000000Y-49012000D01*
X56000000Y-58075000D02*
X55825000Y-58075000D01*
X55825000Y-58075000D02*
X55750000Y-58000000D01*
X53540000Y-58075000D02*
X56000000Y-58075000D01*
X56000000Y-58075000D02*
X56075000Y-58075000D01*
X56075000Y-58075000D02*
X57324000Y-59324000D01*
X57324000Y-59324000D02*
X58159000Y-59324000D01*
X75500000Y-48738000D02*
X74738000Y-48738000D01*
X74738000Y-48738000D02*
X74250000Y-48250000D01*
X74250000Y-48250000D02*
X64250000Y-48250000D01*
X52750000Y-51238000D02*
X52750000Y-50476000D01*
X52750000Y-50476000D02*
X52750000Y-50500000D01*
X52750000Y-50500000D02*
X52750000Y-50476000D01*
X55250000Y-50476000D02*
X52750000Y-50476000D01*
X52750000Y-50476000D02*
X50250000Y-50476000D01*
X58159000Y-49324000D02*
X59926000Y-49324000D01*
X64250000Y-48250000D02*
X63000000Y-45500000D01*
X63000000Y-46750000D02*
X63000000Y-45500000D01*
X59926000Y-49324000D02*
X63000000Y-46750000D01*
D38*
X64944000Y-79750000D02*
X64944000Y-75096000D01*
X64944000Y-75096000D02*
X65000000Y-75040000D01*
D39*
X64944000Y-79750000D02*
X64944000Y-75096000D01*
X64944000Y-75096000D02*
X65000000Y-75040000D01*
X68099000Y-75750000D02*
X65710000Y-75750000D01*
X65710000Y-75750000D02*
X65000000Y-75040000D01*
D40*
X83750000Y-48151000D02*
X85175140Y-48151000D01*
X85175140Y-48151000D02*
X86076140Y-47250000D01*
X92400000Y-52578000D02*
X92400000Y-53949000D01*
X93091000Y-52578000D02*
X92400000Y-52578000D01*
X92400000Y-52578000D02*
X91219020Y-52578000D01*
X91219020Y-52578000D02*
X90932000Y-52865020D01*
X89491820Y-52768500D02*
X90835480Y-52768500D01*
X90835480Y-52768500D02*
X90932000Y-52865020D01*
D38*
X51250000Y-71710000D02*
X52410000Y-71710000D01*
X52410000Y-71710000D02*
X53550000Y-72850000D01*
X53550000Y-72850000D02*
X55669000Y-72850000D01*
X55669000Y-72850000D02*
X56259000Y-73440000D01*
X56200000Y-73381000D02*
X56200000Y-76600000D01*
D39*
X59500020Y-86750000D02*
X59500020Y-85040020D01*
X59500020Y-85040020D02*
X51250000Y-76790000D01*
X59500000Y-86750000D02*
X64500000Y-86750000D01*
D38*
X88750000Y-72210000D02*
X85540000Y-72210000D01*
X77849000Y-79901000D02*
X76000000Y-79901000D01*
X85540000Y-72210000D02*
X77849000Y-79901000D01*
X76000000Y-79901000D02*
X76000000Y-81600000D01*
X76000000Y-81600000D02*
X74400000Y-83200000D01*
X74400000Y-83200000D02*
X70050000Y-83200000D01*
X70050000Y-83200000D02*
X68500000Y-81650000D01*
X68500000Y-81650000D02*
X68500000Y-79750000D01*
X76000000Y-79901000D02*
X77349000Y-79901000D01*
D39*
X80400000Y-61600000D02*
X80400000Y-46100000D01*
X80400000Y-46100000D02*
X80500000Y-46000000D01*
X84800000Y-62260000D02*
X83460000Y-62260000D01*
X83460000Y-62260000D02*
X82800000Y-61600000D01*
X82800000Y-61600000D02*
X80400000Y-61600000D01*
X80400000Y-61600000D02*
X79400000Y-61600000D01*
X79400000Y-61600000D02*
X77700000Y-63300000D01*
X80500000Y-46000000D02*
X82530000Y-43970000D01*
X87600000Y-43970000D02*
X82530000Y-43970000D01*
X87600000Y-43970000D02*
X84629000Y-43970000D01*
X84629000Y-43970000D02*
X83750000Y-44849000D01*
X84640000Y-62100000D02*
X84800000Y-62260000D01*
D41*
X84640000Y-62100000D02*
X84800000Y-62260000D01*
X83850000Y-72250000D02*
X77600000Y-66000000D01*
X85000000Y-72250000D02*
X83850000Y-72250000D01*
X77600000Y-63400000D02*
X77700000Y-63300000D01*
X77600000Y-66000000D02*
X77600000Y-63400000D01*
X80500000Y-46000000D02*
X81651000Y-44849000D01*
D39*
X76000000Y-79901000D02*
X77349000Y-79901000D01*
X77349000Y-79901000D02*
X85000000Y-72250000D01*
D40*
X90000000Y-70960000D02*
X88750000Y-72210000D01*
D39*
X85040000Y-72210000D02*
X88750000Y-72210000D01*
X85000000Y-72250000D02*
X85040000Y-72210000D01*
X83750000Y-44849000D02*
X81651000Y-44849000D01*
X81651000Y-44849000D02*
X80500000Y-46000000D01*
D38*
X79499980Y-86750000D02*
X74501260Y-86750000D01*
X88750000Y-77290000D02*
X88750000Y-77499980D01*
X88750000Y-77499980D02*
X79499980Y-86750000D01*
D39*
X79499980Y-86750000D02*
X79499980Y-86540020D01*
X79499980Y-86540020D02*
X88750000Y-77290000D01*
X88750000Y-77290000D02*
X88750000Y-77499980D01*
X92400000Y-57251000D02*
X92051000Y-57251000D01*
X92051000Y-57251000D02*
X91600000Y-56800000D01*
X91600000Y-56800000D02*
X87950000Y-56800000D01*
X87950000Y-56800000D02*
X87600000Y-56450000D01*
D42*
X92800000Y-66000000D02*
X92800000Y-69000000D01*
X92800000Y-69000000D02*
X92600000Y-69200000D01*
X92400000Y-57251000D02*
X92400000Y-57600000D01*
X92400000Y-57600000D02*
X92800000Y-58000000D01*
X92800000Y-58000000D02*
X92800000Y-66000000D01*
X92800000Y-66000000D02*
X91425000Y-67375000D01*
X91425000Y-67375000D02*
X89200000Y-67375000D01*
D39*
X84800000Y-67340000D02*
X89165000Y-67340000D01*
X89165000Y-67340000D02*
X89200000Y-67375000D01*
X89200000Y-67375000D02*
X90775000Y-67375000D01*
X90775000Y-67375000D02*
X92600000Y-69200000D01*
X92600000Y-69200000D02*
X92600000Y-74800000D01*
X92600000Y-74800000D02*
X90110000Y-77290000D01*
D40*
X89200000Y-67375000D02*
X90375000Y-67375000D01*
X90375000Y-67375000D02*
X91800000Y-68800000D01*
X91800000Y-68800000D02*
X91800000Y-75200000D01*
X91800000Y-75200000D02*
X89710000Y-77290000D01*
X89710000Y-77290000D02*
X88750000Y-77290000D01*
X90000000Y-67375000D02*
X84835000Y-67375000D01*
X84835000Y-67375000D02*
X84800000Y-67340000D01*
D39*
X89667000Y-67375000D02*
X90000000Y-67375000D01*
D40*
X90000000Y-67375000D02*
X89807000Y-67375000D01*
D39*
X74500000Y-86750000D02*
X79500000Y-86750000D01*
D38*
X59750000Y-76550000D02*
X59750000Y-76500000D01*
X59750000Y-76500000D02*
X59750000Y-73509000D01*
X59750000Y-73509000D02*
X63299000Y-69960000D01*
X63299000Y-69960000D02*
X65000000Y-69960000D01*
D39*
X59819000Y-73440000D02*
X59819000Y-73181000D01*
X59819000Y-73181000D02*
X61000000Y-72000000D01*
X61000000Y-72000000D02*
X63000000Y-72000000D01*
X59819000Y-73440000D02*
X59819000Y-76431000D01*
X59819000Y-76431000D02*
X59750000Y-76500000D01*
X65000000Y-69960000D02*
X65000000Y-70000000D01*
X65000000Y-70000000D02*
X63000000Y-72000000D01*
X63000000Y-72000000D02*
X61560000Y-73440000D01*
X61560000Y-73440000D02*
X59819000Y-73440000D01*
X59819000Y-73440000D02*
X60810000Y-73440000D01*
X60810000Y-73440000D02*
X64290000Y-69960000D01*
X64290000Y-69960000D02*
X65000000Y-69960000D01*
D37*
X56262000Y-44500000D02*
X56262000Y-46000000D01*
X56262000Y-46000000D02*
X56262000Y-47226000D01*
X56262000Y-47226000D02*
X56000000Y-47488000D01*
X58159000Y-47324000D02*
X56164000Y-47324000D01*
X56164000Y-47324000D02*
X56000000Y-47488000D01*
X60389000Y-62234000D02*
X60889000Y-52389000D01*
X60889000Y-52389000D02*
X59824000Y-51324000D01*
X58159000Y-51324000D02*
X59824000Y-51324000D01*
X53540000Y-60615000D02*
X55715000Y-60615000D01*
X55715000Y-60615000D02*
X56300000Y-61200000D01*
X68750000Y-53250000D02*
X68824000Y-53324000D01*
X68824000Y-53324000D02*
X73159000Y-53324000D01*
X58439000Y-67770000D02*
X58439000Y-64189000D01*
X57750000Y-61500000D02*
X56750000Y-60500000D01*
X57750000Y-63500000D02*
X57750000Y-61500000D01*
X58439000Y-64189000D02*
X57750000Y-63500000D01*
X51000000Y-59500000D02*
X55500000Y-59500000D01*
X55500000Y-59500000D02*
X56500000Y-60500000D01*
X56500000Y-60500000D02*
X56750000Y-60500000D01*
X58159000Y-55324000D02*
X52926000Y-55324000D01*
X52926000Y-55324000D02*
X51000000Y-57250000D01*
X51000000Y-57250000D02*
X51000000Y-59500000D01*
X51000000Y-59345000D02*
X51000000Y-59500000D01*
X51000000Y-59345000D02*
X48460000Y-59345000D01*
X51000000Y-62000000D02*
X50885000Y-61885000D01*
X50885000Y-61885000D02*
X48460000Y-61885000D01*
X58159000Y-57324000D02*
X56676000Y-57324000D01*
X56676000Y-57324000D02*
X56500000Y-57500000D01*
X71676000Y-47324000D02*
X73159000Y-47324000D01*
X71500000Y-47500000D02*
X71676000Y-47324000D01*
X67176000Y-45324000D02*
X73159000Y-45324000D01*
X65000000Y-47500000D02*
X67176000Y-45324000D01*
X73159000Y-49324000D02*
X70426000Y-49324000D01*
X56345000Y-63155000D02*
X53540000Y-63155000D01*
X56500000Y-63000000D02*
X56345000Y-63155000D01*
X70426000Y-49324000D02*
X64750000Y-55000000D01*
X73159000Y-55324000D02*
X70426000Y-55324000D01*
X56839000Y-65089000D02*
X56839000Y-67770000D01*
X56750000Y-65000000D02*
X56839000Y-65089000D01*
X70426000Y-55324000D02*
X69500000Y-56250000D01*
X57639000Y-67770000D02*
X57639000Y-64639000D01*
X57250000Y-62500000D02*
X56750000Y-62000000D01*
X57250000Y-64250000D02*
X57250000Y-62500000D01*
X57639000Y-64639000D02*
X57250000Y-64250000D01*
X47695000Y-56805000D02*
X48460000Y-56805000D01*
X56750000Y-62000000D02*
X52000000Y-62000000D01*
X52000000Y-62000000D02*
X50750000Y-60750000D01*
X50750000Y-60750000D02*
X46750000Y-60750000D01*
X46750000Y-60750000D02*
X46250000Y-60250000D01*
X46250000Y-60250000D02*
X46250000Y-58250000D01*
X46250000Y-58250000D02*
X47695000Y-56805000D01*
X58159000Y-53324000D02*
X57926000Y-53324000D01*
X57926000Y-53324000D02*
X56500000Y-54750000D01*
X56500000Y-54750000D02*
X52500000Y-54750000D01*
X52500000Y-54750000D02*
X51000000Y-56250000D01*
X48460000Y-56805000D02*
X50445000Y-56805000D01*
X50445000Y-56805000D02*
X51000000Y-56250000D01*
X75500000Y-57488000D02*
X73323000Y-57488000D01*
X73323000Y-57488000D02*
X73159000Y-57324000D01*
X59500000Y-45250000D02*
X59426000Y-45324000D01*
X59426000Y-45324000D02*
X58159000Y-45324000D01*
X73159000Y-51324000D02*
X74438000Y-51324000D01*
X74438000Y-51324000D02*
X75500000Y-50262000D01*
X76000000Y-54540000D02*
X76000000Y-54000000D01*
X76000000Y-54000000D02*
X74750000Y-52750000D01*
X74750000Y-52750000D02*
X74750000Y-52000000D01*
X74750000Y-52000000D02*
X74074000Y-51324000D01*
X74074000Y-51324000D02*
X73159000Y-51324000D01*
X54738000Y-44500000D02*
X54000000Y-44500000D01*
X53600000Y-46000000D02*
X53300000Y-45700000D01*
X53600000Y-46000000D02*
X54738000Y-46000000D01*
X53300000Y-45200000D02*
X53300000Y-45700000D01*
X54000000Y-44500000D02*
X53300000Y-45200000D01*
X73159000Y-59324000D02*
X71176000Y-59324000D01*
X71176000Y-59324000D02*
X71000000Y-59500000D01*
X50250000Y-53524000D02*
X48024000Y-53524000D01*
X48024000Y-53524000D02*
X48000000Y-53500000D01*
X60539000Y-67770000D02*
X60539000Y-66461000D01*
X63000000Y-66000000D02*
X63000000Y-64000000D01*
X62500000Y-66500000D02*
X63000000Y-66000000D01*
X60578000Y-66500000D02*
X62500000Y-66500000D01*
X60539000Y-66461000D02*
X60578000Y-66500000D01*
X51000000Y-64500000D02*
X50925000Y-64425000D01*
X50925000Y-64425000D02*
X48460000Y-64425000D01*
X93091000Y-51054000D02*
X93091000Y-50079000D01*
X93091000Y-50079000D02*
X91000000Y-47988000D01*
X89423860Y-47250000D02*
X90262000Y-47250000D01*
X90262000Y-47250000D02*
X91000000Y-47988000D01*
X88012000Y-49250000D02*
X88012000Y-48661860D01*
X88012000Y-48661860D02*
X89423860Y-47250000D01*
X90932000Y-50766980D02*
X90932000Y-49580000D01*
X90932000Y-49580000D02*
X91000000Y-49512000D01*
X89491820Y-50863500D02*
X90835480Y-50863500D01*
X90835480Y-50863500D02*
X90932000Y-50766980D01*
X76000000Y-76599000D02*
X76000000Y-76500000D01*
X76000000Y-76500000D02*
X78082567Y-74417433D01*
X76000000Y-76599000D02*
X72250000Y-76599000D01*
X72250000Y-76599000D02*
X71401000Y-75750000D01*
X59500000Y-64266000D02*
X60234000Y-64266000D01*
X61500000Y-62250000D02*
X67738000Y-62250000D01*
X61250000Y-62500000D02*
X61500000Y-62250000D01*
X61250000Y-63250000D02*
X61250000Y-62500000D01*
X60234000Y-64266000D02*
X61250000Y-63250000D01*
X59239000Y-67770000D02*
X59239000Y-64527000D01*
X59239000Y-64527000D02*
X59500000Y-64266000D01*
X67738000Y-64000000D02*
X67738000Y-62250000D01*
D40*
X90000000Y-61025000D02*
X90000000Y-61200000D01*
X89789000Y-60436000D02*
X89200000Y-61025000D01*
X89200000Y-61025000D02*
X89200000Y-61200000D01*
X89200000Y-61200000D02*
X85600000Y-64800000D01*
X85600000Y-64800000D02*
X80700000Y-64800000D01*
X80700000Y-64800000D02*
X80500000Y-65000000D01*
D37*
X85500000Y-54540000D02*
X85290000Y-54540000D01*
X84250000Y-51488000D02*
X86488000Y-49250000D01*
X84250000Y-53500000D02*
X84250000Y-51488000D01*
X85290000Y-54540000D02*
X84250000Y-53500000D01*
X85500000Y-52000000D02*
X87108180Y-52000000D01*
X87108180Y-52000000D02*
X87292180Y-51816000D01*
X75500000Y-59012000D02*
X75500000Y-59500000D01*
X72422369Y-62577631D02*
X72422369Y-64330267D01*
X75500000Y-59500000D02*
X72422369Y-62577631D01*
X80417433Y-72082567D02*
X80174669Y-72082567D01*
X80174669Y-72082567D02*
X78169733Y-70077631D01*
X74669733Y-73419733D02*
X74827631Y-73419733D01*
X73000000Y-71750000D02*
X74669733Y-73419733D01*
D43*
G36*
X77375000Y-48551776D02*
X77375000Y-57448224D01*
X76365049Y-58458175D01*
X76345569Y-58427901D01*
X76220254Y-58342277D01*
X76071500Y-58312154D01*
X74928500Y-58312154D01*
X74789534Y-58338302D01*
X74661901Y-58420431D01*
X74576277Y-58545746D01*
X74570236Y-58575578D01*
X74561685Y-58554934D01*
X74428066Y-58421314D01*
X74253483Y-58349000D01*
X73302750Y-58349000D01*
X73184000Y-58467750D01*
X73184000Y-59299000D01*
X73204000Y-59299000D01*
X73204000Y-59349000D01*
X73184000Y-59349000D01*
X73184000Y-60180250D01*
X73302750Y-60299000D01*
X74029249Y-60299000D01*
X72086493Y-62241755D01*
X71983526Y-62395856D01*
X71947369Y-62577631D01*
X71947369Y-62935675D01*
X71705061Y-62983873D01*
X71327952Y-63235850D01*
X71075975Y-63612959D01*
X70987493Y-64057791D01*
X71075975Y-64502623D01*
X71327952Y-64879732D01*
X71872904Y-65424684D01*
X72250014Y-65676661D01*
X72580772Y-65742452D01*
X72304264Y-66018961D01*
X71620616Y-65335313D01*
X71452678Y-65335313D01*
X70661673Y-66126318D01*
X70675816Y-66140460D01*
X70640460Y-66175816D01*
X70626318Y-66161673D01*
X69835313Y-66952678D01*
X69835313Y-67120616D01*
X70089697Y-67375000D01*
X69937168Y-67375000D01*
X68849179Y-66287011D01*
X68732426Y-66207236D01*
X68584102Y-66175060D01*
X68434946Y-66203126D01*
X68308461Y-66287011D01*
X67386124Y-67209348D01*
X66588388Y-66411612D01*
X66547037Y-66384187D01*
X66500000Y-66375000D01*
X63500000Y-66375000D01*
X63451368Y-66384848D01*
X63411612Y-66411612D01*
X62448224Y-67375000D01*
X61764000Y-67375000D01*
X61764000Y-66875516D01*
X61691685Y-66700934D01*
X61558066Y-66567314D01*
X61383483Y-66495000D01*
X60682750Y-66495000D01*
X60564000Y-66613750D01*
X60564000Y-67375000D01*
X60514000Y-67375000D01*
X60514000Y-66613750D01*
X60395250Y-66495000D01*
X59714000Y-66495000D01*
X59714000Y-65780387D01*
X68786319Y-65780387D01*
X68786319Y-65969354D01*
X68858633Y-66143936D01*
X69632020Y-66917323D01*
X69799958Y-66917323D01*
X70590963Y-66126318D01*
X70576820Y-66112176D01*
X70612176Y-66076820D01*
X70626318Y-66090963D01*
X71417323Y-65299958D01*
X71417323Y-65132020D01*
X70643936Y-64358633D01*
X70469354Y-64286319D01*
X70280387Y-64286319D01*
X70105805Y-64358634D01*
X70054500Y-64409939D01*
X70054500Y-64143750D01*
X69935750Y-64025000D01*
X69287000Y-64025000D01*
X69287000Y-64927750D01*
X69405750Y-65046500D01*
X69511142Y-65046500D01*
X69548508Y-65083866D01*
X69380573Y-65083866D01*
X68858634Y-65605805D01*
X68786319Y-65780387D01*
X59714000Y-65780387D01*
X59714000Y-65105546D01*
X59957200Y-65105546D01*
X60096166Y-65079398D01*
X60223799Y-64997269D01*
X60309423Y-64871954D01*
X60339546Y-64723200D01*
X60339546Y-64720006D01*
X60415775Y-64704843D01*
X60569876Y-64601876D01*
X61028002Y-64143750D01*
X61275000Y-64143750D01*
X61275000Y-65344484D01*
X61347315Y-65519066D01*
X61480934Y-65652686D01*
X61655517Y-65725000D01*
X62856250Y-65725000D01*
X62975000Y-65606250D01*
X62975000Y-64025000D01*
X63025000Y-64025000D01*
X63025000Y-65606250D01*
X63143750Y-65725000D01*
X64344483Y-65725000D01*
X64519066Y-65652686D01*
X64652685Y-65519066D01*
X64725000Y-65344484D01*
X64725000Y-64143750D01*
X64606250Y-64025000D01*
X63025000Y-64025000D01*
X62975000Y-64025000D01*
X61393750Y-64025000D01*
X61275000Y-64143750D01*
X61028002Y-64143750D01*
X61295251Y-63876501D01*
X61393750Y-63975000D01*
X62975000Y-63975000D01*
X62975000Y-63955000D01*
X63025000Y-63955000D01*
X63025000Y-63975000D01*
X64606250Y-63975000D01*
X64725000Y-63856250D01*
X64725000Y-62725000D01*
X67038154Y-62725000D01*
X67038154Y-62821500D01*
X67064302Y-62960466D01*
X67146431Y-63088099D01*
X67200050Y-63124735D01*
X67153901Y-63154431D01*
X67068277Y-63279746D01*
X67038154Y-63428500D01*
X67038154Y-64571500D01*
X67064302Y-64710466D01*
X67146431Y-64838099D01*
X67271746Y-64923723D01*
X67420500Y-64953846D01*
X68055500Y-64953846D01*
X68194466Y-64927698D01*
X68322099Y-64845569D01*
X68407723Y-64720254D01*
X68437846Y-64571500D01*
X68437846Y-64143750D01*
X68469500Y-64143750D01*
X68469500Y-64665984D01*
X68541815Y-64840566D01*
X68675434Y-64974186D01*
X68850017Y-65046500D01*
X69118250Y-65046500D01*
X69237000Y-64927750D01*
X69237000Y-64025000D01*
X68588250Y-64025000D01*
X68469500Y-64143750D01*
X68437846Y-64143750D01*
X68437846Y-63428500D01*
X68411698Y-63289534D01*
X68329569Y-63161901D01*
X68275950Y-63125265D01*
X68322099Y-63095569D01*
X68407723Y-62970254D01*
X68437846Y-62821500D01*
X68437846Y-62393750D01*
X68469500Y-62393750D01*
X68469500Y-62915984D01*
X68541815Y-63090566D01*
X68576249Y-63125000D01*
X68541815Y-63159434D01*
X68469500Y-63334016D01*
X68469500Y-63856250D01*
X68588250Y-63975000D01*
X69237000Y-63975000D01*
X69237000Y-62275000D01*
X69287000Y-62275000D01*
X69287000Y-63975000D01*
X69935750Y-63975000D01*
X70054500Y-63856250D01*
X70054500Y-63334016D01*
X69982185Y-63159434D01*
X69947751Y-63125000D01*
X69982185Y-63090566D01*
X70054500Y-62915984D01*
X70054500Y-62393750D01*
X69935750Y-62275000D01*
X69287000Y-62275000D01*
X69237000Y-62275000D01*
X68588250Y-62275000D01*
X68469500Y-62393750D01*
X68437846Y-62393750D01*
X68437846Y-61678500D01*
X68420068Y-61584016D01*
X68469500Y-61584016D01*
X68469500Y-62106250D01*
X68588250Y-62225000D01*
X69237000Y-62225000D01*
X69237000Y-61322250D01*
X69287000Y-61322250D01*
X69287000Y-62225000D01*
X69935750Y-62225000D01*
X70054500Y-62106250D01*
X70054500Y-61584016D01*
X69982185Y-61409434D01*
X69848566Y-61275814D01*
X69673983Y-61203500D01*
X69405750Y-61203500D01*
X69287000Y-61322250D01*
X69237000Y-61322250D01*
X69118250Y-61203500D01*
X68850017Y-61203500D01*
X68675434Y-61275814D01*
X68541815Y-61409434D01*
X68469500Y-61584016D01*
X68420068Y-61584016D01*
X68411698Y-61539534D01*
X68329569Y-61411901D01*
X68204254Y-61326277D01*
X68055500Y-61296154D01*
X67420500Y-61296154D01*
X67281534Y-61322302D01*
X67153901Y-61404431D01*
X67068277Y-61529746D01*
X67038154Y-61678500D01*
X67038154Y-61775000D01*
X61500000Y-61775000D01*
X61318225Y-61811157D01*
X61228546Y-61871079D01*
X61228546Y-61776800D01*
X61202398Y-61637834D01*
X61120269Y-61510201D01*
X60994954Y-61424577D01*
X60906629Y-61406691D01*
X61005102Y-59467750D01*
X71684000Y-59467750D01*
X71684000Y-59918484D01*
X71756315Y-60093066D01*
X71889934Y-60226686D01*
X72064517Y-60299000D01*
X73015250Y-60299000D01*
X73134000Y-60180250D01*
X73134000Y-59349000D01*
X71802750Y-59349000D01*
X71684000Y-59467750D01*
X61005102Y-59467750D01*
X61042594Y-58729516D01*
X71684000Y-58729516D01*
X71684000Y-59180250D01*
X71802750Y-59299000D01*
X73134000Y-59299000D01*
X73134000Y-58467750D01*
X73015250Y-58349000D01*
X72064517Y-58349000D01*
X71889934Y-58421314D01*
X71756315Y-58554934D01*
X71684000Y-58729516D01*
X61042594Y-58729516D01*
X61161231Y-56393579D01*
X68774874Y-56393579D01*
X68885016Y-56660143D01*
X69088784Y-56864267D01*
X69355156Y-56974874D01*
X69643579Y-56975126D01*
X69910143Y-56864984D01*
X69951198Y-56824000D01*
X71776654Y-56824000D01*
X71776654Y-57824000D01*
X71802802Y-57962966D01*
X71884931Y-58090599D01*
X72010246Y-58176223D01*
X72159000Y-58206346D01*
X74159000Y-58206346D01*
X74297966Y-58180198D01*
X74425599Y-58098069D01*
X74511223Y-57972754D01*
X74513198Y-57963000D01*
X74584228Y-57963000D01*
X74654431Y-58072099D01*
X74779746Y-58157723D01*
X74928500Y-58187846D01*
X76071500Y-58187846D01*
X76210466Y-58161698D01*
X76338099Y-58079569D01*
X76423723Y-57954254D01*
X76453846Y-57805500D01*
X76453846Y-57170500D01*
X76427698Y-57031534D01*
X76345569Y-56903901D01*
X76220254Y-56818277D01*
X76071500Y-56788154D01*
X74928500Y-56788154D01*
X74789534Y-56814302D01*
X74661901Y-56896431D01*
X74582253Y-57013000D01*
X74541346Y-57013000D01*
X74541346Y-56824000D01*
X74515198Y-56685034D01*
X74433069Y-56557401D01*
X74307754Y-56471777D01*
X74159000Y-56441654D01*
X72159000Y-56441654D01*
X72020034Y-56467802D01*
X71892401Y-56549931D01*
X71806777Y-56675246D01*
X71776654Y-56824000D01*
X69951198Y-56824000D01*
X70114267Y-56661216D01*
X70224874Y-56394844D01*
X70225047Y-56196705D01*
X70622752Y-55799000D01*
X71776654Y-55799000D01*
X71776654Y-55824000D01*
X71802802Y-55962966D01*
X71884931Y-56090599D01*
X72010246Y-56176223D01*
X72159000Y-56206346D01*
X74159000Y-56206346D01*
X74297966Y-56180198D01*
X74425599Y-56098069D01*
X74511223Y-55972754D01*
X74541346Y-55824000D01*
X74541346Y-54824000D01*
X74515198Y-54685034D01*
X74433069Y-54557401D01*
X74307754Y-54471777D01*
X74159000Y-54441654D01*
X72159000Y-54441654D01*
X72020034Y-54467802D01*
X71892401Y-54549931D01*
X71806777Y-54675246D01*
X71776654Y-54824000D01*
X71776654Y-54849000D01*
X70426005Y-54849000D01*
X70426000Y-54848999D01*
X70296052Y-54874848D01*
X70244225Y-54885157D01*
X70104014Y-54978843D01*
X70090124Y-54988124D01*
X69553202Y-55525046D01*
X69356421Y-55524874D01*
X69089857Y-55635016D01*
X68885733Y-55838784D01*
X68775126Y-56105156D01*
X68774874Y-56393579D01*
X61161231Y-56393579D01*
X61363389Y-52413092D01*
X61361615Y-52400992D01*
X61364000Y-52389000D01*
X61348229Y-52309712D01*
X61336498Y-52229718D01*
X61330229Y-52219219D01*
X61327843Y-52207225D01*
X61282933Y-52140013D01*
X61241480Y-52070592D01*
X61231667Y-52063289D01*
X61224875Y-52053124D01*
X60159876Y-50988124D01*
X60005775Y-50885157D01*
X59824000Y-50849000D01*
X59541346Y-50849000D01*
X59541346Y-50824000D01*
X59515198Y-50685034D01*
X59433069Y-50557401D01*
X59307754Y-50471777D01*
X59159000Y-50441654D01*
X57159000Y-50441654D01*
X57020034Y-50467802D01*
X56902346Y-50543532D01*
X56902346Y-50102498D01*
X57010246Y-50176223D01*
X57159000Y-50206346D01*
X59159000Y-50206346D01*
X59297966Y-50180198D01*
X59425599Y-50098069D01*
X59511223Y-49972754D01*
X59541346Y-49824000D01*
X59541346Y-49799000D01*
X59926000Y-49799000D01*
X59996698Y-49784937D01*
X60068368Y-49777163D01*
X60086973Y-49766981D01*
X60107775Y-49762843D01*
X60167718Y-49722790D01*
X60230949Y-49688185D01*
X62695225Y-47624735D01*
X63321814Y-47625282D01*
X63424907Y-47582685D01*
X63817576Y-48446556D01*
X63867024Y-48515385D01*
X63914124Y-48585876D01*
X63920934Y-48590426D01*
X63925711Y-48597076D01*
X63997737Y-48641744D01*
X64068225Y-48688843D01*
X64076258Y-48690441D01*
X64083216Y-48694756D01*
X64166863Y-48708463D01*
X64250000Y-48725000D01*
X71796702Y-48725000D01*
X71776654Y-48824000D01*
X71776654Y-48849000D01*
X70426000Y-48849000D01*
X70244225Y-48885157D01*
X70090124Y-48988124D01*
X64803202Y-54275046D01*
X64606421Y-54274874D01*
X64339857Y-54385016D01*
X64135733Y-54588784D01*
X64025126Y-54855156D01*
X64024874Y-55143579D01*
X64135016Y-55410143D01*
X64338784Y-55614267D01*
X64605156Y-55724874D01*
X64893579Y-55725126D01*
X65160143Y-55614984D01*
X65364267Y-55411216D01*
X65474874Y-55144844D01*
X65475047Y-54946705D01*
X67028173Y-53393579D01*
X68024874Y-53393579D01*
X68135016Y-53660143D01*
X68338784Y-53864267D01*
X68605156Y-53974874D01*
X68893579Y-53975126D01*
X69160143Y-53864984D01*
X69226242Y-53799000D01*
X71776654Y-53799000D01*
X71776654Y-53824000D01*
X71802802Y-53962966D01*
X71884931Y-54090599D01*
X72010246Y-54176223D01*
X72159000Y-54206346D01*
X74159000Y-54206346D01*
X74297966Y-54180198D01*
X74425599Y-54098069D01*
X74511223Y-53972754D01*
X74541346Y-53824000D01*
X74541346Y-53213098D01*
X75213758Y-53885510D01*
X75160222Y-53921282D01*
X74970545Y-54205152D01*
X74903940Y-54540000D01*
X74970545Y-54874848D01*
X75160222Y-55158718D01*
X75444092Y-55348395D01*
X75778940Y-55415000D01*
X76221060Y-55415000D01*
X76555908Y-55348395D01*
X76839778Y-55158718D01*
X77029455Y-54874848D01*
X77096060Y-54540000D01*
X77029455Y-54205152D01*
X76839778Y-53921282D01*
X76555908Y-53731605D01*
X76354150Y-53691473D01*
X76335876Y-53664124D01*
X75609368Y-52937616D01*
X75775000Y-52975000D01*
X75975000Y-52975000D01*
X75975000Y-52025000D01*
X76025000Y-52025000D01*
X76025000Y-52975000D01*
X76225000Y-52975000D01*
X76596213Y-52891215D01*
X76907106Y-52671751D01*
X77110349Y-52350019D01*
X77158768Y-52177166D01*
X77055885Y-52025000D01*
X76025000Y-52025000D01*
X75975000Y-52025000D01*
X75955000Y-52025000D01*
X75955000Y-51975000D01*
X75975000Y-51975000D01*
X75975000Y-51025000D01*
X76025000Y-51025000D01*
X76025000Y-51975000D01*
X77055885Y-51975000D01*
X77158768Y-51822834D01*
X77110349Y-51649981D01*
X76907106Y-51328249D01*
X76596213Y-51108785D01*
X76225000Y-51025000D01*
X76025000Y-51025000D01*
X75975000Y-51025000D01*
X75775000Y-51025000D01*
X75403787Y-51108785D01*
X75135769Y-51297983D01*
X75471906Y-50961846D01*
X76071500Y-50961846D01*
X76210466Y-50935698D01*
X76338099Y-50853569D01*
X76423723Y-50728254D01*
X76453846Y-50579500D01*
X76453846Y-49944500D01*
X76427698Y-49805534D01*
X76345569Y-49677901D01*
X76220254Y-49592277D01*
X76071500Y-49562154D01*
X74928500Y-49562154D01*
X74789534Y-49588302D01*
X74661901Y-49670431D01*
X74576277Y-49795746D01*
X74546154Y-49944500D01*
X74546154Y-50544094D01*
X74472136Y-50618112D01*
X74433069Y-50557401D01*
X74307754Y-50471777D01*
X74159000Y-50441654D01*
X72159000Y-50441654D01*
X72020034Y-50467802D01*
X71892401Y-50549931D01*
X71806777Y-50675246D01*
X71776654Y-50824000D01*
X71776654Y-51824000D01*
X71802802Y-51962966D01*
X71884931Y-52090599D01*
X72010246Y-52176223D01*
X72159000Y-52206346D01*
X74159000Y-52206346D01*
X74264705Y-52186456D01*
X74275000Y-52196751D01*
X74275000Y-52465144D01*
X74159000Y-52441654D01*
X72159000Y-52441654D01*
X72020034Y-52467802D01*
X71892401Y-52549931D01*
X71806777Y-52675246D01*
X71776654Y-52824000D01*
X71776654Y-52849000D01*
X69368762Y-52849000D01*
X69364984Y-52839857D01*
X69161216Y-52635733D01*
X68894844Y-52525126D01*
X68606421Y-52524874D01*
X68339857Y-52635016D01*
X68135733Y-52838784D01*
X68025126Y-53105156D01*
X68024874Y-53393579D01*
X67028173Y-53393579D01*
X70622752Y-49799000D01*
X71776654Y-49799000D01*
X71776654Y-49824000D01*
X71802802Y-49962966D01*
X71884931Y-50090599D01*
X72010246Y-50176223D01*
X72159000Y-50206346D01*
X74159000Y-50206346D01*
X74297966Y-50180198D01*
X74425599Y-50098069D01*
X74511223Y-49972754D01*
X74541346Y-49824000D01*
X74541346Y-49166901D01*
X74556225Y-49176843D01*
X74569482Y-49179480D01*
X74572302Y-49194466D01*
X74654431Y-49322099D01*
X74779746Y-49407723D01*
X74928500Y-49437846D01*
X76071500Y-49437846D01*
X76210466Y-49411698D01*
X76338099Y-49329569D01*
X76423723Y-49204254D01*
X76453846Y-49055500D01*
X76453846Y-48420500D01*
X76427698Y-48281534D01*
X76345569Y-48153901D01*
X76220254Y-48068277D01*
X76071500Y-48038154D01*
X74928500Y-48038154D01*
X74789534Y-48064302D01*
X74756993Y-48085241D01*
X74585876Y-47914124D01*
X74530578Y-47877175D01*
X74541346Y-47824000D01*
X74541346Y-46824000D01*
X74515198Y-46685034D01*
X74433069Y-46557401D01*
X74307754Y-46471777D01*
X74159000Y-46441654D01*
X72159000Y-46441654D01*
X72020034Y-46467802D01*
X71892401Y-46549931D01*
X71806777Y-46675246D01*
X71776654Y-46824000D01*
X71776654Y-46829858D01*
X71644844Y-46775126D01*
X71356421Y-46774874D01*
X71089857Y-46885016D01*
X70885733Y-47088784D01*
X70775126Y-47355156D01*
X70774874Y-47643579D01*
X70829176Y-47775000D01*
X65670829Y-47775000D01*
X65724874Y-47644844D01*
X65725047Y-47446705D01*
X67372752Y-45799000D01*
X71776654Y-45799000D01*
X71776654Y-45824000D01*
X71802802Y-45962966D01*
X71884931Y-46090599D01*
X72010246Y-46176223D01*
X72159000Y-46206346D01*
X74159000Y-46206346D01*
X74297966Y-46180198D01*
X74425599Y-46098069D01*
X74511223Y-45972754D01*
X74541346Y-45824000D01*
X74541346Y-45718122D01*
X77375000Y-48551776D01*
X77375000Y-48551776D01*
G37*
X77375000Y-48551776D02*
X77375000Y-57448224D01*
X76365049Y-58458175D01*
X76345569Y-58427901D01*
X76220254Y-58342277D01*
X76071500Y-58312154D01*
X74928500Y-58312154D01*
X74789534Y-58338302D01*
X74661901Y-58420431D01*
X74576277Y-58545746D01*
X74570236Y-58575578D01*
X74561685Y-58554934D01*
X74428066Y-58421314D01*
X74253483Y-58349000D01*
X73302750Y-58349000D01*
X73184000Y-58467750D01*
X73184000Y-59299000D01*
X73204000Y-59299000D01*
X73204000Y-59349000D01*
X73184000Y-59349000D01*
X73184000Y-60180250D01*
X73302750Y-60299000D01*
X74029249Y-60299000D01*
X72086493Y-62241755D01*
X71983526Y-62395856D01*
X71947369Y-62577631D01*
X71947369Y-62935675D01*
X71705061Y-62983873D01*
X71327952Y-63235850D01*
X71075975Y-63612959D01*
X70987493Y-64057791D01*
X71075975Y-64502623D01*
X71327952Y-64879732D01*
X71872904Y-65424684D01*
X72250014Y-65676661D01*
X72580772Y-65742452D01*
X72304264Y-66018961D01*
X71620616Y-65335313D01*
X71452678Y-65335313D01*
X70661673Y-66126318D01*
X70675816Y-66140460D01*
X70640460Y-66175816D01*
X70626318Y-66161673D01*
X69835313Y-66952678D01*
X69835313Y-67120616D01*
X70089697Y-67375000D01*
X69937168Y-67375000D01*
X68849179Y-66287011D01*
X68732426Y-66207236D01*
X68584102Y-66175060D01*
X68434946Y-66203126D01*
X68308461Y-66287011D01*
X67386124Y-67209348D01*
X66588388Y-66411612D01*
X66547037Y-66384187D01*
X66500000Y-66375000D01*
X63500000Y-66375000D01*
X63451368Y-66384848D01*
X63411612Y-66411612D01*
X62448224Y-67375000D01*
X61764000Y-67375000D01*
X61764000Y-66875516D01*
X61691685Y-66700934D01*
X61558066Y-66567314D01*
X61383483Y-66495000D01*
X60682750Y-66495000D01*
X60564000Y-66613750D01*
X60564000Y-67375000D01*
X60514000Y-67375000D01*
X60514000Y-66613750D01*
X60395250Y-66495000D01*
X59714000Y-66495000D01*
X59714000Y-65780387D01*
X68786319Y-65780387D01*
X68786319Y-65969354D01*
X68858633Y-66143936D01*
X69632020Y-66917323D01*
X69799958Y-66917323D01*
X70590963Y-66126318D01*
X70576820Y-66112176D01*
X70612176Y-66076820D01*
X70626318Y-66090963D01*
X71417323Y-65299958D01*
X71417323Y-65132020D01*
X70643936Y-64358633D01*
X70469354Y-64286319D01*
X70280387Y-64286319D01*
X70105805Y-64358634D01*
X70054500Y-64409939D01*
X70054500Y-64143750D01*
X69935750Y-64025000D01*
X69287000Y-64025000D01*
X69287000Y-64927750D01*
X69405750Y-65046500D01*
X69511142Y-65046500D01*
X69548508Y-65083866D01*
X69380573Y-65083866D01*
X68858634Y-65605805D01*
X68786319Y-65780387D01*
X59714000Y-65780387D01*
X59714000Y-65105546D01*
X59957200Y-65105546D01*
X60096166Y-65079398D01*
X60223799Y-64997269D01*
X60309423Y-64871954D01*
X60339546Y-64723200D01*
X60339546Y-64720006D01*
X60415775Y-64704843D01*
X60569876Y-64601876D01*
X61028002Y-64143750D01*
X61275000Y-64143750D01*
X61275000Y-65344484D01*
X61347315Y-65519066D01*
X61480934Y-65652686D01*
X61655517Y-65725000D01*
X62856250Y-65725000D01*
X62975000Y-65606250D01*
X62975000Y-64025000D01*
X63025000Y-64025000D01*
X63025000Y-65606250D01*
X63143750Y-65725000D01*
X64344483Y-65725000D01*
X64519066Y-65652686D01*
X64652685Y-65519066D01*
X64725000Y-65344484D01*
X64725000Y-64143750D01*
X64606250Y-64025000D01*
X63025000Y-64025000D01*
X62975000Y-64025000D01*
X61393750Y-64025000D01*
X61275000Y-64143750D01*
X61028002Y-64143750D01*
X61295251Y-63876501D01*
X61393750Y-63975000D01*
X62975000Y-63975000D01*
X62975000Y-63955000D01*
X63025000Y-63955000D01*
X63025000Y-63975000D01*
X64606250Y-63975000D01*
X64725000Y-63856250D01*
X64725000Y-62725000D01*
X67038154Y-62725000D01*
X67038154Y-62821500D01*
X67064302Y-62960466D01*
X67146431Y-63088099D01*
X67200050Y-63124735D01*
X67153901Y-63154431D01*
X67068277Y-63279746D01*
X67038154Y-63428500D01*
X67038154Y-64571500D01*
X67064302Y-64710466D01*
X67146431Y-64838099D01*
X67271746Y-64923723D01*
X67420500Y-64953846D01*
X68055500Y-64953846D01*
X68194466Y-64927698D01*
X68322099Y-64845569D01*
X68407723Y-64720254D01*
X68437846Y-64571500D01*
X68437846Y-64143750D01*
X68469500Y-64143750D01*
X68469500Y-64665984D01*
X68541815Y-64840566D01*
X68675434Y-64974186D01*
X68850017Y-65046500D01*
X69118250Y-65046500D01*
X69237000Y-64927750D01*
X69237000Y-64025000D01*
X68588250Y-64025000D01*
X68469500Y-64143750D01*
X68437846Y-64143750D01*
X68437846Y-63428500D01*
X68411698Y-63289534D01*
X68329569Y-63161901D01*
X68275950Y-63125265D01*
X68322099Y-63095569D01*
X68407723Y-62970254D01*
X68437846Y-62821500D01*
X68437846Y-62393750D01*
X68469500Y-62393750D01*
X68469500Y-62915984D01*
X68541815Y-63090566D01*
X68576249Y-63125000D01*
X68541815Y-63159434D01*
X68469500Y-63334016D01*
X68469500Y-63856250D01*
X68588250Y-63975000D01*
X69237000Y-63975000D01*
X69237000Y-62275000D01*
X69287000Y-62275000D01*
X69287000Y-63975000D01*
X69935750Y-63975000D01*
X70054500Y-63856250D01*
X70054500Y-63334016D01*
X69982185Y-63159434D01*
X69947751Y-63125000D01*
X69982185Y-63090566D01*
X70054500Y-62915984D01*
X70054500Y-62393750D01*
X69935750Y-62275000D01*
X69287000Y-62275000D01*
X69237000Y-62275000D01*
X68588250Y-62275000D01*
X68469500Y-62393750D01*
X68437846Y-62393750D01*
X68437846Y-61678500D01*
X68420068Y-61584016D01*
X68469500Y-61584016D01*
X68469500Y-62106250D01*
X68588250Y-62225000D01*
X69237000Y-62225000D01*
X69237000Y-61322250D01*
X69287000Y-61322250D01*
X69287000Y-62225000D01*
X69935750Y-62225000D01*
X70054500Y-62106250D01*
X70054500Y-61584016D01*
X69982185Y-61409434D01*
X69848566Y-61275814D01*
X69673983Y-61203500D01*
X69405750Y-61203500D01*
X69287000Y-61322250D01*
X69237000Y-61322250D01*
X69118250Y-61203500D01*
X68850017Y-61203500D01*
X68675434Y-61275814D01*
X68541815Y-61409434D01*
X68469500Y-61584016D01*
X68420068Y-61584016D01*
X68411698Y-61539534D01*
X68329569Y-61411901D01*
X68204254Y-61326277D01*
X68055500Y-61296154D01*
X67420500Y-61296154D01*
X67281534Y-61322302D01*
X67153901Y-61404431D01*
X67068277Y-61529746D01*
X67038154Y-61678500D01*
X67038154Y-61775000D01*
X61500000Y-61775000D01*
X61318225Y-61811157D01*
X61228546Y-61871079D01*
X61228546Y-61776800D01*
X61202398Y-61637834D01*
X61120269Y-61510201D01*
X60994954Y-61424577D01*
X60906629Y-61406691D01*
X61005102Y-59467750D01*
X71684000Y-59467750D01*
X71684000Y-59918484D01*
X71756315Y-60093066D01*
X71889934Y-60226686D01*
X72064517Y-60299000D01*
X73015250Y-60299000D01*
X73134000Y-60180250D01*
X73134000Y-59349000D01*
X71802750Y-59349000D01*
X71684000Y-59467750D01*
X61005102Y-59467750D01*
X61042594Y-58729516D01*
X71684000Y-58729516D01*
X71684000Y-59180250D01*
X71802750Y-59299000D01*
X73134000Y-59299000D01*
X73134000Y-58467750D01*
X73015250Y-58349000D01*
X72064517Y-58349000D01*
X71889934Y-58421314D01*
X71756315Y-58554934D01*
X71684000Y-58729516D01*
X61042594Y-58729516D01*
X61161231Y-56393579D01*
X68774874Y-56393579D01*
X68885016Y-56660143D01*
X69088784Y-56864267D01*
X69355156Y-56974874D01*
X69643579Y-56975126D01*
X69910143Y-56864984D01*
X69951198Y-56824000D01*
X71776654Y-56824000D01*
X71776654Y-57824000D01*
X71802802Y-57962966D01*
X71884931Y-58090599D01*
X72010246Y-58176223D01*
X72159000Y-58206346D01*
X74159000Y-58206346D01*
X74297966Y-58180198D01*
X74425599Y-58098069D01*
X74511223Y-57972754D01*
X74513198Y-57963000D01*
X74584228Y-57963000D01*
X74654431Y-58072099D01*
X74779746Y-58157723D01*
X74928500Y-58187846D01*
X76071500Y-58187846D01*
X76210466Y-58161698D01*
X76338099Y-58079569D01*
X76423723Y-57954254D01*
X76453846Y-57805500D01*
X76453846Y-57170500D01*
X76427698Y-57031534D01*
X76345569Y-56903901D01*
X76220254Y-56818277D01*
X76071500Y-56788154D01*
X74928500Y-56788154D01*
X74789534Y-56814302D01*
X74661901Y-56896431D01*
X74582253Y-57013000D01*
X74541346Y-57013000D01*
X74541346Y-56824000D01*
X74515198Y-56685034D01*
X74433069Y-56557401D01*
X74307754Y-56471777D01*
X74159000Y-56441654D01*
X72159000Y-56441654D01*
X72020034Y-56467802D01*
X71892401Y-56549931D01*
X71806777Y-56675246D01*
X71776654Y-56824000D01*
X69951198Y-56824000D01*
X70114267Y-56661216D01*
X70224874Y-56394844D01*
X70225047Y-56196705D01*
X70622752Y-55799000D01*
X71776654Y-55799000D01*
X71776654Y-55824000D01*
X71802802Y-55962966D01*
X71884931Y-56090599D01*
X72010246Y-56176223D01*
X72159000Y-56206346D01*
X74159000Y-56206346D01*
X74297966Y-56180198D01*
X74425599Y-56098069D01*
X74511223Y-55972754D01*
X74541346Y-55824000D01*
X74541346Y-54824000D01*
X74515198Y-54685034D01*
X74433069Y-54557401D01*
X74307754Y-54471777D01*
X74159000Y-54441654D01*
X72159000Y-54441654D01*
X72020034Y-54467802D01*
X71892401Y-54549931D01*
X71806777Y-54675246D01*
X71776654Y-54824000D01*
X71776654Y-54849000D01*
X70426005Y-54849000D01*
X70426000Y-54848999D01*
X70296052Y-54874848D01*
X70244225Y-54885157D01*
X70104014Y-54978843D01*
X70090124Y-54988124D01*
X69553202Y-55525046D01*
X69356421Y-55524874D01*
X69089857Y-55635016D01*
X68885733Y-55838784D01*
X68775126Y-56105156D01*
X68774874Y-56393579D01*
X61161231Y-56393579D01*
X61363389Y-52413092D01*
X61361615Y-52400992D01*
X61364000Y-52389000D01*
X61348229Y-52309712D01*
X61336498Y-52229718D01*
X61330229Y-52219219D01*
X61327843Y-52207225D01*
X61282933Y-52140013D01*
X61241480Y-52070592D01*
X61231667Y-52063289D01*
X61224875Y-52053124D01*
X60159876Y-50988124D01*
X60005775Y-50885157D01*
X59824000Y-50849000D01*
X59541346Y-50849000D01*
X59541346Y-50824000D01*
X59515198Y-50685034D01*
X59433069Y-50557401D01*
X59307754Y-50471777D01*
X59159000Y-50441654D01*
X57159000Y-50441654D01*
X57020034Y-50467802D01*
X56902346Y-50543532D01*
X56902346Y-50102498D01*
X57010246Y-50176223D01*
X57159000Y-50206346D01*
X59159000Y-50206346D01*
X59297966Y-50180198D01*
X59425599Y-50098069D01*
X59511223Y-49972754D01*
X59541346Y-49824000D01*
X59541346Y-49799000D01*
X59926000Y-49799000D01*
X59996698Y-49784937D01*
X60068368Y-49777163D01*
X60086973Y-49766981D01*
X60107775Y-49762843D01*
X60167718Y-49722790D01*
X60230949Y-49688185D01*
X62695225Y-47624735D01*
X63321814Y-47625282D01*
X63424907Y-47582685D01*
X63817576Y-48446556D01*
X63867024Y-48515385D01*
X63914124Y-48585876D01*
X63920934Y-48590426D01*
X63925711Y-48597076D01*
X63997737Y-48641744D01*
X64068225Y-48688843D01*
X64076258Y-48690441D01*
X64083216Y-48694756D01*
X64166863Y-48708463D01*
X64250000Y-48725000D01*
X71796702Y-48725000D01*
X71776654Y-48824000D01*
X71776654Y-48849000D01*
X70426000Y-48849000D01*
X70244225Y-48885157D01*
X70090124Y-48988124D01*
X64803202Y-54275046D01*
X64606421Y-54274874D01*
X64339857Y-54385016D01*
X64135733Y-54588784D01*
X64025126Y-54855156D01*
X64024874Y-55143579D01*
X64135016Y-55410143D01*
X64338784Y-55614267D01*
X64605156Y-55724874D01*
X64893579Y-55725126D01*
X65160143Y-55614984D01*
X65364267Y-55411216D01*
X65474874Y-55144844D01*
X65475047Y-54946705D01*
X67028173Y-53393579D01*
X68024874Y-53393579D01*
X68135016Y-53660143D01*
X68338784Y-53864267D01*
X68605156Y-53974874D01*
X68893579Y-53975126D01*
X69160143Y-53864984D01*
X69226242Y-53799000D01*
X71776654Y-53799000D01*
X71776654Y-53824000D01*
X71802802Y-53962966D01*
X71884931Y-54090599D01*
X72010246Y-54176223D01*
X72159000Y-54206346D01*
X74159000Y-54206346D01*
X74297966Y-54180198D01*
X74425599Y-54098069D01*
X74511223Y-53972754D01*
X74541346Y-53824000D01*
X74541346Y-53213098D01*
X75213758Y-53885510D01*
X75160222Y-53921282D01*
X74970545Y-54205152D01*
X74903940Y-54540000D01*
X74970545Y-54874848D01*
X75160222Y-55158718D01*
X75444092Y-55348395D01*
X75778940Y-55415000D01*
X76221060Y-55415000D01*
X76555908Y-55348395D01*
X76839778Y-55158718D01*
X77029455Y-54874848D01*
X77096060Y-54540000D01*
X77029455Y-54205152D01*
X76839778Y-53921282D01*
X76555908Y-53731605D01*
X76354150Y-53691473D01*
X76335876Y-53664124D01*
X75609368Y-52937616D01*
X75775000Y-52975000D01*
X75975000Y-52975000D01*
X75975000Y-52025000D01*
X76025000Y-52025000D01*
X76025000Y-52975000D01*
X76225000Y-52975000D01*
X76596213Y-52891215D01*
X76907106Y-52671751D01*
X77110349Y-52350019D01*
X77158768Y-52177166D01*
X77055885Y-52025000D01*
X76025000Y-52025000D01*
X75975000Y-52025000D01*
X75955000Y-52025000D01*
X75955000Y-51975000D01*
X75975000Y-51975000D01*
X75975000Y-51025000D01*
X76025000Y-51025000D01*
X76025000Y-51975000D01*
X77055885Y-51975000D01*
X77158768Y-51822834D01*
X77110349Y-51649981D01*
X76907106Y-51328249D01*
X76596213Y-51108785D01*
X76225000Y-51025000D01*
X76025000Y-51025000D01*
X75975000Y-51025000D01*
X75775000Y-51025000D01*
X75403787Y-51108785D01*
X75135769Y-51297983D01*
X75471906Y-50961846D01*
X76071500Y-50961846D01*
X76210466Y-50935698D01*
X76338099Y-50853569D01*
X76423723Y-50728254D01*
X76453846Y-50579500D01*
X76453846Y-49944500D01*
X76427698Y-49805534D01*
X76345569Y-49677901D01*
X76220254Y-49592277D01*
X76071500Y-49562154D01*
X74928500Y-49562154D01*
X74789534Y-49588302D01*
X74661901Y-49670431D01*
X74576277Y-49795746D01*
X74546154Y-49944500D01*
X74546154Y-50544094D01*
X74472136Y-50618112D01*
X74433069Y-50557401D01*
X74307754Y-50471777D01*
X74159000Y-50441654D01*
X72159000Y-50441654D01*
X72020034Y-50467802D01*
X71892401Y-50549931D01*
X71806777Y-50675246D01*
X71776654Y-50824000D01*
X71776654Y-51824000D01*
X71802802Y-51962966D01*
X71884931Y-52090599D01*
X72010246Y-52176223D01*
X72159000Y-52206346D01*
X74159000Y-52206346D01*
X74264705Y-52186456D01*
X74275000Y-52196751D01*
X74275000Y-52465144D01*
X74159000Y-52441654D01*
X72159000Y-52441654D01*
X72020034Y-52467802D01*
X71892401Y-52549931D01*
X71806777Y-52675246D01*
X71776654Y-52824000D01*
X71776654Y-52849000D01*
X69368762Y-52849000D01*
X69364984Y-52839857D01*
X69161216Y-52635733D01*
X68894844Y-52525126D01*
X68606421Y-52524874D01*
X68339857Y-52635016D01*
X68135733Y-52838784D01*
X68025126Y-53105156D01*
X68024874Y-53393579D01*
X67028173Y-53393579D01*
X70622752Y-49799000D01*
X71776654Y-49799000D01*
X71776654Y-49824000D01*
X71802802Y-49962966D01*
X71884931Y-50090599D01*
X72010246Y-50176223D01*
X72159000Y-50206346D01*
X74159000Y-50206346D01*
X74297966Y-50180198D01*
X74425599Y-50098069D01*
X74511223Y-49972754D01*
X74541346Y-49824000D01*
X74541346Y-49166901D01*
X74556225Y-49176843D01*
X74569482Y-49179480D01*
X74572302Y-49194466D01*
X74654431Y-49322099D01*
X74779746Y-49407723D01*
X74928500Y-49437846D01*
X76071500Y-49437846D01*
X76210466Y-49411698D01*
X76338099Y-49329569D01*
X76423723Y-49204254D01*
X76453846Y-49055500D01*
X76453846Y-48420500D01*
X76427698Y-48281534D01*
X76345569Y-48153901D01*
X76220254Y-48068277D01*
X76071500Y-48038154D01*
X74928500Y-48038154D01*
X74789534Y-48064302D01*
X74756993Y-48085241D01*
X74585876Y-47914124D01*
X74530578Y-47877175D01*
X74541346Y-47824000D01*
X74541346Y-46824000D01*
X74515198Y-46685034D01*
X74433069Y-46557401D01*
X74307754Y-46471777D01*
X74159000Y-46441654D01*
X72159000Y-46441654D01*
X72020034Y-46467802D01*
X71892401Y-46549931D01*
X71806777Y-46675246D01*
X71776654Y-46824000D01*
X71776654Y-46829858D01*
X71644844Y-46775126D01*
X71356421Y-46774874D01*
X71089857Y-46885016D01*
X70885733Y-47088784D01*
X70775126Y-47355156D01*
X70774874Y-47643579D01*
X70829176Y-47775000D01*
X65670829Y-47775000D01*
X65724874Y-47644844D01*
X65725047Y-47446705D01*
X67372752Y-45799000D01*
X71776654Y-45799000D01*
X71776654Y-45824000D01*
X71802802Y-45962966D01*
X71884931Y-46090599D01*
X72010246Y-46176223D01*
X72159000Y-46206346D01*
X74159000Y-46206346D01*
X74297966Y-46180198D01*
X74425599Y-46098069D01*
X74511223Y-45972754D01*
X74541346Y-45824000D01*
X74541346Y-45718122D01*
X77375000Y-48551776D01*
G36*
X53945500Y-44643750D02*
X53945500Y-45165984D01*
X53980301Y-45250000D01*
X53945500Y-45334016D01*
X53945500Y-45856250D01*
X54064250Y-45975000D01*
X54713000Y-45975000D01*
X54713000Y-44625000D01*
X54763000Y-44625000D01*
X54763000Y-45975000D01*
X55411750Y-45975000D01*
X55530500Y-45856250D01*
X55530500Y-45334016D01*
X55495699Y-45250000D01*
X55530500Y-45165984D01*
X55530500Y-44643750D01*
X55511750Y-44625000D01*
X55562154Y-44625000D01*
X55562154Y-45071500D01*
X55588302Y-45210466D01*
X55613188Y-45249141D01*
X55592277Y-45279746D01*
X55562154Y-45428500D01*
X55562154Y-46571500D01*
X55588302Y-46710466D01*
X55638293Y-46788154D01*
X55479895Y-46788154D01*
X55530500Y-46665984D01*
X55530500Y-46143750D01*
X55411750Y-46025000D01*
X54763000Y-46025000D01*
X54763000Y-46927750D01*
X54881750Y-47046500D01*
X55071264Y-47046500D01*
X55046154Y-47170500D01*
X55046154Y-47805500D01*
X55072302Y-47944466D01*
X55154431Y-48072099D01*
X55279746Y-48157723D01*
X55428500Y-48187846D01*
X56571500Y-48187846D01*
X56710466Y-48161698D01*
X56838099Y-48079569D01*
X56858562Y-48049620D01*
X56884931Y-48090599D01*
X57010246Y-48176223D01*
X57159000Y-48206346D01*
X59159000Y-48206346D01*
X59297966Y-48180198D01*
X59425599Y-48098069D01*
X59511223Y-47972754D01*
X59541346Y-47824000D01*
X59541346Y-46824000D01*
X59515198Y-46685034D01*
X59433069Y-46557401D01*
X59307754Y-46471777D01*
X59159000Y-46441654D01*
X57159000Y-46441654D01*
X57020034Y-46467802D01*
X56961846Y-46505245D01*
X56961846Y-46143153D01*
X57010246Y-46176223D01*
X57159000Y-46206346D01*
X59159000Y-46206346D01*
X59297966Y-46180198D01*
X59425599Y-46098069D01*
X59509682Y-45975009D01*
X59643579Y-45975126D01*
X59910143Y-45864984D01*
X60114267Y-45661216D01*
X60224874Y-45394844D01*
X60225126Y-45106421D01*
X60114984Y-44839857D01*
X59911216Y-44635733D01*
X59885368Y-44625000D01*
X62077296Y-44625000D01*
X61623195Y-45078309D01*
X61375282Y-45675349D01*
X61374718Y-46321814D01*
X61621588Y-46919286D01*
X61820267Y-47118312D01*
X59753392Y-48849000D01*
X59541346Y-48849000D01*
X59541346Y-48824000D01*
X59515198Y-48685034D01*
X59433069Y-48557401D01*
X59307754Y-48471777D01*
X59159000Y-48441654D01*
X57159000Y-48441654D01*
X57020034Y-48467802D01*
X56914813Y-48535510D01*
X56845569Y-48427901D01*
X56720254Y-48342277D01*
X56571500Y-48312154D01*
X55428500Y-48312154D01*
X55289534Y-48338302D01*
X55161901Y-48420431D01*
X55076277Y-48545746D01*
X55046154Y-48694500D01*
X55046154Y-49294094D01*
X54914124Y-49426124D01*
X54892388Y-49458654D01*
X53980000Y-49458654D01*
X53841034Y-49484802D01*
X53713401Y-49566931D01*
X53627777Y-49692246D01*
X53597654Y-49841000D01*
X53597654Y-50001000D01*
X51902346Y-50001000D01*
X51902346Y-49841000D01*
X51876198Y-49702034D01*
X51794069Y-49574401D01*
X51668754Y-49488777D01*
X51520000Y-49458654D01*
X48980000Y-49458654D01*
X48841034Y-49484802D01*
X48713401Y-49566931D01*
X48627777Y-49692246D01*
X48597654Y-49841000D01*
X48597654Y-51111000D01*
X48623802Y-51249966D01*
X48685322Y-51345571D01*
X48589857Y-51385016D01*
X48385733Y-51588784D01*
X48275126Y-51855156D01*
X48274874Y-52143579D01*
X48385016Y-52410143D01*
X48585885Y-52611363D01*
X48577314Y-52619934D01*
X48505000Y-52794517D01*
X48505000Y-53380250D01*
X48623750Y-53499000D01*
X50225000Y-53499000D01*
X50225000Y-52532750D01*
X50275000Y-52532750D01*
X50275000Y-53499000D01*
X51876250Y-53499000D01*
X51901249Y-53474001D01*
X51909434Y-53482185D01*
X52084016Y-53554500D01*
X52606250Y-53554500D01*
X52725000Y-53435750D01*
X52725000Y-52787000D01*
X52705000Y-52787000D01*
X52705000Y-52737000D01*
X52725000Y-52737000D01*
X52725000Y-52088250D01*
X52775000Y-52088250D01*
X52775000Y-52737000D01*
X52795000Y-52737000D01*
X52795000Y-52787000D01*
X52775000Y-52787000D01*
X52775000Y-53435750D01*
X52893750Y-53554500D01*
X53415984Y-53554500D01*
X53590566Y-53482185D01*
X53598751Y-53474001D01*
X53623750Y-53499000D01*
X55225000Y-53499000D01*
X55225000Y-52532750D01*
X55106250Y-52414000D01*
X53885516Y-52414000D01*
X53796500Y-52450872D01*
X53796500Y-52350017D01*
X53724186Y-52175434D01*
X53590566Y-52041815D01*
X53415984Y-51969500D01*
X52893750Y-51969500D01*
X52775000Y-52088250D01*
X52725000Y-52088250D01*
X52606250Y-51969500D01*
X52084016Y-51969500D01*
X51909434Y-52041815D01*
X51775814Y-52175434D01*
X51703500Y-52350017D01*
X51703500Y-52450872D01*
X51614484Y-52414000D01*
X50393750Y-52414000D01*
X50275000Y-52532750D01*
X50225000Y-52532750D01*
X50106250Y-52414000D01*
X49611478Y-52414000D01*
X49614267Y-52411216D01*
X49724874Y-52144844D01*
X49725047Y-51946705D01*
X49958752Y-51713000D01*
X51834228Y-51713000D01*
X51904431Y-51822099D01*
X52029746Y-51907723D01*
X52178500Y-51937846D01*
X53321500Y-51937846D01*
X53460466Y-51911698D01*
X53588099Y-51829569D01*
X53673723Y-51704254D01*
X53703846Y-51555500D01*
X53703846Y-51374359D01*
X53705931Y-51377599D01*
X53831246Y-51463223D01*
X53980000Y-51493346D01*
X56520000Y-51493346D01*
X56658966Y-51467198D01*
X56776654Y-51391468D01*
X56776654Y-51824000D01*
X56802802Y-51962966D01*
X56884931Y-52090599D01*
X57010246Y-52176223D01*
X57159000Y-52206346D01*
X59159000Y-52206346D01*
X59297966Y-52180198D01*
X59425599Y-52098069D01*
X59511223Y-51972754D01*
X59541346Y-51824000D01*
X59541346Y-51799000D01*
X59627248Y-51799000D01*
X60403908Y-52575659D01*
X59956026Y-61394454D01*
X59931800Y-61394454D01*
X59792834Y-61420602D01*
X59665201Y-61502731D01*
X59579577Y-61628046D01*
X59549454Y-61776800D01*
X59549454Y-62691200D01*
X59575602Y-62830166D01*
X59657731Y-62957799D01*
X59783046Y-63043423D01*
X59931800Y-63073546D01*
X60754702Y-63073546D01*
X60252716Y-63575532D01*
X60231269Y-63542201D01*
X60105954Y-63456577D01*
X59957200Y-63426454D01*
X59042800Y-63426454D01*
X58903834Y-63452602D01*
X58776201Y-63534731D01*
X58690577Y-63660046D01*
X58672259Y-63750507D01*
X58225000Y-63303248D01*
X58225000Y-63073546D01*
X59068200Y-63073546D01*
X59207166Y-63047398D01*
X59334799Y-62965269D01*
X59420423Y-62839954D01*
X59450546Y-62691200D01*
X59450546Y-61776800D01*
X59424398Y-61637834D01*
X59342269Y-61510201D01*
X59216954Y-61424577D01*
X59086000Y-61398059D01*
X59086000Y-60206346D01*
X59159000Y-60206346D01*
X59297966Y-60180198D01*
X59425599Y-60098069D01*
X59511223Y-59972754D01*
X59541346Y-59824000D01*
X59541346Y-58824000D01*
X59515198Y-58685034D01*
X59433069Y-58557401D01*
X59307754Y-58471777D01*
X59159000Y-58441654D01*
X57159000Y-58441654D01*
X57120626Y-58448874D01*
X56822818Y-58151066D01*
X56910143Y-58114984D01*
X56914400Y-58110734D01*
X57010246Y-58176223D01*
X57159000Y-58206346D01*
X59159000Y-58206346D01*
X59297966Y-58180198D01*
X59425599Y-58098069D01*
X59511223Y-57972754D01*
X59541346Y-57824000D01*
X59541346Y-56824000D01*
X59515198Y-56685034D01*
X59433069Y-56557401D01*
X59307754Y-56471777D01*
X59159000Y-56441654D01*
X57159000Y-56441654D01*
X57020034Y-56467802D01*
X56892401Y-56549931D01*
X56806777Y-56675246D01*
X56776654Y-56824000D01*
X56776654Y-56829858D01*
X56644844Y-56775126D01*
X56356421Y-56774874D01*
X56089857Y-56885016D01*
X55885733Y-57088784D01*
X55808389Y-57275050D01*
X55661582Y-57274922D01*
X55644988Y-57186734D01*
X55562859Y-57059101D01*
X55437544Y-56973477D01*
X55288790Y-56943354D01*
X51978398Y-56943354D01*
X53122751Y-55799000D01*
X56776654Y-55799000D01*
X56776654Y-55824000D01*
X56802802Y-55962966D01*
X56884931Y-56090599D01*
X57010246Y-56176223D01*
X57159000Y-56206346D01*
X59159000Y-56206346D01*
X59297966Y-56180198D01*
X59425599Y-56098069D01*
X59511223Y-55972754D01*
X59541346Y-55824000D01*
X59541346Y-54824000D01*
X59515198Y-54685034D01*
X59433069Y-54557401D01*
X59307754Y-54471777D01*
X59159000Y-54441654D01*
X57480098Y-54441654D01*
X57715405Y-54206346D01*
X59159000Y-54206346D01*
X59297966Y-54180198D01*
X59425599Y-54098069D01*
X59511223Y-53972754D01*
X59541346Y-53824000D01*
X59541346Y-52824000D01*
X59515198Y-52685034D01*
X59433069Y-52557401D01*
X59307754Y-52471777D01*
X59159000Y-52441654D01*
X57159000Y-52441654D01*
X57020034Y-52467802D01*
X56892401Y-52549931D01*
X56876279Y-52573527D01*
X56789066Y-52486315D01*
X56614484Y-52414000D01*
X55393750Y-52414000D01*
X55275000Y-52532750D01*
X55275000Y-53499000D01*
X55295000Y-53499000D01*
X55295000Y-53549000D01*
X55275000Y-53549000D01*
X55275000Y-53569000D01*
X55225000Y-53569000D01*
X55225000Y-53549000D01*
X53623750Y-53549000D01*
X53505000Y-53667750D01*
X53505000Y-54253483D01*
X53513913Y-54275000D01*
X52500000Y-54275000D01*
X52318225Y-54311157D01*
X52164124Y-54414124D01*
X52164122Y-54414127D01*
X51053202Y-55525046D01*
X50856421Y-55524874D01*
X50589857Y-55635016D01*
X50454745Y-55769892D01*
X50357544Y-55703477D01*
X50208790Y-55673354D01*
X46711210Y-55673354D01*
X46572244Y-55699502D01*
X46444611Y-55781631D01*
X46358987Y-55906946D01*
X46328864Y-56055700D01*
X46328864Y-57499384D01*
X45914124Y-57914124D01*
X45811157Y-58068225D01*
X45775000Y-58250000D01*
X45775000Y-60250000D01*
X45811157Y-60431775D01*
X45914124Y-60585876D01*
X46351612Y-61023364D01*
X46328864Y-61135700D01*
X46328864Y-62634300D01*
X46355012Y-62773266D01*
X46437141Y-62900899D01*
X46562456Y-62986523D01*
X46711210Y-63016646D01*
X50208790Y-63016646D01*
X50347756Y-62990498D01*
X50475389Y-62908369D01*
X50561013Y-62783054D01*
X50591136Y-62634300D01*
X50591136Y-62615244D01*
X50855156Y-62724874D01*
X51143579Y-62725126D01*
X51408864Y-62615512D01*
X51408864Y-63904300D01*
X51435012Y-64043266D01*
X51517141Y-64170899D01*
X51642456Y-64256523D01*
X51791210Y-64286646D01*
X55288790Y-64286646D01*
X55427756Y-64260498D01*
X55555389Y-64178369D01*
X55641013Y-64053054D01*
X55671136Y-63904300D01*
X55671136Y-63630000D01*
X56126673Y-63630000D01*
X56355156Y-63724874D01*
X56643579Y-63725126D01*
X56775000Y-63670824D01*
X56775000Y-64250000D01*
X56779978Y-64275026D01*
X56606421Y-64274874D01*
X56339857Y-64385016D01*
X56135733Y-64588784D01*
X56025126Y-64855156D01*
X56024874Y-65143579D01*
X56135016Y-65410143D01*
X56338784Y-65614267D01*
X56364000Y-65624738D01*
X56364000Y-66602842D01*
X56289000Y-66587654D01*
X55743547Y-66587654D01*
X55763790Y-66538784D01*
X55763790Y-65838750D01*
X55645040Y-65720000D01*
X53565000Y-65720000D01*
X53565000Y-66800550D01*
X53683750Y-66919300D01*
X54416921Y-66919300D01*
X54406654Y-66970000D01*
X54406654Y-67375000D01*
X42625000Y-67375000D01*
X42625000Y-67309006D01*
X42848280Y-67264593D01*
X42848281Y-67264593D01*
X43001484Y-67201134D01*
X43650331Y-66767589D01*
X43767589Y-66650331D01*
X44201134Y-66001484D01*
X44264593Y-65848281D01*
X44264593Y-65848279D01*
X44266488Y-65838750D01*
X51316210Y-65838750D01*
X51316210Y-66538784D01*
X51388525Y-66713366D01*
X51522144Y-66846986D01*
X51696727Y-66919300D01*
X53396250Y-66919300D01*
X53515000Y-66800550D01*
X53515000Y-65720000D01*
X51434960Y-65720000D01*
X51316210Y-65838750D01*
X44266488Y-65838750D01*
X44416834Y-65082914D01*
X44416834Y-64917086D01*
X44347546Y-64568750D01*
X46236210Y-64568750D01*
X46236210Y-65268784D01*
X46308525Y-65443366D01*
X46442144Y-65576986D01*
X46616727Y-65649300D01*
X48316250Y-65649300D01*
X48435000Y-65530550D01*
X48435000Y-64450000D01*
X48485000Y-64450000D01*
X48485000Y-65530550D01*
X48603750Y-65649300D01*
X50303273Y-65649300D01*
X50477856Y-65576986D01*
X50611475Y-65443366D01*
X50683790Y-65268784D01*
X50683790Y-64851216D01*
X51316210Y-64851216D01*
X51316210Y-65551250D01*
X51434960Y-65670000D01*
X53515000Y-65670000D01*
X53515000Y-64589450D01*
X53565000Y-64589450D01*
X53565000Y-65670000D01*
X55645040Y-65670000D01*
X55763790Y-65551250D01*
X55763790Y-64851216D01*
X55691475Y-64676634D01*
X55557856Y-64543014D01*
X55383273Y-64470700D01*
X53683750Y-64470700D01*
X53565000Y-64589450D01*
X53515000Y-64589450D01*
X53396250Y-64470700D01*
X51696727Y-64470700D01*
X51522144Y-64543014D01*
X51388525Y-64676634D01*
X51316210Y-64851216D01*
X50683790Y-64851216D01*
X50683790Y-64568750D01*
X50565040Y-64450000D01*
X48485000Y-64450000D01*
X48435000Y-64450000D01*
X46354960Y-64450000D01*
X46236210Y-64568750D01*
X44347546Y-64568750D01*
X44264593Y-64151720D01*
X44201134Y-63998516D01*
X43922304Y-63581216D01*
X46236210Y-63581216D01*
X46236210Y-64281250D01*
X46354960Y-64400000D01*
X48435000Y-64400000D01*
X48435000Y-63319450D01*
X48485000Y-63319450D01*
X48485000Y-64400000D01*
X50565040Y-64400000D01*
X50683790Y-64281250D01*
X50683790Y-63581216D01*
X50611475Y-63406634D01*
X50477856Y-63273014D01*
X50303273Y-63200700D01*
X48603750Y-63200700D01*
X48485000Y-63319450D01*
X48435000Y-63319450D01*
X48316250Y-63200700D01*
X46616727Y-63200700D01*
X46442144Y-63273014D01*
X46308525Y-63406634D01*
X46236210Y-63581216D01*
X43922304Y-63581216D01*
X43767589Y-63349669D01*
X43650331Y-63232411D01*
X43001484Y-62798866D01*
X42848281Y-62735407D01*
X42848280Y-62735407D01*
X42625000Y-62690994D01*
X42625000Y-59976040D01*
X45700521Y-56900520D01*
X45792649Y-56762641D01*
X45825000Y-56600000D01*
X45825000Y-53667750D01*
X48505000Y-53667750D01*
X48505000Y-54253483D01*
X48577314Y-54428066D01*
X48710934Y-54561685D01*
X48885516Y-54634000D01*
X50106250Y-54634000D01*
X50225000Y-54515250D01*
X50225000Y-53549000D01*
X50275000Y-53549000D01*
X50275000Y-54515250D01*
X50393750Y-54634000D01*
X51614484Y-54634000D01*
X51789066Y-54561685D01*
X51922686Y-54428066D01*
X51995000Y-54253483D01*
X51995000Y-53667750D01*
X51876250Y-53549000D01*
X50275000Y-53549000D01*
X50225000Y-53549000D01*
X48623750Y-53549000D01*
X48505000Y-53667750D01*
X45825000Y-53667750D01*
X45825000Y-50576040D01*
X50257290Y-46143750D01*
X53945500Y-46143750D01*
X53945500Y-46665984D01*
X54017815Y-46840566D01*
X54151434Y-46974186D01*
X54326017Y-47046500D01*
X54594250Y-47046500D01*
X54713000Y-46927750D01*
X54713000Y-46025000D01*
X54064250Y-46025000D01*
X53945500Y-46143750D01*
X50257290Y-46143750D01*
X51776041Y-44625000D01*
X53964250Y-44625000D01*
X53945500Y-44643750D01*
X53945500Y-44643750D01*
G37*
X53945500Y-44643750D02*
X53945500Y-45165984D01*
X53980301Y-45250000D01*
X53945500Y-45334016D01*
X53945500Y-45856250D01*
X54064250Y-45975000D01*
X54713000Y-45975000D01*
X54713000Y-44625000D01*
X54763000Y-44625000D01*
X54763000Y-45975000D01*
X55411750Y-45975000D01*
X55530500Y-45856250D01*
X55530500Y-45334016D01*
X55495699Y-45250000D01*
X55530500Y-45165984D01*
X55530500Y-44643750D01*
X55511750Y-44625000D01*
X55562154Y-44625000D01*
X55562154Y-45071500D01*
X55588302Y-45210466D01*
X55613188Y-45249141D01*
X55592277Y-45279746D01*
X55562154Y-45428500D01*
X55562154Y-46571500D01*
X55588302Y-46710466D01*
X55638293Y-46788154D01*
X55479895Y-46788154D01*
X55530500Y-46665984D01*
X55530500Y-46143750D01*
X55411750Y-46025000D01*
X54763000Y-46025000D01*
X54763000Y-46927750D01*
X54881750Y-47046500D01*
X55071264Y-47046500D01*
X55046154Y-47170500D01*
X55046154Y-47805500D01*
X55072302Y-47944466D01*
X55154431Y-48072099D01*
X55279746Y-48157723D01*
X55428500Y-48187846D01*
X56571500Y-48187846D01*
X56710466Y-48161698D01*
X56838099Y-48079569D01*
X56858562Y-48049620D01*
X56884931Y-48090599D01*
X57010246Y-48176223D01*
X57159000Y-48206346D01*
X59159000Y-48206346D01*
X59297966Y-48180198D01*
X59425599Y-48098069D01*
X59511223Y-47972754D01*
X59541346Y-47824000D01*
X59541346Y-46824000D01*
X59515198Y-46685034D01*
X59433069Y-46557401D01*
X59307754Y-46471777D01*
X59159000Y-46441654D01*
X57159000Y-46441654D01*
X57020034Y-46467802D01*
X56961846Y-46505245D01*
X56961846Y-46143153D01*
X57010246Y-46176223D01*
X57159000Y-46206346D01*
X59159000Y-46206346D01*
X59297966Y-46180198D01*
X59425599Y-46098069D01*
X59509682Y-45975009D01*
X59643579Y-45975126D01*
X59910143Y-45864984D01*
X60114267Y-45661216D01*
X60224874Y-45394844D01*
X60225126Y-45106421D01*
X60114984Y-44839857D01*
X59911216Y-44635733D01*
X59885368Y-44625000D01*
X62077296Y-44625000D01*
X61623195Y-45078309D01*
X61375282Y-45675349D01*
X61374718Y-46321814D01*
X61621588Y-46919286D01*
X61820267Y-47118312D01*
X59753392Y-48849000D01*
X59541346Y-48849000D01*
X59541346Y-48824000D01*
X59515198Y-48685034D01*
X59433069Y-48557401D01*
X59307754Y-48471777D01*
X59159000Y-48441654D01*
X57159000Y-48441654D01*
X57020034Y-48467802D01*
X56914813Y-48535510D01*
X56845569Y-48427901D01*
X56720254Y-48342277D01*
X56571500Y-48312154D01*
X55428500Y-48312154D01*
X55289534Y-48338302D01*
X55161901Y-48420431D01*
X55076277Y-48545746D01*
X55046154Y-48694500D01*
X55046154Y-49294094D01*
X54914124Y-49426124D01*
X54892388Y-49458654D01*
X53980000Y-49458654D01*
X53841034Y-49484802D01*
X53713401Y-49566931D01*
X53627777Y-49692246D01*
X53597654Y-49841000D01*
X53597654Y-50001000D01*
X51902346Y-50001000D01*
X51902346Y-49841000D01*
X51876198Y-49702034D01*
X51794069Y-49574401D01*
X51668754Y-49488777D01*
X51520000Y-49458654D01*
X48980000Y-49458654D01*
X48841034Y-49484802D01*
X48713401Y-49566931D01*
X48627777Y-49692246D01*
X48597654Y-49841000D01*
X48597654Y-51111000D01*
X48623802Y-51249966D01*
X48685322Y-51345571D01*
X48589857Y-51385016D01*
X48385733Y-51588784D01*
X48275126Y-51855156D01*
X48274874Y-52143579D01*
X48385016Y-52410143D01*
X48585885Y-52611363D01*
X48577314Y-52619934D01*
X48505000Y-52794517D01*
X48505000Y-53380250D01*
X48623750Y-53499000D01*
X50225000Y-53499000D01*
X50225000Y-52532750D01*
X50275000Y-52532750D01*
X50275000Y-53499000D01*
X51876250Y-53499000D01*
X51901249Y-53474001D01*
X51909434Y-53482185D01*
X52084016Y-53554500D01*
X52606250Y-53554500D01*
X52725000Y-53435750D01*
X52725000Y-52787000D01*
X52705000Y-52787000D01*
X52705000Y-52737000D01*
X52725000Y-52737000D01*
X52725000Y-52088250D01*
X52775000Y-52088250D01*
X52775000Y-52737000D01*
X52795000Y-52737000D01*
X52795000Y-52787000D01*
X52775000Y-52787000D01*
X52775000Y-53435750D01*
X52893750Y-53554500D01*
X53415984Y-53554500D01*
X53590566Y-53482185D01*
X53598751Y-53474001D01*
X53623750Y-53499000D01*
X55225000Y-53499000D01*
X55225000Y-52532750D01*
X55106250Y-52414000D01*
X53885516Y-52414000D01*
X53796500Y-52450872D01*
X53796500Y-52350017D01*
X53724186Y-52175434D01*
X53590566Y-52041815D01*
X53415984Y-51969500D01*
X52893750Y-51969500D01*
X52775000Y-52088250D01*
X52725000Y-52088250D01*
X52606250Y-51969500D01*
X52084016Y-51969500D01*
X51909434Y-52041815D01*
X51775814Y-52175434D01*
X51703500Y-52350017D01*
X51703500Y-52450872D01*
X51614484Y-52414000D01*
X50393750Y-52414000D01*
X50275000Y-52532750D01*
X50225000Y-52532750D01*
X50106250Y-52414000D01*
X49611478Y-52414000D01*
X49614267Y-52411216D01*
X49724874Y-52144844D01*
X49725047Y-51946705D01*
X49958752Y-51713000D01*
X51834228Y-51713000D01*
X51904431Y-51822099D01*
X52029746Y-51907723D01*
X52178500Y-51937846D01*
X53321500Y-51937846D01*
X53460466Y-51911698D01*
X53588099Y-51829569D01*
X53673723Y-51704254D01*
X53703846Y-51555500D01*
X53703846Y-51374359D01*
X53705931Y-51377599D01*
X53831246Y-51463223D01*
X53980000Y-51493346D01*
X56520000Y-51493346D01*
X56658966Y-51467198D01*
X56776654Y-51391468D01*
X56776654Y-51824000D01*
X56802802Y-51962966D01*
X56884931Y-52090599D01*
X57010246Y-52176223D01*
X57159000Y-52206346D01*
X59159000Y-52206346D01*
X59297966Y-52180198D01*
X59425599Y-52098069D01*
X59511223Y-51972754D01*
X59541346Y-51824000D01*
X59541346Y-51799000D01*
X59627248Y-51799000D01*
X60403908Y-52575659D01*
X59956026Y-61394454D01*
X59931800Y-61394454D01*
X59792834Y-61420602D01*
X59665201Y-61502731D01*
X59579577Y-61628046D01*
X59549454Y-61776800D01*
X59549454Y-62691200D01*
X59575602Y-62830166D01*
X59657731Y-62957799D01*
X59783046Y-63043423D01*
X59931800Y-63073546D01*
X60754702Y-63073546D01*
X60252716Y-63575532D01*
X60231269Y-63542201D01*
X60105954Y-63456577D01*
X59957200Y-63426454D01*
X59042800Y-63426454D01*
X58903834Y-63452602D01*
X58776201Y-63534731D01*
X58690577Y-63660046D01*
X58672259Y-63750507D01*
X58225000Y-63303248D01*
X58225000Y-63073546D01*
X59068200Y-63073546D01*
X59207166Y-63047398D01*
X59334799Y-62965269D01*
X59420423Y-62839954D01*
X59450546Y-62691200D01*
X59450546Y-61776800D01*
X59424398Y-61637834D01*
X59342269Y-61510201D01*
X59216954Y-61424577D01*
X59086000Y-61398059D01*
X59086000Y-60206346D01*
X59159000Y-60206346D01*
X59297966Y-60180198D01*
X59425599Y-60098069D01*
X59511223Y-59972754D01*
X59541346Y-59824000D01*
X59541346Y-58824000D01*
X59515198Y-58685034D01*
X59433069Y-58557401D01*
X59307754Y-58471777D01*
X59159000Y-58441654D01*
X57159000Y-58441654D01*
X57120626Y-58448874D01*
X56822818Y-58151066D01*
X56910143Y-58114984D01*
X56914400Y-58110734D01*
X57010246Y-58176223D01*
X57159000Y-58206346D01*
X59159000Y-58206346D01*
X59297966Y-58180198D01*
X59425599Y-58098069D01*
X59511223Y-57972754D01*
X59541346Y-57824000D01*
X59541346Y-56824000D01*
X59515198Y-56685034D01*
X59433069Y-56557401D01*
X59307754Y-56471777D01*
X59159000Y-56441654D01*
X57159000Y-56441654D01*
X57020034Y-56467802D01*
X56892401Y-56549931D01*
X56806777Y-56675246D01*
X56776654Y-56824000D01*
X56776654Y-56829858D01*
X56644844Y-56775126D01*
X56356421Y-56774874D01*
X56089857Y-56885016D01*
X55885733Y-57088784D01*
X55808389Y-57275050D01*
X55661582Y-57274922D01*
X55644988Y-57186734D01*
X55562859Y-57059101D01*
X55437544Y-56973477D01*
X55288790Y-56943354D01*
X51978398Y-56943354D01*
X53122751Y-55799000D01*
X56776654Y-55799000D01*
X56776654Y-55824000D01*
X56802802Y-55962966D01*
X56884931Y-56090599D01*
X57010246Y-56176223D01*
X57159000Y-56206346D01*
X59159000Y-56206346D01*
X59297966Y-56180198D01*
X59425599Y-56098069D01*
X59511223Y-55972754D01*
X59541346Y-55824000D01*
X59541346Y-54824000D01*
X59515198Y-54685034D01*
X59433069Y-54557401D01*
X59307754Y-54471777D01*
X59159000Y-54441654D01*
X57480098Y-54441654D01*
X57715405Y-54206346D01*
X59159000Y-54206346D01*
X59297966Y-54180198D01*
X59425599Y-54098069D01*
X59511223Y-53972754D01*
X59541346Y-53824000D01*
X59541346Y-52824000D01*
X59515198Y-52685034D01*
X59433069Y-52557401D01*
X59307754Y-52471777D01*
X59159000Y-52441654D01*
X57159000Y-52441654D01*
X57020034Y-52467802D01*
X56892401Y-52549931D01*
X56876279Y-52573527D01*
X56789066Y-52486315D01*
X56614484Y-52414000D01*
X55393750Y-52414000D01*
X55275000Y-52532750D01*
X55275000Y-53499000D01*
X55295000Y-53499000D01*
X55295000Y-53549000D01*
X55275000Y-53549000D01*
X55275000Y-53569000D01*
X55225000Y-53569000D01*
X55225000Y-53549000D01*
X53623750Y-53549000D01*
X53505000Y-53667750D01*
X53505000Y-54253483D01*
X53513913Y-54275000D01*
X52500000Y-54275000D01*
X52318225Y-54311157D01*
X52164124Y-54414124D01*
X52164122Y-54414127D01*
X51053202Y-55525046D01*
X50856421Y-55524874D01*
X50589857Y-55635016D01*
X50454745Y-55769892D01*
X50357544Y-55703477D01*
X50208790Y-55673354D01*
X46711210Y-55673354D01*
X46572244Y-55699502D01*
X46444611Y-55781631D01*
X46358987Y-55906946D01*
X46328864Y-56055700D01*
X46328864Y-57499384D01*
X45914124Y-57914124D01*
X45811157Y-58068225D01*
X45775000Y-58250000D01*
X45775000Y-60250000D01*
X45811157Y-60431775D01*
X45914124Y-60585876D01*
X46351612Y-61023364D01*
X46328864Y-61135700D01*
X46328864Y-62634300D01*
X46355012Y-62773266D01*
X46437141Y-62900899D01*
X46562456Y-62986523D01*
X46711210Y-63016646D01*
X50208790Y-63016646D01*
X50347756Y-62990498D01*
X50475389Y-62908369D01*
X50561013Y-62783054D01*
X50591136Y-62634300D01*
X50591136Y-62615244D01*
X50855156Y-62724874D01*
X51143579Y-62725126D01*
X51408864Y-62615512D01*
X51408864Y-63904300D01*
X51435012Y-64043266D01*
X51517141Y-64170899D01*
X51642456Y-64256523D01*
X51791210Y-64286646D01*
X55288790Y-64286646D01*
X55427756Y-64260498D01*
X55555389Y-64178369D01*
X55641013Y-64053054D01*
X55671136Y-63904300D01*
X55671136Y-63630000D01*
X56126673Y-63630000D01*
X56355156Y-63724874D01*
X56643579Y-63725126D01*
X56775000Y-63670824D01*
X56775000Y-64250000D01*
X56779978Y-64275026D01*
X56606421Y-64274874D01*
X56339857Y-64385016D01*
X56135733Y-64588784D01*
X56025126Y-64855156D01*
X56024874Y-65143579D01*
X56135016Y-65410143D01*
X56338784Y-65614267D01*
X56364000Y-65624738D01*
X56364000Y-66602842D01*
X56289000Y-66587654D01*
X55743547Y-66587654D01*
X55763790Y-66538784D01*
X55763790Y-65838750D01*
X55645040Y-65720000D01*
X53565000Y-65720000D01*
X53565000Y-66800550D01*
X53683750Y-66919300D01*
X54416921Y-66919300D01*
X54406654Y-66970000D01*
X54406654Y-67375000D01*
X42625000Y-67375000D01*
X42625000Y-67309006D01*
X42848280Y-67264593D01*
X42848281Y-67264593D01*
X43001484Y-67201134D01*
X43650331Y-66767589D01*
X43767589Y-66650331D01*
X44201134Y-66001484D01*
X44264593Y-65848281D01*
X44264593Y-65848279D01*
X44266488Y-65838750D01*
X51316210Y-65838750D01*
X51316210Y-66538784D01*
X51388525Y-66713366D01*
X51522144Y-66846986D01*
X51696727Y-66919300D01*
X53396250Y-66919300D01*
X53515000Y-66800550D01*
X53515000Y-65720000D01*
X51434960Y-65720000D01*
X51316210Y-65838750D01*
X44266488Y-65838750D01*
X44416834Y-65082914D01*
X44416834Y-64917086D01*
X44347546Y-64568750D01*
X46236210Y-64568750D01*
X46236210Y-65268784D01*
X46308525Y-65443366D01*
X46442144Y-65576986D01*
X46616727Y-65649300D01*
X48316250Y-65649300D01*
X48435000Y-65530550D01*
X48435000Y-64450000D01*
X48485000Y-64450000D01*
X48485000Y-65530550D01*
X48603750Y-65649300D01*
X50303273Y-65649300D01*
X50477856Y-65576986D01*
X50611475Y-65443366D01*
X50683790Y-65268784D01*
X50683790Y-64851216D01*
X51316210Y-64851216D01*
X51316210Y-65551250D01*
X51434960Y-65670000D01*
X53515000Y-65670000D01*
X53515000Y-64589450D01*
X53565000Y-64589450D01*
X53565000Y-65670000D01*
X55645040Y-65670000D01*
X55763790Y-65551250D01*
X55763790Y-64851216D01*
X55691475Y-64676634D01*
X55557856Y-64543014D01*
X55383273Y-64470700D01*
X53683750Y-64470700D01*
X53565000Y-64589450D01*
X53515000Y-64589450D01*
X53396250Y-64470700D01*
X51696727Y-64470700D01*
X51522144Y-64543014D01*
X51388525Y-64676634D01*
X51316210Y-64851216D01*
X50683790Y-64851216D01*
X50683790Y-64568750D01*
X50565040Y-64450000D01*
X48485000Y-64450000D01*
X48435000Y-64450000D01*
X46354960Y-64450000D01*
X46236210Y-64568750D01*
X44347546Y-64568750D01*
X44264593Y-64151720D01*
X44201134Y-63998516D01*
X43922304Y-63581216D01*
X46236210Y-63581216D01*
X46236210Y-64281250D01*
X46354960Y-64400000D01*
X48435000Y-64400000D01*
X48435000Y-63319450D01*
X48485000Y-63319450D01*
X48485000Y-64400000D01*
X50565040Y-64400000D01*
X50683790Y-64281250D01*
X50683790Y-63581216D01*
X50611475Y-63406634D01*
X50477856Y-63273014D01*
X50303273Y-63200700D01*
X48603750Y-63200700D01*
X48485000Y-63319450D01*
X48435000Y-63319450D01*
X48316250Y-63200700D01*
X46616727Y-63200700D01*
X46442144Y-63273014D01*
X46308525Y-63406634D01*
X46236210Y-63581216D01*
X43922304Y-63581216D01*
X43767589Y-63349669D01*
X43650331Y-63232411D01*
X43001484Y-62798866D01*
X42848281Y-62735407D01*
X42848280Y-62735407D01*
X42625000Y-62690994D01*
X42625000Y-59976040D01*
X45700521Y-56900520D01*
X45792649Y-56762641D01*
X45825000Y-56600000D01*
X45825000Y-53667750D01*
X48505000Y-53667750D01*
X48505000Y-54253483D01*
X48577314Y-54428066D01*
X48710934Y-54561685D01*
X48885516Y-54634000D01*
X50106250Y-54634000D01*
X50225000Y-54515250D01*
X50225000Y-53549000D01*
X50275000Y-53549000D01*
X50275000Y-54515250D01*
X50393750Y-54634000D01*
X51614484Y-54634000D01*
X51789066Y-54561685D01*
X51922686Y-54428066D01*
X51995000Y-54253483D01*
X51995000Y-53667750D01*
X51876250Y-53549000D01*
X50275000Y-53549000D01*
X50225000Y-53549000D01*
X48623750Y-53549000D01*
X48505000Y-53667750D01*
X45825000Y-53667750D01*
X45825000Y-50576040D01*
X50257290Y-46143750D01*
X53945500Y-46143750D01*
X53945500Y-46665984D01*
X54017815Y-46840566D01*
X54151434Y-46974186D01*
X54326017Y-47046500D01*
X54594250Y-47046500D01*
X54713000Y-46927750D01*
X54713000Y-46025000D01*
X54064250Y-46025000D01*
X53945500Y-46143750D01*
X50257290Y-46143750D01*
X51776041Y-44625000D01*
X53964250Y-44625000D01*
X53945500Y-44643750D01*
M02*
