G04 (created by PCBNEW (22-Jun-2014 BZR 4027)-stable) date sam. 02 janv. 2016 18:47:16 CET*
%MOIN*%
G04 Gerber Fmt 3.4, Leading zero omitted, Abs format*
%FSLAX34Y34*%
G01*
G70*
G90*
G04 APERTURE LIST*
%ADD10C,0.00590551*%
%ADD11R,0.055X0.055*%
%ADD12C,0.055*%
%ADD13R,0.0255906X0.011811*%
%ADD14R,0.0393701X0.0629921*%
%ADD15R,0.0787402X0.0472441*%
%ADD16R,0.051X0.0787402*%
%ADD17R,0.0787402X0.051*%
%ADD18R,0.055X0.035*%
%ADD19R,0.035X0.055*%
%ADD20R,0.11811X0.0393701*%
%ADD21R,0.0787402X0.0787402*%
%ADD22C,0.0787402*%
%ADD23R,0.283465X0.314961*%
%ADD24R,0.0590551X0.0590551*%
%ADD25C,0.11811*%
%ADD26R,0.0197X0.0906*%
%ADD27R,0.0787X0.0984*%
%ADD28C,0.0354*%
%ADD29R,0.02X0.03*%
%ADD30R,0.0335X0.0335*%
G04 APERTURE END LIST*
G54D10*
G54D11*
X53590Y-24409D03*
G54D12*
X52590Y-24409D03*
X51590Y-24409D03*
X50590Y-24409D03*
X49590Y-24409D03*
X48590Y-24409D03*
X47590Y-24409D03*
G54D13*
X49468Y-26948D03*
X48641Y-26968D03*
X48641Y-26692D03*
X49468Y-26692D03*
X49468Y-26437D03*
X48641Y-26437D03*
G54D14*
X49055Y-26692D03*
G54D15*
X47165Y-26988D03*
X47165Y-26003D03*
G54D16*
X44094Y-31377D03*
X44094Y-28779D03*
G54D17*
X29763Y-26299D03*
X32362Y-26299D03*
G54D18*
X32677Y-31042D03*
X32677Y-31792D03*
X48031Y-26674D03*
X48031Y-25924D03*
X49409Y-25886D03*
X49409Y-25136D03*
G54D19*
X46869Y-27677D03*
X47619Y-27677D03*
G54D18*
X33070Y-27105D03*
X33070Y-27855D03*
G54D19*
X48443Y-27480D03*
X49193Y-27480D03*
G54D20*
X34251Y-25511D03*
X34251Y-26299D03*
X34251Y-27086D03*
X34251Y-27874D03*
X34251Y-28661D03*
X34251Y-29448D03*
X34251Y-30236D03*
X34251Y-31023D03*
X40551Y-31023D03*
X40551Y-30236D03*
X40551Y-29448D03*
X40551Y-28661D03*
X40551Y-27874D03*
X40551Y-27086D03*
X40551Y-26299D03*
X40551Y-25511D03*
G54D21*
X50393Y-30539D03*
G54D22*
X50393Y-29539D03*
G54D23*
X30708Y-28661D03*
X52755Y-28661D03*
G54D10*
G36*
X50185Y-25621D02*
X50047Y-25621D01*
X50047Y-25424D01*
X50185Y-25424D01*
X50185Y-25621D01*
X50185Y-25621D01*
G37*
G36*
X50440Y-25621D02*
X50303Y-25621D01*
X50303Y-25424D01*
X50440Y-25424D01*
X50440Y-25621D01*
X50440Y-25621D01*
G37*
G36*
X50696Y-25621D02*
X50559Y-25621D01*
X50559Y-25424D01*
X50696Y-25424D01*
X50696Y-25621D01*
X50696Y-25621D01*
G37*
G36*
X50952Y-25621D02*
X50814Y-25621D01*
X50814Y-25424D01*
X50952Y-25424D01*
X50952Y-25621D01*
X50952Y-25621D01*
G37*
G36*
X50952Y-26418D02*
X50814Y-26418D01*
X50814Y-26221D01*
X50952Y-26221D01*
X50952Y-26418D01*
X50952Y-26418D01*
G37*
G36*
X50696Y-26418D02*
X50559Y-26418D01*
X50559Y-26221D01*
X50696Y-26221D01*
X50696Y-26418D01*
X50696Y-26418D01*
G37*
G36*
X50440Y-26418D02*
X50303Y-26418D01*
X50303Y-26221D01*
X50440Y-26221D01*
X50440Y-26418D01*
X50440Y-26418D01*
G37*
G36*
X50185Y-26418D02*
X50047Y-26418D01*
X50047Y-26221D01*
X50185Y-26221D01*
X50185Y-26418D01*
X50185Y-26418D01*
G37*
G54D24*
X50393Y-26968D03*
X50393Y-27677D03*
X50393Y-28385D03*
G54D18*
X53740Y-26280D03*
X53740Y-25530D03*
X52165Y-25530D03*
X52165Y-26280D03*
X52952Y-25530D03*
X52952Y-26280D03*
G54D25*
X31299Y-24606D03*
X31299Y-31299D03*
X52362Y-31299D03*
G54D26*
X46810Y-29271D03*
X47125Y-29271D03*
X47440Y-29271D03*
X47755Y-29271D03*
X48070Y-29271D03*
G54D27*
X45688Y-29310D03*
X45688Y-31475D03*
X49192Y-29310D03*
X49192Y-31475D03*
G54D28*
X46574Y-30294D03*
X48306Y-30294D03*
G54D16*
X42125Y-31377D03*
X42125Y-28779D03*
G54D18*
X32755Y-29664D03*
X32755Y-30414D03*
G54D29*
X45097Y-27980D03*
X45847Y-27980D03*
X45097Y-26980D03*
X45472Y-27980D03*
X45847Y-26980D03*
G54D11*
X41594Y-24409D03*
G54D12*
X42594Y-24409D03*
X43594Y-24409D03*
X44594Y-24409D03*
X45594Y-24409D03*
X46594Y-24409D03*
G54D19*
X42538Y-25314D03*
X43288Y-25314D03*
G54D30*
X50128Y-31692D03*
X51446Y-31692D03*
X41811Y-26800D03*
X41811Y-25482D03*
X48159Y-28267D03*
X49477Y-28267D03*
M02*
