G04 (created by PCBNEW (2013-07-07 BZR 4022)-stable) date 20.04.2015 13:36:37*
%MOIN*%
G04 Gerber Fmt 3.4, Leading zero omitted, Abs format*
%FSLAX34Y34*%
G01*
G70*
G90*
G04 APERTURE LIST*
%ADD10C,0.00590551*%
%ADD11R,0.1X0.137795*%
%ADD12O,0.1X0.137795*%
%ADD13R,0.055X0.055*%
%ADD14C,0.055*%
%ADD15C,0.0590551*%
%ADD16O,0.314961X0.11811*%
%ADD17C,0.11811*%
%ADD18C,0.133858*%
%ADD19C,0.15*%
%ADD20C,0.0984252*%
%ADD21C,0.0787402*%
%ADD22R,0.0787402X0.0787402*%
%ADD23R,0.0276X0.0394*%
%ADD24R,0.06X0.08*%
%ADD25R,0.08X0.06*%
%ADD26R,0.045X0.025*%
%ADD27R,0.025X0.045*%
%ADD28R,0.0590551X0.0590551*%
%ADD29R,0.1417X0.063*%
%ADD30R,0.062X0.09*%
%ADD31O,0.062X0.09*%
%ADD32R,0.0787402X0.051*%
%ADD33R,0.0137795X0.011811*%
%ADD34R,0.011811X0.0137795*%
%ADD35R,0.011811X0.00984252*%
%ADD36R,0.00787402X0.00826772*%
%ADD37O,0.0551181X0.0984252*%
%ADD38R,0.0551181X0.0984252*%
%ADD39C,0.0354331*%
%ADD40C,0.019685*%
%ADD41C,0.011811*%
%ADD42C,0.0984252*%
%ADD43C,0.0393701*%
%ADD44C,0.0551181*%
%ADD45C,0.0590551*%
G04 APERTURE END LIST*
G54D10*
G54D11*
X19385Y-22519D03*
G54D12*
X17385Y-22519D03*
G54D13*
X25653Y-35299D03*
G54D14*
X26653Y-35299D03*
X27653Y-35299D03*
G54D15*
X26610Y-24118D03*
X27362Y-24118D03*
X28114Y-24118D03*
G54D16*
X29330Y-15692D03*
X25393Y-15692D03*
G54D17*
X29511Y-20078D03*
X31511Y-20078D03*
G54D18*
X34590Y-17637D03*
G54D19*
X32590Y-17637D03*
X28590Y-17637D03*
X26590Y-17637D03*
G54D20*
X25160Y-20348D03*
G54D17*
X19175Y-20348D03*
X22168Y-31371D03*
X19175Y-31371D03*
G54D21*
X31218Y-21859D03*
X29718Y-21859D03*
G54D22*
X28218Y-21859D03*
G54D23*
X26303Y-33689D03*
X26678Y-33689D03*
X27053Y-33689D03*
X27053Y-32689D03*
X26678Y-32689D03*
X26303Y-32689D03*
G54D24*
X35689Y-19881D03*
X34389Y-19881D03*
X33720Y-19685D03*
X32420Y-19685D03*
G54D25*
X33070Y-21200D03*
X33070Y-22500D03*
G54D26*
X34418Y-32459D03*
X34418Y-31859D03*
G54D27*
X33918Y-25659D03*
X34518Y-25659D03*
X26313Y-32099D03*
X26913Y-32099D03*
G54D26*
X25803Y-33394D03*
X25803Y-33994D03*
X30868Y-32659D03*
X30868Y-32059D03*
G54D27*
X29768Y-32659D03*
X29168Y-32659D03*
G54D26*
X28103Y-32914D03*
X28103Y-33514D03*
X27538Y-33509D03*
X27538Y-32909D03*
X25218Y-33394D03*
X25218Y-32794D03*
G54D27*
X27168Y-30609D03*
X27768Y-30609D03*
G54D26*
X32718Y-32159D03*
X32718Y-31559D03*
X32518Y-32559D03*
X32518Y-33159D03*
G54D13*
X24133Y-35299D03*
G54D14*
X23133Y-35299D03*
G54D28*
X29303Y-35169D03*
G54D29*
X22591Y-33929D03*
X20425Y-33929D03*
G54D11*
X22700Y-17559D03*
G54D12*
X24700Y-17559D03*
G54D30*
X36518Y-24759D03*
G54D31*
X35518Y-24759D03*
X34518Y-24759D03*
X34518Y-21559D03*
X35518Y-21559D03*
X36518Y-21559D03*
G54D32*
X30756Y-29659D03*
X28158Y-29659D03*
X34256Y-29659D03*
X31658Y-29659D03*
G54D10*
G36*
X33734Y-33062D02*
X33734Y-32924D01*
X33931Y-32924D01*
X33931Y-33062D01*
X33734Y-33062D01*
X33734Y-33062D01*
G37*
G36*
X33734Y-32806D02*
X33734Y-32668D01*
X33931Y-32668D01*
X33931Y-32806D01*
X33734Y-32806D01*
X33734Y-32806D01*
G37*
G36*
X33734Y-32550D02*
X33734Y-32412D01*
X33931Y-32412D01*
X33931Y-32550D01*
X33734Y-32550D01*
X33734Y-32550D01*
G37*
G36*
X33734Y-32294D02*
X33734Y-32157D01*
X33931Y-32157D01*
X33931Y-32294D01*
X33734Y-32294D01*
X33734Y-32294D01*
G37*
G36*
X33104Y-32294D02*
X33104Y-32157D01*
X33301Y-32157D01*
X33301Y-32294D01*
X33104Y-32294D01*
X33104Y-32294D01*
G37*
G36*
X33104Y-32550D02*
X33104Y-32412D01*
X33301Y-32412D01*
X33301Y-32550D01*
X33104Y-32550D01*
X33104Y-32550D01*
G37*
G36*
X33104Y-32806D02*
X33104Y-32668D01*
X33301Y-32668D01*
X33301Y-32806D01*
X33104Y-32806D01*
X33104Y-32806D01*
G37*
G36*
X33104Y-33062D02*
X33104Y-32924D01*
X33301Y-32924D01*
X33301Y-33062D01*
X33104Y-33062D01*
X33104Y-33062D01*
G37*
G54D33*
X31668Y-32755D03*
X31668Y-32164D03*
G54D34*
X31372Y-32656D03*
X31372Y-32262D03*
X31963Y-32656D03*
G54D35*
X31963Y-32262D03*
G54D10*
G36*
X31983Y-32194D02*
X32022Y-32233D01*
X31904Y-32233D01*
X31943Y-32194D01*
X31983Y-32194D01*
X31983Y-32194D01*
G37*
G54D36*
X31983Y-32235D03*
G54D21*
X21102Y-17110D03*
X21102Y-19110D03*
G54D37*
X34368Y-26879D03*
G54D38*
X33368Y-28139D03*
X32368Y-26879D03*
X31368Y-28139D03*
X30368Y-26879D03*
X29368Y-28139D03*
X28368Y-26879D03*
X27368Y-28139D03*
G54D25*
X20314Y-17755D03*
X20314Y-19055D03*
G54D27*
X28715Y-24094D03*
X29315Y-24094D03*
G54D39*
X32598Y-25866D03*
X25423Y-23454D03*
X34343Y-27834D03*
X31968Y-31859D03*
X23868Y-25009D03*
X27539Y-32106D03*
X28917Y-26259D03*
X31018Y-26909D03*
X32018Y-28159D03*
X32843Y-28134D03*
X26768Y-25909D03*
X30275Y-24251D03*
X34493Y-33084D03*
X31918Y-31409D03*
X33768Y-26509D03*
X26968Y-26809D03*
X29018Y-31859D03*
X29018Y-30859D03*
X31118Y-31609D03*
X17559Y-30944D03*
X19606Y-29330D03*
X28818Y-32659D03*
X31118Y-30659D03*
X30618Y-31759D03*
X31753Y-35004D03*
X26618Y-27859D03*
G54D40*
X31742Y-25009D02*
X23868Y-25009D01*
X32598Y-25866D02*
X31742Y-25009D01*
G54D41*
X26718Y-23859D02*
X26718Y-23804D01*
X25503Y-23374D02*
X25423Y-23454D01*
X26288Y-23374D02*
X25503Y-23374D01*
X26718Y-23804D02*
X26288Y-23374D01*
G54D40*
X22168Y-31371D02*
X22168Y-33506D01*
X22168Y-33506D02*
X22591Y-33929D01*
G54D41*
X25218Y-33394D02*
X24191Y-33394D01*
X24191Y-33394D02*
X22168Y-31371D01*
X25803Y-33394D02*
X25218Y-33394D01*
X26678Y-33689D02*
X26678Y-33394D01*
X25873Y-33324D02*
X25803Y-33394D01*
X26608Y-33324D02*
X25873Y-33324D01*
X26678Y-33394D02*
X26608Y-33324D01*
G54D40*
X36518Y-24759D02*
X35868Y-25409D01*
X34368Y-26609D02*
X34368Y-26879D01*
X35568Y-25409D02*
X34368Y-26609D01*
X35868Y-25409D02*
X35568Y-25409D01*
X34368Y-26879D02*
X34368Y-27809D01*
X34368Y-27809D02*
X34343Y-27834D01*
X34393Y-26509D02*
X34383Y-26844D01*
G54D41*
X31963Y-32262D02*
X31963Y-31864D01*
X31963Y-31864D02*
X31968Y-31859D01*
G54D40*
X27168Y-30609D02*
X22929Y-30609D01*
X22929Y-30609D02*
X22168Y-31371D01*
G54D41*
X32896Y-32509D02*
X32568Y-32509D01*
X32568Y-32509D02*
X32518Y-32559D01*
X33203Y-32993D02*
X33001Y-32993D01*
X32896Y-32887D02*
X32896Y-32509D01*
X32896Y-32509D02*
X32896Y-32481D01*
X33001Y-32993D02*
X32896Y-32887D01*
X33203Y-32481D02*
X32896Y-32481D01*
X32121Y-32262D02*
X32218Y-32359D01*
X32218Y-32359D02*
X32218Y-32459D01*
X32218Y-32459D02*
X32268Y-32509D01*
X32268Y-32509D02*
X32868Y-32509D01*
X32121Y-32262D02*
X31963Y-32262D01*
X32896Y-32481D02*
X32868Y-32509D01*
X22929Y-30609D02*
X22168Y-31371D01*
G54D42*
X19228Y-22519D02*
X23425Y-22519D01*
X23425Y-22519D02*
X24015Y-21929D01*
X24015Y-21929D02*
X26122Y-21929D01*
X26122Y-21929D02*
X26191Y-21859D01*
X26191Y-21859D02*
X28218Y-21859D01*
X31511Y-20078D02*
X31511Y-21566D01*
X31511Y-21566D02*
X31218Y-21859D01*
G54D43*
X32420Y-19685D02*
X31905Y-19685D01*
X31905Y-19685D02*
X31511Y-20078D01*
G54D42*
X28590Y-17637D02*
X26590Y-17637D01*
X29330Y-15692D02*
X29307Y-15692D01*
X29307Y-15692D02*
X28590Y-16409D01*
X28590Y-16409D02*
X28590Y-17637D01*
G54D43*
X20236Y-19055D02*
X21047Y-19055D01*
X21047Y-19055D02*
X21102Y-19110D01*
G54D44*
X20314Y-17755D02*
X19665Y-17755D01*
X18976Y-18444D02*
X18976Y-20148D01*
X19665Y-17755D02*
X18976Y-18444D01*
X18976Y-20148D02*
X19175Y-20348D01*
X18976Y-20148D02*
X19175Y-20348D01*
G54D45*
X18976Y-20148D02*
X19175Y-20348D01*
X21102Y-17110D02*
X20881Y-17110D01*
X20881Y-17110D02*
X20236Y-17755D01*
G54D43*
X20881Y-17110D02*
X20236Y-17755D01*
G54D42*
X22700Y-17559D02*
X21551Y-17559D01*
X21551Y-17559D02*
X21102Y-17110D01*
X17385Y-22519D02*
X17385Y-21748D01*
X17385Y-21748D02*
X18785Y-20348D01*
X18785Y-20348D02*
X19175Y-20348D01*
X29511Y-20078D02*
X29511Y-19661D01*
X29511Y-19661D02*
X31535Y-17637D01*
X31535Y-17637D02*
X32590Y-17637D01*
X34590Y-17637D02*
X32590Y-17637D01*
G54D41*
X26303Y-32689D02*
X26303Y-32184D01*
X26313Y-32174D02*
X26313Y-32099D01*
X26303Y-32184D02*
X26313Y-32174D01*
X27532Y-32099D02*
X26913Y-32099D01*
X27539Y-32106D02*
X27532Y-32099D01*
X28917Y-26259D02*
X29118Y-26259D01*
X29118Y-26259D02*
X29218Y-26159D01*
X31168Y-26159D02*
X29218Y-26159D01*
X31888Y-26879D02*
X31168Y-26159D01*
X32368Y-26879D02*
X31888Y-26879D01*
X30988Y-26879D02*
X30368Y-26879D01*
X31018Y-26909D02*
X30988Y-26879D01*
X31998Y-28139D02*
X32018Y-28159D01*
X31368Y-28139D02*
X31998Y-28139D01*
X33368Y-28139D02*
X32848Y-28139D01*
X32848Y-28139D02*
X32843Y-28134D01*
X33918Y-25659D02*
X33710Y-25659D01*
X26768Y-25909D02*
X31657Y-25909D01*
X31968Y-26220D02*
X31657Y-25909D01*
X33149Y-26220D02*
X31968Y-26220D01*
X33710Y-25659D02*
X33149Y-26220D01*
X29315Y-24094D02*
X29645Y-24094D01*
X29803Y-24251D02*
X30275Y-24251D01*
X29645Y-24094D02*
X29803Y-24251D01*
X34493Y-33084D02*
X34146Y-32737D01*
X34146Y-32737D02*
X33833Y-32737D01*
X33833Y-32737D02*
X34146Y-32737D01*
X31668Y-32164D02*
X31668Y-32059D01*
X31618Y-31709D02*
X31918Y-31409D01*
X31618Y-32009D02*
X31618Y-31709D01*
X31668Y-32059D02*
X31618Y-32009D01*
X30338Y-29109D02*
X29368Y-28139D01*
X31343Y-29109D02*
X30338Y-29109D01*
X31858Y-29659D02*
X31858Y-29625D01*
X31858Y-29625D02*
X31343Y-29109D01*
X33768Y-27159D02*
X33768Y-27384D01*
X32993Y-29659D02*
X31858Y-29659D01*
X33843Y-28809D02*
X32993Y-29659D01*
X33843Y-27459D02*
X33843Y-28809D01*
X33768Y-27384D02*
X33843Y-27459D01*
X33768Y-27159D02*
X33768Y-26509D01*
X26678Y-32689D02*
X26678Y-32954D01*
X25403Y-32794D02*
X25218Y-32794D01*
X25693Y-33084D02*
X25403Y-32794D01*
X26548Y-33084D02*
X25693Y-33084D01*
X26678Y-32954D02*
X26548Y-33084D01*
X27368Y-27209D02*
X26968Y-26809D01*
X27368Y-28139D02*
X27368Y-27209D01*
X29018Y-31859D02*
X29018Y-30859D01*
X31372Y-32262D02*
X31372Y-31864D01*
X31372Y-31864D02*
X31118Y-31609D01*
X33833Y-32993D02*
X34051Y-32993D01*
X34051Y-32993D02*
X34118Y-33059D01*
X33833Y-32993D02*
X33833Y-33224D01*
X33833Y-33224D02*
X33868Y-33259D01*
X33833Y-32993D02*
X33601Y-32993D01*
X33601Y-32993D02*
X33568Y-32959D01*
X33203Y-32737D02*
X33446Y-32737D01*
X33446Y-32737D02*
X33468Y-32759D01*
X29768Y-32659D02*
X29768Y-31511D01*
X30269Y-31009D02*
X31318Y-31009D01*
X29768Y-31511D02*
X30269Y-31009D01*
X30318Y-33009D02*
X30118Y-33009D01*
X30118Y-33009D02*
X29768Y-32659D01*
X33833Y-32225D02*
X33833Y-31724D01*
X32918Y-30809D02*
X33833Y-31724D01*
X31518Y-30809D02*
X32918Y-30809D01*
X31318Y-31009D02*
X31518Y-30809D01*
X31963Y-32656D02*
X31963Y-32864D01*
X31818Y-33009D02*
X31268Y-33009D01*
X31963Y-32864D02*
X31818Y-33009D01*
X31268Y-33009D02*
X30318Y-33009D01*
X28103Y-33514D02*
X28103Y-33769D01*
X27193Y-33829D02*
X27053Y-33689D01*
X28043Y-33829D02*
X27193Y-33829D01*
X28103Y-33769D02*
X28043Y-33829D01*
X17559Y-30944D02*
X17559Y-30866D01*
X19094Y-29330D02*
X19606Y-29330D01*
X17559Y-30866D02*
X19094Y-29330D01*
X27538Y-32909D02*
X28098Y-32909D01*
X28098Y-32909D02*
X28103Y-32914D01*
X27538Y-32909D02*
X27273Y-32909D01*
X27273Y-32909D02*
X27053Y-32689D01*
X28503Y-24118D02*
X28114Y-24118D01*
X28114Y-24118D02*
X28503Y-24118D01*
X28503Y-24118D02*
X28692Y-24118D01*
X28692Y-24118D02*
X28715Y-24094D01*
X29168Y-32659D02*
X28818Y-32659D01*
X33218Y-30559D02*
X33318Y-30559D01*
X34418Y-31659D02*
X34418Y-31859D01*
X33318Y-30559D02*
X34418Y-31659D01*
X31218Y-30559D02*
X33218Y-30559D01*
X31118Y-30659D02*
X31218Y-30559D01*
G54D42*
X24700Y-17559D02*
X24700Y-16385D01*
X24700Y-16385D02*
X25393Y-15692D01*
G54D41*
X30868Y-32059D02*
X30868Y-31909D01*
X30718Y-31759D02*
X30618Y-31759D01*
X30868Y-31909D02*
X30718Y-31759D01*
X29303Y-35169D02*
X29303Y-34064D01*
X29303Y-34064D02*
X28453Y-33214D01*
X27538Y-33509D02*
X27538Y-33334D01*
X27658Y-33214D02*
X28453Y-33214D01*
X27538Y-33334D02*
X27658Y-33214D01*
X35518Y-24759D02*
X35518Y-24959D01*
X34818Y-25659D02*
X34518Y-25659D01*
X35518Y-24959D02*
X34818Y-25659D01*
X33070Y-22500D02*
X33070Y-22750D01*
X33070Y-22750D02*
X32418Y-23059D01*
X33070Y-22500D02*
X33968Y-22109D01*
X33968Y-22109D02*
X34518Y-21559D01*
X29718Y-22009D02*
X29718Y-21859D01*
X32418Y-23059D02*
X30768Y-23059D01*
X30768Y-23059D02*
X29718Y-22009D01*
X33833Y-32481D02*
X34396Y-32481D01*
X34396Y-32481D02*
X34418Y-32459D01*
X33833Y-32481D02*
X33640Y-32481D01*
X33218Y-31609D02*
X32618Y-31609D01*
X33518Y-31909D02*
X33218Y-31609D01*
X33518Y-32359D02*
X33518Y-31909D01*
X33640Y-32481D02*
X33518Y-32359D01*
X33720Y-19685D02*
X33720Y-20216D01*
X33720Y-20216D02*
X33070Y-20866D01*
X33070Y-20866D02*
X33070Y-21200D01*
X34389Y-19881D02*
X33917Y-19881D01*
X33917Y-19881D02*
X33720Y-19685D01*
X36518Y-21559D02*
X36518Y-20710D01*
X36518Y-20710D02*
X35689Y-19881D01*
X30868Y-32659D02*
X30718Y-32659D01*
X30718Y-32659D02*
X30218Y-32159D01*
X30218Y-31609D02*
X30568Y-31259D01*
X30218Y-32159D02*
X30218Y-31609D01*
X32718Y-32159D02*
X32568Y-32159D01*
X31518Y-31259D02*
X30568Y-31259D01*
X31718Y-31059D02*
X31518Y-31259D01*
X32118Y-31059D02*
X31718Y-31059D01*
X32318Y-31259D02*
X32118Y-31059D01*
X32318Y-31909D02*
X32318Y-31259D01*
X32568Y-32159D02*
X32318Y-31909D01*
X31372Y-32656D02*
X30871Y-32656D01*
X30871Y-32656D02*
X30868Y-32659D01*
X33203Y-32225D02*
X32634Y-32225D01*
X32634Y-32225D02*
X32618Y-32209D01*
X25803Y-33994D02*
X25818Y-33994D01*
X31448Y-35004D02*
X31753Y-35004D01*
X30808Y-35644D02*
X31448Y-35004D01*
X28823Y-35644D02*
X30808Y-35644D01*
X27728Y-34549D02*
X28823Y-35644D01*
X26373Y-34549D02*
X27728Y-34549D01*
X25818Y-33994D02*
X26373Y-34549D01*
X26618Y-28409D02*
X28088Y-29879D01*
X26618Y-27859D02*
X26618Y-28409D01*
X26618Y-27859D02*
X26618Y-27859D01*
X27768Y-30609D02*
X27768Y-30309D01*
X28158Y-29919D02*
X28158Y-29659D01*
X27768Y-30309D02*
X28158Y-29919D01*
G54D10*
G36*
X31552Y-31469D02*
X31464Y-31556D01*
X31418Y-31626D01*
X31401Y-31709D01*
X31401Y-32009D01*
X31410Y-32053D01*
X31402Y-32061D01*
X31402Y-32228D01*
X31420Y-32228D01*
X31420Y-32297D01*
X31402Y-32297D01*
X31402Y-32310D01*
X31343Y-32310D01*
X31343Y-32297D01*
X31325Y-32297D01*
X31325Y-32228D01*
X31343Y-32228D01*
X31343Y-32061D01*
X31299Y-32016D01*
X31278Y-32016D01*
X31250Y-32028D01*
X31250Y-31903D01*
X31226Y-31845D01*
X31182Y-31801D01*
X31124Y-31777D01*
X31061Y-31777D01*
X31034Y-31777D01*
X31021Y-31756D01*
X31021Y-31756D01*
X30949Y-31684D01*
X30901Y-31570D01*
X30807Y-31476D01*
X31518Y-31476D01*
X31552Y-31469D01*
X31552Y-31469D01*
G37*
G54D41*
X31552Y-31469D02*
X31464Y-31556D01*
X31418Y-31626D01*
X31401Y-31709D01*
X31401Y-32009D01*
X31410Y-32053D01*
X31402Y-32061D01*
X31402Y-32228D01*
X31420Y-32228D01*
X31420Y-32297D01*
X31402Y-32297D01*
X31402Y-32310D01*
X31343Y-32310D01*
X31343Y-32297D01*
X31325Y-32297D01*
X31325Y-32228D01*
X31343Y-32228D01*
X31343Y-32061D01*
X31299Y-32016D01*
X31278Y-32016D01*
X31250Y-32028D01*
X31250Y-31903D01*
X31226Y-31845D01*
X31182Y-31801D01*
X31124Y-31777D01*
X31061Y-31777D01*
X31034Y-31777D01*
X31021Y-31756D01*
X31021Y-31756D01*
X30949Y-31684D01*
X30901Y-31570D01*
X30807Y-31476D01*
X31518Y-31476D01*
X31552Y-31469D01*
G54D10*
G36*
X35177Y-34493D02*
X34021Y-35649D01*
X32920Y-35649D01*
X32478Y-35649D01*
X32478Y-33417D01*
X32478Y-33199D01*
X32160Y-33199D01*
X32115Y-33243D01*
X32115Y-33319D01*
X32142Y-33385D01*
X32192Y-33434D01*
X32257Y-33461D01*
X32328Y-33462D01*
X32434Y-33462D01*
X32478Y-33417D01*
X32478Y-35649D01*
X31109Y-35649D01*
X31517Y-35242D01*
X31563Y-35288D01*
X31686Y-35339D01*
X31819Y-35339D01*
X31942Y-35288D01*
X32036Y-35194D01*
X32087Y-35071D01*
X32087Y-34938D01*
X32036Y-34815D01*
X31942Y-34721D01*
X31819Y-34670D01*
X31686Y-34670D01*
X31563Y-34720D01*
X31496Y-34788D01*
X31448Y-34788D01*
X31365Y-34804D01*
X31294Y-34851D01*
X31294Y-34851D01*
X30718Y-35428D01*
X29755Y-35428D01*
X29755Y-34843D01*
X29731Y-34785D01*
X29687Y-34741D01*
X29629Y-34717D01*
X29567Y-34717D01*
X29519Y-34717D01*
X29519Y-34064D01*
X29503Y-33981D01*
X29456Y-33911D01*
X29450Y-33906D01*
X29450Y-32853D01*
X29450Y-32403D01*
X29426Y-32345D01*
X29382Y-32301D01*
X29324Y-32277D01*
X29261Y-32277D01*
X29011Y-32277D01*
X28954Y-32301D01*
X28916Y-32338D01*
X28884Y-32325D01*
X28751Y-32325D01*
X28709Y-32342D01*
X28709Y-29883D01*
X28709Y-29373D01*
X28685Y-29315D01*
X28641Y-29271D01*
X28583Y-29247D01*
X28520Y-29247D01*
X27820Y-29247D01*
X27820Y-28596D01*
X27820Y-27682D01*
X27820Y-27612D01*
X27793Y-27547D01*
X27743Y-27497D01*
X27678Y-27470D01*
X27451Y-27470D01*
X27407Y-27514D01*
X27407Y-28100D01*
X27776Y-28100D01*
X27820Y-28056D01*
X27820Y-27682D01*
X27820Y-28596D01*
X27820Y-28223D01*
X27776Y-28179D01*
X27407Y-28179D01*
X27407Y-28764D01*
X27451Y-28809D01*
X27678Y-28809D01*
X27743Y-28782D01*
X27793Y-28732D01*
X27820Y-28667D01*
X27820Y-28596D01*
X27820Y-29247D01*
X27761Y-29247D01*
X27303Y-28789D01*
X27328Y-28764D01*
X27328Y-28179D01*
X26959Y-28179D01*
X26915Y-28223D01*
X26915Y-28400D01*
X26834Y-28320D01*
X26834Y-28116D01*
X26901Y-28049D01*
X26915Y-28016D01*
X26915Y-28056D01*
X26959Y-28100D01*
X27328Y-28100D01*
X27328Y-27514D01*
X27284Y-27470D01*
X27057Y-27470D01*
X26992Y-27497D01*
X26942Y-27547D01*
X26915Y-27612D01*
X26915Y-27682D01*
X26915Y-27702D01*
X26901Y-27670D01*
X26807Y-27576D01*
X26684Y-27525D01*
X26551Y-27525D01*
X26428Y-27575D01*
X26334Y-27670D01*
X26283Y-27792D01*
X26283Y-27926D01*
X26334Y-28049D01*
X26401Y-28116D01*
X26401Y-28409D01*
X26418Y-28492D01*
X26464Y-28562D01*
X27607Y-29705D01*
X27607Y-29946D01*
X27630Y-30003D01*
X27675Y-30048D01*
X27709Y-30062D01*
X27614Y-30156D01*
X27568Y-30226D01*
X27564Y-30247D01*
X27554Y-30251D01*
X27509Y-30295D01*
X27485Y-30353D01*
X27485Y-30416D01*
X27485Y-30866D01*
X27509Y-30923D01*
X27553Y-30968D01*
X27611Y-30992D01*
X27674Y-30992D01*
X27924Y-30992D01*
X27982Y-30968D01*
X28026Y-30924D01*
X28050Y-30866D01*
X28050Y-30803D01*
X28050Y-30353D01*
X28044Y-30339D01*
X28311Y-30072D01*
X28311Y-30072D01*
X28311Y-30072D01*
X28311Y-30072D01*
X28583Y-30072D01*
X28641Y-30048D01*
X28685Y-30004D01*
X28709Y-29946D01*
X28709Y-29883D01*
X28709Y-32342D01*
X28628Y-32375D01*
X28534Y-32470D01*
X28483Y-32592D01*
X28483Y-32726D01*
X28534Y-32849D01*
X28628Y-32943D01*
X28751Y-32994D01*
X28884Y-32994D01*
X28916Y-32981D01*
X28953Y-33018D01*
X29011Y-33042D01*
X29074Y-33042D01*
X29324Y-33042D01*
X29382Y-33018D01*
X29426Y-32974D01*
X29450Y-32916D01*
X29450Y-32853D01*
X29450Y-33906D01*
X28606Y-33061D01*
X28535Y-33014D01*
X28485Y-33004D01*
X28485Y-32758D01*
X28461Y-32700D01*
X28417Y-32656D01*
X28359Y-32632D01*
X28296Y-32632D01*
X27846Y-32632D01*
X27826Y-32640D01*
X27794Y-32627D01*
X27731Y-32627D01*
X27348Y-32627D01*
X27348Y-32461D01*
X27324Y-32403D01*
X27280Y-32359D01*
X27222Y-32335D01*
X27195Y-32335D01*
X27195Y-32316D01*
X27276Y-32316D01*
X27349Y-32389D01*
X27472Y-32440D01*
X27605Y-32441D01*
X27728Y-32390D01*
X27822Y-32296D01*
X27873Y-32173D01*
X27874Y-32040D01*
X27823Y-31916D01*
X27729Y-31822D01*
X27606Y-31771D01*
X27473Y-31771D01*
X27350Y-31822D01*
X27289Y-31883D01*
X27195Y-31883D01*
X27195Y-31843D01*
X27171Y-31785D01*
X27127Y-31741D01*
X27069Y-31717D01*
X27006Y-31717D01*
X26756Y-31717D01*
X26699Y-31741D01*
X26654Y-31785D01*
X26630Y-31843D01*
X26630Y-31906D01*
X26630Y-32351D01*
X26595Y-32316D01*
X26595Y-32293D01*
X26595Y-31843D01*
X26571Y-31785D01*
X26527Y-31741D01*
X26469Y-31717D01*
X26406Y-31717D01*
X26156Y-31717D01*
X26099Y-31741D01*
X26054Y-31785D01*
X26030Y-31843D01*
X26030Y-31906D01*
X26030Y-32356D01*
X26044Y-32390D01*
X26031Y-32403D01*
X26007Y-32461D01*
X26007Y-32524D01*
X26007Y-32918D01*
X26031Y-32975D01*
X26075Y-33020D01*
X26133Y-33044D01*
X26196Y-33044D01*
X26457Y-33044D01*
X26505Y-33064D01*
X26594Y-33064D01*
X26638Y-33019D01*
X26638Y-32729D01*
X26630Y-32729D01*
X26630Y-32650D01*
X26638Y-32650D01*
X26638Y-32642D01*
X26717Y-32642D01*
X26717Y-32650D01*
X26725Y-32650D01*
X26725Y-32729D01*
X26717Y-32729D01*
X26717Y-33019D01*
X26761Y-33064D01*
X26851Y-33064D01*
X26898Y-33044D01*
X26946Y-33044D01*
X27101Y-33044D01*
X27119Y-33062D01*
X27119Y-33062D01*
X27167Y-33094D01*
X27167Y-33094D01*
X27179Y-33123D01*
X27223Y-33168D01*
X27281Y-33192D01*
X27344Y-33192D01*
X27377Y-33192D01*
X27354Y-33227D01*
X27281Y-33227D01*
X27224Y-33251D01*
X27179Y-33295D01*
X27163Y-33335D01*
X27159Y-33335D01*
X26883Y-33335D01*
X26882Y-33335D01*
X26878Y-33311D01*
X26831Y-33241D01*
X26761Y-33171D01*
X26690Y-33124D01*
X26608Y-33108D01*
X25873Y-33108D01*
X25852Y-33112D01*
X25620Y-33112D01*
X25620Y-32954D01*
X25620Y-32634D01*
X25593Y-32569D01*
X25543Y-32519D01*
X25478Y-32492D01*
X25408Y-32492D01*
X25301Y-32492D01*
X25257Y-32536D01*
X25257Y-32755D01*
X25575Y-32755D01*
X25620Y-32711D01*
X25620Y-32634D01*
X25620Y-32954D01*
X25620Y-32878D01*
X25575Y-32834D01*
X25257Y-32834D01*
X25257Y-33052D01*
X25301Y-33097D01*
X25408Y-33097D01*
X25478Y-33096D01*
X25543Y-33069D01*
X25593Y-33020D01*
X25620Y-32954D01*
X25620Y-33112D01*
X25546Y-33112D01*
X25510Y-33127D01*
X25474Y-33112D01*
X25411Y-33112D01*
X25178Y-33112D01*
X25178Y-33052D01*
X25178Y-32834D01*
X25178Y-32755D01*
X25178Y-32536D01*
X25134Y-32492D01*
X25028Y-32492D01*
X24957Y-32492D01*
X24892Y-32519D01*
X24842Y-32569D01*
X24815Y-32634D01*
X24815Y-32711D01*
X24860Y-32755D01*
X25178Y-32755D01*
X25178Y-32834D01*
X24860Y-32834D01*
X24815Y-32878D01*
X24815Y-32954D01*
X24842Y-33020D01*
X24892Y-33069D01*
X24957Y-33096D01*
X25028Y-33097D01*
X25134Y-33097D01*
X25178Y-33052D01*
X25178Y-33112D01*
X24961Y-33112D01*
X24904Y-33136D01*
X24861Y-33178D01*
X24280Y-33178D01*
X22830Y-31727D01*
X22916Y-31521D01*
X22916Y-31223D01*
X22846Y-31055D01*
X23035Y-30865D01*
X26885Y-30865D01*
X26885Y-30866D01*
X26909Y-30923D01*
X26953Y-30968D01*
X27011Y-30992D01*
X27074Y-30992D01*
X27324Y-30992D01*
X27382Y-30968D01*
X27426Y-30924D01*
X27450Y-30866D01*
X27450Y-30803D01*
X27450Y-30353D01*
X27426Y-30295D01*
X27382Y-30251D01*
X27324Y-30227D01*
X27261Y-30227D01*
X27011Y-30227D01*
X26954Y-30251D01*
X26909Y-30295D01*
X26885Y-30353D01*
X26885Y-30353D01*
X22929Y-30353D01*
X22848Y-30370D01*
X22831Y-30373D01*
X22748Y-30428D01*
X22484Y-30693D01*
X22317Y-30623D01*
X22019Y-30623D01*
X21744Y-30737D01*
X21534Y-30947D01*
X21420Y-31222D01*
X21419Y-31519D01*
X21533Y-31794D01*
X21743Y-32005D01*
X21912Y-32075D01*
X21912Y-33457D01*
X21851Y-33457D01*
X21793Y-33481D01*
X21749Y-33525D01*
X21725Y-33583D01*
X21725Y-33646D01*
X21725Y-34276D01*
X21749Y-34333D01*
X21793Y-34378D01*
X21851Y-34402D01*
X21913Y-34402D01*
X23330Y-34402D01*
X23388Y-34378D01*
X23433Y-34334D01*
X23457Y-34276D01*
X23457Y-34213D01*
X23457Y-33583D01*
X23433Y-33525D01*
X23388Y-33481D01*
X23331Y-33457D01*
X23268Y-33457D01*
X22480Y-33457D01*
X22424Y-33400D01*
X22424Y-32075D01*
X22524Y-32033D01*
X24038Y-33547D01*
X24108Y-33594D01*
X24191Y-33611D01*
X24861Y-33611D01*
X24903Y-33653D01*
X24961Y-33677D01*
X25024Y-33677D01*
X25474Y-33677D01*
X25510Y-33662D01*
X25546Y-33677D01*
X25609Y-33677D01*
X26007Y-33677D01*
X26007Y-33712D01*
X25996Y-33712D01*
X25546Y-33712D01*
X25489Y-33736D01*
X25444Y-33780D01*
X25420Y-33838D01*
X25420Y-33901D01*
X25420Y-34151D01*
X25444Y-34208D01*
X25488Y-34253D01*
X25546Y-34277D01*
X25609Y-34277D01*
X25794Y-34277D01*
X26219Y-34702D01*
X26219Y-34702D01*
X26290Y-34749D01*
X26290Y-34749D01*
X26356Y-34763D01*
X26373Y-34766D01*
X26373Y-34766D01*
X26373Y-34766D01*
X27638Y-34766D01*
X27739Y-34867D01*
X27567Y-34867D01*
X27408Y-34932D01*
X27286Y-35054D01*
X27220Y-35213D01*
X27220Y-35385D01*
X27286Y-35544D01*
X27391Y-35649D01*
X26914Y-35649D01*
X27019Y-35545D01*
X27085Y-35386D01*
X27085Y-35214D01*
X27019Y-35055D01*
X26898Y-34933D01*
X26739Y-34867D01*
X26567Y-34867D01*
X26408Y-34932D01*
X26286Y-35054D01*
X26220Y-35213D01*
X26220Y-35385D01*
X26286Y-35544D01*
X26391Y-35649D01*
X26088Y-35649D01*
X26105Y-35610D01*
X26105Y-35539D01*
X26105Y-35059D01*
X26105Y-34989D01*
X26078Y-34924D01*
X26028Y-34874D01*
X25963Y-34847D01*
X25736Y-34847D01*
X25692Y-34891D01*
X25692Y-35260D01*
X26060Y-35260D01*
X26105Y-35216D01*
X26105Y-35059D01*
X26105Y-35539D01*
X26105Y-35383D01*
X26060Y-35339D01*
X25692Y-35339D01*
X25692Y-35347D01*
X25613Y-35347D01*
X25613Y-35339D01*
X25613Y-35260D01*
X25613Y-34891D01*
X25569Y-34847D01*
X25343Y-34847D01*
X25277Y-34874D01*
X25228Y-34924D01*
X25200Y-34989D01*
X25200Y-35059D01*
X25200Y-35216D01*
X25245Y-35260D01*
X25613Y-35260D01*
X25613Y-35339D01*
X25245Y-35339D01*
X25200Y-35383D01*
X25200Y-35539D01*
X25200Y-35610D01*
X25217Y-35649D01*
X24547Y-35649D01*
X24565Y-35606D01*
X24565Y-35543D01*
X24565Y-34993D01*
X24541Y-34935D01*
X24497Y-34891D01*
X24439Y-34867D01*
X24376Y-34867D01*
X23826Y-34867D01*
X23769Y-34891D01*
X23724Y-34935D01*
X23700Y-34993D01*
X23700Y-35056D01*
X23700Y-35606D01*
X23718Y-35649D01*
X23588Y-35649D01*
X23588Y-35368D01*
X23580Y-35189D01*
X23527Y-35061D01*
X23454Y-35034D01*
X23398Y-35090D01*
X23398Y-34978D01*
X23371Y-34905D01*
X23202Y-34844D01*
X23022Y-34852D01*
X22894Y-34905D01*
X22867Y-34978D01*
X23133Y-35244D01*
X23398Y-34978D01*
X23398Y-35090D01*
X23188Y-35299D01*
X23454Y-35565D01*
X23527Y-35537D01*
X23588Y-35368D01*
X23588Y-35649D01*
X23387Y-35649D01*
X23398Y-35621D01*
X23133Y-35355D01*
X23077Y-35411D01*
X23077Y-35299D01*
X22811Y-35034D01*
X22738Y-35061D01*
X22677Y-35230D01*
X22685Y-35410D01*
X22738Y-35537D01*
X22811Y-35565D01*
X23077Y-35299D01*
X23077Y-35411D01*
X22867Y-35621D01*
X22878Y-35649D01*
X21726Y-35649D01*
X21310Y-35233D01*
X21310Y-34209D01*
X21310Y-33649D01*
X21310Y-33579D01*
X21283Y-33514D01*
X21233Y-33464D01*
X21168Y-33437D01*
X20508Y-33437D01*
X20464Y-33481D01*
X20464Y-33890D01*
X21266Y-33890D01*
X21310Y-33846D01*
X21310Y-33649D01*
X21310Y-34209D01*
X21310Y-34013D01*
X21266Y-33969D01*
X20464Y-33969D01*
X20464Y-34377D01*
X20508Y-34422D01*
X21168Y-34422D01*
X21233Y-34395D01*
X21283Y-34345D01*
X21310Y-34280D01*
X21310Y-34209D01*
X21310Y-35233D01*
X20833Y-34756D01*
X20776Y-34718D01*
X20708Y-34704D01*
X19994Y-34704D01*
X19711Y-34422D01*
X20341Y-34422D01*
X20385Y-34377D01*
X20385Y-33969D01*
X20385Y-33890D01*
X20385Y-33481D01*
X20341Y-33437D01*
X19945Y-33437D01*
X19945Y-31515D01*
X19941Y-31210D01*
X19831Y-30943D01*
X19725Y-30878D01*
X19231Y-31371D01*
X19725Y-31865D01*
X19831Y-31799D01*
X19945Y-31515D01*
X19945Y-33437D01*
X19681Y-33437D01*
X19669Y-33442D01*
X19616Y-33464D01*
X19566Y-33514D01*
X19539Y-33579D01*
X19539Y-33649D01*
X19539Y-33846D01*
X19583Y-33890D01*
X20385Y-33890D01*
X20385Y-33969D01*
X19583Y-33969D01*
X19539Y-34013D01*
X19539Y-34209D01*
X19539Y-34249D01*
X19271Y-33981D01*
X19271Y-33622D01*
X19271Y-33622D01*
X19258Y-33554D01*
X19219Y-33496D01*
X19219Y-33496D01*
X18502Y-32779D01*
X18659Y-32624D01*
X18644Y-31945D01*
X18651Y-31952D01*
X18682Y-31920D01*
X18748Y-32027D01*
X19031Y-32141D01*
X19337Y-32137D01*
X19603Y-32027D01*
X19669Y-31920D01*
X19175Y-31427D01*
X19170Y-31432D01*
X19114Y-31377D01*
X19120Y-31371D01*
X19114Y-31366D01*
X19170Y-31310D01*
X19175Y-31315D01*
X19669Y-30822D01*
X19635Y-30767D01*
X20497Y-30767D01*
X22145Y-29079D01*
X22127Y-26034D01*
X24827Y-23326D01*
X25113Y-23326D01*
X25088Y-23387D01*
X25088Y-23521D01*
X25139Y-23644D01*
X25233Y-23738D01*
X25356Y-23789D01*
X25489Y-23789D01*
X25612Y-23738D01*
X25706Y-23644D01*
X25728Y-23591D01*
X26198Y-23591D01*
X26347Y-23740D01*
X26226Y-23861D01*
X26157Y-24027D01*
X26157Y-24207D01*
X26226Y-24374D01*
X26353Y-24501D01*
X26519Y-24570D01*
X26699Y-24570D01*
X26866Y-24502D01*
X26986Y-24382D01*
X27026Y-24398D01*
X27306Y-24118D01*
X27026Y-23837D01*
X26986Y-23853D01*
X26933Y-23801D01*
X26918Y-23721D01*
X26871Y-23651D01*
X26546Y-23326D01*
X29738Y-23326D01*
X30305Y-23917D01*
X30209Y-23917D01*
X30086Y-23968D01*
X30018Y-24035D01*
X29892Y-24035D01*
X29798Y-23941D01*
X29728Y-23894D01*
X29645Y-23877D01*
X29598Y-23877D01*
X29598Y-23838D01*
X29574Y-23780D01*
X29530Y-23736D01*
X29472Y-23712D01*
X29409Y-23711D01*
X29159Y-23711D01*
X29101Y-23735D01*
X29057Y-23780D01*
X29033Y-23838D01*
X29033Y-23900D01*
X29033Y-24350D01*
X29057Y-24408D01*
X29101Y-24452D01*
X29159Y-24476D01*
X29221Y-24476D01*
X29471Y-24476D01*
X29529Y-24453D01*
X29574Y-24408D01*
X29597Y-24352D01*
X29650Y-24405D01*
X29650Y-24405D01*
X29720Y-24452D01*
X29803Y-24468D01*
X30018Y-24468D01*
X30085Y-24535D01*
X30208Y-24586D01*
X30341Y-24586D01*
X30464Y-24535D01*
X30559Y-24441D01*
X30610Y-24318D01*
X30610Y-24234D01*
X30642Y-24268D01*
X34200Y-24268D01*
X34187Y-24277D01*
X34086Y-24429D01*
X34050Y-24607D01*
X34050Y-24911D01*
X34086Y-25090D01*
X34187Y-25242D01*
X34292Y-25312D01*
X34259Y-25345D01*
X34235Y-25403D01*
X34235Y-25466D01*
X34235Y-25916D01*
X34259Y-25973D01*
X34303Y-26018D01*
X34361Y-26042D01*
X34424Y-26042D01*
X34573Y-26042D01*
X34393Y-26222D01*
X34368Y-26217D01*
X34202Y-26250D01*
X34200Y-26251D01*
X34200Y-25853D01*
X34200Y-25403D01*
X34176Y-25345D01*
X34132Y-25301D01*
X34074Y-25277D01*
X34011Y-25277D01*
X33761Y-25277D01*
X33704Y-25301D01*
X33659Y-25345D01*
X33635Y-25403D01*
X33635Y-25458D01*
X33627Y-25459D01*
X33557Y-25506D01*
X33059Y-26003D01*
X32903Y-26003D01*
X32933Y-25932D01*
X32933Y-25799D01*
X32882Y-25676D01*
X32788Y-25582D01*
X32665Y-25531D01*
X32625Y-25531D01*
X31923Y-24828D01*
X31840Y-24773D01*
X31823Y-24770D01*
X31742Y-24753D01*
X28998Y-24753D01*
X28998Y-24288D01*
X28998Y-23838D01*
X28974Y-23780D01*
X28930Y-23736D01*
X28872Y-23712D01*
X28809Y-23711D01*
X28559Y-23711D01*
X28501Y-23735D01*
X28457Y-23780D01*
X28445Y-23809D01*
X28370Y-23734D01*
X28204Y-23665D01*
X28024Y-23665D01*
X27858Y-23734D01*
X27738Y-23853D01*
X27698Y-23837D01*
X27642Y-23893D01*
X27642Y-23782D01*
X27612Y-23706D01*
X27435Y-23642D01*
X27248Y-23650D01*
X27111Y-23706D01*
X27082Y-23782D01*
X27362Y-24062D01*
X27642Y-23782D01*
X27642Y-23893D01*
X27417Y-24118D01*
X27698Y-24398D01*
X27738Y-24382D01*
X27857Y-24501D01*
X28023Y-24570D01*
X28203Y-24570D01*
X28370Y-24502D01*
X28460Y-24412D01*
X28501Y-24452D01*
X28559Y-24476D01*
X28621Y-24476D01*
X28871Y-24476D01*
X28929Y-24453D01*
X28974Y-24408D01*
X28998Y-24350D01*
X28998Y-24288D01*
X28998Y-24753D01*
X27642Y-24753D01*
X27642Y-24453D01*
X27362Y-24173D01*
X27082Y-24453D01*
X27111Y-24529D01*
X27288Y-24594D01*
X27476Y-24586D01*
X27612Y-24529D01*
X27642Y-24453D01*
X27642Y-24753D01*
X24085Y-24753D01*
X24057Y-24726D01*
X23934Y-24675D01*
X23801Y-24675D01*
X23678Y-24725D01*
X23584Y-24820D01*
X23533Y-24942D01*
X23533Y-25076D01*
X23584Y-25199D01*
X23678Y-25293D01*
X23801Y-25344D01*
X23934Y-25344D01*
X24057Y-25293D01*
X24085Y-25265D01*
X31636Y-25265D01*
X32263Y-25893D01*
X32263Y-25932D01*
X32293Y-26003D01*
X32058Y-26003D01*
X31810Y-25756D01*
X31740Y-25709D01*
X31657Y-25693D01*
X27024Y-25693D01*
X26957Y-25626D01*
X26834Y-25575D01*
X26701Y-25575D01*
X26578Y-25625D01*
X26484Y-25720D01*
X26433Y-25842D01*
X26433Y-25976D01*
X26484Y-26099D01*
X26578Y-26193D01*
X26701Y-26244D01*
X26834Y-26244D01*
X26957Y-26193D01*
X27024Y-26126D01*
X28610Y-26126D01*
X28582Y-26192D01*
X28582Y-26230D01*
X28061Y-26230D01*
X28003Y-26254D01*
X27959Y-26298D01*
X27935Y-26356D01*
X27935Y-26418D01*
X27935Y-27403D01*
X27958Y-27461D01*
X28003Y-27505D01*
X28061Y-27529D01*
X28123Y-27529D01*
X28674Y-27529D01*
X28732Y-27505D01*
X28777Y-27461D01*
X28801Y-27403D01*
X28801Y-27340D01*
X28801Y-26573D01*
X28850Y-26594D01*
X28983Y-26594D01*
X29106Y-26543D01*
X29188Y-26462D01*
X29200Y-26459D01*
X29271Y-26412D01*
X29307Y-26376D01*
X29935Y-26376D01*
X29935Y-26418D01*
X29935Y-27403D01*
X29958Y-27461D01*
X30003Y-27505D01*
X30061Y-27529D01*
X30123Y-27529D01*
X30674Y-27529D01*
X30732Y-27505D01*
X30777Y-27461D01*
X30801Y-27403D01*
X30801Y-27340D01*
X30801Y-27166D01*
X30828Y-27193D01*
X30951Y-27244D01*
X31084Y-27244D01*
X31207Y-27193D01*
X31301Y-27099D01*
X31352Y-26976D01*
X31352Y-26843D01*
X31301Y-26720D01*
X31207Y-26626D01*
X31084Y-26575D01*
X30951Y-26575D01*
X30828Y-26625D01*
X30801Y-26653D01*
X30801Y-26376D01*
X31078Y-26376D01*
X31735Y-27033D01*
X31735Y-27033D01*
X31805Y-27079D01*
X31888Y-27096D01*
X31935Y-27096D01*
X31935Y-27403D01*
X31958Y-27461D01*
X32003Y-27505D01*
X32061Y-27529D01*
X32123Y-27529D01*
X32674Y-27529D01*
X32732Y-27505D01*
X32777Y-27461D01*
X32801Y-27403D01*
X32801Y-27340D01*
X32801Y-26437D01*
X33149Y-26437D01*
X33232Y-26420D01*
X33302Y-26373D01*
X33680Y-25995D01*
X33703Y-26018D01*
X33761Y-26042D01*
X33824Y-26042D01*
X34074Y-26042D01*
X34132Y-26018D01*
X34176Y-25974D01*
X34200Y-25916D01*
X34200Y-25853D01*
X34200Y-26251D01*
X34061Y-26344D01*
X34061Y-26344D01*
X34051Y-26320D01*
X33957Y-26226D01*
X33834Y-26175D01*
X33701Y-26175D01*
X33578Y-26225D01*
X33484Y-26320D01*
X33433Y-26442D01*
X33433Y-26576D01*
X33484Y-26699D01*
X33551Y-26766D01*
X33551Y-27159D01*
X33551Y-27384D01*
X33568Y-27467D01*
X33583Y-27490D01*
X33061Y-27490D01*
X33003Y-27514D01*
X32959Y-27558D01*
X32935Y-27616D01*
X32935Y-27678D01*
X32935Y-27810D01*
X32909Y-27800D01*
X32776Y-27800D01*
X32653Y-27850D01*
X32559Y-27945D01*
X32508Y-28067D01*
X32508Y-28201D01*
X32559Y-28324D01*
X32653Y-28418D01*
X32776Y-28469D01*
X32909Y-28469D01*
X32935Y-28458D01*
X32935Y-28663D01*
X32958Y-28720D01*
X33003Y-28765D01*
X33061Y-28789D01*
X33123Y-28789D01*
X33557Y-28789D01*
X32903Y-29443D01*
X32352Y-29443D01*
X32352Y-28093D01*
X32301Y-27970D01*
X32207Y-27876D01*
X32084Y-27825D01*
X31951Y-27825D01*
X31828Y-27875D01*
X31801Y-27903D01*
X31801Y-27616D01*
X31777Y-27558D01*
X31733Y-27514D01*
X31675Y-27490D01*
X31612Y-27490D01*
X31061Y-27490D01*
X31003Y-27514D01*
X30959Y-27558D01*
X30935Y-27616D01*
X30935Y-27678D01*
X30935Y-28663D01*
X30958Y-28720D01*
X31003Y-28765D01*
X31061Y-28789D01*
X31123Y-28789D01*
X31674Y-28789D01*
X31732Y-28765D01*
X31777Y-28721D01*
X31801Y-28663D01*
X31801Y-28600D01*
X31801Y-28416D01*
X31828Y-28443D01*
X31951Y-28494D01*
X32084Y-28494D01*
X32207Y-28443D01*
X32301Y-28349D01*
X32352Y-28226D01*
X32352Y-28093D01*
X32352Y-29443D01*
X32209Y-29443D01*
X32209Y-29373D01*
X32185Y-29315D01*
X32141Y-29271D01*
X32083Y-29247D01*
X32020Y-29247D01*
X31786Y-29247D01*
X31496Y-28956D01*
X31425Y-28909D01*
X31343Y-28893D01*
X30427Y-28893D01*
X29801Y-28266D01*
X29801Y-27616D01*
X29777Y-27558D01*
X29733Y-27514D01*
X29675Y-27490D01*
X29612Y-27490D01*
X29061Y-27490D01*
X29003Y-27514D01*
X28959Y-27558D01*
X28935Y-27616D01*
X28935Y-27678D01*
X28935Y-28663D01*
X28958Y-28720D01*
X29003Y-28765D01*
X29061Y-28789D01*
X29123Y-28789D01*
X29674Y-28789D01*
X29700Y-28778D01*
X30185Y-29262D01*
X30226Y-29290D01*
X30212Y-29304D01*
X30185Y-29369D01*
X30185Y-29439D01*
X30185Y-29576D01*
X30230Y-29620D01*
X30717Y-29620D01*
X30717Y-29612D01*
X30796Y-29612D01*
X30796Y-29620D01*
X30803Y-29620D01*
X30803Y-29699D01*
X30796Y-29699D01*
X30796Y-30047D01*
X30840Y-30092D01*
X31185Y-30092D01*
X31233Y-30072D01*
X31295Y-30072D01*
X32083Y-30072D01*
X32141Y-30048D01*
X32185Y-30004D01*
X32209Y-29946D01*
X32209Y-29883D01*
X32209Y-29876D01*
X32993Y-29876D01*
X33075Y-29859D01*
X33146Y-29812D01*
X33996Y-28962D01*
X34043Y-28892D01*
X34059Y-28809D01*
X34059Y-28024D01*
X34153Y-28118D01*
X34276Y-28169D01*
X34409Y-28169D01*
X34532Y-28118D01*
X34586Y-28064D01*
X34586Y-29227D01*
X34340Y-29227D01*
X34296Y-29271D01*
X34296Y-29620D01*
X34303Y-29620D01*
X34303Y-29699D01*
X34296Y-29699D01*
X34296Y-30047D01*
X34340Y-30092D01*
X34586Y-30092D01*
X34586Y-31529D01*
X34571Y-31506D01*
X34571Y-31506D01*
X34217Y-31152D01*
X34217Y-30047D01*
X34217Y-29699D01*
X34217Y-29620D01*
X34217Y-29271D01*
X34173Y-29227D01*
X33827Y-29227D01*
X33762Y-29254D01*
X33712Y-29304D01*
X33685Y-29369D01*
X33685Y-29439D01*
X33685Y-29576D01*
X33730Y-29620D01*
X34217Y-29620D01*
X34217Y-29699D01*
X33730Y-29699D01*
X33685Y-29743D01*
X33685Y-29879D01*
X33685Y-29950D01*
X33712Y-30015D01*
X33762Y-30065D01*
X33827Y-30092D01*
X34173Y-30092D01*
X34217Y-30047D01*
X34217Y-31152D01*
X33471Y-30406D01*
X33400Y-30359D01*
X33318Y-30343D01*
X33218Y-30343D01*
X31228Y-30343D01*
X31184Y-30325D01*
X31051Y-30325D01*
X30928Y-30375D01*
X30834Y-30470D01*
X30783Y-30592D01*
X30783Y-30726D01*
X30811Y-30793D01*
X30717Y-30793D01*
X30717Y-30047D01*
X30717Y-29699D01*
X30230Y-29699D01*
X30185Y-29743D01*
X30185Y-29879D01*
X30185Y-29950D01*
X30212Y-30015D01*
X30262Y-30065D01*
X30327Y-30092D01*
X30673Y-30092D01*
X30717Y-30047D01*
X30717Y-30793D01*
X30269Y-30793D01*
X30186Y-30809D01*
X30116Y-30856D01*
X29614Y-31358D01*
X29568Y-31428D01*
X29551Y-31511D01*
X29551Y-32303D01*
X29509Y-32345D01*
X29485Y-32403D01*
X29485Y-32466D01*
X29485Y-32916D01*
X29509Y-32973D01*
X29553Y-33018D01*
X29611Y-33042D01*
X29674Y-33042D01*
X29844Y-33042D01*
X29964Y-33162D01*
X29964Y-33162D01*
X30035Y-33209D01*
X30035Y-33209D01*
X30101Y-33223D01*
X30118Y-33226D01*
X30118Y-33226D01*
X30118Y-33226D01*
X30318Y-33226D01*
X31268Y-33226D01*
X31818Y-33226D01*
X31900Y-33209D01*
X31971Y-33162D01*
X32115Y-33018D01*
X32115Y-33076D01*
X32160Y-33120D01*
X32478Y-33120D01*
X32478Y-32901D01*
X32434Y-32857D01*
X32328Y-32857D01*
X32257Y-32857D01*
X32192Y-32884D01*
X32171Y-32905D01*
X32176Y-32881D01*
X32179Y-32864D01*
X32179Y-32864D01*
X32179Y-32864D01*
X32179Y-32794D01*
X32203Y-32818D01*
X32261Y-32842D01*
X32324Y-32842D01*
X32679Y-32842D01*
X32679Y-32857D01*
X32601Y-32857D01*
X32557Y-32901D01*
X32557Y-33120D01*
X32565Y-33120D01*
X32565Y-33199D01*
X32557Y-33199D01*
X32557Y-33417D01*
X32601Y-33462D01*
X32708Y-33462D01*
X32778Y-33461D01*
X32843Y-33434D01*
X32893Y-33385D01*
X32920Y-33319D01*
X32920Y-33243D01*
X32875Y-33199D01*
X32920Y-33199D01*
X32920Y-33193D01*
X33001Y-33210D01*
X33049Y-33210D01*
X33073Y-33220D01*
X33135Y-33220D01*
X33332Y-33220D01*
X33390Y-33196D01*
X33435Y-33151D01*
X33459Y-33094D01*
X33459Y-33031D01*
X33459Y-32893D01*
X33447Y-32865D01*
X33459Y-32838D01*
X33459Y-32775D01*
X33459Y-32637D01*
X33447Y-32609D01*
X33451Y-32599D01*
X33487Y-32635D01*
X33557Y-32681D01*
X33577Y-32685D01*
X33577Y-32700D01*
X33577Y-32837D01*
X33588Y-32865D01*
X33577Y-32893D01*
X33577Y-32955D01*
X33577Y-33093D01*
X33601Y-33151D01*
X33645Y-33196D01*
X33703Y-33220D01*
X33765Y-33220D01*
X33962Y-33220D01*
X34020Y-33196D01*
X34064Y-33151D01*
X34088Y-33094D01*
X34089Y-33033D01*
X34108Y-33033D01*
X34108Y-33006D01*
X34158Y-33056D01*
X34158Y-33151D01*
X34209Y-33274D01*
X34303Y-33368D01*
X34426Y-33419D01*
X34559Y-33419D01*
X34682Y-33368D01*
X34776Y-33274D01*
X34793Y-33233D01*
X35177Y-33616D01*
X35177Y-34493D01*
X35177Y-34493D01*
G37*
G54D41*
X35177Y-34493D02*
X34021Y-35649D01*
X32920Y-35649D01*
X32478Y-35649D01*
X32478Y-33417D01*
X32478Y-33199D01*
X32160Y-33199D01*
X32115Y-33243D01*
X32115Y-33319D01*
X32142Y-33385D01*
X32192Y-33434D01*
X32257Y-33461D01*
X32328Y-33462D01*
X32434Y-33462D01*
X32478Y-33417D01*
X32478Y-35649D01*
X31109Y-35649D01*
X31517Y-35242D01*
X31563Y-35288D01*
X31686Y-35339D01*
X31819Y-35339D01*
X31942Y-35288D01*
X32036Y-35194D01*
X32087Y-35071D01*
X32087Y-34938D01*
X32036Y-34815D01*
X31942Y-34721D01*
X31819Y-34670D01*
X31686Y-34670D01*
X31563Y-34720D01*
X31496Y-34788D01*
X31448Y-34788D01*
X31365Y-34804D01*
X31294Y-34851D01*
X31294Y-34851D01*
X30718Y-35428D01*
X29755Y-35428D01*
X29755Y-34843D01*
X29731Y-34785D01*
X29687Y-34741D01*
X29629Y-34717D01*
X29567Y-34717D01*
X29519Y-34717D01*
X29519Y-34064D01*
X29503Y-33981D01*
X29456Y-33911D01*
X29450Y-33906D01*
X29450Y-32853D01*
X29450Y-32403D01*
X29426Y-32345D01*
X29382Y-32301D01*
X29324Y-32277D01*
X29261Y-32277D01*
X29011Y-32277D01*
X28954Y-32301D01*
X28916Y-32338D01*
X28884Y-32325D01*
X28751Y-32325D01*
X28709Y-32342D01*
X28709Y-29883D01*
X28709Y-29373D01*
X28685Y-29315D01*
X28641Y-29271D01*
X28583Y-29247D01*
X28520Y-29247D01*
X27820Y-29247D01*
X27820Y-28596D01*
X27820Y-27682D01*
X27820Y-27612D01*
X27793Y-27547D01*
X27743Y-27497D01*
X27678Y-27470D01*
X27451Y-27470D01*
X27407Y-27514D01*
X27407Y-28100D01*
X27776Y-28100D01*
X27820Y-28056D01*
X27820Y-27682D01*
X27820Y-28596D01*
X27820Y-28223D01*
X27776Y-28179D01*
X27407Y-28179D01*
X27407Y-28764D01*
X27451Y-28809D01*
X27678Y-28809D01*
X27743Y-28782D01*
X27793Y-28732D01*
X27820Y-28667D01*
X27820Y-28596D01*
X27820Y-29247D01*
X27761Y-29247D01*
X27303Y-28789D01*
X27328Y-28764D01*
X27328Y-28179D01*
X26959Y-28179D01*
X26915Y-28223D01*
X26915Y-28400D01*
X26834Y-28320D01*
X26834Y-28116D01*
X26901Y-28049D01*
X26915Y-28016D01*
X26915Y-28056D01*
X26959Y-28100D01*
X27328Y-28100D01*
X27328Y-27514D01*
X27284Y-27470D01*
X27057Y-27470D01*
X26992Y-27497D01*
X26942Y-27547D01*
X26915Y-27612D01*
X26915Y-27682D01*
X26915Y-27702D01*
X26901Y-27670D01*
X26807Y-27576D01*
X26684Y-27525D01*
X26551Y-27525D01*
X26428Y-27575D01*
X26334Y-27670D01*
X26283Y-27792D01*
X26283Y-27926D01*
X26334Y-28049D01*
X26401Y-28116D01*
X26401Y-28409D01*
X26418Y-28492D01*
X26464Y-28562D01*
X27607Y-29705D01*
X27607Y-29946D01*
X27630Y-30003D01*
X27675Y-30048D01*
X27709Y-30062D01*
X27614Y-30156D01*
X27568Y-30226D01*
X27564Y-30247D01*
X27554Y-30251D01*
X27509Y-30295D01*
X27485Y-30353D01*
X27485Y-30416D01*
X27485Y-30866D01*
X27509Y-30923D01*
X27553Y-30968D01*
X27611Y-30992D01*
X27674Y-30992D01*
X27924Y-30992D01*
X27982Y-30968D01*
X28026Y-30924D01*
X28050Y-30866D01*
X28050Y-30803D01*
X28050Y-30353D01*
X28044Y-30339D01*
X28311Y-30072D01*
X28311Y-30072D01*
X28311Y-30072D01*
X28311Y-30072D01*
X28583Y-30072D01*
X28641Y-30048D01*
X28685Y-30004D01*
X28709Y-29946D01*
X28709Y-29883D01*
X28709Y-32342D01*
X28628Y-32375D01*
X28534Y-32470D01*
X28483Y-32592D01*
X28483Y-32726D01*
X28534Y-32849D01*
X28628Y-32943D01*
X28751Y-32994D01*
X28884Y-32994D01*
X28916Y-32981D01*
X28953Y-33018D01*
X29011Y-33042D01*
X29074Y-33042D01*
X29324Y-33042D01*
X29382Y-33018D01*
X29426Y-32974D01*
X29450Y-32916D01*
X29450Y-32853D01*
X29450Y-33906D01*
X28606Y-33061D01*
X28535Y-33014D01*
X28485Y-33004D01*
X28485Y-32758D01*
X28461Y-32700D01*
X28417Y-32656D01*
X28359Y-32632D01*
X28296Y-32632D01*
X27846Y-32632D01*
X27826Y-32640D01*
X27794Y-32627D01*
X27731Y-32627D01*
X27348Y-32627D01*
X27348Y-32461D01*
X27324Y-32403D01*
X27280Y-32359D01*
X27222Y-32335D01*
X27195Y-32335D01*
X27195Y-32316D01*
X27276Y-32316D01*
X27349Y-32389D01*
X27472Y-32440D01*
X27605Y-32441D01*
X27728Y-32390D01*
X27822Y-32296D01*
X27873Y-32173D01*
X27874Y-32040D01*
X27823Y-31916D01*
X27729Y-31822D01*
X27606Y-31771D01*
X27473Y-31771D01*
X27350Y-31822D01*
X27289Y-31883D01*
X27195Y-31883D01*
X27195Y-31843D01*
X27171Y-31785D01*
X27127Y-31741D01*
X27069Y-31717D01*
X27006Y-31717D01*
X26756Y-31717D01*
X26699Y-31741D01*
X26654Y-31785D01*
X26630Y-31843D01*
X26630Y-31906D01*
X26630Y-32351D01*
X26595Y-32316D01*
X26595Y-32293D01*
X26595Y-31843D01*
X26571Y-31785D01*
X26527Y-31741D01*
X26469Y-31717D01*
X26406Y-31717D01*
X26156Y-31717D01*
X26099Y-31741D01*
X26054Y-31785D01*
X26030Y-31843D01*
X26030Y-31906D01*
X26030Y-32356D01*
X26044Y-32390D01*
X26031Y-32403D01*
X26007Y-32461D01*
X26007Y-32524D01*
X26007Y-32918D01*
X26031Y-32975D01*
X26075Y-33020D01*
X26133Y-33044D01*
X26196Y-33044D01*
X26457Y-33044D01*
X26505Y-33064D01*
X26594Y-33064D01*
X26638Y-33019D01*
X26638Y-32729D01*
X26630Y-32729D01*
X26630Y-32650D01*
X26638Y-32650D01*
X26638Y-32642D01*
X26717Y-32642D01*
X26717Y-32650D01*
X26725Y-32650D01*
X26725Y-32729D01*
X26717Y-32729D01*
X26717Y-33019D01*
X26761Y-33064D01*
X26851Y-33064D01*
X26898Y-33044D01*
X26946Y-33044D01*
X27101Y-33044D01*
X27119Y-33062D01*
X27119Y-33062D01*
X27167Y-33094D01*
X27167Y-33094D01*
X27179Y-33123D01*
X27223Y-33168D01*
X27281Y-33192D01*
X27344Y-33192D01*
X27377Y-33192D01*
X27354Y-33227D01*
X27281Y-33227D01*
X27224Y-33251D01*
X27179Y-33295D01*
X27163Y-33335D01*
X27159Y-33335D01*
X26883Y-33335D01*
X26882Y-33335D01*
X26878Y-33311D01*
X26831Y-33241D01*
X26761Y-33171D01*
X26690Y-33124D01*
X26608Y-33108D01*
X25873Y-33108D01*
X25852Y-33112D01*
X25620Y-33112D01*
X25620Y-32954D01*
X25620Y-32634D01*
X25593Y-32569D01*
X25543Y-32519D01*
X25478Y-32492D01*
X25408Y-32492D01*
X25301Y-32492D01*
X25257Y-32536D01*
X25257Y-32755D01*
X25575Y-32755D01*
X25620Y-32711D01*
X25620Y-32634D01*
X25620Y-32954D01*
X25620Y-32878D01*
X25575Y-32834D01*
X25257Y-32834D01*
X25257Y-33052D01*
X25301Y-33097D01*
X25408Y-33097D01*
X25478Y-33096D01*
X25543Y-33069D01*
X25593Y-33020D01*
X25620Y-32954D01*
X25620Y-33112D01*
X25546Y-33112D01*
X25510Y-33127D01*
X25474Y-33112D01*
X25411Y-33112D01*
X25178Y-33112D01*
X25178Y-33052D01*
X25178Y-32834D01*
X25178Y-32755D01*
X25178Y-32536D01*
X25134Y-32492D01*
X25028Y-32492D01*
X24957Y-32492D01*
X24892Y-32519D01*
X24842Y-32569D01*
X24815Y-32634D01*
X24815Y-32711D01*
X24860Y-32755D01*
X25178Y-32755D01*
X25178Y-32834D01*
X24860Y-32834D01*
X24815Y-32878D01*
X24815Y-32954D01*
X24842Y-33020D01*
X24892Y-33069D01*
X24957Y-33096D01*
X25028Y-33097D01*
X25134Y-33097D01*
X25178Y-33052D01*
X25178Y-33112D01*
X24961Y-33112D01*
X24904Y-33136D01*
X24861Y-33178D01*
X24280Y-33178D01*
X22830Y-31727D01*
X22916Y-31521D01*
X22916Y-31223D01*
X22846Y-31055D01*
X23035Y-30865D01*
X26885Y-30865D01*
X26885Y-30866D01*
X26909Y-30923D01*
X26953Y-30968D01*
X27011Y-30992D01*
X27074Y-30992D01*
X27324Y-30992D01*
X27382Y-30968D01*
X27426Y-30924D01*
X27450Y-30866D01*
X27450Y-30803D01*
X27450Y-30353D01*
X27426Y-30295D01*
X27382Y-30251D01*
X27324Y-30227D01*
X27261Y-30227D01*
X27011Y-30227D01*
X26954Y-30251D01*
X26909Y-30295D01*
X26885Y-30353D01*
X26885Y-30353D01*
X22929Y-30353D01*
X22848Y-30370D01*
X22831Y-30373D01*
X22748Y-30428D01*
X22484Y-30693D01*
X22317Y-30623D01*
X22019Y-30623D01*
X21744Y-30737D01*
X21534Y-30947D01*
X21420Y-31222D01*
X21419Y-31519D01*
X21533Y-31794D01*
X21743Y-32005D01*
X21912Y-32075D01*
X21912Y-33457D01*
X21851Y-33457D01*
X21793Y-33481D01*
X21749Y-33525D01*
X21725Y-33583D01*
X21725Y-33646D01*
X21725Y-34276D01*
X21749Y-34333D01*
X21793Y-34378D01*
X21851Y-34402D01*
X21913Y-34402D01*
X23330Y-34402D01*
X23388Y-34378D01*
X23433Y-34334D01*
X23457Y-34276D01*
X23457Y-34213D01*
X23457Y-33583D01*
X23433Y-33525D01*
X23388Y-33481D01*
X23331Y-33457D01*
X23268Y-33457D01*
X22480Y-33457D01*
X22424Y-33400D01*
X22424Y-32075D01*
X22524Y-32033D01*
X24038Y-33547D01*
X24108Y-33594D01*
X24191Y-33611D01*
X24861Y-33611D01*
X24903Y-33653D01*
X24961Y-33677D01*
X25024Y-33677D01*
X25474Y-33677D01*
X25510Y-33662D01*
X25546Y-33677D01*
X25609Y-33677D01*
X26007Y-33677D01*
X26007Y-33712D01*
X25996Y-33712D01*
X25546Y-33712D01*
X25489Y-33736D01*
X25444Y-33780D01*
X25420Y-33838D01*
X25420Y-33901D01*
X25420Y-34151D01*
X25444Y-34208D01*
X25488Y-34253D01*
X25546Y-34277D01*
X25609Y-34277D01*
X25794Y-34277D01*
X26219Y-34702D01*
X26219Y-34702D01*
X26290Y-34749D01*
X26290Y-34749D01*
X26356Y-34763D01*
X26373Y-34766D01*
X26373Y-34766D01*
X26373Y-34766D01*
X27638Y-34766D01*
X27739Y-34867D01*
X27567Y-34867D01*
X27408Y-34932D01*
X27286Y-35054D01*
X27220Y-35213D01*
X27220Y-35385D01*
X27286Y-35544D01*
X27391Y-35649D01*
X26914Y-35649D01*
X27019Y-35545D01*
X27085Y-35386D01*
X27085Y-35214D01*
X27019Y-35055D01*
X26898Y-34933D01*
X26739Y-34867D01*
X26567Y-34867D01*
X26408Y-34932D01*
X26286Y-35054D01*
X26220Y-35213D01*
X26220Y-35385D01*
X26286Y-35544D01*
X26391Y-35649D01*
X26088Y-35649D01*
X26105Y-35610D01*
X26105Y-35539D01*
X26105Y-35059D01*
X26105Y-34989D01*
X26078Y-34924D01*
X26028Y-34874D01*
X25963Y-34847D01*
X25736Y-34847D01*
X25692Y-34891D01*
X25692Y-35260D01*
X26060Y-35260D01*
X26105Y-35216D01*
X26105Y-35059D01*
X26105Y-35539D01*
X26105Y-35383D01*
X26060Y-35339D01*
X25692Y-35339D01*
X25692Y-35347D01*
X25613Y-35347D01*
X25613Y-35339D01*
X25613Y-35260D01*
X25613Y-34891D01*
X25569Y-34847D01*
X25343Y-34847D01*
X25277Y-34874D01*
X25228Y-34924D01*
X25200Y-34989D01*
X25200Y-35059D01*
X25200Y-35216D01*
X25245Y-35260D01*
X25613Y-35260D01*
X25613Y-35339D01*
X25245Y-35339D01*
X25200Y-35383D01*
X25200Y-35539D01*
X25200Y-35610D01*
X25217Y-35649D01*
X24547Y-35649D01*
X24565Y-35606D01*
X24565Y-35543D01*
X24565Y-34993D01*
X24541Y-34935D01*
X24497Y-34891D01*
X24439Y-34867D01*
X24376Y-34867D01*
X23826Y-34867D01*
X23769Y-34891D01*
X23724Y-34935D01*
X23700Y-34993D01*
X23700Y-35056D01*
X23700Y-35606D01*
X23718Y-35649D01*
X23588Y-35649D01*
X23588Y-35368D01*
X23580Y-35189D01*
X23527Y-35061D01*
X23454Y-35034D01*
X23398Y-35090D01*
X23398Y-34978D01*
X23371Y-34905D01*
X23202Y-34844D01*
X23022Y-34852D01*
X22894Y-34905D01*
X22867Y-34978D01*
X23133Y-35244D01*
X23398Y-34978D01*
X23398Y-35090D01*
X23188Y-35299D01*
X23454Y-35565D01*
X23527Y-35537D01*
X23588Y-35368D01*
X23588Y-35649D01*
X23387Y-35649D01*
X23398Y-35621D01*
X23133Y-35355D01*
X23077Y-35411D01*
X23077Y-35299D01*
X22811Y-35034D01*
X22738Y-35061D01*
X22677Y-35230D01*
X22685Y-35410D01*
X22738Y-35537D01*
X22811Y-35565D01*
X23077Y-35299D01*
X23077Y-35411D01*
X22867Y-35621D01*
X22878Y-35649D01*
X21726Y-35649D01*
X21310Y-35233D01*
X21310Y-34209D01*
X21310Y-33649D01*
X21310Y-33579D01*
X21283Y-33514D01*
X21233Y-33464D01*
X21168Y-33437D01*
X20508Y-33437D01*
X20464Y-33481D01*
X20464Y-33890D01*
X21266Y-33890D01*
X21310Y-33846D01*
X21310Y-33649D01*
X21310Y-34209D01*
X21310Y-34013D01*
X21266Y-33969D01*
X20464Y-33969D01*
X20464Y-34377D01*
X20508Y-34422D01*
X21168Y-34422D01*
X21233Y-34395D01*
X21283Y-34345D01*
X21310Y-34280D01*
X21310Y-34209D01*
X21310Y-35233D01*
X20833Y-34756D01*
X20776Y-34718D01*
X20708Y-34704D01*
X19994Y-34704D01*
X19711Y-34422D01*
X20341Y-34422D01*
X20385Y-34377D01*
X20385Y-33969D01*
X20385Y-33890D01*
X20385Y-33481D01*
X20341Y-33437D01*
X19945Y-33437D01*
X19945Y-31515D01*
X19941Y-31210D01*
X19831Y-30943D01*
X19725Y-30878D01*
X19231Y-31371D01*
X19725Y-31865D01*
X19831Y-31799D01*
X19945Y-31515D01*
X19945Y-33437D01*
X19681Y-33437D01*
X19669Y-33442D01*
X19616Y-33464D01*
X19566Y-33514D01*
X19539Y-33579D01*
X19539Y-33649D01*
X19539Y-33846D01*
X19583Y-33890D01*
X20385Y-33890D01*
X20385Y-33969D01*
X19583Y-33969D01*
X19539Y-34013D01*
X19539Y-34209D01*
X19539Y-34249D01*
X19271Y-33981D01*
X19271Y-33622D01*
X19271Y-33622D01*
X19258Y-33554D01*
X19219Y-33496D01*
X19219Y-33496D01*
X18502Y-32779D01*
X18659Y-32624D01*
X18644Y-31945D01*
X18651Y-31952D01*
X18682Y-31920D01*
X18748Y-32027D01*
X19031Y-32141D01*
X19337Y-32137D01*
X19603Y-32027D01*
X19669Y-31920D01*
X19175Y-31427D01*
X19170Y-31432D01*
X19114Y-31377D01*
X19120Y-31371D01*
X19114Y-31366D01*
X19170Y-31310D01*
X19175Y-31315D01*
X19669Y-30822D01*
X19635Y-30767D01*
X20497Y-30767D01*
X22145Y-29079D01*
X22127Y-26034D01*
X24827Y-23326D01*
X25113Y-23326D01*
X25088Y-23387D01*
X25088Y-23521D01*
X25139Y-23644D01*
X25233Y-23738D01*
X25356Y-23789D01*
X25489Y-23789D01*
X25612Y-23738D01*
X25706Y-23644D01*
X25728Y-23591D01*
X26198Y-23591D01*
X26347Y-23740D01*
X26226Y-23861D01*
X26157Y-24027D01*
X26157Y-24207D01*
X26226Y-24374D01*
X26353Y-24501D01*
X26519Y-24570D01*
X26699Y-24570D01*
X26866Y-24502D01*
X26986Y-24382D01*
X27026Y-24398D01*
X27306Y-24118D01*
X27026Y-23837D01*
X26986Y-23853D01*
X26933Y-23801D01*
X26918Y-23721D01*
X26871Y-23651D01*
X26546Y-23326D01*
X29738Y-23326D01*
X30305Y-23917D01*
X30209Y-23917D01*
X30086Y-23968D01*
X30018Y-24035D01*
X29892Y-24035D01*
X29798Y-23941D01*
X29728Y-23894D01*
X29645Y-23877D01*
X29598Y-23877D01*
X29598Y-23838D01*
X29574Y-23780D01*
X29530Y-23736D01*
X29472Y-23712D01*
X29409Y-23711D01*
X29159Y-23711D01*
X29101Y-23735D01*
X29057Y-23780D01*
X29033Y-23838D01*
X29033Y-23900D01*
X29033Y-24350D01*
X29057Y-24408D01*
X29101Y-24452D01*
X29159Y-24476D01*
X29221Y-24476D01*
X29471Y-24476D01*
X29529Y-24453D01*
X29574Y-24408D01*
X29597Y-24352D01*
X29650Y-24405D01*
X29650Y-24405D01*
X29720Y-24452D01*
X29803Y-24468D01*
X30018Y-24468D01*
X30085Y-24535D01*
X30208Y-24586D01*
X30341Y-24586D01*
X30464Y-24535D01*
X30559Y-24441D01*
X30610Y-24318D01*
X30610Y-24234D01*
X30642Y-24268D01*
X34200Y-24268D01*
X34187Y-24277D01*
X34086Y-24429D01*
X34050Y-24607D01*
X34050Y-24911D01*
X34086Y-25090D01*
X34187Y-25242D01*
X34292Y-25312D01*
X34259Y-25345D01*
X34235Y-25403D01*
X34235Y-25466D01*
X34235Y-25916D01*
X34259Y-25973D01*
X34303Y-26018D01*
X34361Y-26042D01*
X34424Y-26042D01*
X34573Y-26042D01*
X34393Y-26222D01*
X34368Y-26217D01*
X34202Y-26250D01*
X34200Y-26251D01*
X34200Y-25853D01*
X34200Y-25403D01*
X34176Y-25345D01*
X34132Y-25301D01*
X34074Y-25277D01*
X34011Y-25277D01*
X33761Y-25277D01*
X33704Y-25301D01*
X33659Y-25345D01*
X33635Y-25403D01*
X33635Y-25458D01*
X33627Y-25459D01*
X33557Y-25506D01*
X33059Y-26003D01*
X32903Y-26003D01*
X32933Y-25932D01*
X32933Y-25799D01*
X32882Y-25676D01*
X32788Y-25582D01*
X32665Y-25531D01*
X32625Y-25531D01*
X31923Y-24828D01*
X31840Y-24773D01*
X31823Y-24770D01*
X31742Y-24753D01*
X28998Y-24753D01*
X28998Y-24288D01*
X28998Y-23838D01*
X28974Y-23780D01*
X28930Y-23736D01*
X28872Y-23712D01*
X28809Y-23711D01*
X28559Y-23711D01*
X28501Y-23735D01*
X28457Y-23780D01*
X28445Y-23809D01*
X28370Y-23734D01*
X28204Y-23665D01*
X28024Y-23665D01*
X27858Y-23734D01*
X27738Y-23853D01*
X27698Y-23837D01*
X27642Y-23893D01*
X27642Y-23782D01*
X27612Y-23706D01*
X27435Y-23642D01*
X27248Y-23650D01*
X27111Y-23706D01*
X27082Y-23782D01*
X27362Y-24062D01*
X27642Y-23782D01*
X27642Y-23893D01*
X27417Y-24118D01*
X27698Y-24398D01*
X27738Y-24382D01*
X27857Y-24501D01*
X28023Y-24570D01*
X28203Y-24570D01*
X28370Y-24502D01*
X28460Y-24412D01*
X28501Y-24452D01*
X28559Y-24476D01*
X28621Y-24476D01*
X28871Y-24476D01*
X28929Y-24453D01*
X28974Y-24408D01*
X28998Y-24350D01*
X28998Y-24288D01*
X28998Y-24753D01*
X27642Y-24753D01*
X27642Y-24453D01*
X27362Y-24173D01*
X27082Y-24453D01*
X27111Y-24529D01*
X27288Y-24594D01*
X27476Y-24586D01*
X27612Y-24529D01*
X27642Y-24453D01*
X27642Y-24753D01*
X24085Y-24753D01*
X24057Y-24726D01*
X23934Y-24675D01*
X23801Y-24675D01*
X23678Y-24725D01*
X23584Y-24820D01*
X23533Y-24942D01*
X23533Y-25076D01*
X23584Y-25199D01*
X23678Y-25293D01*
X23801Y-25344D01*
X23934Y-25344D01*
X24057Y-25293D01*
X24085Y-25265D01*
X31636Y-25265D01*
X32263Y-25893D01*
X32263Y-25932D01*
X32293Y-26003D01*
X32058Y-26003D01*
X31810Y-25756D01*
X31740Y-25709D01*
X31657Y-25693D01*
X27024Y-25693D01*
X26957Y-25626D01*
X26834Y-25575D01*
X26701Y-25575D01*
X26578Y-25625D01*
X26484Y-25720D01*
X26433Y-25842D01*
X26433Y-25976D01*
X26484Y-26099D01*
X26578Y-26193D01*
X26701Y-26244D01*
X26834Y-26244D01*
X26957Y-26193D01*
X27024Y-26126D01*
X28610Y-26126D01*
X28582Y-26192D01*
X28582Y-26230D01*
X28061Y-26230D01*
X28003Y-26254D01*
X27959Y-26298D01*
X27935Y-26356D01*
X27935Y-26418D01*
X27935Y-27403D01*
X27958Y-27461D01*
X28003Y-27505D01*
X28061Y-27529D01*
X28123Y-27529D01*
X28674Y-27529D01*
X28732Y-27505D01*
X28777Y-27461D01*
X28801Y-27403D01*
X28801Y-27340D01*
X28801Y-26573D01*
X28850Y-26594D01*
X28983Y-26594D01*
X29106Y-26543D01*
X29188Y-26462D01*
X29200Y-26459D01*
X29271Y-26412D01*
X29307Y-26376D01*
X29935Y-26376D01*
X29935Y-26418D01*
X29935Y-27403D01*
X29958Y-27461D01*
X30003Y-27505D01*
X30061Y-27529D01*
X30123Y-27529D01*
X30674Y-27529D01*
X30732Y-27505D01*
X30777Y-27461D01*
X30801Y-27403D01*
X30801Y-27340D01*
X30801Y-27166D01*
X30828Y-27193D01*
X30951Y-27244D01*
X31084Y-27244D01*
X31207Y-27193D01*
X31301Y-27099D01*
X31352Y-26976D01*
X31352Y-26843D01*
X31301Y-26720D01*
X31207Y-26626D01*
X31084Y-26575D01*
X30951Y-26575D01*
X30828Y-26625D01*
X30801Y-26653D01*
X30801Y-26376D01*
X31078Y-26376D01*
X31735Y-27033D01*
X31735Y-27033D01*
X31805Y-27079D01*
X31888Y-27096D01*
X31935Y-27096D01*
X31935Y-27403D01*
X31958Y-27461D01*
X32003Y-27505D01*
X32061Y-27529D01*
X32123Y-27529D01*
X32674Y-27529D01*
X32732Y-27505D01*
X32777Y-27461D01*
X32801Y-27403D01*
X32801Y-27340D01*
X32801Y-26437D01*
X33149Y-26437D01*
X33232Y-26420D01*
X33302Y-26373D01*
X33680Y-25995D01*
X33703Y-26018D01*
X33761Y-26042D01*
X33824Y-26042D01*
X34074Y-26042D01*
X34132Y-26018D01*
X34176Y-25974D01*
X34200Y-25916D01*
X34200Y-25853D01*
X34200Y-26251D01*
X34061Y-26344D01*
X34061Y-26344D01*
X34051Y-26320D01*
X33957Y-26226D01*
X33834Y-26175D01*
X33701Y-26175D01*
X33578Y-26225D01*
X33484Y-26320D01*
X33433Y-26442D01*
X33433Y-26576D01*
X33484Y-26699D01*
X33551Y-26766D01*
X33551Y-27159D01*
X33551Y-27384D01*
X33568Y-27467D01*
X33583Y-27490D01*
X33061Y-27490D01*
X33003Y-27514D01*
X32959Y-27558D01*
X32935Y-27616D01*
X32935Y-27678D01*
X32935Y-27810D01*
X32909Y-27800D01*
X32776Y-27800D01*
X32653Y-27850D01*
X32559Y-27945D01*
X32508Y-28067D01*
X32508Y-28201D01*
X32559Y-28324D01*
X32653Y-28418D01*
X32776Y-28469D01*
X32909Y-28469D01*
X32935Y-28458D01*
X32935Y-28663D01*
X32958Y-28720D01*
X33003Y-28765D01*
X33061Y-28789D01*
X33123Y-28789D01*
X33557Y-28789D01*
X32903Y-29443D01*
X32352Y-29443D01*
X32352Y-28093D01*
X32301Y-27970D01*
X32207Y-27876D01*
X32084Y-27825D01*
X31951Y-27825D01*
X31828Y-27875D01*
X31801Y-27903D01*
X31801Y-27616D01*
X31777Y-27558D01*
X31733Y-27514D01*
X31675Y-27490D01*
X31612Y-27490D01*
X31061Y-27490D01*
X31003Y-27514D01*
X30959Y-27558D01*
X30935Y-27616D01*
X30935Y-27678D01*
X30935Y-28663D01*
X30958Y-28720D01*
X31003Y-28765D01*
X31061Y-28789D01*
X31123Y-28789D01*
X31674Y-28789D01*
X31732Y-28765D01*
X31777Y-28721D01*
X31801Y-28663D01*
X31801Y-28600D01*
X31801Y-28416D01*
X31828Y-28443D01*
X31951Y-28494D01*
X32084Y-28494D01*
X32207Y-28443D01*
X32301Y-28349D01*
X32352Y-28226D01*
X32352Y-28093D01*
X32352Y-29443D01*
X32209Y-29443D01*
X32209Y-29373D01*
X32185Y-29315D01*
X32141Y-29271D01*
X32083Y-29247D01*
X32020Y-29247D01*
X31786Y-29247D01*
X31496Y-28956D01*
X31425Y-28909D01*
X31343Y-28893D01*
X30427Y-28893D01*
X29801Y-28266D01*
X29801Y-27616D01*
X29777Y-27558D01*
X29733Y-27514D01*
X29675Y-27490D01*
X29612Y-27490D01*
X29061Y-27490D01*
X29003Y-27514D01*
X28959Y-27558D01*
X28935Y-27616D01*
X28935Y-27678D01*
X28935Y-28663D01*
X28958Y-28720D01*
X29003Y-28765D01*
X29061Y-28789D01*
X29123Y-28789D01*
X29674Y-28789D01*
X29700Y-28778D01*
X30185Y-29262D01*
X30226Y-29290D01*
X30212Y-29304D01*
X30185Y-29369D01*
X30185Y-29439D01*
X30185Y-29576D01*
X30230Y-29620D01*
X30717Y-29620D01*
X30717Y-29612D01*
X30796Y-29612D01*
X30796Y-29620D01*
X30803Y-29620D01*
X30803Y-29699D01*
X30796Y-29699D01*
X30796Y-30047D01*
X30840Y-30092D01*
X31185Y-30092D01*
X31233Y-30072D01*
X31295Y-30072D01*
X32083Y-30072D01*
X32141Y-30048D01*
X32185Y-30004D01*
X32209Y-29946D01*
X32209Y-29883D01*
X32209Y-29876D01*
X32993Y-29876D01*
X33075Y-29859D01*
X33146Y-29812D01*
X33996Y-28962D01*
X34043Y-28892D01*
X34059Y-28809D01*
X34059Y-28024D01*
X34153Y-28118D01*
X34276Y-28169D01*
X34409Y-28169D01*
X34532Y-28118D01*
X34586Y-28064D01*
X34586Y-29227D01*
X34340Y-29227D01*
X34296Y-29271D01*
X34296Y-29620D01*
X34303Y-29620D01*
X34303Y-29699D01*
X34296Y-29699D01*
X34296Y-30047D01*
X34340Y-30092D01*
X34586Y-30092D01*
X34586Y-31529D01*
X34571Y-31506D01*
X34571Y-31506D01*
X34217Y-31152D01*
X34217Y-30047D01*
X34217Y-29699D01*
X34217Y-29620D01*
X34217Y-29271D01*
X34173Y-29227D01*
X33827Y-29227D01*
X33762Y-29254D01*
X33712Y-29304D01*
X33685Y-29369D01*
X33685Y-29439D01*
X33685Y-29576D01*
X33730Y-29620D01*
X34217Y-29620D01*
X34217Y-29699D01*
X33730Y-29699D01*
X33685Y-29743D01*
X33685Y-29879D01*
X33685Y-29950D01*
X33712Y-30015D01*
X33762Y-30065D01*
X33827Y-30092D01*
X34173Y-30092D01*
X34217Y-30047D01*
X34217Y-31152D01*
X33471Y-30406D01*
X33400Y-30359D01*
X33318Y-30343D01*
X33218Y-30343D01*
X31228Y-30343D01*
X31184Y-30325D01*
X31051Y-30325D01*
X30928Y-30375D01*
X30834Y-30470D01*
X30783Y-30592D01*
X30783Y-30726D01*
X30811Y-30793D01*
X30717Y-30793D01*
X30717Y-30047D01*
X30717Y-29699D01*
X30230Y-29699D01*
X30185Y-29743D01*
X30185Y-29879D01*
X30185Y-29950D01*
X30212Y-30015D01*
X30262Y-30065D01*
X30327Y-30092D01*
X30673Y-30092D01*
X30717Y-30047D01*
X30717Y-30793D01*
X30269Y-30793D01*
X30186Y-30809D01*
X30116Y-30856D01*
X29614Y-31358D01*
X29568Y-31428D01*
X29551Y-31511D01*
X29551Y-32303D01*
X29509Y-32345D01*
X29485Y-32403D01*
X29485Y-32466D01*
X29485Y-32916D01*
X29509Y-32973D01*
X29553Y-33018D01*
X29611Y-33042D01*
X29674Y-33042D01*
X29844Y-33042D01*
X29964Y-33162D01*
X29964Y-33162D01*
X30035Y-33209D01*
X30035Y-33209D01*
X30101Y-33223D01*
X30118Y-33226D01*
X30118Y-33226D01*
X30118Y-33226D01*
X30318Y-33226D01*
X31268Y-33226D01*
X31818Y-33226D01*
X31900Y-33209D01*
X31971Y-33162D01*
X32115Y-33018D01*
X32115Y-33076D01*
X32160Y-33120D01*
X32478Y-33120D01*
X32478Y-32901D01*
X32434Y-32857D01*
X32328Y-32857D01*
X32257Y-32857D01*
X32192Y-32884D01*
X32171Y-32905D01*
X32176Y-32881D01*
X32179Y-32864D01*
X32179Y-32864D01*
X32179Y-32864D01*
X32179Y-32794D01*
X32203Y-32818D01*
X32261Y-32842D01*
X32324Y-32842D01*
X32679Y-32842D01*
X32679Y-32857D01*
X32601Y-32857D01*
X32557Y-32901D01*
X32557Y-33120D01*
X32565Y-33120D01*
X32565Y-33199D01*
X32557Y-33199D01*
X32557Y-33417D01*
X32601Y-33462D01*
X32708Y-33462D01*
X32778Y-33461D01*
X32843Y-33434D01*
X32893Y-33385D01*
X32920Y-33319D01*
X32920Y-33243D01*
X32875Y-33199D01*
X32920Y-33199D01*
X32920Y-33193D01*
X33001Y-33210D01*
X33049Y-33210D01*
X33073Y-33220D01*
X33135Y-33220D01*
X33332Y-33220D01*
X33390Y-33196D01*
X33435Y-33151D01*
X33459Y-33094D01*
X33459Y-33031D01*
X33459Y-32893D01*
X33447Y-32865D01*
X33459Y-32838D01*
X33459Y-32775D01*
X33459Y-32637D01*
X33447Y-32609D01*
X33451Y-32599D01*
X33487Y-32635D01*
X33557Y-32681D01*
X33577Y-32685D01*
X33577Y-32700D01*
X33577Y-32837D01*
X33588Y-32865D01*
X33577Y-32893D01*
X33577Y-32955D01*
X33577Y-33093D01*
X33601Y-33151D01*
X33645Y-33196D01*
X33703Y-33220D01*
X33765Y-33220D01*
X33962Y-33220D01*
X34020Y-33196D01*
X34064Y-33151D01*
X34088Y-33094D01*
X34089Y-33033D01*
X34108Y-33033D01*
X34108Y-33006D01*
X34158Y-33056D01*
X34158Y-33151D01*
X34209Y-33274D01*
X34303Y-33368D01*
X34426Y-33419D01*
X34559Y-33419D01*
X34682Y-33368D01*
X34776Y-33274D01*
X34793Y-33233D01*
X35177Y-33616D01*
X35177Y-34493D01*
M02*
