G04 (created by PCBNEW (22-Jun-2014 BZR 4027)-stable) date sam. 02 janv. 2016 18:47:16 CET*
%MOIN*%
G04 Gerber Fmt 3.4, Leading zero omitted, Abs format*
%FSLAX34Y34*%
G01*
G70*
G90*
G04 APERTURE LIST*
%ADD10C,0.00590551*%
%ADD11R,0.055X0.055*%
%ADD12C,0.055*%
%ADD13R,0.0255906X0.011811*%
%ADD14R,0.0393701X0.0629921*%
%ADD15R,0.0787402X0.0472441*%
%ADD16R,0.051X0.0787402*%
%ADD17R,0.0787402X0.051*%
%ADD18R,0.055X0.035*%
%ADD19R,0.035X0.055*%
%ADD20R,0.11811X0.0393701*%
%ADD21R,0.0787402X0.0787402*%
%ADD22C,0.0787402*%
%ADD23R,0.283465X0.314961*%
%ADD24R,0.0590551X0.0590551*%
%ADD25C,0.11811*%
%ADD26R,0.0197X0.0906*%
%ADD27R,0.0787X0.0984*%
%ADD28R,0.02X0.03*%
%ADD29R,0.0335X0.0335*%
%ADD30C,0.0354331*%
%ADD31C,0.011811*%
%ADD32C,0.01*%
G04 APERTURE END LIST*
G54D10*
G54D11*
X53590Y-24409D03*
G54D12*
X52590Y-24409D03*
X51590Y-24409D03*
X50590Y-24409D03*
X49590Y-24409D03*
X48590Y-24409D03*
X47590Y-24409D03*
G54D13*
X49468Y-26948D03*
X48641Y-26968D03*
X48641Y-26692D03*
X49468Y-26692D03*
X49468Y-26437D03*
X48641Y-26437D03*
G54D14*
X49055Y-26692D03*
G54D15*
X47165Y-26988D03*
X47165Y-26003D03*
G54D16*
X44094Y-31377D03*
X44094Y-28779D03*
G54D17*
X29763Y-26299D03*
X32362Y-26299D03*
G54D18*
X32677Y-31042D03*
X32677Y-31792D03*
X48031Y-26674D03*
X48031Y-25924D03*
X49409Y-25886D03*
X49409Y-25136D03*
G54D19*
X46869Y-27677D03*
X47619Y-27677D03*
G54D18*
X33070Y-27105D03*
X33070Y-27855D03*
G54D19*
X48443Y-27480D03*
X49193Y-27480D03*
G54D20*
X34251Y-25511D03*
X34251Y-26299D03*
X34251Y-27086D03*
X34251Y-27874D03*
X34251Y-28661D03*
X34251Y-29448D03*
X34251Y-30236D03*
X34251Y-31023D03*
X40551Y-31023D03*
X40551Y-30236D03*
X40551Y-29448D03*
X40551Y-28661D03*
X40551Y-27874D03*
X40551Y-27086D03*
X40551Y-26299D03*
X40551Y-25511D03*
G54D21*
X50393Y-30539D03*
G54D22*
X50393Y-29539D03*
G54D23*
X30708Y-28661D03*
X52755Y-28661D03*
G54D10*
G36*
X50185Y-25621D02*
X50047Y-25621D01*
X50047Y-25424D01*
X50185Y-25424D01*
X50185Y-25621D01*
X50185Y-25621D01*
G37*
G36*
X50440Y-25621D02*
X50303Y-25621D01*
X50303Y-25424D01*
X50440Y-25424D01*
X50440Y-25621D01*
X50440Y-25621D01*
G37*
G36*
X50696Y-25621D02*
X50559Y-25621D01*
X50559Y-25424D01*
X50696Y-25424D01*
X50696Y-25621D01*
X50696Y-25621D01*
G37*
G36*
X50952Y-25621D02*
X50814Y-25621D01*
X50814Y-25424D01*
X50952Y-25424D01*
X50952Y-25621D01*
X50952Y-25621D01*
G37*
G36*
X50952Y-26418D02*
X50814Y-26418D01*
X50814Y-26221D01*
X50952Y-26221D01*
X50952Y-26418D01*
X50952Y-26418D01*
G37*
G36*
X50696Y-26418D02*
X50559Y-26418D01*
X50559Y-26221D01*
X50696Y-26221D01*
X50696Y-26418D01*
X50696Y-26418D01*
G37*
G36*
X50440Y-26418D02*
X50303Y-26418D01*
X50303Y-26221D01*
X50440Y-26221D01*
X50440Y-26418D01*
X50440Y-26418D01*
G37*
G36*
X50185Y-26418D02*
X50047Y-26418D01*
X50047Y-26221D01*
X50185Y-26221D01*
X50185Y-26418D01*
X50185Y-26418D01*
G37*
G54D24*
X50393Y-26968D03*
X50393Y-27677D03*
X50393Y-28385D03*
G54D18*
X53740Y-26280D03*
X53740Y-25530D03*
X52165Y-25530D03*
X52165Y-26280D03*
X52952Y-25530D03*
X52952Y-26280D03*
G54D25*
X31299Y-24606D03*
X31299Y-31299D03*
X52362Y-31299D03*
G54D26*
X46810Y-29271D03*
X47125Y-29271D03*
X47440Y-29271D03*
X47755Y-29271D03*
X48070Y-29271D03*
G54D27*
X45688Y-29310D03*
X45688Y-31475D03*
X49192Y-29310D03*
X49192Y-31475D03*
G54D16*
X42125Y-31377D03*
X42125Y-28779D03*
G54D18*
X32755Y-29664D03*
X32755Y-30414D03*
G54D28*
X45097Y-27980D03*
X45847Y-27980D03*
X45097Y-26980D03*
X45472Y-27980D03*
X45847Y-26980D03*
G54D11*
X41594Y-24409D03*
G54D12*
X42594Y-24409D03*
X43594Y-24409D03*
X44594Y-24409D03*
X45594Y-24409D03*
X46594Y-24409D03*
G54D19*
X42538Y-25314D03*
X43288Y-25314D03*
G54D29*
X50128Y-31692D03*
X51446Y-31692D03*
X41811Y-26800D03*
X41811Y-25482D03*
X48159Y-28267D03*
X49477Y-28267D03*
G54D30*
X35433Y-26299D03*
X51535Y-25511D03*
X41692Y-27755D03*
X50275Y-25039D03*
X44094Y-27322D03*
X51299Y-26062D03*
X35354Y-29448D03*
X36811Y-28661D03*
X35433Y-25511D03*
X48622Y-25787D03*
X48858Y-25078D03*
X35118Y-27086D03*
X46456Y-25866D03*
G54D31*
X45097Y-26980D02*
X45287Y-26980D01*
X45669Y-27362D02*
X46102Y-27362D01*
X45287Y-26980D02*
X45669Y-27362D01*
X45097Y-26980D02*
X44539Y-26980D01*
X44539Y-26980D02*
X44359Y-26800D01*
X41811Y-26800D02*
X44359Y-26800D01*
X46869Y-27677D02*
X46417Y-27677D01*
X46417Y-27677D02*
X46102Y-27362D01*
X35433Y-26299D02*
X34251Y-26299D01*
X52165Y-25530D02*
X51554Y-25530D01*
X51554Y-25530D02*
X51535Y-25511D01*
X52952Y-25530D02*
X53740Y-25530D01*
X52165Y-25530D02*
X52952Y-25530D01*
X41574Y-27874D02*
X40551Y-27874D01*
X41692Y-27755D02*
X41574Y-27874D01*
X50372Y-25522D02*
X50372Y-25135D01*
X50372Y-25135D02*
X50275Y-25039D01*
X44094Y-27322D02*
X44094Y-28779D01*
X40551Y-28661D02*
X41102Y-28661D01*
X43503Y-28188D02*
X44094Y-28779D01*
X41574Y-28188D02*
X43503Y-28188D01*
X41102Y-28661D02*
X41574Y-28188D01*
X45594Y-24409D02*
X45594Y-24413D01*
X47960Y-25039D02*
X48590Y-24409D01*
X46220Y-25039D02*
X47960Y-25039D01*
X45594Y-24413D02*
X46220Y-25039D01*
X45594Y-24409D02*
X45594Y-25153D01*
X41259Y-27086D02*
X40551Y-27086D01*
X41377Y-26968D02*
X41259Y-27086D01*
X41377Y-26574D02*
X41377Y-26968D01*
X41535Y-26417D02*
X41377Y-26574D01*
X44330Y-26417D02*
X41535Y-26417D01*
X45594Y-25153D02*
X44330Y-26417D01*
X51042Y-26319D02*
X50883Y-26319D01*
X51299Y-26062D02*
X51042Y-26319D01*
X35354Y-29448D02*
X34251Y-29448D01*
X41102Y-23897D02*
X41102Y-24803D01*
X39566Y-27362D02*
X36692Y-30236D01*
X39566Y-25393D02*
X39566Y-27362D01*
X39842Y-25118D02*
X39566Y-25393D01*
X40787Y-25118D02*
X39842Y-25118D01*
X41102Y-24803D02*
X40787Y-25118D01*
X34251Y-30236D02*
X36692Y-30236D01*
X50590Y-24212D02*
X50590Y-24409D01*
X50275Y-23897D02*
X50590Y-24212D01*
X41102Y-23897D02*
X50275Y-23897D01*
X50627Y-25522D02*
X50627Y-24446D01*
X50627Y-24446D02*
X50590Y-24409D01*
X40551Y-26299D02*
X41181Y-26299D01*
X44594Y-25326D02*
X44594Y-24409D01*
X43818Y-26102D02*
X44594Y-25326D01*
X41377Y-26102D02*
X43818Y-26102D01*
X41181Y-26299D02*
X41377Y-26102D01*
X36811Y-28661D02*
X34251Y-28661D01*
X50883Y-25522D02*
X50883Y-25139D01*
X51590Y-24433D02*
X51590Y-24409D01*
X50883Y-25139D02*
X51590Y-24433D01*
X43582Y-25826D02*
X41377Y-25826D01*
X41062Y-25511D02*
X40551Y-25511D01*
X41377Y-25826D02*
X41062Y-25511D01*
X43594Y-24409D02*
X43594Y-24814D01*
X43700Y-25708D02*
X43582Y-25826D01*
X43700Y-24921D02*
X43700Y-25708D01*
X43594Y-24814D02*
X43700Y-24921D01*
X32362Y-26299D02*
X33070Y-26299D01*
X32755Y-29664D02*
X32755Y-28779D01*
X32755Y-28779D02*
X32322Y-28346D01*
X35433Y-25511D02*
X34251Y-25511D01*
X32737Y-27105D02*
X33070Y-27105D01*
X32322Y-27519D02*
X32737Y-27105D01*
X32322Y-28346D02*
X32322Y-27519D01*
X33070Y-27105D02*
X33070Y-26299D01*
X33070Y-26299D02*
X33070Y-25905D01*
X33070Y-25905D02*
X33070Y-25511D01*
X33070Y-25511D02*
X34251Y-25511D01*
X48070Y-29271D02*
X48070Y-29881D01*
X48070Y-29881D02*
X47952Y-30000D01*
X48070Y-29271D02*
X48365Y-29271D01*
X48365Y-29271D02*
X48385Y-29251D01*
X49055Y-26692D02*
X49055Y-26220D01*
X49055Y-26220D02*
X48622Y-25787D01*
X48031Y-25924D02*
X48485Y-25924D01*
X48485Y-25924D02*
X48622Y-25787D01*
X49468Y-26437D02*
X49783Y-26437D01*
X50314Y-26968D02*
X50393Y-26968D01*
X49783Y-26437D02*
X50314Y-26968D01*
X49409Y-25136D02*
X48916Y-25136D01*
X48916Y-25136D02*
X48858Y-25078D01*
X50116Y-25522D02*
X49892Y-25522D01*
X49506Y-25136D02*
X49409Y-25136D01*
X49892Y-25522D02*
X49506Y-25136D01*
X49055Y-26692D02*
X49212Y-27461D01*
X49212Y-27461D02*
X49193Y-27480D01*
X49468Y-26437D02*
X49074Y-26437D01*
X49055Y-26456D02*
X49055Y-26692D01*
X49074Y-26437D02*
X49055Y-26456D01*
X50372Y-26319D02*
X50372Y-26946D01*
X50372Y-26946D02*
X50393Y-26968D01*
X50393Y-29539D02*
X50562Y-29539D01*
X50562Y-29539D02*
X50984Y-29960D01*
X50590Y-31692D02*
X50128Y-31692D01*
X50984Y-31299D02*
X50590Y-31692D01*
X50984Y-29960D02*
X50984Y-31299D01*
X49477Y-28267D02*
X49477Y-28493D01*
X50393Y-29251D02*
X50393Y-29539D01*
X49724Y-28582D02*
X50393Y-29251D01*
X49566Y-28582D02*
X49724Y-28582D01*
X49477Y-28493D02*
X49566Y-28582D01*
X40551Y-29448D02*
X41181Y-29448D01*
X41850Y-28779D02*
X42125Y-28779D01*
X41181Y-29448D02*
X41850Y-28779D01*
X49468Y-26692D02*
X49724Y-26692D01*
X49921Y-26889D02*
X49921Y-27519D01*
X49724Y-26692D02*
X49921Y-26889D01*
X49921Y-27519D02*
X50078Y-27677D01*
X50078Y-27677D02*
X50393Y-27677D01*
X50393Y-27677D02*
X50078Y-27677D01*
X50078Y-27677D02*
X49921Y-27519D01*
X48641Y-26437D02*
X48523Y-26437D01*
X48385Y-26299D02*
X47539Y-26299D01*
X48523Y-26437D02*
X48385Y-26299D01*
X47539Y-26299D02*
X47165Y-26003D01*
X51446Y-31692D02*
X51446Y-29970D01*
X51446Y-29970D02*
X52755Y-28661D01*
X49625Y-27913D02*
X49763Y-27913D01*
X49763Y-27913D02*
X49842Y-27992D01*
X49625Y-27185D02*
X49625Y-27913D01*
X49625Y-27913D02*
X49645Y-27913D01*
X49645Y-27913D02*
X48543Y-27913D01*
X48543Y-27913D02*
X48443Y-27813D01*
X48443Y-27813D02*
X48443Y-27480D01*
X49468Y-26948D02*
X49468Y-27027D01*
X49468Y-27027D02*
X49625Y-27185D01*
X48443Y-27480D02*
X48443Y-27028D01*
X48443Y-27028D02*
X48503Y-26968D01*
X48641Y-26968D02*
X48503Y-26968D01*
X47185Y-27007D02*
X47165Y-26988D01*
X48464Y-27007D02*
X47185Y-27007D01*
X48503Y-26968D02*
X48464Y-27007D01*
X50000Y-28385D02*
X50393Y-28385D01*
X49842Y-27992D02*
X49842Y-28228D01*
X49842Y-28228D02*
X50000Y-28385D01*
X53740Y-26280D02*
X53740Y-27677D01*
X53740Y-27677D02*
X52755Y-28661D01*
X50393Y-28385D02*
X52480Y-28385D01*
X52480Y-28385D02*
X52755Y-28661D01*
X48159Y-28267D02*
X47755Y-28267D01*
X47619Y-28130D02*
X47619Y-27677D01*
X47755Y-28267D02*
X47619Y-28130D01*
X45097Y-27980D02*
X45097Y-27776D01*
X45097Y-27776D02*
X45236Y-27637D01*
X45097Y-27980D02*
X45097Y-27855D01*
X45847Y-27776D02*
X45847Y-27980D01*
X45236Y-27637D02*
X45708Y-27637D01*
X45708Y-27637D02*
X45847Y-27776D01*
X46810Y-29271D02*
X46810Y-29094D01*
X45847Y-28130D02*
X45847Y-27980D01*
X46810Y-29094D02*
X45847Y-28130D01*
X33070Y-27855D02*
X34233Y-27855D01*
X34233Y-27855D02*
X34251Y-27874D01*
X34251Y-27086D02*
X34251Y-27322D01*
X33267Y-28818D02*
X33267Y-31023D01*
X32598Y-28149D02*
X33267Y-28818D01*
X32598Y-27598D02*
X32598Y-28149D01*
X32716Y-27480D02*
X32598Y-27598D01*
X34094Y-27480D02*
X32716Y-27480D01*
X34251Y-27322D02*
X34094Y-27480D01*
X46692Y-25393D02*
X48661Y-25393D01*
X48955Y-25433D02*
X49409Y-25886D01*
X48700Y-25433D02*
X48955Y-25433D01*
X48661Y-25393D02*
X48700Y-25433D01*
X35118Y-27086D02*
X34251Y-27086D01*
X41811Y-25482D02*
X41811Y-25078D01*
X41594Y-24862D02*
X41594Y-24409D01*
X41811Y-25078D02*
X41594Y-24862D01*
X42538Y-25314D02*
X42283Y-25314D01*
X42115Y-25482D02*
X41811Y-25482D01*
X42283Y-25314D02*
X42115Y-25482D01*
X46692Y-25393D02*
X46456Y-25629D01*
X46456Y-25629D02*
X46456Y-25866D01*
X47894Y-26674D02*
X48031Y-26674D01*
X46456Y-25866D02*
X46456Y-26338D01*
X46456Y-26338D02*
X46653Y-26535D01*
X46653Y-26535D02*
X47755Y-26535D01*
X47755Y-26535D02*
X47894Y-26674D01*
X49409Y-25886D02*
X51002Y-25886D01*
X51417Y-25000D02*
X53000Y-25000D01*
X51141Y-25275D02*
X51417Y-25000D01*
X51141Y-25748D02*
X51141Y-25275D01*
X51002Y-25886D02*
X51141Y-25748D01*
X50116Y-26319D02*
X50116Y-25886D01*
X50118Y-25905D02*
X50118Y-25886D01*
X50118Y-25888D02*
X50118Y-25905D01*
X50116Y-25886D02*
X50118Y-25888D01*
X50627Y-26319D02*
X50627Y-25886D01*
X50629Y-25905D02*
X50629Y-25886D01*
X50629Y-25888D02*
X50629Y-25905D01*
X50627Y-25886D02*
X50629Y-25888D01*
X49409Y-25886D02*
X50118Y-25886D01*
X50118Y-25886D02*
X50629Y-25886D01*
X53000Y-25000D02*
X53590Y-24409D01*
X34251Y-31023D02*
X33267Y-31023D01*
X33267Y-31023D02*
X32695Y-31023D01*
X32695Y-31023D02*
X32677Y-31042D01*
X48641Y-26692D02*
X48050Y-26692D01*
X48050Y-26692D02*
X48031Y-26674D01*
G54D10*
G36*
X43378Y-24871D02*
X43339Y-24871D01*
X43297Y-24913D01*
X43297Y-25305D01*
X43305Y-25305D01*
X43305Y-25324D01*
X43297Y-25324D01*
X43297Y-25331D01*
X43279Y-25331D01*
X43279Y-25324D01*
X43279Y-25305D01*
X43279Y-24913D01*
X43237Y-24871D01*
X43080Y-24871D01*
X43039Y-24888D01*
X43018Y-24897D01*
X42970Y-24944D01*
X42945Y-25006D01*
X42945Y-25073D01*
X42945Y-25263D01*
X42987Y-25305D01*
X43279Y-25305D01*
X43279Y-25324D01*
X42987Y-25324D01*
X42945Y-25366D01*
X42945Y-25556D01*
X42945Y-25599D01*
X42881Y-25599D01*
X42881Y-25556D01*
X42881Y-25006D01*
X42877Y-24997D01*
X42877Y-24705D01*
X42594Y-24422D01*
X42581Y-24435D01*
X42311Y-24705D01*
X42336Y-24780D01*
X42497Y-24850D01*
X42674Y-24854D01*
X42838Y-24789D01*
X42852Y-24780D01*
X42877Y-24705D01*
X42877Y-24997D01*
X42855Y-24944D01*
X42808Y-24897D01*
X42746Y-24871D01*
X42680Y-24871D01*
X42330Y-24871D01*
X42268Y-24897D01*
X42220Y-24944D01*
X42195Y-25006D01*
X42195Y-25073D01*
X42195Y-25105D01*
X42122Y-25154D01*
X42122Y-25154D01*
X42089Y-25188D01*
X42073Y-25172D01*
X42038Y-25157D01*
X42038Y-25078D01*
X42020Y-24991D01*
X42020Y-24991D01*
X42001Y-24962D01*
X41971Y-24918D01*
X41971Y-24918D01*
X41905Y-24851D01*
X41964Y-24827D01*
X42011Y-24779D01*
X42037Y-24718D01*
X42037Y-24651D01*
X42037Y-24124D01*
X42297Y-24124D01*
X42298Y-24126D01*
X42223Y-24151D01*
X42153Y-24312D01*
X42149Y-24489D01*
X42214Y-24653D01*
X42223Y-24667D01*
X42298Y-24692D01*
X42581Y-24409D01*
X42576Y-24403D01*
X42588Y-24391D01*
X42594Y-24396D01*
X42600Y-24391D01*
X42612Y-24403D01*
X42607Y-24409D01*
X42890Y-24692D01*
X42965Y-24667D01*
X43035Y-24506D01*
X43039Y-24329D01*
X42974Y-24165D01*
X42965Y-24151D01*
X42890Y-24126D01*
X42891Y-24124D01*
X43252Y-24124D01*
X43219Y-24158D01*
X43151Y-24320D01*
X43151Y-24497D01*
X43218Y-24660D01*
X43343Y-24784D01*
X43367Y-24794D01*
X43367Y-24814D01*
X43367Y-24814D01*
X43378Y-24871D01*
X43378Y-24871D01*
G37*
G54D32*
X43378Y-24871D02*
X43339Y-24871D01*
X43297Y-24913D01*
X43297Y-25305D01*
X43305Y-25305D01*
X43305Y-25324D01*
X43297Y-25324D01*
X43297Y-25331D01*
X43279Y-25331D01*
X43279Y-25324D01*
X43279Y-25305D01*
X43279Y-24913D01*
X43237Y-24871D01*
X43080Y-24871D01*
X43039Y-24888D01*
X43018Y-24897D01*
X42970Y-24944D01*
X42945Y-25006D01*
X42945Y-25073D01*
X42945Y-25263D01*
X42987Y-25305D01*
X43279Y-25305D01*
X43279Y-25324D01*
X42987Y-25324D01*
X42945Y-25366D01*
X42945Y-25556D01*
X42945Y-25599D01*
X42881Y-25599D01*
X42881Y-25556D01*
X42881Y-25006D01*
X42877Y-24997D01*
X42877Y-24705D01*
X42594Y-24422D01*
X42581Y-24435D01*
X42311Y-24705D01*
X42336Y-24780D01*
X42497Y-24850D01*
X42674Y-24854D01*
X42838Y-24789D01*
X42852Y-24780D01*
X42877Y-24705D01*
X42877Y-24997D01*
X42855Y-24944D01*
X42808Y-24897D01*
X42746Y-24871D01*
X42680Y-24871D01*
X42330Y-24871D01*
X42268Y-24897D01*
X42220Y-24944D01*
X42195Y-25006D01*
X42195Y-25073D01*
X42195Y-25105D01*
X42122Y-25154D01*
X42122Y-25154D01*
X42089Y-25188D01*
X42073Y-25172D01*
X42038Y-25157D01*
X42038Y-25078D01*
X42020Y-24991D01*
X42020Y-24991D01*
X42001Y-24962D01*
X41971Y-24918D01*
X41971Y-24918D01*
X41905Y-24851D01*
X41964Y-24827D01*
X42011Y-24779D01*
X42037Y-24718D01*
X42037Y-24651D01*
X42037Y-24124D01*
X42297Y-24124D01*
X42298Y-24126D01*
X42223Y-24151D01*
X42153Y-24312D01*
X42149Y-24489D01*
X42214Y-24653D01*
X42223Y-24667D01*
X42298Y-24692D01*
X42581Y-24409D01*
X42576Y-24403D01*
X42588Y-24391D01*
X42594Y-24396D01*
X42600Y-24391D01*
X42612Y-24403D01*
X42607Y-24409D01*
X42890Y-24692D01*
X42965Y-24667D01*
X43035Y-24506D01*
X43039Y-24329D01*
X42974Y-24165D01*
X42965Y-24151D01*
X42890Y-24126D01*
X42891Y-24124D01*
X43252Y-24124D01*
X43219Y-24158D01*
X43151Y-24320D01*
X43151Y-24497D01*
X43218Y-24660D01*
X43343Y-24784D01*
X43367Y-24794D01*
X43367Y-24814D01*
X43367Y-24814D01*
X43378Y-24871D01*
G54D10*
G36*
X49052Y-26209D02*
X49046Y-26209D01*
X49046Y-26251D01*
X49004Y-26209D01*
X48891Y-26209D01*
X48824Y-26209D01*
X48813Y-26214D01*
X48803Y-26209D01*
X48736Y-26209D01*
X48617Y-26209D01*
X48546Y-26138D01*
X48474Y-26090D01*
X48474Y-25975D01*
X48432Y-25933D01*
X48040Y-25933D01*
X48040Y-25941D01*
X48022Y-25941D01*
X48022Y-25933D01*
X48014Y-25933D01*
X48014Y-25915D01*
X48022Y-25915D01*
X48022Y-25907D01*
X48040Y-25907D01*
X48040Y-25915D01*
X48432Y-25915D01*
X48474Y-25873D01*
X48474Y-25715D01*
X48449Y-25654D01*
X48415Y-25620D01*
X48580Y-25620D01*
X48580Y-25620D01*
X48613Y-25642D01*
X48700Y-25660D01*
X48861Y-25660D01*
X48966Y-25764D01*
X48966Y-26095D01*
X48991Y-26156D01*
X49039Y-26204D01*
X49052Y-26209D01*
X49052Y-26209D01*
G37*
G54D32*
X49052Y-26209D02*
X49046Y-26209D01*
X49046Y-26251D01*
X49004Y-26209D01*
X48891Y-26209D01*
X48824Y-26209D01*
X48813Y-26214D01*
X48803Y-26209D01*
X48736Y-26209D01*
X48617Y-26209D01*
X48546Y-26138D01*
X48474Y-26090D01*
X48474Y-25975D01*
X48432Y-25933D01*
X48040Y-25933D01*
X48040Y-25941D01*
X48022Y-25941D01*
X48022Y-25933D01*
X48014Y-25933D01*
X48014Y-25915D01*
X48022Y-25915D01*
X48022Y-25907D01*
X48040Y-25907D01*
X48040Y-25915D01*
X48432Y-25915D01*
X48474Y-25873D01*
X48474Y-25715D01*
X48449Y-25654D01*
X48415Y-25620D01*
X48580Y-25620D01*
X48580Y-25620D01*
X48613Y-25642D01*
X48700Y-25660D01*
X48861Y-25660D01*
X48966Y-25764D01*
X48966Y-26095D01*
X48991Y-26156D01*
X49039Y-26204D01*
X49052Y-26209D01*
G54D10*
G36*
X49072Y-26701D02*
X49064Y-26701D01*
X49064Y-26709D01*
X49046Y-26709D01*
X49046Y-26701D01*
X49038Y-26701D01*
X49038Y-26683D01*
X49046Y-26683D01*
X49046Y-26675D01*
X49064Y-26675D01*
X49064Y-26683D01*
X49072Y-26683D01*
X49072Y-26701D01*
X49072Y-26701D01*
G37*
G54D32*
X49072Y-26701D02*
X49064Y-26701D01*
X49064Y-26709D01*
X49046Y-26709D01*
X49046Y-26701D01*
X49038Y-26701D01*
X49038Y-26683D01*
X49046Y-26683D01*
X49046Y-26675D01*
X49064Y-26675D01*
X49064Y-26683D01*
X49072Y-26683D01*
X49072Y-26701D01*
G54D10*
G36*
X49210Y-27489D02*
X49202Y-27489D01*
X49202Y-27497D01*
X49184Y-27497D01*
X49184Y-27489D01*
X48892Y-27489D01*
X48850Y-27531D01*
X48850Y-27686D01*
X48787Y-27686D01*
X48787Y-27195D01*
X48802Y-27195D01*
X48850Y-27175D01*
X48850Y-27175D01*
X48850Y-27238D01*
X48850Y-27429D01*
X48892Y-27471D01*
X49184Y-27471D01*
X49184Y-27463D01*
X49202Y-27463D01*
X49202Y-27471D01*
X49210Y-27471D01*
X49210Y-27489D01*
X49210Y-27489D01*
G37*
G54D32*
X49210Y-27489D02*
X49202Y-27489D01*
X49202Y-27497D01*
X49184Y-27497D01*
X49184Y-27489D01*
X48892Y-27489D01*
X48850Y-27531D01*
X48850Y-27686D01*
X48787Y-27686D01*
X48787Y-27195D01*
X48802Y-27195D01*
X48850Y-27175D01*
X48850Y-27175D01*
X48850Y-27238D01*
X48850Y-27429D01*
X48892Y-27471D01*
X49184Y-27471D01*
X49184Y-27463D01*
X49202Y-27463D01*
X49202Y-27471D01*
X49210Y-27471D01*
X49210Y-27489D01*
G54D10*
G36*
X49966Y-26566D02*
X49955Y-26578D01*
X49948Y-26595D01*
X49885Y-26532D01*
X49811Y-26483D01*
X49746Y-26470D01*
X49746Y-26470D01*
X49722Y-26446D01*
X49477Y-26446D01*
X49477Y-26453D01*
X49459Y-26453D01*
X49459Y-26446D01*
X49451Y-26446D01*
X49451Y-26427D01*
X49459Y-26427D01*
X49459Y-26420D01*
X49477Y-26420D01*
X49477Y-26427D01*
X49722Y-26427D01*
X49764Y-26385D01*
X49764Y-26344D01*
X49739Y-26282D01*
X49691Y-26235D01*
X49678Y-26229D01*
X49717Y-26229D01*
X49779Y-26204D01*
X49826Y-26157D01*
X49844Y-26113D01*
X49888Y-26113D01*
X49888Y-26164D01*
X49879Y-26187D01*
X49879Y-26254D01*
X49879Y-26451D01*
X49904Y-26513D01*
X49951Y-26560D01*
X49966Y-26566D01*
X49966Y-26566D01*
G37*
G54D32*
X49966Y-26566D02*
X49955Y-26578D01*
X49948Y-26595D01*
X49885Y-26532D01*
X49811Y-26483D01*
X49746Y-26470D01*
X49746Y-26470D01*
X49722Y-26446D01*
X49477Y-26446D01*
X49477Y-26453D01*
X49459Y-26453D01*
X49459Y-26446D01*
X49451Y-26446D01*
X49451Y-26427D01*
X49459Y-26427D01*
X49459Y-26420D01*
X49477Y-26420D01*
X49477Y-26427D01*
X49722Y-26427D01*
X49764Y-26385D01*
X49764Y-26344D01*
X49739Y-26282D01*
X49691Y-26235D01*
X49678Y-26229D01*
X49717Y-26229D01*
X49779Y-26204D01*
X49826Y-26157D01*
X49844Y-26113D01*
X49888Y-26113D01*
X49888Y-26164D01*
X49879Y-26187D01*
X49879Y-26254D01*
X49879Y-26451D01*
X49904Y-26513D01*
X49951Y-26560D01*
X49966Y-26566D01*
G54D10*
G36*
X50248Y-24694D02*
X50207Y-24694D01*
X50080Y-24746D01*
X49983Y-24843D01*
X49930Y-24970D01*
X49930Y-25107D01*
X49982Y-25234D01*
X50006Y-25258D01*
X49952Y-25281D01*
X49904Y-25328D01*
X49879Y-25390D01*
X49879Y-25457D01*
X49879Y-25654D01*
X49881Y-25659D01*
X49852Y-25659D01*
X49852Y-25345D01*
X49852Y-25187D01*
X49810Y-25145D01*
X49418Y-25145D01*
X49418Y-25437D01*
X49460Y-25479D01*
X49651Y-25479D01*
X49718Y-25479D01*
X49779Y-25454D01*
X49827Y-25406D01*
X49852Y-25345D01*
X49852Y-25659D01*
X49844Y-25659D01*
X49827Y-25616D01*
X49779Y-25569D01*
X49718Y-25543D01*
X49651Y-25543D01*
X49387Y-25543D01*
X49323Y-25479D01*
X49358Y-25479D01*
X49400Y-25437D01*
X49400Y-25145D01*
X49008Y-25145D01*
X48966Y-25187D01*
X48966Y-25208D01*
X48955Y-25205D01*
X48955Y-25205D01*
X48781Y-25205D01*
X48748Y-25183D01*
X48661Y-25166D01*
X48661Y-25166D01*
X48154Y-25166D01*
X48478Y-24842D01*
X48502Y-24852D01*
X48678Y-24852D01*
X48841Y-24785D01*
X48965Y-24660D01*
X49033Y-24497D01*
X49033Y-24321D01*
X48966Y-24158D01*
X48932Y-24124D01*
X49248Y-24124D01*
X49215Y-24158D01*
X49147Y-24320D01*
X49147Y-24497D01*
X49214Y-24660D01*
X49339Y-24784D01*
X49400Y-24810D01*
X49400Y-24835D01*
X49358Y-24793D01*
X49167Y-24793D01*
X49100Y-24793D01*
X49039Y-24819D01*
X48991Y-24866D01*
X48966Y-24928D01*
X48966Y-25085D01*
X49008Y-25127D01*
X49400Y-25127D01*
X49400Y-25119D01*
X49418Y-25119D01*
X49418Y-25127D01*
X49810Y-25127D01*
X49852Y-25085D01*
X49852Y-24928D01*
X49827Y-24866D01*
X49779Y-24819D01*
X49769Y-24815D01*
X49841Y-24785D01*
X49965Y-24660D01*
X50033Y-24497D01*
X50033Y-24321D01*
X49966Y-24158D01*
X49932Y-24124D01*
X50181Y-24124D01*
X50215Y-24158D01*
X50147Y-24320D01*
X50147Y-24497D01*
X50214Y-24660D01*
X50248Y-24694D01*
X50248Y-24694D01*
G37*
G54D32*
X50248Y-24694D02*
X50207Y-24694D01*
X50080Y-24746D01*
X49983Y-24843D01*
X49930Y-24970D01*
X49930Y-25107D01*
X49982Y-25234D01*
X50006Y-25258D01*
X49952Y-25281D01*
X49904Y-25328D01*
X49879Y-25390D01*
X49879Y-25457D01*
X49879Y-25654D01*
X49881Y-25659D01*
X49852Y-25659D01*
X49852Y-25345D01*
X49852Y-25187D01*
X49810Y-25145D01*
X49418Y-25145D01*
X49418Y-25437D01*
X49460Y-25479D01*
X49651Y-25479D01*
X49718Y-25479D01*
X49779Y-25454D01*
X49827Y-25406D01*
X49852Y-25345D01*
X49852Y-25659D01*
X49844Y-25659D01*
X49827Y-25616D01*
X49779Y-25569D01*
X49718Y-25543D01*
X49651Y-25543D01*
X49387Y-25543D01*
X49323Y-25479D01*
X49358Y-25479D01*
X49400Y-25437D01*
X49400Y-25145D01*
X49008Y-25145D01*
X48966Y-25187D01*
X48966Y-25208D01*
X48955Y-25205D01*
X48955Y-25205D01*
X48781Y-25205D01*
X48748Y-25183D01*
X48661Y-25166D01*
X48661Y-25166D01*
X48154Y-25166D01*
X48478Y-24842D01*
X48502Y-24852D01*
X48678Y-24852D01*
X48841Y-24785D01*
X48965Y-24660D01*
X49033Y-24497D01*
X49033Y-24321D01*
X48966Y-24158D01*
X48932Y-24124D01*
X49248Y-24124D01*
X49215Y-24158D01*
X49147Y-24320D01*
X49147Y-24497D01*
X49214Y-24660D01*
X49339Y-24784D01*
X49400Y-24810D01*
X49400Y-24835D01*
X49358Y-24793D01*
X49167Y-24793D01*
X49100Y-24793D01*
X49039Y-24819D01*
X48991Y-24866D01*
X48966Y-24928D01*
X48966Y-25085D01*
X49008Y-25127D01*
X49400Y-25127D01*
X49400Y-25119D01*
X49418Y-25119D01*
X49418Y-25127D01*
X49810Y-25127D01*
X49852Y-25085D01*
X49852Y-24928D01*
X49827Y-24866D01*
X49779Y-24819D01*
X49769Y-24815D01*
X49841Y-24785D01*
X49965Y-24660D01*
X50033Y-24497D01*
X50033Y-24321D01*
X49966Y-24158D01*
X49932Y-24124D01*
X50181Y-24124D01*
X50215Y-24158D01*
X50147Y-24320D01*
X50147Y-24497D01*
X50214Y-24660D01*
X50248Y-24694D01*
G54D10*
G36*
X50757Y-31205D02*
X50496Y-31465D01*
X50453Y-31465D01*
X50438Y-31430D01*
X50391Y-31382D01*
X50384Y-31380D01*
X50384Y-31059D01*
X50384Y-30548D01*
X49873Y-30548D01*
X49831Y-30590D01*
X49831Y-30966D01*
X49857Y-31028D01*
X49904Y-31075D01*
X49966Y-31101D01*
X50033Y-31101D01*
X50342Y-31101D01*
X50384Y-31059D01*
X50384Y-31380D01*
X50329Y-31357D01*
X50262Y-31357D01*
X49927Y-31357D01*
X49865Y-31382D01*
X49818Y-31430D01*
X49792Y-31491D01*
X49792Y-31558D01*
X49792Y-31893D01*
X49818Y-31955D01*
X49865Y-32002D01*
X49899Y-32016D01*
X49748Y-32016D01*
X49754Y-32001D01*
X49754Y-31934D01*
X49754Y-30950D01*
X49729Y-30888D01*
X49681Y-30841D01*
X49620Y-30815D01*
X49553Y-30815D01*
X48766Y-30815D01*
X48704Y-30841D01*
X48657Y-30888D01*
X48652Y-30900D01*
X48652Y-30226D01*
X48599Y-30099D01*
X48502Y-30002D01*
X48375Y-29949D01*
X48337Y-29949D01*
X48337Y-29758D01*
X48337Y-28785D01*
X48312Y-28723D01*
X48264Y-28676D01*
X48203Y-28650D01*
X48136Y-28650D01*
X48122Y-28650D01*
X48080Y-28692D01*
X48080Y-29262D01*
X48295Y-29262D01*
X48337Y-29220D01*
X48337Y-28785D01*
X48337Y-29758D01*
X48337Y-29323D01*
X48295Y-29280D01*
X48080Y-29280D01*
X48080Y-29851D01*
X48122Y-29893D01*
X48136Y-29893D01*
X48203Y-29893D01*
X48264Y-29867D01*
X48312Y-29820D01*
X48337Y-29758D01*
X48337Y-29949D01*
X48238Y-29949D01*
X48111Y-30002D01*
X48014Y-30099D01*
X47961Y-30225D01*
X47961Y-30363D01*
X48014Y-30490D01*
X48111Y-30587D01*
X48237Y-30639D01*
X48375Y-30640D01*
X48502Y-30587D01*
X48599Y-30490D01*
X48651Y-30363D01*
X48652Y-30226D01*
X48652Y-30900D01*
X48631Y-30950D01*
X48631Y-31017D01*
X48631Y-32001D01*
X48637Y-32016D01*
X46920Y-32016D01*
X46920Y-30226D01*
X46867Y-30099D01*
X46770Y-30002D01*
X46643Y-29949D01*
X46506Y-29949D01*
X46379Y-30002D01*
X46282Y-30099D01*
X46250Y-30176D01*
X46250Y-29836D01*
X46250Y-29362D01*
X46208Y-29319D01*
X45698Y-29319D01*
X45698Y-29929D01*
X45740Y-29971D01*
X46049Y-29971D01*
X46116Y-29971D01*
X46177Y-29945D01*
X46225Y-29898D01*
X46250Y-29836D01*
X46250Y-30176D01*
X46229Y-30225D01*
X46229Y-30363D01*
X46282Y-30490D01*
X46379Y-30587D01*
X46505Y-30639D01*
X46643Y-30640D01*
X46770Y-30587D01*
X46867Y-30490D01*
X46919Y-30363D01*
X46920Y-30226D01*
X46920Y-32016D01*
X46244Y-32016D01*
X46250Y-32001D01*
X46250Y-31934D01*
X46250Y-30950D01*
X46225Y-30888D01*
X46177Y-30841D01*
X46116Y-30815D01*
X46049Y-30815D01*
X45679Y-30815D01*
X45679Y-29929D01*
X45679Y-29319D01*
X45679Y-29301D01*
X45679Y-28692D01*
X45637Y-28650D01*
X45328Y-28650D01*
X45261Y-28650D01*
X45200Y-28676D01*
X45152Y-28723D01*
X45127Y-28785D01*
X45127Y-29259D01*
X45169Y-29301D01*
X45679Y-29301D01*
X45679Y-29319D01*
X45169Y-29319D01*
X45127Y-29362D01*
X45127Y-29836D01*
X45152Y-29898D01*
X45200Y-29945D01*
X45261Y-29971D01*
X45328Y-29971D01*
X45637Y-29971D01*
X45679Y-29929D01*
X45679Y-30815D01*
X45262Y-30815D01*
X45200Y-30841D01*
X45153Y-30888D01*
X45127Y-30950D01*
X45127Y-31017D01*
X45127Y-32001D01*
X45133Y-32016D01*
X44517Y-32016D01*
X44517Y-31804D01*
X44517Y-30950D01*
X44492Y-30889D01*
X44444Y-30841D01*
X44383Y-30816D01*
X44316Y-30816D01*
X44145Y-30816D01*
X44103Y-30858D01*
X44103Y-31368D01*
X44475Y-31368D01*
X44517Y-31326D01*
X44517Y-30950D01*
X44517Y-31804D01*
X44517Y-31429D01*
X44475Y-31387D01*
X44103Y-31387D01*
X44103Y-31897D01*
X44145Y-31939D01*
X44316Y-31939D01*
X44383Y-31939D01*
X44444Y-31914D01*
X44492Y-31866D01*
X44517Y-31804D01*
X44517Y-32016D01*
X44085Y-32016D01*
X44085Y-31897D01*
X44085Y-31387D01*
X44085Y-31368D01*
X44085Y-30858D01*
X44043Y-30816D01*
X43872Y-30816D01*
X43805Y-30816D01*
X43744Y-30841D01*
X43696Y-30889D01*
X43671Y-30950D01*
X43671Y-31326D01*
X43713Y-31368D01*
X44085Y-31368D01*
X44085Y-31387D01*
X43713Y-31387D01*
X43671Y-31429D01*
X43671Y-31804D01*
X43696Y-31866D01*
X43744Y-31914D01*
X43805Y-31939D01*
X43872Y-31939D01*
X44043Y-31939D01*
X44085Y-31897D01*
X44085Y-32016D01*
X42549Y-32016D01*
X42549Y-31804D01*
X42549Y-30950D01*
X42523Y-30889D01*
X42476Y-30841D01*
X42414Y-30816D01*
X42347Y-30816D01*
X42177Y-30816D01*
X42135Y-30858D01*
X42135Y-31368D01*
X42507Y-31368D01*
X42549Y-31326D01*
X42549Y-30950D01*
X42549Y-31804D01*
X42549Y-31429D01*
X42507Y-31387D01*
X42135Y-31387D01*
X42135Y-31897D01*
X42177Y-31939D01*
X42347Y-31939D01*
X42414Y-31939D01*
X42476Y-31914D01*
X42523Y-31866D01*
X42549Y-31804D01*
X42549Y-32016D01*
X42116Y-32016D01*
X42116Y-31897D01*
X42116Y-31387D01*
X42116Y-31368D01*
X42116Y-30858D01*
X42074Y-30816D01*
X41904Y-30816D01*
X41837Y-30816D01*
X41775Y-30841D01*
X41728Y-30889D01*
X41702Y-30950D01*
X41702Y-31326D01*
X41744Y-31368D01*
X42116Y-31368D01*
X42116Y-31387D01*
X41744Y-31387D01*
X41702Y-31429D01*
X41702Y-31804D01*
X41728Y-31866D01*
X41775Y-31914D01*
X41837Y-31939D01*
X41904Y-31939D01*
X42074Y-31939D01*
X42116Y-31897D01*
X42116Y-32016D01*
X41309Y-32016D01*
X41309Y-31187D01*
X41309Y-30860D01*
X41309Y-30399D01*
X41309Y-30072D01*
X41309Y-30005D01*
X41284Y-29944D01*
X41236Y-29896D01*
X41175Y-29871D01*
X40602Y-29871D01*
X40560Y-29913D01*
X40560Y-30227D01*
X41267Y-30227D01*
X41309Y-30185D01*
X41309Y-30072D01*
X41309Y-30399D01*
X41309Y-30287D01*
X41267Y-30245D01*
X40560Y-30245D01*
X40560Y-30559D01*
X40602Y-30601D01*
X41175Y-30601D01*
X41236Y-30575D01*
X41284Y-30528D01*
X41309Y-30466D01*
X41309Y-30399D01*
X41309Y-30860D01*
X41309Y-30793D01*
X41284Y-30731D01*
X41236Y-30684D01*
X41175Y-30658D01*
X40602Y-30658D01*
X40560Y-30700D01*
X40560Y-31014D01*
X41267Y-31014D01*
X41309Y-30972D01*
X41309Y-30860D01*
X41309Y-31187D01*
X41309Y-31074D01*
X41267Y-31032D01*
X40560Y-31032D01*
X40560Y-31346D01*
X40602Y-31388D01*
X41175Y-31388D01*
X41236Y-31363D01*
X41284Y-31315D01*
X41309Y-31254D01*
X41309Y-31187D01*
X41309Y-32016D01*
X40542Y-32016D01*
X40542Y-31346D01*
X40542Y-31032D01*
X40542Y-31014D01*
X40542Y-30700D01*
X40542Y-30559D01*
X40542Y-30245D01*
X40542Y-30227D01*
X40542Y-29913D01*
X40500Y-29871D01*
X39927Y-29871D01*
X39865Y-29896D01*
X39818Y-29944D01*
X39792Y-30005D01*
X39792Y-30072D01*
X39792Y-30185D01*
X39834Y-30227D01*
X40542Y-30227D01*
X40542Y-30245D01*
X39834Y-30245D01*
X39792Y-30287D01*
X39792Y-30399D01*
X39792Y-30466D01*
X39818Y-30528D01*
X39865Y-30575D01*
X39927Y-30601D01*
X40500Y-30601D01*
X40542Y-30559D01*
X40542Y-30700D01*
X40500Y-30658D01*
X39927Y-30658D01*
X39865Y-30684D01*
X39818Y-30731D01*
X39792Y-30793D01*
X39792Y-30860D01*
X39792Y-30972D01*
X39834Y-31014D01*
X40542Y-31014D01*
X40542Y-31032D01*
X39834Y-31032D01*
X39792Y-31074D01*
X39792Y-31187D01*
X39792Y-31254D01*
X39818Y-31315D01*
X39865Y-31363D01*
X39927Y-31388D01*
X40500Y-31388D01*
X40542Y-31346D01*
X40542Y-32016D01*
X33113Y-32016D01*
X33120Y-32000D01*
X33120Y-31584D01*
X33094Y-31522D01*
X33047Y-31474D01*
X32985Y-31449D01*
X32918Y-31449D01*
X32728Y-31449D01*
X32686Y-31491D01*
X32686Y-31783D01*
X33078Y-31783D01*
X33120Y-31741D01*
X33120Y-31584D01*
X33120Y-32000D01*
X33120Y-31843D01*
X33078Y-31801D01*
X32686Y-31801D01*
X32686Y-31809D01*
X32668Y-31809D01*
X32668Y-31801D01*
X32668Y-31783D01*
X32668Y-31491D01*
X32626Y-31449D01*
X32435Y-31449D01*
X32368Y-31449D01*
X32306Y-31474D01*
X32259Y-31522D01*
X32234Y-31584D01*
X32234Y-31741D01*
X32276Y-31783D01*
X32668Y-31783D01*
X32668Y-31801D01*
X32276Y-31801D01*
X32234Y-31843D01*
X32234Y-32000D01*
X32240Y-32016D01*
X32061Y-32016D01*
X32061Y-31169D01*
X31953Y-30887D01*
X31930Y-30851D01*
X31822Y-30788D01*
X31810Y-30801D01*
X31810Y-30775D01*
X31746Y-30668D01*
X31470Y-30544D01*
X31169Y-30536D01*
X30887Y-30644D01*
X30851Y-30668D01*
X30788Y-30775D01*
X31299Y-31286D01*
X31810Y-30775D01*
X31810Y-30801D01*
X31312Y-31299D01*
X31822Y-31810D01*
X31930Y-31746D01*
X32053Y-31470D01*
X32061Y-31169D01*
X32061Y-32016D01*
X31546Y-32016D01*
X31711Y-31953D01*
X31746Y-31930D01*
X31810Y-31822D01*
X31299Y-31312D01*
X31286Y-31324D01*
X31286Y-31299D01*
X30775Y-30788D01*
X30668Y-30851D01*
X30544Y-31127D01*
X30536Y-31429D01*
X30644Y-31711D01*
X30668Y-31746D01*
X30775Y-31810D01*
X31286Y-31299D01*
X31286Y-31324D01*
X30788Y-31822D01*
X30851Y-31930D01*
X31045Y-32016D01*
X29408Y-32016D01*
X29321Y-31930D01*
X29321Y-30404D01*
X30657Y-30404D01*
X30699Y-30362D01*
X30699Y-28670D01*
X30691Y-28670D01*
X30691Y-28652D01*
X30699Y-28652D01*
X30699Y-26960D01*
X30657Y-26918D01*
X30325Y-26918D01*
X30325Y-26520D01*
X30325Y-26077D01*
X30325Y-26010D01*
X30299Y-25948D01*
X30252Y-25901D01*
X30190Y-25876D01*
X29814Y-25876D01*
X29772Y-25918D01*
X29772Y-26290D01*
X30283Y-26290D01*
X30325Y-26248D01*
X30325Y-26077D01*
X30325Y-26520D01*
X30325Y-26350D01*
X30283Y-26308D01*
X29772Y-26308D01*
X29772Y-26680D01*
X29814Y-26722D01*
X30190Y-26722D01*
X30252Y-26696D01*
X30299Y-26649D01*
X30325Y-26587D01*
X30325Y-26520D01*
X30325Y-26918D01*
X29321Y-26918D01*
X29321Y-26716D01*
X29336Y-26722D01*
X29712Y-26722D01*
X29754Y-26680D01*
X29754Y-26308D01*
X29746Y-26308D01*
X29746Y-26290D01*
X29754Y-26290D01*
X29754Y-25918D01*
X29712Y-25876D01*
X29336Y-25876D01*
X29321Y-25882D01*
X29321Y-25168D01*
X30788Y-25168D01*
X30868Y-25249D01*
X31147Y-25364D01*
X31449Y-25365D01*
X31728Y-25249D01*
X31810Y-25168D01*
X33576Y-25168D01*
X33566Y-25172D01*
X33518Y-25219D01*
X33493Y-25281D01*
X33493Y-25284D01*
X33070Y-25284D01*
X32983Y-25301D01*
X32910Y-25351D01*
X32860Y-25424D01*
X32843Y-25511D01*
X32843Y-25898D01*
X32789Y-25876D01*
X32722Y-25876D01*
X31935Y-25876D01*
X31873Y-25901D01*
X31826Y-25948D01*
X31800Y-26010D01*
X31800Y-26077D01*
X31800Y-26587D01*
X31825Y-26649D01*
X31873Y-26696D01*
X31934Y-26722D01*
X32001Y-26722D01*
X32789Y-26722D01*
X32843Y-26699D01*
X32843Y-26762D01*
X32762Y-26762D01*
X32700Y-26787D01*
X32653Y-26834D01*
X32627Y-26896D01*
X32627Y-26910D01*
X32627Y-26910D01*
X32576Y-26944D01*
X32576Y-26944D01*
X32294Y-27227D01*
X32294Y-27119D01*
X32294Y-27053D01*
X32268Y-26991D01*
X32221Y-26944D01*
X32159Y-26918D01*
X30759Y-26918D01*
X30717Y-26960D01*
X30717Y-28652D01*
X32252Y-28652D01*
X32279Y-28624D01*
X32528Y-28873D01*
X32528Y-29321D01*
X32447Y-29321D01*
X32385Y-29346D01*
X32338Y-29394D01*
X32312Y-29455D01*
X32312Y-29522D01*
X32312Y-29872D01*
X32338Y-29934D01*
X32385Y-29981D01*
X32447Y-30007D01*
X32514Y-30007D01*
X33040Y-30007D01*
X33040Y-30071D01*
X32997Y-30071D01*
X32806Y-30071D01*
X32764Y-30113D01*
X32764Y-30405D01*
X32772Y-30405D01*
X32772Y-30423D01*
X32764Y-30423D01*
X32764Y-30431D01*
X32746Y-30431D01*
X32746Y-30423D01*
X32746Y-30405D01*
X32746Y-30113D01*
X32704Y-30071D01*
X32514Y-30071D01*
X32447Y-30071D01*
X32385Y-30096D01*
X32338Y-30144D01*
X32312Y-30206D01*
X32312Y-30363D01*
X32354Y-30405D01*
X32746Y-30405D01*
X32746Y-30423D01*
X32354Y-30423D01*
X32312Y-30465D01*
X32312Y-30622D01*
X32338Y-30684D01*
X32357Y-30703D01*
X32307Y-30724D01*
X32294Y-30737D01*
X32294Y-30202D01*
X32294Y-28712D01*
X32252Y-28670D01*
X30717Y-28670D01*
X30717Y-30362D01*
X30759Y-30404D01*
X32159Y-30404D01*
X32221Y-30378D01*
X32268Y-30331D01*
X32294Y-30269D01*
X32294Y-30202D01*
X32294Y-30737D01*
X32259Y-30771D01*
X32234Y-30833D01*
X32234Y-30900D01*
X32234Y-31250D01*
X32259Y-31312D01*
X32306Y-31359D01*
X32368Y-31385D01*
X32435Y-31385D01*
X32985Y-31385D01*
X33047Y-31359D01*
X33094Y-31312D01*
X33120Y-31250D01*
X33120Y-31250D01*
X33267Y-31250D01*
X33493Y-31250D01*
X33493Y-31253D01*
X33518Y-31315D01*
X33566Y-31362D01*
X33627Y-31388D01*
X33694Y-31388D01*
X34875Y-31388D01*
X34937Y-31363D01*
X34984Y-31315D01*
X35010Y-31254D01*
X35010Y-31187D01*
X35010Y-30793D01*
X34985Y-30731D01*
X34937Y-30684D01*
X34876Y-30658D01*
X34809Y-30658D01*
X33628Y-30658D01*
X33566Y-30684D01*
X33518Y-30731D01*
X33494Y-30789D01*
X33494Y-30470D01*
X33518Y-30528D01*
X33566Y-30575D01*
X33627Y-30601D01*
X33694Y-30601D01*
X34875Y-30601D01*
X34937Y-30575D01*
X34984Y-30528D01*
X35010Y-30466D01*
X35010Y-30463D01*
X36692Y-30463D01*
X36692Y-30463D01*
X36692Y-30463D01*
X36779Y-30446D01*
X36853Y-30396D01*
X39727Y-27522D01*
X39776Y-27449D01*
X39794Y-27362D01*
X39794Y-27362D01*
X39794Y-27362D01*
X39794Y-27320D01*
X39818Y-27378D01*
X39865Y-27425D01*
X39927Y-27451D01*
X39993Y-27451D01*
X41175Y-27451D01*
X41236Y-27426D01*
X41284Y-27378D01*
X41309Y-27317D01*
X41309Y-27303D01*
X41309Y-27303D01*
X41346Y-27296D01*
X41420Y-27247D01*
X41538Y-27129D01*
X41550Y-27111D01*
X41609Y-27136D01*
X41676Y-27136D01*
X42011Y-27136D01*
X42073Y-27110D01*
X42120Y-27063D01*
X42135Y-27027D01*
X43904Y-27027D01*
X43899Y-27029D01*
X43801Y-27126D01*
X43749Y-27253D01*
X43749Y-27391D01*
X43801Y-27518D01*
X43867Y-27583D01*
X43867Y-28217D01*
X43853Y-28217D01*
X43664Y-28028D01*
X43590Y-27979D01*
X43503Y-27961D01*
X43503Y-27961D01*
X41975Y-27961D01*
X41985Y-27951D01*
X42038Y-27824D01*
X42038Y-27687D01*
X41985Y-27560D01*
X41888Y-27463D01*
X41761Y-27410D01*
X41624Y-27410D01*
X41497Y-27463D01*
X41400Y-27560D01*
X41364Y-27646D01*
X41309Y-27646D01*
X41309Y-27643D01*
X41284Y-27582D01*
X41237Y-27534D01*
X41175Y-27509D01*
X41108Y-27509D01*
X39927Y-27509D01*
X39865Y-27534D01*
X39818Y-27581D01*
X39792Y-27643D01*
X39792Y-27710D01*
X39792Y-28104D01*
X39818Y-28165D01*
X39865Y-28213D01*
X39927Y-28238D01*
X39993Y-28239D01*
X41175Y-28239D01*
X41223Y-28218D01*
X41146Y-28296D01*
X41108Y-28296D01*
X39927Y-28296D01*
X39865Y-28321D01*
X39818Y-28369D01*
X39792Y-28430D01*
X39792Y-28497D01*
X39792Y-28891D01*
X39818Y-28953D01*
X39865Y-29000D01*
X39927Y-29026D01*
X39993Y-29026D01*
X41175Y-29026D01*
X41236Y-29000D01*
X41284Y-28953D01*
X41309Y-28891D01*
X41309Y-28824D01*
X41309Y-28775D01*
X41668Y-28416D01*
X41702Y-28416D01*
X41702Y-28419D01*
X41702Y-28610D01*
X41689Y-28618D01*
X41210Y-29098D01*
X41175Y-29083D01*
X41108Y-29083D01*
X39927Y-29083D01*
X39865Y-29109D01*
X39818Y-29156D01*
X39792Y-29218D01*
X39792Y-29285D01*
X39792Y-29678D01*
X39818Y-29740D01*
X39865Y-29788D01*
X39927Y-29813D01*
X39993Y-29813D01*
X41175Y-29813D01*
X41236Y-29788D01*
X41284Y-29741D01*
X41309Y-29679D01*
X41309Y-29630D01*
X41341Y-29609D01*
X41715Y-29236D01*
X41728Y-29268D01*
X41775Y-29315D01*
X41837Y-29341D01*
X41904Y-29341D01*
X42414Y-29341D01*
X42476Y-29315D01*
X42523Y-29268D01*
X42549Y-29206D01*
X42549Y-29139D01*
X42549Y-28416D01*
X43409Y-28416D01*
X43671Y-28677D01*
X43671Y-29206D01*
X43696Y-29268D01*
X43744Y-29315D01*
X43805Y-29341D01*
X43872Y-29341D01*
X44382Y-29341D01*
X44444Y-29315D01*
X44491Y-29268D01*
X44517Y-29206D01*
X44517Y-29139D01*
X44517Y-28352D01*
X44492Y-28290D01*
X44444Y-28243D01*
X44383Y-28217D01*
X44321Y-28217D01*
X44321Y-27583D01*
X44387Y-27518D01*
X44439Y-27391D01*
X44439Y-27254D01*
X44398Y-27154D01*
X44452Y-27190D01*
X44539Y-27207D01*
X44847Y-27207D01*
X44854Y-27225D01*
X44902Y-27272D01*
X44963Y-27298D01*
X45030Y-27298D01*
X45230Y-27298D01*
X45268Y-27282D01*
X45396Y-27410D01*
X45236Y-27410D01*
X45149Y-27427D01*
X45075Y-27477D01*
X45075Y-27477D01*
X44936Y-27615D01*
X44887Y-27689D01*
X44884Y-27705D01*
X44884Y-27705D01*
X44855Y-27734D01*
X44829Y-27796D01*
X44829Y-27863D01*
X44829Y-28163D01*
X44854Y-28225D01*
X44902Y-28272D01*
X44963Y-28298D01*
X45030Y-28298D01*
X45230Y-28298D01*
X45284Y-28276D01*
X45339Y-28298D01*
X45421Y-28298D01*
X45463Y-28256D01*
X45463Y-27989D01*
X45455Y-27989D01*
X45455Y-27971D01*
X45463Y-27971D01*
X45463Y-27963D01*
X45481Y-27963D01*
X45481Y-27971D01*
X45489Y-27971D01*
X45489Y-27989D01*
X45481Y-27989D01*
X45481Y-28256D01*
X45523Y-28298D01*
X45605Y-28298D01*
X45659Y-28276D01*
X45682Y-28285D01*
X45686Y-28291D01*
X46046Y-28650D01*
X45740Y-28650D01*
X45698Y-28692D01*
X45698Y-29301D01*
X46208Y-29301D01*
X46250Y-29259D01*
X46250Y-28855D01*
X46544Y-29149D01*
X46544Y-29758D01*
X46569Y-29820D01*
X46617Y-29867D01*
X46678Y-29893D01*
X46745Y-29893D01*
X46942Y-29893D01*
X46968Y-29882D01*
X46993Y-29893D01*
X47060Y-29893D01*
X47257Y-29893D01*
X47283Y-29882D01*
X47308Y-29893D01*
X47375Y-29893D01*
X47572Y-29893D01*
X47598Y-29882D01*
X47623Y-29893D01*
X47690Y-29893D01*
X47887Y-29893D01*
X47913Y-29882D01*
X47938Y-29893D01*
X48005Y-29893D01*
X48019Y-29893D01*
X48061Y-29851D01*
X48061Y-29280D01*
X48054Y-29280D01*
X48054Y-29262D01*
X48061Y-29262D01*
X48061Y-28692D01*
X48019Y-28650D01*
X48005Y-28650D01*
X47938Y-28650D01*
X47913Y-28661D01*
X47888Y-28650D01*
X47821Y-28650D01*
X47624Y-28650D01*
X47598Y-28661D01*
X47573Y-28650D01*
X47506Y-28650D01*
X47309Y-28650D01*
X47283Y-28661D01*
X47258Y-28650D01*
X47191Y-28650D01*
X46994Y-28650D01*
X46968Y-28661D01*
X46943Y-28650D01*
X46876Y-28650D01*
X46688Y-28650D01*
X46115Y-28077D01*
X46115Y-27797D01*
X46090Y-27735D01*
X46060Y-27705D01*
X46057Y-27689D01*
X46008Y-27615D01*
X46008Y-27615D01*
X45981Y-27589D01*
X46008Y-27589D01*
X46256Y-27837D01*
X46256Y-27837D01*
X46330Y-27887D01*
X46330Y-27887D01*
X46400Y-27900D01*
X46417Y-27904D01*
X46417Y-27904D01*
X46417Y-27904D01*
X46525Y-27904D01*
X46525Y-27985D01*
X46551Y-28047D01*
X46598Y-28094D01*
X46660Y-28120D01*
X46727Y-28120D01*
X47077Y-28120D01*
X47139Y-28094D01*
X47186Y-28047D01*
X47212Y-27985D01*
X47212Y-27918D01*
X47212Y-27392D01*
X47275Y-27392D01*
X47275Y-27435D01*
X47275Y-27985D01*
X47301Y-28047D01*
X47348Y-28094D01*
X47391Y-28112D01*
X47391Y-28130D01*
X47391Y-28130D01*
X47409Y-28217D01*
X47458Y-28291D01*
X47595Y-28428D01*
X47595Y-28428D01*
X47668Y-28477D01*
X47755Y-28494D01*
X47835Y-28494D01*
X47849Y-28530D01*
X47897Y-28577D01*
X47958Y-28603D01*
X48025Y-28603D01*
X48360Y-28603D01*
X48422Y-28577D01*
X48469Y-28530D01*
X48495Y-28468D01*
X48495Y-28401D01*
X48495Y-28131D01*
X48526Y-28137D01*
X48543Y-28140D01*
X48543Y-28140D01*
X48543Y-28140D01*
X49142Y-28140D01*
X49142Y-28468D01*
X49167Y-28530D01*
X49215Y-28577D01*
X49276Y-28603D01*
X49283Y-28603D01*
X49314Y-28650D01*
X48766Y-28650D01*
X48704Y-28676D01*
X48657Y-28723D01*
X48631Y-28785D01*
X48631Y-28852D01*
X48631Y-29836D01*
X48656Y-29898D01*
X48704Y-29945D01*
X48765Y-29971D01*
X48832Y-29971D01*
X49619Y-29971D01*
X49681Y-29945D01*
X49728Y-29898D01*
X49754Y-29836D01*
X49754Y-29769D01*
X49754Y-28934D01*
X49979Y-29159D01*
X49917Y-29220D01*
X49831Y-29427D01*
X49831Y-29650D01*
X49917Y-29857D01*
X50037Y-29977D01*
X50033Y-29977D01*
X49966Y-29977D01*
X49904Y-30003D01*
X49857Y-30050D01*
X49831Y-30112D01*
X49831Y-30488D01*
X49873Y-30530D01*
X50384Y-30530D01*
X50384Y-30522D01*
X50402Y-30522D01*
X50402Y-30530D01*
X50410Y-30530D01*
X50410Y-30548D01*
X50402Y-30548D01*
X50402Y-31059D01*
X50444Y-31101D01*
X50754Y-31101D01*
X50757Y-31101D01*
X50757Y-31205D01*
X50757Y-31205D01*
G37*
G54D32*
X50757Y-31205D02*
X50496Y-31465D01*
X50453Y-31465D01*
X50438Y-31430D01*
X50391Y-31382D01*
X50384Y-31380D01*
X50384Y-31059D01*
X50384Y-30548D01*
X49873Y-30548D01*
X49831Y-30590D01*
X49831Y-30966D01*
X49857Y-31028D01*
X49904Y-31075D01*
X49966Y-31101D01*
X50033Y-31101D01*
X50342Y-31101D01*
X50384Y-31059D01*
X50384Y-31380D01*
X50329Y-31357D01*
X50262Y-31357D01*
X49927Y-31357D01*
X49865Y-31382D01*
X49818Y-31430D01*
X49792Y-31491D01*
X49792Y-31558D01*
X49792Y-31893D01*
X49818Y-31955D01*
X49865Y-32002D01*
X49899Y-32016D01*
X49748Y-32016D01*
X49754Y-32001D01*
X49754Y-31934D01*
X49754Y-30950D01*
X49729Y-30888D01*
X49681Y-30841D01*
X49620Y-30815D01*
X49553Y-30815D01*
X48766Y-30815D01*
X48704Y-30841D01*
X48657Y-30888D01*
X48652Y-30900D01*
X48652Y-30226D01*
X48599Y-30099D01*
X48502Y-30002D01*
X48375Y-29949D01*
X48337Y-29949D01*
X48337Y-29758D01*
X48337Y-28785D01*
X48312Y-28723D01*
X48264Y-28676D01*
X48203Y-28650D01*
X48136Y-28650D01*
X48122Y-28650D01*
X48080Y-28692D01*
X48080Y-29262D01*
X48295Y-29262D01*
X48337Y-29220D01*
X48337Y-28785D01*
X48337Y-29758D01*
X48337Y-29323D01*
X48295Y-29280D01*
X48080Y-29280D01*
X48080Y-29851D01*
X48122Y-29893D01*
X48136Y-29893D01*
X48203Y-29893D01*
X48264Y-29867D01*
X48312Y-29820D01*
X48337Y-29758D01*
X48337Y-29949D01*
X48238Y-29949D01*
X48111Y-30002D01*
X48014Y-30099D01*
X47961Y-30225D01*
X47961Y-30363D01*
X48014Y-30490D01*
X48111Y-30587D01*
X48237Y-30639D01*
X48375Y-30640D01*
X48502Y-30587D01*
X48599Y-30490D01*
X48651Y-30363D01*
X48652Y-30226D01*
X48652Y-30900D01*
X48631Y-30950D01*
X48631Y-31017D01*
X48631Y-32001D01*
X48637Y-32016D01*
X46920Y-32016D01*
X46920Y-30226D01*
X46867Y-30099D01*
X46770Y-30002D01*
X46643Y-29949D01*
X46506Y-29949D01*
X46379Y-30002D01*
X46282Y-30099D01*
X46250Y-30176D01*
X46250Y-29836D01*
X46250Y-29362D01*
X46208Y-29319D01*
X45698Y-29319D01*
X45698Y-29929D01*
X45740Y-29971D01*
X46049Y-29971D01*
X46116Y-29971D01*
X46177Y-29945D01*
X46225Y-29898D01*
X46250Y-29836D01*
X46250Y-30176D01*
X46229Y-30225D01*
X46229Y-30363D01*
X46282Y-30490D01*
X46379Y-30587D01*
X46505Y-30639D01*
X46643Y-30640D01*
X46770Y-30587D01*
X46867Y-30490D01*
X46919Y-30363D01*
X46920Y-30226D01*
X46920Y-32016D01*
X46244Y-32016D01*
X46250Y-32001D01*
X46250Y-31934D01*
X46250Y-30950D01*
X46225Y-30888D01*
X46177Y-30841D01*
X46116Y-30815D01*
X46049Y-30815D01*
X45679Y-30815D01*
X45679Y-29929D01*
X45679Y-29319D01*
X45679Y-29301D01*
X45679Y-28692D01*
X45637Y-28650D01*
X45328Y-28650D01*
X45261Y-28650D01*
X45200Y-28676D01*
X45152Y-28723D01*
X45127Y-28785D01*
X45127Y-29259D01*
X45169Y-29301D01*
X45679Y-29301D01*
X45679Y-29319D01*
X45169Y-29319D01*
X45127Y-29362D01*
X45127Y-29836D01*
X45152Y-29898D01*
X45200Y-29945D01*
X45261Y-29971D01*
X45328Y-29971D01*
X45637Y-29971D01*
X45679Y-29929D01*
X45679Y-30815D01*
X45262Y-30815D01*
X45200Y-30841D01*
X45153Y-30888D01*
X45127Y-30950D01*
X45127Y-31017D01*
X45127Y-32001D01*
X45133Y-32016D01*
X44517Y-32016D01*
X44517Y-31804D01*
X44517Y-30950D01*
X44492Y-30889D01*
X44444Y-30841D01*
X44383Y-30816D01*
X44316Y-30816D01*
X44145Y-30816D01*
X44103Y-30858D01*
X44103Y-31368D01*
X44475Y-31368D01*
X44517Y-31326D01*
X44517Y-30950D01*
X44517Y-31804D01*
X44517Y-31429D01*
X44475Y-31387D01*
X44103Y-31387D01*
X44103Y-31897D01*
X44145Y-31939D01*
X44316Y-31939D01*
X44383Y-31939D01*
X44444Y-31914D01*
X44492Y-31866D01*
X44517Y-31804D01*
X44517Y-32016D01*
X44085Y-32016D01*
X44085Y-31897D01*
X44085Y-31387D01*
X44085Y-31368D01*
X44085Y-30858D01*
X44043Y-30816D01*
X43872Y-30816D01*
X43805Y-30816D01*
X43744Y-30841D01*
X43696Y-30889D01*
X43671Y-30950D01*
X43671Y-31326D01*
X43713Y-31368D01*
X44085Y-31368D01*
X44085Y-31387D01*
X43713Y-31387D01*
X43671Y-31429D01*
X43671Y-31804D01*
X43696Y-31866D01*
X43744Y-31914D01*
X43805Y-31939D01*
X43872Y-31939D01*
X44043Y-31939D01*
X44085Y-31897D01*
X44085Y-32016D01*
X42549Y-32016D01*
X42549Y-31804D01*
X42549Y-30950D01*
X42523Y-30889D01*
X42476Y-30841D01*
X42414Y-30816D01*
X42347Y-30816D01*
X42177Y-30816D01*
X42135Y-30858D01*
X42135Y-31368D01*
X42507Y-31368D01*
X42549Y-31326D01*
X42549Y-30950D01*
X42549Y-31804D01*
X42549Y-31429D01*
X42507Y-31387D01*
X42135Y-31387D01*
X42135Y-31897D01*
X42177Y-31939D01*
X42347Y-31939D01*
X42414Y-31939D01*
X42476Y-31914D01*
X42523Y-31866D01*
X42549Y-31804D01*
X42549Y-32016D01*
X42116Y-32016D01*
X42116Y-31897D01*
X42116Y-31387D01*
X42116Y-31368D01*
X42116Y-30858D01*
X42074Y-30816D01*
X41904Y-30816D01*
X41837Y-30816D01*
X41775Y-30841D01*
X41728Y-30889D01*
X41702Y-30950D01*
X41702Y-31326D01*
X41744Y-31368D01*
X42116Y-31368D01*
X42116Y-31387D01*
X41744Y-31387D01*
X41702Y-31429D01*
X41702Y-31804D01*
X41728Y-31866D01*
X41775Y-31914D01*
X41837Y-31939D01*
X41904Y-31939D01*
X42074Y-31939D01*
X42116Y-31897D01*
X42116Y-32016D01*
X41309Y-32016D01*
X41309Y-31187D01*
X41309Y-30860D01*
X41309Y-30399D01*
X41309Y-30072D01*
X41309Y-30005D01*
X41284Y-29944D01*
X41236Y-29896D01*
X41175Y-29871D01*
X40602Y-29871D01*
X40560Y-29913D01*
X40560Y-30227D01*
X41267Y-30227D01*
X41309Y-30185D01*
X41309Y-30072D01*
X41309Y-30399D01*
X41309Y-30287D01*
X41267Y-30245D01*
X40560Y-30245D01*
X40560Y-30559D01*
X40602Y-30601D01*
X41175Y-30601D01*
X41236Y-30575D01*
X41284Y-30528D01*
X41309Y-30466D01*
X41309Y-30399D01*
X41309Y-30860D01*
X41309Y-30793D01*
X41284Y-30731D01*
X41236Y-30684D01*
X41175Y-30658D01*
X40602Y-30658D01*
X40560Y-30700D01*
X40560Y-31014D01*
X41267Y-31014D01*
X41309Y-30972D01*
X41309Y-30860D01*
X41309Y-31187D01*
X41309Y-31074D01*
X41267Y-31032D01*
X40560Y-31032D01*
X40560Y-31346D01*
X40602Y-31388D01*
X41175Y-31388D01*
X41236Y-31363D01*
X41284Y-31315D01*
X41309Y-31254D01*
X41309Y-31187D01*
X41309Y-32016D01*
X40542Y-32016D01*
X40542Y-31346D01*
X40542Y-31032D01*
X40542Y-31014D01*
X40542Y-30700D01*
X40542Y-30559D01*
X40542Y-30245D01*
X40542Y-30227D01*
X40542Y-29913D01*
X40500Y-29871D01*
X39927Y-29871D01*
X39865Y-29896D01*
X39818Y-29944D01*
X39792Y-30005D01*
X39792Y-30072D01*
X39792Y-30185D01*
X39834Y-30227D01*
X40542Y-30227D01*
X40542Y-30245D01*
X39834Y-30245D01*
X39792Y-30287D01*
X39792Y-30399D01*
X39792Y-30466D01*
X39818Y-30528D01*
X39865Y-30575D01*
X39927Y-30601D01*
X40500Y-30601D01*
X40542Y-30559D01*
X40542Y-30700D01*
X40500Y-30658D01*
X39927Y-30658D01*
X39865Y-30684D01*
X39818Y-30731D01*
X39792Y-30793D01*
X39792Y-30860D01*
X39792Y-30972D01*
X39834Y-31014D01*
X40542Y-31014D01*
X40542Y-31032D01*
X39834Y-31032D01*
X39792Y-31074D01*
X39792Y-31187D01*
X39792Y-31254D01*
X39818Y-31315D01*
X39865Y-31363D01*
X39927Y-31388D01*
X40500Y-31388D01*
X40542Y-31346D01*
X40542Y-32016D01*
X33113Y-32016D01*
X33120Y-32000D01*
X33120Y-31584D01*
X33094Y-31522D01*
X33047Y-31474D01*
X32985Y-31449D01*
X32918Y-31449D01*
X32728Y-31449D01*
X32686Y-31491D01*
X32686Y-31783D01*
X33078Y-31783D01*
X33120Y-31741D01*
X33120Y-31584D01*
X33120Y-32000D01*
X33120Y-31843D01*
X33078Y-31801D01*
X32686Y-31801D01*
X32686Y-31809D01*
X32668Y-31809D01*
X32668Y-31801D01*
X32668Y-31783D01*
X32668Y-31491D01*
X32626Y-31449D01*
X32435Y-31449D01*
X32368Y-31449D01*
X32306Y-31474D01*
X32259Y-31522D01*
X32234Y-31584D01*
X32234Y-31741D01*
X32276Y-31783D01*
X32668Y-31783D01*
X32668Y-31801D01*
X32276Y-31801D01*
X32234Y-31843D01*
X32234Y-32000D01*
X32240Y-32016D01*
X32061Y-32016D01*
X32061Y-31169D01*
X31953Y-30887D01*
X31930Y-30851D01*
X31822Y-30788D01*
X31810Y-30801D01*
X31810Y-30775D01*
X31746Y-30668D01*
X31470Y-30544D01*
X31169Y-30536D01*
X30887Y-30644D01*
X30851Y-30668D01*
X30788Y-30775D01*
X31299Y-31286D01*
X31810Y-30775D01*
X31810Y-30801D01*
X31312Y-31299D01*
X31822Y-31810D01*
X31930Y-31746D01*
X32053Y-31470D01*
X32061Y-31169D01*
X32061Y-32016D01*
X31546Y-32016D01*
X31711Y-31953D01*
X31746Y-31930D01*
X31810Y-31822D01*
X31299Y-31312D01*
X31286Y-31324D01*
X31286Y-31299D01*
X30775Y-30788D01*
X30668Y-30851D01*
X30544Y-31127D01*
X30536Y-31429D01*
X30644Y-31711D01*
X30668Y-31746D01*
X30775Y-31810D01*
X31286Y-31299D01*
X31286Y-31324D01*
X30788Y-31822D01*
X30851Y-31930D01*
X31045Y-32016D01*
X29408Y-32016D01*
X29321Y-31930D01*
X29321Y-30404D01*
X30657Y-30404D01*
X30699Y-30362D01*
X30699Y-28670D01*
X30691Y-28670D01*
X30691Y-28652D01*
X30699Y-28652D01*
X30699Y-26960D01*
X30657Y-26918D01*
X30325Y-26918D01*
X30325Y-26520D01*
X30325Y-26077D01*
X30325Y-26010D01*
X30299Y-25948D01*
X30252Y-25901D01*
X30190Y-25876D01*
X29814Y-25876D01*
X29772Y-25918D01*
X29772Y-26290D01*
X30283Y-26290D01*
X30325Y-26248D01*
X30325Y-26077D01*
X30325Y-26520D01*
X30325Y-26350D01*
X30283Y-26308D01*
X29772Y-26308D01*
X29772Y-26680D01*
X29814Y-26722D01*
X30190Y-26722D01*
X30252Y-26696D01*
X30299Y-26649D01*
X30325Y-26587D01*
X30325Y-26520D01*
X30325Y-26918D01*
X29321Y-26918D01*
X29321Y-26716D01*
X29336Y-26722D01*
X29712Y-26722D01*
X29754Y-26680D01*
X29754Y-26308D01*
X29746Y-26308D01*
X29746Y-26290D01*
X29754Y-26290D01*
X29754Y-25918D01*
X29712Y-25876D01*
X29336Y-25876D01*
X29321Y-25882D01*
X29321Y-25168D01*
X30788Y-25168D01*
X30868Y-25249D01*
X31147Y-25364D01*
X31449Y-25365D01*
X31728Y-25249D01*
X31810Y-25168D01*
X33576Y-25168D01*
X33566Y-25172D01*
X33518Y-25219D01*
X33493Y-25281D01*
X33493Y-25284D01*
X33070Y-25284D01*
X32983Y-25301D01*
X32910Y-25351D01*
X32860Y-25424D01*
X32843Y-25511D01*
X32843Y-25898D01*
X32789Y-25876D01*
X32722Y-25876D01*
X31935Y-25876D01*
X31873Y-25901D01*
X31826Y-25948D01*
X31800Y-26010D01*
X31800Y-26077D01*
X31800Y-26587D01*
X31825Y-26649D01*
X31873Y-26696D01*
X31934Y-26722D01*
X32001Y-26722D01*
X32789Y-26722D01*
X32843Y-26699D01*
X32843Y-26762D01*
X32762Y-26762D01*
X32700Y-26787D01*
X32653Y-26834D01*
X32627Y-26896D01*
X32627Y-26910D01*
X32627Y-26910D01*
X32576Y-26944D01*
X32576Y-26944D01*
X32294Y-27227D01*
X32294Y-27119D01*
X32294Y-27053D01*
X32268Y-26991D01*
X32221Y-26944D01*
X32159Y-26918D01*
X30759Y-26918D01*
X30717Y-26960D01*
X30717Y-28652D01*
X32252Y-28652D01*
X32279Y-28624D01*
X32528Y-28873D01*
X32528Y-29321D01*
X32447Y-29321D01*
X32385Y-29346D01*
X32338Y-29394D01*
X32312Y-29455D01*
X32312Y-29522D01*
X32312Y-29872D01*
X32338Y-29934D01*
X32385Y-29981D01*
X32447Y-30007D01*
X32514Y-30007D01*
X33040Y-30007D01*
X33040Y-30071D01*
X32997Y-30071D01*
X32806Y-30071D01*
X32764Y-30113D01*
X32764Y-30405D01*
X32772Y-30405D01*
X32772Y-30423D01*
X32764Y-30423D01*
X32764Y-30431D01*
X32746Y-30431D01*
X32746Y-30423D01*
X32746Y-30405D01*
X32746Y-30113D01*
X32704Y-30071D01*
X32514Y-30071D01*
X32447Y-30071D01*
X32385Y-30096D01*
X32338Y-30144D01*
X32312Y-30206D01*
X32312Y-30363D01*
X32354Y-30405D01*
X32746Y-30405D01*
X32746Y-30423D01*
X32354Y-30423D01*
X32312Y-30465D01*
X32312Y-30622D01*
X32338Y-30684D01*
X32357Y-30703D01*
X32307Y-30724D01*
X32294Y-30737D01*
X32294Y-30202D01*
X32294Y-28712D01*
X32252Y-28670D01*
X30717Y-28670D01*
X30717Y-30362D01*
X30759Y-30404D01*
X32159Y-30404D01*
X32221Y-30378D01*
X32268Y-30331D01*
X32294Y-30269D01*
X32294Y-30202D01*
X32294Y-30737D01*
X32259Y-30771D01*
X32234Y-30833D01*
X32234Y-30900D01*
X32234Y-31250D01*
X32259Y-31312D01*
X32306Y-31359D01*
X32368Y-31385D01*
X32435Y-31385D01*
X32985Y-31385D01*
X33047Y-31359D01*
X33094Y-31312D01*
X33120Y-31250D01*
X33120Y-31250D01*
X33267Y-31250D01*
X33493Y-31250D01*
X33493Y-31253D01*
X33518Y-31315D01*
X33566Y-31362D01*
X33627Y-31388D01*
X33694Y-31388D01*
X34875Y-31388D01*
X34937Y-31363D01*
X34984Y-31315D01*
X35010Y-31254D01*
X35010Y-31187D01*
X35010Y-30793D01*
X34985Y-30731D01*
X34937Y-30684D01*
X34876Y-30658D01*
X34809Y-30658D01*
X33628Y-30658D01*
X33566Y-30684D01*
X33518Y-30731D01*
X33494Y-30789D01*
X33494Y-30470D01*
X33518Y-30528D01*
X33566Y-30575D01*
X33627Y-30601D01*
X33694Y-30601D01*
X34875Y-30601D01*
X34937Y-30575D01*
X34984Y-30528D01*
X35010Y-30466D01*
X35010Y-30463D01*
X36692Y-30463D01*
X36692Y-30463D01*
X36692Y-30463D01*
X36779Y-30446D01*
X36853Y-30396D01*
X39727Y-27522D01*
X39776Y-27449D01*
X39794Y-27362D01*
X39794Y-27362D01*
X39794Y-27362D01*
X39794Y-27320D01*
X39818Y-27378D01*
X39865Y-27425D01*
X39927Y-27451D01*
X39993Y-27451D01*
X41175Y-27451D01*
X41236Y-27426D01*
X41284Y-27378D01*
X41309Y-27317D01*
X41309Y-27303D01*
X41309Y-27303D01*
X41346Y-27296D01*
X41420Y-27247D01*
X41538Y-27129D01*
X41550Y-27111D01*
X41609Y-27136D01*
X41676Y-27136D01*
X42011Y-27136D01*
X42073Y-27110D01*
X42120Y-27063D01*
X42135Y-27027D01*
X43904Y-27027D01*
X43899Y-27029D01*
X43801Y-27126D01*
X43749Y-27253D01*
X43749Y-27391D01*
X43801Y-27518D01*
X43867Y-27583D01*
X43867Y-28217D01*
X43853Y-28217D01*
X43664Y-28028D01*
X43590Y-27979D01*
X43503Y-27961D01*
X43503Y-27961D01*
X41975Y-27961D01*
X41985Y-27951D01*
X42038Y-27824D01*
X42038Y-27687D01*
X41985Y-27560D01*
X41888Y-27463D01*
X41761Y-27410D01*
X41624Y-27410D01*
X41497Y-27463D01*
X41400Y-27560D01*
X41364Y-27646D01*
X41309Y-27646D01*
X41309Y-27643D01*
X41284Y-27582D01*
X41237Y-27534D01*
X41175Y-27509D01*
X41108Y-27509D01*
X39927Y-27509D01*
X39865Y-27534D01*
X39818Y-27581D01*
X39792Y-27643D01*
X39792Y-27710D01*
X39792Y-28104D01*
X39818Y-28165D01*
X39865Y-28213D01*
X39927Y-28238D01*
X39993Y-28239D01*
X41175Y-28239D01*
X41223Y-28218D01*
X41146Y-28296D01*
X41108Y-28296D01*
X39927Y-28296D01*
X39865Y-28321D01*
X39818Y-28369D01*
X39792Y-28430D01*
X39792Y-28497D01*
X39792Y-28891D01*
X39818Y-28953D01*
X39865Y-29000D01*
X39927Y-29026D01*
X39993Y-29026D01*
X41175Y-29026D01*
X41236Y-29000D01*
X41284Y-28953D01*
X41309Y-28891D01*
X41309Y-28824D01*
X41309Y-28775D01*
X41668Y-28416D01*
X41702Y-28416D01*
X41702Y-28419D01*
X41702Y-28610D01*
X41689Y-28618D01*
X41210Y-29098D01*
X41175Y-29083D01*
X41108Y-29083D01*
X39927Y-29083D01*
X39865Y-29109D01*
X39818Y-29156D01*
X39792Y-29218D01*
X39792Y-29285D01*
X39792Y-29678D01*
X39818Y-29740D01*
X39865Y-29788D01*
X39927Y-29813D01*
X39993Y-29813D01*
X41175Y-29813D01*
X41236Y-29788D01*
X41284Y-29741D01*
X41309Y-29679D01*
X41309Y-29630D01*
X41341Y-29609D01*
X41715Y-29236D01*
X41728Y-29268D01*
X41775Y-29315D01*
X41837Y-29341D01*
X41904Y-29341D01*
X42414Y-29341D01*
X42476Y-29315D01*
X42523Y-29268D01*
X42549Y-29206D01*
X42549Y-29139D01*
X42549Y-28416D01*
X43409Y-28416D01*
X43671Y-28677D01*
X43671Y-29206D01*
X43696Y-29268D01*
X43744Y-29315D01*
X43805Y-29341D01*
X43872Y-29341D01*
X44382Y-29341D01*
X44444Y-29315D01*
X44491Y-29268D01*
X44517Y-29206D01*
X44517Y-29139D01*
X44517Y-28352D01*
X44492Y-28290D01*
X44444Y-28243D01*
X44383Y-28217D01*
X44321Y-28217D01*
X44321Y-27583D01*
X44387Y-27518D01*
X44439Y-27391D01*
X44439Y-27254D01*
X44398Y-27154D01*
X44452Y-27190D01*
X44539Y-27207D01*
X44847Y-27207D01*
X44854Y-27225D01*
X44902Y-27272D01*
X44963Y-27298D01*
X45030Y-27298D01*
X45230Y-27298D01*
X45268Y-27282D01*
X45396Y-27410D01*
X45236Y-27410D01*
X45149Y-27427D01*
X45075Y-27477D01*
X45075Y-27477D01*
X44936Y-27615D01*
X44887Y-27689D01*
X44884Y-27705D01*
X44884Y-27705D01*
X44855Y-27734D01*
X44829Y-27796D01*
X44829Y-27863D01*
X44829Y-28163D01*
X44854Y-28225D01*
X44902Y-28272D01*
X44963Y-28298D01*
X45030Y-28298D01*
X45230Y-28298D01*
X45284Y-28276D01*
X45339Y-28298D01*
X45421Y-28298D01*
X45463Y-28256D01*
X45463Y-27989D01*
X45455Y-27989D01*
X45455Y-27971D01*
X45463Y-27971D01*
X45463Y-27963D01*
X45481Y-27963D01*
X45481Y-27971D01*
X45489Y-27971D01*
X45489Y-27989D01*
X45481Y-27989D01*
X45481Y-28256D01*
X45523Y-28298D01*
X45605Y-28298D01*
X45659Y-28276D01*
X45682Y-28285D01*
X45686Y-28291D01*
X46046Y-28650D01*
X45740Y-28650D01*
X45698Y-28692D01*
X45698Y-29301D01*
X46208Y-29301D01*
X46250Y-29259D01*
X46250Y-28855D01*
X46544Y-29149D01*
X46544Y-29758D01*
X46569Y-29820D01*
X46617Y-29867D01*
X46678Y-29893D01*
X46745Y-29893D01*
X46942Y-29893D01*
X46968Y-29882D01*
X46993Y-29893D01*
X47060Y-29893D01*
X47257Y-29893D01*
X47283Y-29882D01*
X47308Y-29893D01*
X47375Y-29893D01*
X47572Y-29893D01*
X47598Y-29882D01*
X47623Y-29893D01*
X47690Y-29893D01*
X47887Y-29893D01*
X47913Y-29882D01*
X47938Y-29893D01*
X48005Y-29893D01*
X48019Y-29893D01*
X48061Y-29851D01*
X48061Y-29280D01*
X48054Y-29280D01*
X48054Y-29262D01*
X48061Y-29262D01*
X48061Y-28692D01*
X48019Y-28650D01*
X48005Y-28650D01*
X47938Y-28650D01*
X47913Y-28661D01*
X47888Y-28650D01*
X47821Y-28650D01*
X47624Y-28650D01*
X47598Y-28661D01*
X47573Y-28650D01*
X47506Y-28650D01*
X47309Y-28650D01*
X47283Y-28661D01*
X47258Y-28650D01*
X47191Y-28650D01*
X46994Y-28650D01*
X46968Y-28661D01*
X46943Y-28650D01*
X46876Y-28650D01*
X46688Y-28650D01*
X46115Y-28077D01*
X46115Y-27797D01*
X46090Y-27735D01*
X46060Y-27705D01*
X46057Y-27689D01*
X46008Y-27615D01*
X46008Y-27615D01*
X45981Y-27589D01*
X46008Y-27589D01*
X46256Y-27837D01*
X46256Y-27837D01*
X46330Y-27887D01*
X46330Y-27887D01*
X46400Y-27900D01*
X46417Y-27904D01*
X46417Y-27904D01*
X46417Y-27904D01*
X46525Y-27904D01*
X46525Y-27985D01*
X46551Y-28047D01*
X46598Y-28094D01*
X46660Y-28120D01*
X46727Y-28120D01*
X47077Y-28120D01*
X47139Y-28094D01*
X47186Y-28047D01*
X47212Y-27985D01*
X47212Y-27918D01*
X47212Y-27392D01*
X47275Y-27392D01*
X47275Y-27435D01*
X47275Y-27985D01*
X47301Y-28047D01*
X47348Y-28094D01*
X47391Y-28112D01*
X47391Y-28130D01*
X47391Y-28130D01*
X47409Y-28217D01*
X47458Y-28291D01*
X47595Y-28428D01*
X47595Y-28428D01*
X47668Y-28477D01*
X47755Y-28494D01*
X47835Y-28494D01*
X47849Y-28530D01*
X47897Y-28577D01*
X47958Y-28603D01*
X48025Y-28603D01*
X48360Y-28603D01*
X48422Y-28577D01*
X48469Y-28530D01*
X48495Y-28468D01*
X48495Y-28401D01*
X48495Y-28131D01*
X48526Y-28137D01*
X48543Y-28140D01*
X48543Y-28140D01*
X48543Y-28140D01*
X49142Y-28140D01*
X49142Y-28468D01*
X49167Y-28530D01*
X49215Y-28577D01*
X49276Y-28603D01*
X49283Y-28603D01*
X49314Y-28650D01*
X48766Y-28650D01*
X48704Y-28676D01*
X48657Y-28723D01*
X48631Y-28785D01*
X48631Y-28852D01*
X48631Y-29836D01*
X48656Y-29898D01*
X48704Y-29945D01*
X48765Y-29971D01*
X48832Y-29971D01*
X49619Y-29971D01*
X49681Y-29945D01*
X49728Y-29898D01*
X49754Y-29836D01*
X49754Y-29769D01*
X49754Y-28934D01*
X49979Y-29159D01*
X49917Y-29220D01*
X49831Y-29427D01*
X49831Y-29650D01*
X49917Y-29857D01*
X50037Y-29977D01*
X50033Y-29977D01*
X49966Y-29977D01*
X49904Y-30003D01*
X49857Y-30050D01*
X49831Y-30112D01*
X49831Y-30488D01*
X49873Y-30530D01*
X50384Y-30530D01*
X50384Y-30522D01*
X50402Y-30522D01*
X50402Y-30530D01*
X50410Y-30530D01*
X50410Y-30548D01*
X50402Y-30548D01*
X50402Y-31059D01*
X50444Y-31101D01*
X50754Y-31101D01*
X50757Y-31101D01*
X50757Y-31205D01*
G54D10*
G36*
X54142Y-25245D02*
X54110Y-25213D01*
X54048Y-25187D01*
X53981Y-25187D01*
X53431Y-25187D01*
X53370Y-25212D01*
X53346Y-25236D01*
X53323Y-25213D01*
X53261Y-25187D01*
X53194Y-25187D01*
X53120Y-25187D01*
X53160Y-25160D01*
X53468Y-24852D01*
X53898Y-24852D01*
X53960Y-24827D01*
X54007Y-24779D01*
X54033Y-24718D01*
X54033Y-24651D01*
X54033Y-24101D01*
X54008Y-24039D01*
X53960Y-23992D01*
X53899Y-23966D01*
X53832Y-23966D01*
X53282Y-23966D01*
X53220Y-23991D01*
X53173Y-24039D01*
X53147Y-24100D01*
X53147Y-24167D01*
X53147Y-24531D01*
X53035Y-24643D01*
X53035Y-24329D01*
X52970Y-24165D01*
X52961Y-24151D01*
X52886Y-24126D01*
X52873Y-24138D01*
X52873Y-24113D01*
X52848Y-24038D01*
X52687Y-23968D01*
X52510Y-23964D01*
X52346Y-24029D01*
X52332Y-24038D01*
X52307Y-24113D01*
X52590Y-24396D01*
X52873Y-24113D01*
X52873Y-24138D01*
X52603Y-24409D01*
X52886Y-24692D01*
X52961Y-24667D01*
X53031Y-24506D01*
X53035Y-24329D01*
X53035Y-24643D01*
X52905Y-24772D01*
X52851Y-24772D01*
X52873Y-24705D01*
X52590Y-24422D01*
X52577Y-24435D01*
X52577Y-24409D01*
X52294Y-24126D01*
X52219Y-24151D01*
X52149Y-24312D01*
X52145Y-24489D01*
X52210Y-24653D01*
X52219Y-24667D01*
X52294Y-24692D01*
X52577Y-24409D01*
X52577Y-24435D01*
X52307Y-24705D01*
X52329Y-24772D01*
X51853Y-24772D01*
X51965Y-24660D01*
X52033Y-24497D01*
X52033Y-24321D01*
X51966Y-24158D01*
X51841Y-24034D01*
X51679Y-23966D01*
X51502Y-23966D01*
X51339Y-24033D01*
X51215Y-24158D01*
X51147Y-24320D01*
X51147Y-24497D01*
X51164Y-24538D01*
X50855Y-24847D01*
X50855Y-24771D01*
X50965Y-24660D01*
X51033Y-24497D01*
X51033Y-24321D01*
X50966Y-24158D01*
X50841Y-24034D01*
X50679Y-23966D01*
X50665Y-23966D01*
X50627Y-23927D01*
X54056Y-23927D01*
X54142Y-24014D01*
X54142Y-25245D01*
X54142Y-25245D01*
G37*
G54D32*
X54142Y-25245D02*
X54110Y-25213D01*
X54048Y-25187D01*
X53981Y-25187D01*
X53431Y-25187D01*
X53370Y-25212D01*
X53346Y-25236D01*
X53323Y-25213D01*
X53261Y-25187D01*
X53194Y-25187D01*
X53120Y-25187D01*
X53160Y-25160D01*
X53468Y-24852D01*
X53898Y-24852D01*
X53960Y-24827D01*
X54007Y-24779D01*
X54033Y-24718D01*
X54033Y-24651D01*
X54033Y-24101D01*
X54008Y-24039D01*
X53960Y-23992D01*
X53899Y-23966D01*
X53832Y-23966D01*
X53282Y-23966D01*
X53220Y-23991D01*
X53173Y-24039D01*
X53147Y-24100D01*
X53147Y-24167D01*
X53147Y-24531D01*
X53035Y-24643D01*
X53035Y-24329D01*
X52970Y-24165D01*
X52961Y-24151D01*
X52886Y-24126D01*
X52873Y-24138D01*
X52873Y-24113D01*
X52848Y-24038D01*
X52687Y-23968D01*
X52510Y-23964D01*
X52346Y-24029D01*
X52332Y-24038D01*
X52307Y-24113D01*
X52590Y-24396D01*
X52873Y-24113D01*
X52873Y-24138D01*
X52603Y-24409D01*
X52886Y-24692D01*
X52961Y-24667D01*
X53031Y-24506D01*
X53035Y-24329D01*
X53035Y-24643D01*
X52905Y-24772D01*
X52851Y-24772D01*
X52873Y-24705D01*
X52590Y-24422D01*
X52577Y-24435D01*
X52577Y-24409D01*
X52294Y-24126D01*
X52219Y-24151D01*
X52149Y-24312D01*
X52145Y-24489D01*
X52210Y-24653D01*
X52219Y-24667D01*
X52294Y-24692D01*
X52577Y-24409D01*
X52577Y-24435D01*
X52307Y-24705D01*
X52329Y-24772D01*
X51853Y-24772D01*
X51965Y-24660D01*
X52033Y-24497D01*
X52033Y-24321D01*
X51966Y-24158D01*
X51841Y-24034D01*
X51679Y-23966D01*
X51502Y-23966D01*
X51339Y-24033D01*
X51215Y-24158D01*
X51147Y-24320D01*
X51147Y-24497D01*
X51164Y-24538D01*
X50855Y-24847D01*
X50855Y-24771D01*
X50965Y-24660D01*
X51033Y-24497D01*
X51033Y-24321D01*
X50966Y-24158D01*
X50841Y-24034D01*
X50679Y-23966D01*
X50665Y-23966D01*
X50627Y-23927D01*
X54056Y-23927D01*
X54142Y-24014D01*
X54142Y-25245D01*
G54D10*
G36*
X54142Y-25995D02*
X54110Y-25963D01*
X54048Y-25937D01*
X53981Y-25937D01*
X53431Y-25937D01*
X53370Y-25962D01*
X53346Y-25986D01*
X53323Y-25963D01*
X53261Y-25937D01*
X53194Y-25937D01*
X53003Y-25937D01*
X52961Y-25979D01*
X52961Y-26271D01*
X52969Y-26271D01*
X52969Y-26289D01*
X52961Y-26289D01*
X52961Y-26581D01*
X53003Y-26623D01*
X53194Y-26623D01*
X53261Y-26623D01*
X53323Y-26597D01*
X53346Y-26574D01*
X53369Y-26597D01*
X53431Y-26623D01*
X53498Y-26623D01*
X53512Y-26623D01*
X53512Y-26918D01*
X52943Y-26918D01*
X52943Y-26581D01*
X52943Y-26289D01*
X52943Y-26271D01*
X52943Y-25979D01*
X52901Y-25937D01*
X52711Y-25937D01*
X52644Y-25937D01*
X52582Y-25963D01*
X52559Y-25986D01*
X52535Y-25963D01*
X52473Y-25937D01*
X52407Y-25937D01*
X52216Y-25937D01*
X52174Y-25979D01*
X52174Y-26271D01*
X52551Y-26271D01*
X52566Y-26271D01*
X52943Y-26271D01*
X52943Y-26289D01*
X52566Y-26289D01*
X52551Y-26289D01*
X52174Y-26289D01*
X52174Y-26581D01*
X52216Y-26623D01*
X52407Y-26623D01*
X52473Y-26623D01*
X52535Y-26597D01*
X52559Y-26574D01*
X52582Y-26597D01*
X52644Y-26623D01*
X52711Y-26623D01*
X52901Y-26623D01*
X52943Y-26581D01*
X52943Y-26918D01*
X52156Y-26918D01*
X52156Y-26581D01*
X52156Y-26289D01*
X52156Y-26271D01*
X52156Y-25979D01*
X52114Y-25937D01*
X51923Y-25937D01*
X51856Y-25937D01*
X51795Y-25963D01*
X51747Y-26010D01*
X51722Y-26072D01*
X51722Y-26229D01*
X51764Y-26271D01*
X52156Y-26271D01*
X52156Y-26289D01*
X51764Y-26289D01*
X51722Y-26331D01*
X51722Y-26488D01*
X51747Y-26550D01*
X51795Y-26597D01*
X51856Y-26623D01*
X51923Y-26623D01*
X52114Y-26623D01*
X52156Y-26581D01*
X52156Y-26918D01*
X51305Y-26918D01*
X51243Y-26944D01*
X51196Y-26991D01*
X51170Y-27053D01*
X51170Y-27119D01*
X51170Y-28158D01*
X50857Y-28158D01*
X50857Y-28057D01*
X50846Y-28031D01*
X50857Y-28006D01*
X50857Y-27939D01*
X50857Y-27348D01*
X50846Y-27322D01*
X50857Y-27297D01*
X50857Y-27019D01*
X50815Y-26977D01*
X50402Y-26977D01*
X50402Y-26985D01*
X50384Y-26985D01*
X50384Y-26977D01*
X50376Y-26977D01*
X50376Y-26959D01*
X50384Y-26959D01*
X50384Y-26951D01*
X50402Y-26951D01*
X50402Y-26959D01*
X50815Y-26959D01*
X50857Y-26917D01*
X50857Y-26639D01*
X50835Y-26586D01*
X50848Y-26586D01*
X50986Y-26586D01*
X51047Y-26560D01*
X51066Y-26542D01*
X51129Y-26529D01*
X51202Y-26480D01*
X51275Y-26408D01*
X51367Y-26408D01*
X51494Y-26355D01*
X51591Y-26258D01*
X51644Y-26131D01*
X51644Y-25994D01*
X51592Y-25867D01*
X51581Y-25857D01*
X51603Y-25857D01*
X51730Y-25804D01*
X51743Y-25791D01*
X51747Y-25800D01*
X51795Y-25847D01*
X51856Y-25873D01*
X51923Y-25873D01*
X52473Y-25873D01*
X52535Y-25848D01*
X52559Y-25824D01*
X52582Y-25847D01*
X52644Y-25873D01*
X52711Y-25873D01*
X53261Y-25873D01*
X53322Y-25848D01*
X53346Y-25824D01*
X53369Y-25847D01*
X53431Y-25873D01*
X53498Y-25873D01*
X54048Y-25873D01*
X54110Y-25848D01*
X54142Y-25815D01*
X54142Y-25995D01*
X54142Y-25995D01*
G37*
G54D32*
X54142Y-25995D02*
X54110Y-25963D01*
X54048Y-25937D01*
X53981Y-25937D01*
X53431Y-25937D01*
X53370Y-25962D01*
X53346Y-25986D01*
X53323Y-25963D01*
X53261Y-25937D01*
X53194Y-25937D01*
X53003Y-25937D01*
X52961Y-25979D01*
X52961Y-26271D01*
X52969Y-26271D01*
X52969Y-26289D01*
X52961Y-26289D01*
X52961Y-26581D01*
X53003Y-26623D01*
X53194Y-26623D01*
X53261Y-26623D01*
X53323Y-26597D01*
X53346Y-26574D01*
X53369Y-26597D01*
X53431Y-26623D01*
X53498Y-26623D01*
X53512Y-26623D01*
X53512Y-26918D01*
X52943Y-26918D01*
X52943Y-26581D01*
X52943Y-26289D01*
X52943Y-26271D01*
X52943Y-25979D01*
X52901Y-25937D01*
X52711Y-25937D01*
X52644Y-25937D01*
X52582Y-25963D01*
X52559Y-25986D01*
X52535Y-25963D01*
X52473Y-25937D01*
X52407Y-25937D01*
X52216Y-25937D01*
X52174Y-25979D01*
X52174Y-26271D01*
X52551Y-26271D01*
X52566Y-26271D01*
X52943Y-26271D01*
X52943Y-26289D01*
X52566Y-26289D01*
X52551Y-26289D01*
X52174Y-26289D01*
X52174Y-26581D01*
X52216Y-26623D01*
X52407Y-26623D01*
X52473Y-26623D01*
X52535Y-26597D01*
X52559Y-26574D01*
X52582Y-26597D01*
X52644Y-26623D01*
X52711Y-26623D01*
X52901Y-26623D01*
X52943Y-26581D01*
X52943Y-26918D01*
X52156Y-26918D01*
X52156Y-26581D01*
X52156Y-26289D01*
X52156Y-26271D01*
X52156Y-25979D01*
X52114Y-25937D01*
X51923Y-25937D01*
X51856Y-25937D01*
X51795Y-25963D01*
X51747Y-26010D01*
X51722Y-26072D01*
X51722Y-26229D01*
X51764Y-26271D01*
X52156Y-26271D01*
X52156Y-26289D01*
X51764Y-26289D01*
X51722Y-26331D01*
X51722Y-26488D01*
X51747Y-26550D01*
X51795Y-26597D01*
X51856Y-26623D01*
X51923Y-26623D01*
X52114Y-26623D01*
X52156Y-26581D01*
X52156Y-26918D01*
X51305Y-26918D01*
X51243Y-26944D01*
X51196Y-26991D01*
X51170Y-27053D01*
X51170Y-27119D01*
X51170Y-28158D01*
X50857Y-28158D01*
X50857Y-28057D01*
X50846Y-28031D01*
X50857Y-28006D01*
X50857Y-27939D01*
X50857Y-27348D01*
X50846Y-27322D01*
X50857Y-27297D01*
X50857Y-27019D01*
X50815Y-26977D01*
X50402Y-26977D01*
X50402Y-26985D01*
X50384Y-26985D01*
X50384Y-26977D01*
X50376Y-26977D01*
X50376Y-26959D01*
X50384Y-26959D01*
X50384Y-26951D01*
X50402Y-26951D01*
X50402Y-26959D01*
X50815Y-26959D01*
X50857Y-26917D01*
X50857Y-26639D01*
X50835Y-26586D01*
X50848Y-26586D01*
X50986Y-26586D01*
X51047Y-26560D01*
X51066Y-26542D01*
X51129Y-26529D01*
X51202Y-26480D01*
X51275Y-26408D01*
X51367Y-26408D01*
X51494Y-26355D01*
X51591Y-26258D01*
X51644Y-26131D01*
X51644Y-25994D01*
X51592Y-25867D01*
X51581Y-25857D01*
X51603Y-25857D01*
X51730Y-25804D01*
X51743Y-25791D01*
X51747Y-25800D01*
X51795Y-25847D01*
X51856Y-25873D01*
X51923Y-25873D01*
X52473Y-25873D01*
X52535Y-25848D01*
X52559Y-25824D01*
X52582Y-25847D01*
X52644Y-25873D01*
X52711Y-25873D01*
X53261Y-25873D01*
X53322Y-25848D01*
X53346Y-25824D01*
X53369Y-25847D01*
X53431Y-25873D01*
X53498Y-25873D01*
X54048Y-25873D01*
X54110Y-25848D01*
X54142Y-25815D01*
X54142Y-25995D01*
G54D10*
G36*
X54142Y-31930D02*
X54056Y-32016D01*
X53124Y-32016D01*
X53124Y-31169D01*
X53016Y-30887D01*
X52993Y-30851D01*
X52885Y-30788D01*
X52873Y-30801D01*
X52873Y-30775D01*
X52809Y-30668D01*
X52533Y-30544D01*
X52232Y-30536D01*
X51950Y-30644D01*
X51914Y-30668D01*
X51851Y-30775D01*
X52362Y-31286D01*
X52873Y-30775D01*
X52873Y-30801D01*
X52375Y-31299D01*
X52885Y-31810D01*
X52993Y-31746D01*
X53116Y-31470D01*
X53124Y-31169D01*
X53124Y-32016D01*
X52609Y-32016D01*
X52774Y-31953D01*
X52809Y-31930D01*
X52873Y-31822D01*
X52362Y-31312D01*
X51851Y-31822D01*
X51914Y-31930D01*
X52108Y-32016D01*
X51675Y-32016D01*
X51709Y-32003D01*
X51756Y-31955D01*
X51781Y-31893D01*
X51782Y-31827D01*
X51782Y-31776D01*
X51838Y-31810D01*
X52349Y-31299D01*
X51838Y-30788D01*
X51731Y-30851D01*
X51673Y-30980D01*
X51673Y-30404D01*
X54142Y-30404D01*
X54142Y-31930D01*
X54142Y-31930D01*
G37*
G54D32*
X54142Y-31930D02*
X54056Y-32016D01*
X53124Y-32016D01*
X53124Y-31169D01*
X53016Y-30887D01*
X52993Y-30851D01*
X52885Y-30788D01*
X52873Y-30801D01*
X52873Y-30775D01*
X52809Y-30668D01*
X52533Y-30544D01*
X52232Y-30536D01*
X51950Y-30644D01*
X51914Y-30668D01*
X51851Y-30775D01*
X52362Y-31286D01*
X52873Y-30775D01*
X52873Y-30801D01*
X52375Y-31299D01*
X52885Y-31810D01*
X52993Y-31746D01*
X53116Y-31470D01*
X53124Y-31169D01*
X53124Y-32016D01*
X52609Y-32016D01*
X52774Y-31953D01*
X52809Y-31930D01*
X52873Y-31822D01*
X52362Y-31312D01*
X51851Y-31822D01*
X51914Y-31930D01*
X52108Y-32016D01*
X51675Y-32016D01*
X51709Y-32003D01*
X51756Y-31955D01*
X51781Y-31893D01*
X51782Y-31827D01*
X51782Y-31776D01*
X51838Y-31810D01*
X52349Y-31299D01*
X51838Y-30788D01*
X51731Y-30851D01*
X51673Y-30980D01*
X51673Y-30404D01*
X54142Y-30404D01*
X54142Y-31930D01*
M02*
