G04 (created by PCBNEW (2013-07-07 BZR 4022)-stable) date 20.04.2015 13:36:37*
%MOIN*%
G04 Gerber Fmt 3.4, Leading zero omitted, Abs format*
%FSLAX34Y34*%
G01*
G70*
G90*
G04 APERTURE LIST*
%ADD10C,0.00590551*%
%ADD11R,0.1X0.137795*%
%ADD12O,0.1X0.137795*%
%ADD13R,0.055X0.055*%
%ADD14C,0.055*%
%ADD15C,0.0590551*%
%ADD16O,0.314961X0.11811*%
%ADD17R,0.0866142X0.11811*%
%ADD18O,0.0866142X0.11811*%
%ADD19C,0.11811*%
%ADD20R,0.14X0.137795*%
%ADD21C,0.133858*%
%ADD22C,0.15*%
%ADD23C,0.0984252*%
%ADD24C,0.0787402*%
%ADD25R,0.0787402X0.0787402*%
%ADD26R,0.0236X0.0394*%
%ADD27R,0.0236X0.0236*%
%ADD28R,0.08X0.06*%
%ADD29R,0.06X0.08*%
%ADD30R,0.025X0.045*%
%ADD31R,0.045X0.025*%
%ADD32R,0.0590551X0.0590551*%
%ADD33R,0.0551181X0.0826772*%
%ADD34R,0.09X0.062*%
%ADD35O,0.09X0.062*%
%ADD36C,0.0354331*%
%ADD37C,0.019685*%
%ADD38C,0.011811*%
%ADD39C,0.0393701*%
%ADD40C,0.0984252*%
%ADD41C,0.0787402*%
G04 APERTURE END LIST*
G54D10*
G54D11*
X19385Y-22519D03*
G54D12*
X17385Y-22519D03*
G54D13*
X25653Y-35299D03*
G54D14*
X26653Y-35299D03*
X27653Y-35299D03*
G54D15*
X26610Y-24118D03*
X27362Y-24118D03*
X28114Y-24118D03*
G54D16*
X29330Y-15692D03*
X25393Y-15692D03*
G54D17*
X24594Y-34118D03*
G54D18*
X25594Y-34118D03*
X26594Y-34118D03*
X27594Y-34118D03*
X28594Y-34118D03*
X29594Y-34118D03*
X30594Y-34118D03*
X31594Y-34118D03*
X32594Y-34118D03*
X33594Y-34118D03*
X34594Y-34118D03*
X34594Y-25118D03*
X33594Y-25118D03*
X32594Y-25118D03*
X31594Y-25118D03*
X30594Y-25118D03*
X29594Y-25118D03*
X28594Y-25118D03*
X27594Y-25118D03*
X26594Y-25118D03*
X25594Y-25118D03*
X24594Y-25118D03*
G54D19*
X29511Y-20078D03*
X31511Y-20078D03*
G54D20*
X21518Y-23522D03*
X21518Y-20766D03*
G54D21*
X34590Y-17637D03*
G54D22*
X32590Y-17637D03*
X28590Y-17637D03*
X26590Y-17637D03*
G54D23*
X25160Y-20348D03*
G54D19*
X19175Y-20348D03*
X22168Y-31371D03*
X19175Y-31371D03*
G54D24*
X31218Y-21859D03*
X29718Y-21859D03*
G54D25*
X28218Y-21859D03*
G54D26*
X17934Y-30568D03*
X17559Y-31400D03*
X17184Y-30568D03*
G54D27*
X19783Y-29803D03*
X18957Y-29803D03*
G54D28*
X19842Y-27302D03*
X19842Y-28602D03*
G54D29*
X20650Y-24645D03*
X19350Y-24645D03*
G54D28*
X18031Y-24310D03*
X18031Y-25610D03*
G54D30*
X22703Y-34434D03*
X23303Y-34434D03*
G54D31*
X29055Y-24118D03*
X29055Y-23518D03*
G54D30*
X23318Y-32859D03*
X23918Y-32859D03*
G54D31*
X25984Y-24118D03*
X25984Y-23518D03*
X23818Y-33659D03*
X23818Y-34259D03*
G54D30*
X22218Y-32859D03*
X22818Y-32859D03*
X22160Y-29901D03*
X22760Y-29901D03*
G54D31*
X19763Y-26717D03*
X19763Y-26117D03*
G54D30*
X18007Y-29803D03*
X18607Y-29803D03*
G54D13*
X24133Y-35299D03*
G54D14*
X23133Y-35299D03*
G54D32*
X29303Y-35169D03*
G54D33*
X17885Y-29035D03*
X18885Y-29035D03*
X17885Y-26476D03*
X18885Y-26476D03*
G54D11*
X22700Y-17559D03*
G54D12*
X24700Y-17559D03*
G54D34*
X20840Y-26165D03*
G54D35*
X20840Y-27165D03*
X20840Y-28165D03*
X24040Y-28165D03*
X24040Y-27165D03*
X24040Y-26165D03*
G54D24*
X21102Y-17110D03*
X21102Y-19110D03*
G54D31*
X29527Y-24118D03*
X29527Y-23518D03*
G54D36*
X32598Y-25866D03*
X25423Y-23454D03*
X34343Y-27834D03*
X31968Y-31859D03*
X23868Y-25009D03*
X27539Y-32106D03*
X28917Y-26259D03*
X31018Y-26909D03*
X32018Y-28159D03*
X32843Y-28134D03*
X26768Y-25909D03*
X30275Y-24251D03*
X34493Y-33084D03*
X31918Y-31409D03*
X33768Y-26509D03*
X26968Y-26809D03*
X29018Y-31859D03*
X29018Y-30859D03*
X31118Y-31609D03*
X17559Y-30944D03*
X19606Y-29330D03*
X28818Y-32659D03*
X31118Y-30659D03*
X30618Y-31759D03*
X31753Y-35004D03*
X26618Y-27859D03*
G54D37*
X32598Y-25866D02*
X32598Y-26090D01*
X32598Y-26090D02*
X34343Y-27834D01*
X32594Y-25118D02*
X32594Y-25862D01*
X32594Y-25862D02*
X32598Y-25866D01*
X26610Y-24118D02*
X25985Y-24118D01*
X25985Y-24118D02*
X25984Y-24118D01*
X25984Y-24118D02*
X24509Y-24118D01*
X24509Y-24118D02*
X23868Y-24759D01*
X23818Y-33659D02*
X22348Y-33659D01*
X22218Y-33529D02*
X22218Y-32859D01*
X22348Y-33659D02*
X22218Y-33529D01*
X34343Y-27834D02*
X34343Y-29634D01*
X34343Y-29634D02*
X32118Y-31859D01*
X31918Y-31859D02*
X32118Y-31859D01*
X34343Y-27834D02*
X34343Y-27859D01*
X34343Y-27859D02*
X34343Y-27834D01*
X34343Y-27834D02*
X34343Y-27859D01*
X28668Y-31371D02*
X29206Y-31371D01*
X31718Y-31859D02*
X31918Y-31859D01*
X31518Y-31659D02*
X31718Y-31859D01*
X31518Y-31209D02*
X31518Y-31659D01*
X28668Y-31371D02*
X22168Y-31371D01*
X29206Y-31371D02*
X30577Y-30000D01*
X30577Y-30000D02*
X31378Y-30000D01*
X31378Y-30000D02*
X31757Y-30379D01*
X31757Y-30379D02*
X31757Y-30970D01*
X31757Y-30970D02*
X31518Y-31209D01*
X32018Y-31859D02*
X31918Y-31859D01*
G54D38*
X31968Y-31859D02*
X32018Y-31859D01*
G54D37*
X22168Y-29909D02*
X22168Y-30259D01*
X22446Y-29238D02*
X22168Y-29517D01*
X22446Y-27431D02*
X22446Y-29238D01*
X22618Y-27259D02*
X22446Y-27431D01*
X22618Y-26303D02*
X22618Y-27259D01*
X23361Y-25559D02*
X22618Y-26303D01*
X23868Y-25009D02*
X23868Y-25459D01*
X23868Y-25459D02*
X23768Y-25559D01*
X23768Y-25559D02*
X23361Y-25559D01*
X22168Y-30259D02*
X22168Y-31371D01*
X22168Y-29517D02*
X22168Y-29909D01*
X23818Y-33659D02*
X24336Y-33659D01*
X24336Y-33659D02*
X24774Y-34097D01*
X22218Y-32859D02*
X22218Y-31421D01*
X22218Y-31421D02*
X22168Y-31371D01*
X23868Y-24759D02*
X23868Y-25009D01*
G54D39*
X20650Y-24645D02*
X20650Y-23639D01*
X20650Y-23639D02*
X20766Y-23522D01*
G54D40*
X19228Y-22519D02*
X19763Y-22519D01*
X19763Y-22519D02*
X20766Y-23522D01*
X20766Y-23522D02*
X21518Y-23522D01*
X28218Y-21859D02*
X26118Y-21859D01*
X22455Y-23522D02*
X21518Y-23522D01*
X26118Y-21859D02*
X26043Y-21934D01*
X24043Y-21934D02*
X22455Y-23522D01*
X26043Y-21934D02*
X24043Y-21934D01*
X31511Y-20078D02*
X31511Y-21566D01*
X31511Y-21566D02*
X31218Y-21859D01*
G54D38*
X17874Y-25610D02*
X17874Y-26464D01*
X17874Y-26464D02*
X17885Y-26476D01*
X17610Y-25795D02*
X17755Y-25650D01*
X19192Y-24606D02*
X19192Y-25453D01*
X18885Y-25759D02*
X18885Y-26476D01*
X19192Y-25453D02*
X18885Y-25759D01*
G54D40*
X28590Y-17637D02*
X28590Y-16433D01*
X28590Y-16433D02*
X29330Y-15692D01*
X26590Y-17637D02*
X28590Y-17637D01*
X21102Y-19110D02*
X21102Y-20351D01*
X21102Y-20351D02*
X21518Y-20766D01*
G54D41*
X25160Y-20348D02*
X21937Y-20348D01*
X21937Y-20348D02*
X21518Y-20766D01*
G54D39*
X18031Y-24310D02*
X18031Y-23165D01*
X18031Y-23165D02*
X17385Y-22519D01*
G54D40*
X21102Y-17110D02*
X20606Y-17110D01*
X20606Y-17110D02*
X18976Y-18740D01*
X18976Y-18740D02*
X18976Y-20148D01*
X18976Y-20148D02*
X19175Y-20348D01*
X19254Y-20387D02*
X19254Y-18717D01*
X19254Y-18717D02*
X20881Y-17090D01*
X20724Y-17110D02*
X21102Y-17110D01*
X22700Y-17559D02*
X21551Y-17559D01*
X21551Y-17559D02*
X21102Y-17110D01*
X17385Y-22519D02*
X17385Y-21748D01*
X17385Y-21748D02*
X18785Y-20348D01*
X18785Y-20348D02*
X19175Y-20348D01*
X32590Y-17637D02*
X31535Y-17637D01*
X31535Y-17637D02*
X29511Y-19661D01*
X29511Y-19661D02*
X29511Y-20078D01*
X32590Y-17637D02*
X34590Y-17637D01*
G54D38*
X27594Y-34118D02*
X27594Y-35241D01*
X27594Y-35241D02*
X27653Y-35299D01*
X27594Y-34118D02*
X27594Y-32161D01*
X27594Y-32161D02*
X27539Y-32106D01*
X28594Y-25118D02*
X28594Y-25937D01*
X28594Y-25937D02*
X28917Y-26259D01*
X30774Y-26665D02*
X31018Y-26909D01*
X30774Y-25097D02*
X30774Y-26665D01*
X27594Y-25118D02*
X27594Y-26669D01*
X27594Y-26669D02*
X29085Y-28159D01*
X29085Y-28159D02*
X32018Y-28159D01*
X32218Y-27509D02*
X31068Y-27509D01*
X32843Y-28134D02*
X32218Y-27509D01*
X29774Y-25097D02*
X29774Y-26215D01*
X29774Y-26215D02*
X31068Y-27509D01*
X26774Y-25903D02*
X26774Y-25097D01*
X26768Y-25909D02*
X26774Y-25903D01*
X26594Y-34118D02*
X26594Y-33208D01*
X26245Y-32859D02*
X23918Y-32859D01*
X26594Y-33208D02*
X26245Y-32859D01*
X26653Y-35299D02*
X26653Y-34176D01*
X26653Y-34176D02*
X26594Y-34118D01*
X30275Y-24251D02*
X30275Y-24259D01*
X30275Y-24259D02*
X30275Y-24251D01*
X30275Y-24251D02*
X30275Y-24259D01*
X34774Y-25097D02*
X34774Y-24715D01*
X29557Y-24099D02*
X28896Y-24099D01*
X34774Y-24715D02*
X34318Y-24259D01*
X34318Y-24259D02*
X30275Y-24259D01*
X30275Y-24259D02*
X29718Y-24259D01*
X29718Y-24259D02*
X29557Y-24099D01*
X34594Y-34118D02*
X34594Y-33186D01*
X34594Y-33186D02*
X34493Y-33084D01*
X33568Y-29759D02*
X33568Y-28059D01*
X31918Y-31409D02*
X33568Y-29759D01*
X31774Y-26265D02*
X31774Y-25097D01*
X33568Y-28059D02*
X31774Y-26265D01*
X33774Y-26503D02*
X33774Y-25097D01*
X33768Y-26509D02*
X33774Y-26503D01*
X24040Y-27165D02*
X23444Y-27165D01*
X23444Y-27165D02*
X22933Y-27677D01*
X24594Y-25118D02*
X24594Y-25578D01*
X24803Y-26403D02*
X24040Y-27165D01*
X24803Y-25787D02*
X24803Y-26403D01*
X24594Y-25578D02*
X24803Y-25787D01*
X22768Y-29809D02*
X22768Y-29751D01*
X22933Y-29586D02*
X22933Y-27677D01*
X22768Y-29751D02*
X22933Y-29586D01*
X22703Y-34434D02*
X22703Y-34869D01*
X22703Y-34869D02*
X23133Y-35299D01*
X26418Y-28259D02*
X29018Y-30859D01*
X26418Y-28259D02*
X23793Y-28181D01*
X25594Y-34118D02*
X25594Y-34543D01*
X23828Y-34960D02*
X23303Y-34434D01*
X25177Y-34960D02*
X23828Y-34960D01*
X25594Y-34543D02*
X25177Y-34960D01*
X23303Y-34434D02*
X23303Y-34469D01*
X23303Y-34469D02*
X24133Y-35299D01*
X17559Y-31400D02*
X17559Y-30944D01*
X19783Y-29803D02*
X19783Y-29507D01*
X19783Y-29507D02*
X19606Y-29330D01*
X19606Y-29330D02*
X19625Y-29330D01*
X19625Y-29330D02*
X19606Y-29330D01*
X19606Y-29330D02*
X19625Y-29330D01*
X19625Y-29330D02*
X19625Y-28819D01*
X19625Y-28819D02*
X19842Y-28602D01*
X28594Y-34118D02*
X28594Y-32883D01*
X28594Y-32883D02*
X28818Y-32659D01*
X30594Y-34118D02*
X30594Y-32836D01*
X30594Y-32836D02*
X29968Y-32209D01*
X31118Y-30709D02*
X31118Y-30659D01*
X30168Y-31659D02*
X31118Y-30709D01*
X29968Y-31859D02*
X30168Y-31659D01*
X30168Y-31659D02*
X30168Y-31659D01*
X29968Y-32209D02*
X29968Y-31859D01*
G54D40*
X24700Y-17559D02*
X24700Y-16385D01*
X24700Y-16385D02*
X25393Y-15692D01*
G54D38*
X20840Y-27165D02*
X20840Y-27308D01*
X20196Y-27952D02*
X18779Y-27952D01*
X20840Y-27308D02*
X20196Y-27952D01*
X17184Y-30568D02*
X17274Y-30568D01*
X18322Y-28409D02*
X18779Y-27952D01*
X18322Y-30066D02*
X18322Y-28409D01*
X18192Y-30196D02*
X18322Y-30066D01*
X17645Y-30196D02*
X18192Y-30196D01*
X17274Y-30568D02*
X17645Y-30196D01*
X18346Y-28385D02*
X18779Y-27952D01*
X17184Y-30568D02*
X17266Y-30568D01*
X20919Y-27308D02*
X20919Y-27165D01*
X32594Y-34118D02*
X32594Y-32830D01*
X32594Y-32830D02*
X32423Y-32659D01*
X30618Y-31759D02*
X30618Y-32009D01*
X30618Y-32009D02*
X31268Y-32659D01*
X31268Y-32659D02*
X32423Y-32659D01*
X19763Y-26117D02*
X20792Y-26117D01*
X20792Y-26117D02*
X20840Y-26165D01*
X20792Y-26038D02*
X20919Y-26165D01*
X17934Y-30568D02*
X18128Y-30568D01*
X18607Y-30089D02*
X18607Y-29803D01*
X18128Y-30568D02*
X18607Y-30089D01*
X18607Y-29803D02*
X18607Y-30170D01*
X18957Y-29803D02*
X18607Y-29803D01*
X18885Y-29035D02*
X18885Y-29731D01*
X18885Y-29731D02*
X18957Y-29803D01*
X17885Y-29035D02*
X17885Y-28177D01*
X17885Y-28177D02*
X18760Y-27302D01*
X18007Y-29803D02*
X18007Y-29156D01*
X18007Y-29156D02*
X17885Y-29035D01*
X19842Y-27302D02*
X18760Y-27302D01*
X19842Y-27302D02*
X19842Y-26717D01*
X17657Y-29066D02*
X17688Y-29035D01*
X17657Y-29066D02*
X17688Y-29035D01*
X31774Y-34983D02*
X31774Y-34097D01*
X31753Y-35004D02*
X31774Y-34983D01*
X25594Y-25118D02*
X25594Y-26836D01*
X25594Y-26836D02*
X26618Y-27859D01*
X23318Y-32859D02*
X22818Y-32859D01*
G54D10*
G36*
X26436Y-34921D02*
X26408Y-34932D01*
X26286Y-35054D01*
X26220Y-35213D01*
X26220Y-35385D01*
X26286Y-35544D01*
X26391Y-35649D01*
X26088Y-35649D01*
X26105Y-35610D01*
X26105Y-35539D01*
X26105Y-35383D01*
X26060Y-35339D01*
X25692Y-35339D01*
X25692Y-35347D01*
X25613Y-35347D01*
X25613Y-35339D01*
X25245Y-35339D01*
X25200Y-35383D01*
X25200Y-35539D01*
X25200Y-35610D01*
X25217Y-35649D01*
X24547Y-35649D01*
X24565Y-35606D01*
X24565Y-35543D01*
X24565Y-35177D01*
X25177Y-35177D01*
X25200Y-35172D01*
X25200Y-35216D01*
X25245Y-35260D01*
X25613Y-35260D01*
X25613Y-35252D01*
X25692Y-35252D01*
X25692Y-35260D01*
X26060Y-35260D01*
X26105Y-35216D01*
X26105Y-35059D01*
X26105Y-34989D01*
X26078Y-34924D01*
X26028Y-34874D01*
X25963Y-34847D01*
X25761Y-34847D01*
X25820Y-34835D01*
X26012Y-34707D01*
X26094Y-34584D01*
X26176Y-34707D01*
X26368Y-34835D01*
X26436Y-34849D01*
X26436Y-34921D01*
X26436Y-34921D01*
G37*
G54D38*
X26436Y-34921D02*
X26408Y-34932D01*
X26286Y-35054D01*
X26220Y-35213D01*
X26220Y-35385D01*
X26286Y-35544D01*
X26391Y-35649D01*
X26088Y-35649D01*
X26105Y-35610D01*
X26105Y-35539D01*
X26105Y-35383D01*
X26060Y-35339D01*
X25692Y-35339D01*
X25692Y-35347D01*
X25613Y-35347D01*
X25613Y-35339D01*
X25245Y-35339D01*
X25200Y-35383D01*
X25200Y-35539D01*
X25200Y-35610D01*
X25217Y-35649D01*
X24547Y-35649D01*
X24565Y-35606D01*
X24565Y-35543D01*
X24565Y-35177D01*
X25177Y-35177D01*
X25200Y-35172D01*
X25200Y-35216D01*
X25245Y-35260D01*
X25613Y-35260D01*
X25613Y-35252D01*
X25692Y-35252D01*
X25692Y-35260D01*
X26060Y-35260D01*
X26105Y-35216D01*
X26105Y-35059D01*
X26105Y-34989D01*
X26078Y-34924D01*
X26028Y-34874D01*
X25963Y-34847D01*
X25761Y-34847D01*
X25820Y-34835D01*
X26012Y-34707D01*
X26094Y-34584D01*
X26176Y-34707D01*
X26368Y-34835D01*
X26436Y-34849D01*
X26436Y-34921D01*
G54D10*
G36*
X30305Y-23917D02*
X30209Y-23917D01*
X30086Y-23968D01*
X30010Y-24043D01*
X29929Y-24043D01*
X29910Y-24043D01*
X29910Y-23962D01*
X29886Y-23904D01*
X29841Y-23860D01*
X29784Y-23836D01*
X29721Y-23836D01*
X29488Y-23836D01*
X29488Y-23776D01*
X29488Y-23558D01*
X29412Y-23558D01*
X29169Y-23558D01*
X29094Y-23558D01*
X29094Y-23776D01*
X29138Y-23821D01*
X29245Y-23821D01*
X29291Y-23821D01*
X29337Y-23821D01*
X29443Y-23821D01*
X29488Y-23776D01*
X29488Y-23836D01*
X29271Y-23836D01*
X29271Y-23836D01*
X29248Y-23836D01*
X29015Y-23836D01*
X29015Y-23776D01*
X29015Y-23558D01*
X28697Y-23558D01*
X28652Y-23602D01*
X28652Y-23678D01*
X28679Y-23744D01*
X28729Y-23794D01*
X28794Y-23821D01*
X28865Y-23821D01*
X28971Y-23821D01*
X29015Y-23776D01*
X29015Y-23836D01*
X28798Y-23836D01*
X28741Y-23860D01*
X28696Y-23904D01*
X28672Y-23962D01*
X28672Y-24025D01*
X28672Y-24275D01*
X28696Y-24332D01*
X28740Y-24377D01*
X28774Y-24391D01*
X28594Y-24355D01*
X28497Y-24374D01*
X28566Y-24208D01*
X28567Y-24028D01*
X28498Y-23861D01*
X28370Y-23734D01*
X28204Y-23665D01*
X28024Y-23665D01*
X27858Y-23734D01*
X27738Y-23853D01*
X27698Y-23837D01*
X27642Y-23893D01*
X27642Y-23782D01*
X27612Y-23706D01*
X27435Y-23642D01*
X27248Y-23650D01*
X27111Y-23706D01*
X27082Y-23782D01*
X27362Y-24062D01*
X27642Y-23782D01*
X27642Y-23893D01*
X27417Y-24118D01*
X27423Y-24123D01*
X27367Y-24179D01*
X27362Y-24173D01*
X27082Y-24453D01*
X27111Y-24529D01*
X27163Y-24548D01*
X27094Y-24651D01*
X27012Y-24528D01*
X26909Y-24459D01*
X26986Y-24382D01*
X27026Y-24398D01*
X27306Y-24118D01*
X27026Y-23837D01*
X26986Y-23853D01*
X26867Y-23734D01*
X26700Y-23665D01*
X26520Y-23665D01*
X26365Y-23729D01*
X26386Y-23678D01*
X26386Y-23602D01*
X26342Y-23558D01*
X26023Y-23558D01*
X26023Y-23776D01*
X26067Y-23821D01*
X26174Y-23821D01*
X26244Y-23821D01*
X26282Y-23805D01*
X26248Y-23839D01*
X26240Y-23836D01*
X26178Y-23836D01*
X25728Y-23836D01*
X25670Y-23860D01*
X25667Y-23862D01*
X24509Y-23862D01*
X24411Y-23882D01*
X24383Y-23900D01*
X24328Y-23937D01*
X23687Y-24578D01*
X23631Y-24661D01*
X23628Y-24678D01*
X23612Y-24759D01*
X23612Y-24792D01*
X23584Y-24820D01*
X23533Y-24942D01*
X23533Y-25076D01*
X23584Y-25199D01*
X23612Y-25227D01*
X23612Y-25303D01*
X23361Y-25303D01*
X23263Y-25323D01*
X23236Y-25341D01*
X23180Y-25378D01*
X22437Y-26122D01*
X22381Y-26205D01*
X22378Y-26221D01*
X22362Y-26303D01*
X22362Y-27153D01*
X22265Y-27250D01*
X22210Y-27333D01*
X22207Y-27349D01*
X22190Y-27431D01*
X22190Y-29132D01*
X21987Y-29336D01*
X21931Y-29419D01*
X21928Y-29435D01*
X21912Y-29517D01*
X21912Y-29577D01*
X21902Y-29587D01*
X21878Y-29645D01*
X21878Y-29707D01*
X21878Y-30157D01*
X21902Y-30215D01*
X21912Y-30225D01*
X21912Y-30259D01*
X21912Y-30668D01*
X21744Y-30737D01*
X21534Y-30947D01*
X21420Y-31222D01*
X21419Y-31519D01*
X21533Y-31794D01*
X21743Y-32005D01*
X21962Y-32096D01*
X21962Y-32543D01*
X21959Y-32545D01*
X21935Y-32603D01*
X21935Y-32666D01*
X21935Y-33116D01*
X21959Y-33173D01*
X21962Y-33176D01*
X21962Y-33529D01*
X21978Y-33611D01*
X21981Y-33627D01*
X22037Y-33710D01*
X22167Y-33840D01*
X22167Y-33840D01*
X22250Y-33896D01*
X22250Y-33896D01*
X22266Y-33899D01*
X22348Y-33915D01*
X23501Y-33915D01*
X23503Y-33918D01*
X23561Y-33942D01*
X23624Y-33942D01*
X24003Y-33942D01*
X24003Y-33957D01*
X23901Y-33957D01*
X23857Y-34001D01*
X23857Y-34220D01*
X23865Y-34220D01*
X23865Y-34299D01*
X23857Y-34299D01*
X23857Y-34517D01*
X23901Y-34562D01*
X24003Y-34562D01*
X24003Y-34739D01*
X24005Y-34744D01*
X23918Y-34744D01*
X23735Y-34560D01*
X23778Y-34517D01*
X23778Y-34299D01*
X23770Y-34299D01*
X23770Y-34220D01*
X23778Y-34220D01*
X23778Y-34001D01*
X23734Y-33957D01*
X23628Y-33957D01*
X23557Y-33957D01*
X23492Y-33984D01*
X23442Y-34034D01*
X23435Y-34052D01*
X23396Y-34052D01*
X23146Y-34052D01*
X23089Y-34076D01*
X23044Y-34120D01*
X23020Y-34178D01*
X23020Y-34241D01*
X23020Y-34691D01*
X23044Y-34748D01*
X23088Y-34793D01*
X23146Y-34817D01*
X23209Y-34817D01*
X23344Y-34817D01*
X23700Y-35173D01*
X23700Y-35606D01*
X23718Y-35649D01*
X23588Y-35649D01*
X23588Y-35368D01*
X23580Y-35189D01*
X23527Y-35061D01*
X23454Y-35034D01*
X23398Y-35090D01*
X23398Y-34978D01*
X23371Y-34905D01*
X23202Y-34844D01*
X23022Y-34852D01*
X23005Y-34859D01*
X23005Y-34624D01*
X23005Y-34244D01*
X23005Y-34174D01*
X22978Y-34109D01*
X22928Y-34059D01*
X22863Y-34032D01*
X22786Y-34032D01*
X22742Y-34076D01*
X22742Y-34395D01*
X22960Y-34395D01*
X23005Y-34351D01*
X23005Y-34244D01*
X23005Y-34624D01*
X23005Y-34518D01*
X22960Y-34474D01*
X22742Y-34474D01*
X22742Y-34792D01*
X22786Y-34837D01*
X22863Y-34837D01*
X22928Y-34810D01*
X22978Y-34760D01*
X23005Y-34695D01*
X23005Y-34624D01*
X23005Y-34859D01*
X22894Y-34905D01*
X22867Y-34978D01*
X23133Y-35244D01*
X23398Y-34978D01*
X23398Y-35090D01*
X23188Y-35299D01*
X23454Y-35565D01*
X23527Y-35537D01*
X23588Y-35368D01*
X23588Y-35649D01*
X23387Y-35649D01*
X23398Y-35621D01*
X23133Y-35355D01*
X23077Y-35411D01*
X23077Y-35299D01*
X22811Y-35034D01*
X22738Y-35061D01*
X22677Y-35230D01*
X22685Y-35410D01*
X22738Y-35537D01*
X22811Y-35565D01*
X23077Y-35299D01*
X23077Y-35411D01*
X22867Y-35621D01*
X22878Y-35649D01*
X22663Y-35649D01*
X22663Y-34792D01*
X22663Y-34474D01*
X22663Y-34395D01*
X22663Y-34076D01*
X22619Y-34032D01*
X22543Y-34032D01*
X22477Y-34059D01*
X22428Y-34109D01*
X22400Y-34174D01*
X22400Y-34244D01*
X22400Y-34351D01*
X22445Y-34395D01*
X22663Y-34395D01*
X22663Y-34474D01*
X22445Y-34474D01*
X22400Y-34518D01*
X22400Y-34624D01*
X22400Y-34695D01*
X22428Y-34760D01*
X22477Y-34810D01*
X22543Y-34837D01*
X22619Y-34837D01*
X22663Y-34792D01*
X22663Y-35649D01*
X21726Y-35649D01*
X20833Y-34756D01*
X20776Y-34718D01*
X20708Y-34704D01*
X19994Y-34704D01*
X19945Y-34655D01*
X19945Y-31515D01*
X19941Y-31210D01*
X19831Y-30943D01*
X19725Y-30878D01*
X19231Y-31371D01*
X19725Y-31865D01*
X19831Y-31799D01*
X19945Y-31515D01*
X19945Y-34655D01*
X19669Y-34379D01*
X19271Y-33981D01*
X19271Y-33622D01*
X19271Y-33622D01*
X19258Y-33554D01*
X19219Y-33496D01*
X19219Y-33496D01*
X18502Y-32779D01*
X18660Y-32623D01*
X18627Y-31958D01*
X18627Y-31928D01*
X18651Y-31952D01*
X18682Y-31920D01*
X18748Y-32027D01*
X19031Y-32141D01*
X19337Y-32137D01*
X19603Y-32027D01*
X19669Y-31920D01*
X19175Y-31427D01*
X19170Y-31432D01*
X19114Y-31377D01*
X19120Y-31371D01*
X19114Y-31366D01*
X19170Y-31310D01*
X19175Y-31315D01*
X19669Y-30822D01*
X19635Y-30767D01*
X20497Y-30767D01*
X22145Y-29079D01*
X22127Y-26034D01*
X24827Y-23326D01*
X25113Y-23326D01*
X25088Y-23387D01*
X25088Y-23521D01*
X25139Y-23644D01*
X25233Y-23738D01*
X25356Y-23789D01*
X25489Y-23789D01*
X25607Y-23740D01*
X25608Y-23744D01*
X25658Y-23794D01*
X25723Y-23821D01*
X25794Y-23821D01*
X25900Y-23821D01*
X25944Y-23776D01*
X25944Y-23558D01*
X25937Y-23558D01*
X25937Y-23479D01*
X25944Y-23479D01*
X25944Y-23471D01*
X26023Y-23471D01*
X26023Y-23479D01*
X26342Y-23479D01*
X26386Y-23435D01*
X26386Y-23358D01*
X26373Y-23326D01*
X28666Y-23326D01*
X28652Y-23358D01*
X28652Y-23435D01*
X28697Y-23479D01*
X29015Y-23479D01*
X29015Y-23471D01*
X29094Y-23471D01*
X29094Y-23479D01*
X29169Y-23479D01*
X29412Y-23479D01*
X29488Y-23479D01*
X29488Y-23471D01*
X29566Y-23471D01*
X29566Y-23479D01*
X29574Y-23479D01*
X29574Y-23558D01*
X29566Y-23558D01*
X29566Y-23776D01*
X29611Y-23821D01*
X29717Y-23821D01*
X29787Y-23821D01*
X29853Y-23794D01*
X29902Y-23744D01*
X29929Y-23678D01*
X29929Y-23602D01*
X29885Y-23558D01*
X29929Y-23558D01*
X29929Y-23525D01*
X30305Y-23917D01*
X30305Y-23917D01*
G37*
G54D38*
X30305Y-23917D02*
X30209Y-23917D01*
X30086Y-23968D01*
X30010Y-24043D01*
X29929Y-24043D01*
X29910Y-24043D01*
X29910Y-23962D01*
X29886Y-23904D01*
X29841Y-23860D01*
X29784Y-23836D01*
X29721Y-23836D01*
X29488Y-23836D01*
X29488Y-23776D01*
X29488Y-23558D01*
X29412Y-23558D01*
X29169Y-23558D01*
X29094Y-23558D01*
X29094Y-23776D01*
X29138Y-23821D01*
X29245Y-23821D01*
X29291Y-23821D01*
X29337Y-23821D01*
X29443Y-23821D01*
X29488Y-23776D01*
X29488Y-23836D01*
X29271Y-23836D01*
X29271Y-23836D01*
X29248Y-23836D01*
X29015Y-23836D01*
X29015Y-23776D01*
X29015Y-23558D01*
X28697Y-23558D01*
X28652Y-23602D01*
X28652Y-23678D01*
X28679Y-23744D01*
X28729Y-23794D01*
X28794Y-23821D01*
X28865Y-23821D01*
X28971Y-23821D01*
X29015Y-23776D01*
X29015Y-23836D01*
X28798Y-23836D01*
X28741Y-23860D01*
X28696Y-23904D01*
X28672Y-23962D01*
X28672Y-24025D01*
X28672Y-24275D01*
X28696Y-24332D01*
X28740Y-24377D01*
X28774Y-24391D01*
X28594Y-24355D01*
X28497Y-24374D01*
X28566Y-24208D01*
X28567Y-24028D01*
X28498Y-23861D01*
X28370Y-23734D01*
X28204Y-23665D01*
X28024Y-23665D01*
X27858Y-23734D01*
X27738Y-23853D01*
X27698Y-23837D01*
X27642Y-23893D01*
X27642Y-23782D01*
X27612Y-23706D01*
X27435Y-23642D01*
X27248Y-23650D01*
X27111Y-23706D01*
X27082Y-23782D01*
X27362Y-24062D01*
X27642Y-23782D01*
X27642Y-23893D01*
X27417Y-24118D01*
X27423Y-24123D01*
X27367Y-24179D01*
X27362Y-24173D01*
X27082Y-24453D01*
X27111Y-24529D01*
X27163Y-24548D01*
X27094Y-24651D01*
X27012Y-24528D01*
X26909Y-24459D01*
X26986Y-24382D01*
X27026Y-24398D01*
X27306Y-24118D01*
X27026Y-23837D01*
X26986Y-23853D01*
X26867Y-23734D01*
X26700Y-23665D01*
X26520Y-23665D01*
X26365Y-23729D01*
X26386Y-23678D01*
X26386Y-23602D01*
X26342Y-23558D01*
X26023Y-23558D01*
X26023Y-23776D01*
X26067Y-23821D01*
X26174Y-23821D01*
X26244Y-23821D01*
X26282Y-23805D01*
X26248Y-23839D01*
X26240Y-23836D01*
X26178Y-23836D01*
X25728Y-23836D01*
X25670Y-23860D01*
X25667Y-23862D01*
X24509Y-23862D01*
X24411Y-23882D01*
X24383Y-23900D01*
X24328Y-23937D01*
X23687Y-24578D01*
X23631Y-24661D01*
X23628Y-24678D01*
X23612Y-24759D01*
X23612Y-24792D01*
X23584Y-24820D01*
X23533Y-24942D01*
X23533Y-25076D01*
X23584Y-25199D01*
X23612Y-25227D01*
X23612Y-25303D01*
X23361Y-25303D01*
X23263Y-25323D01*
X23236Y-25341D01*
X23180Y-25378D01*
X22437Y-26122D01*
X22381Y-26205D01*
X22378Y-26221D01*
X22362Y-26303D01*
X22362Y-27153D01*
X22265Y-27250D01*
X22210Y-27333D01*
X22207Y-27349D01*
X22190Y-27431D01*
X22190Y-29132D01*
X21987Y-29336D01*
X21931Y-29419D01*
X21928Y-29435D01*
X21912Y-29517D01*
X21912Y-29577D01*
X21902Y-29587D01*
X21878Y-29645D01*
X21878Y-29707D01*
X21878Y-30157D01*
X21902Y-30215D01*
X21912Y-30225D01*
X21912Y-30259D01*
X21912Y-30668D01*
X21744Y-30737D01*
X21534Y-30947D01*
X21420Y-31222D01*
X21419Y-31519D01*
X21533Y-31794D01*
X21743Y-32005D01*
X21962Y-32096D01*
X21962Y-32543D01*
X21959Y-32545D01*
X21935Y-32603D01*
X21935Y-32666D01*
X21935Y-33116D01*
X21959Y-33173D01*
X21962Y-33176D01*
X21962Y-33529D01*
X21978Y-33611D01*
X21981Y-33627D01*
X22037Y-33710D01*
X22167Y-33840D01*
X22167Y-33840D01*
X22250Y-33896D01*
X22250Y-33896D01*
X22266Y-33899D01*
X22348Y-33915D01*
X23501Y-33915D01*
X23503Y-33918D01*
X23561Y-33942D01*
X23624Y-33942D01*
X24003Y-33942D01*
X24003Y-33957D01*
X23901Y-33957D01*
X23857Y-34001D01*
X23857Y-34220D01*
X23865Y-34220D01*
X23865Y-34299D01*
X23857Y-34299D01*
X23857Y-34517D01*
X23901Y-34562D01*
X24003Y-34562D01*
X24003Y-34739D01*
X24005Y-34744D01*
X23918Y-34744D01*
X23735Y-34560D01*
X23778Y-34517D01*
X23778Y-34299D01*
X23770Y-34299D01*
X23770Y-34220D01*
X23778Y-34220D01*
X23778Y-34001D01*
X23734Y-33957D01*
X23628Y-33957D01*
X23557Y-33957D01*
X23492Y-33984D01*
X23442Y-34034D01*
X23435Y-34052D01*
X23396Y-34052D01*
X23146Y-34052D01*
X23089Y-34076D01*
X23044Y-34120D01*
X23020Y-34178D01*
X23020Y-34241D01*
X23020Y-34691D01*
X23044Y-34748D01*
X23088Y-34793D01*
X23146Y-34817D01*
X23209Y-34817D01*
X23344Y-34817D01*
X23700Y-35173D01*
X23700Y-35606D01*
X23718Y-35649D01*
X23588Y-35649D01*
X23588Y-35368D01*
X23580Y-35189D01*
X23527Y-35061D01*
X23454Y-35034D01*
X23398Y-35090D01*
X23398Y-34978D01*
X23371Y-34905D01*
X23202Y-34844D01*
X23022Y-34852D01*
X23005Y-34859D01*
X23005Y-34624D01*
X23005Y-34244D01*
X23005Y-34174D01*
X22978Y-34109D01*
X22928Y-34059D01*
X22863Y-34032D01*
X22786Y-34032D01*
X22742Y-34076D01*
X22742Y-34395D01*
X22960Y-34395D01*
X23005Y-34351D01*
X23005Y-34244D01*
X23005Y-34624D01*
X23005Y-34518D01*
X22960Y-34474D01*
X22742Y-34474D01*
X22742Y-34792D01*
X22786Y-34837D01*
X22863Y-34837D01*
X22928Y-34810D01*
X22978Y-34760D01*
X23005Y-34695D01*
X23005Y-34624D01*
X23005Y-34859D01*
X22894Y-34905D01*
X22867Y-34978D01*
X23133Y-35244D01*
X23398Y-34978D01*
X23398Y-35090D01*
X23188Y-35299D01*
X23454Y-35565D01*
X23527Y-35537D01*
X23588Y-35368D01*
X23588Y-35649D01*
X23387Y-35649D01*
X23398Y-35621D01*
X23133Y-35355D01*
X23077Y-35411D01*
X23077Y-35299D01*
X22811Y-35034D01*
X22738Y-35061D01*
X22677Y-35230D01*
X22685Y-35410D01*
X22738Y-35537D01*
X22811Y-35565D01*
X23077Y-35299D01*
X23077Y-35411D01*
X22867Y-35621D01*
X22878Y-35649D01*
X22663Y-35649D01*
X22663Y-34792D01*
X22663Y-34474D01*
X22663Y-34395D01*
X22663Y-34076D01*
X22619Y-34032D01*
X22543Y-34032D01*
X22477Y-34059D01*
X22428Y-34109D01*
X22400Y-34174D01*
X22400Y-34244D01*
X22400Y-34351D01*
X22445Y-34395D01*
X22663Y-34395D01*
X22663Y-34474D01*
X22445Y-34474D01*
X22400Y-34518D01*
X22400Y-34624D01*
X22400Y-34695D01*
X22428Y-34760D01*
X22477Y-34810D01*
X22543Y-34837D01*
X22619Y-34837D01*
X22663Y-34792D01*
X22663Y-35649D01*
X21726Y-35649D01*
X20833Y-34756D01*
X20776Y-34718D01*
X20708Y-34704D01*
X19994Y-34704D01*
X19945Y-34655D01*
X19945Y-31515D01*
X19941Y-31210D01*
X19831Y-30943D01*
X19725Y-30878D01*
X19231Y-31371D01*
X19725Y-31865D01*
X19831Y-31799D01*
X19945Y-31515D01*
X19945Y-34655D01*
X19669Y-34379D01*
X19271Y-33981D01*
X19271Y-33622D01*
X19271Y-33622D01*
X19258Y-33554D01*
X19219Y-33496D01*
X19219Y-33496D01*
X18502Y-32779D01*
X18660Y-32623D01*
X18627Y-31958D01*
X18627Y-31928D01*
X18651Y-31952D01*
X18682Y-31920D01*
X18748Y-32027D01*
X19031Y-32141D01*
X19337Y-32137D01*
X19603Y-32027D01*
X19669Y-31920D01*
X19175Y-31427D01*
X19170Y-31432D01*
X19114Y-31377D01*
X19120Y-31371D01*
X19114Y-31366D01*
X19170Y-31310D01*
X19175Y-31315D01*
X19669Y-30822D01*
X19635Y-30767D01*
X20497Y-30767D01*
X22145Y-29079D01*
X22127Y-26034D01*
X24827Y-23326D01*
X25113Y-23326D01*
X25088Y-23387D01*
X25088Y-23521D01*
X25139Y-23644D01*
X25233Y-23738D01*
X25356Y-23789D01*
X25489Y-23789D01*
X25607Y-23740D01*
X25608Y-23744D01*
X25658Y-23794D01*
X25723Y-23821D01*
X25794Y-23821D01*
X25900Y-23821D01*
X25944Y-23776D01*
X25944Y-23558D01*
X25937Y-23558D01*
X25937Y-23479D01*
X25944Y-23479D01*
X25944Y-23471D01*
X26023Y-23471D01*
X26023Y-23479D01*
X26342Y-23479D01*
X26386Y-23435D01*
X26386Y-23358D01*
X26373Y-23326D01*
X28666Y-23326D01*
X28652Y-23358D01*
X28652Y-23435D01*
X28697Y-23479D01*
X29015Y-23479D01*
X29015Y-23471D01*
X29094Y-23471D01*
X29094Y-23479D01*
X29169Y-23479D01*
X29412Y-23479D01*
X29488Y-23479D01*
X29488Y-23471D01*
X29566Y-23471D01*
X29566Y-23479D01*
X29574Y-23479D01*
X29574Y-23558D01*
X29566Y-23558D01*
X29566Y-23776D01*
X29611Y-23821D01*
X29717Y-23821D01*
X29787Y-23821D01*
X29853Y-23794D01*
X29902Y-23744D01*
X29929Y-23678D01*
X29929Y-23602D01*
X29885Y-23558D01*
X29929Y-23558D01*
X29929Y-23525D01*
X30305Y-23917D01*
G54D10*
G36*
X33351Y-29670D02*
X32003Y-31017D01*
X32013Y-30970D01*
X32013Y-30970D01*
X32013Y-30379D01*
X31993Y-30281D01*
X31993Y-30281D01*
X31975Y-30254D01*
X31938Y-30198D01*
X31938Y-30198D01*
X31559Y-29819D01*
X31476Y-29764D01*
X31460Y-29761D01*
X31378Y-29744D01*
X30577Y-29744D01*
X30479Y-29764D01*
X30451Y-29782D01*
X30396Y-29819D01*
X29100Y-31115D01*
X28668Y-31115D01*
X24654Y-31115D01*
X24654Y-28280D01*
X24654Y-28050D01*
X24646Y-28015D01*
X24553Y-27848D01*
X24403Y-27730D01*
X24220Y-27678D01*
X24080Y-27678D01*
X24080Y-28125D01*
X24622Y-28125D01*
X24654Y-28050D01*
X24654Y-28280D01*
X24622Y-28204D01*
X24080Y-28204D01*
X24080Y-28652D01*
X24220Y-28652D01*
X24403Y-28600D01*
X24553Y-28481D01*
X24646Y-28315D01*
X24654Y-28280D01*
X24654Y-31115D01*
X24001Y-31115D01*
X24001Y-28652D01*
X24001Y-28204D01*
X24001Y-28125D01*
X24001Y-27678D01*
X23861Y-27678D01*
X23678Y-27730D01*
X23528Y-27848D01*
X23435Y-28015D01*
X23427Y-28050D01*
X23459Y-28125D01*
X24001Y-28125D01*
X24001Y-28204D01*
X23459Y-28204D01*
X23427Y-28280D01*
X23435Y-28315D01*
X23528Y-28481D01*
X23678Y-28600D01*
X23861Y-28652D01*
X24001Y-28652D01*
X24001Y-31115D01*
X22871Y-31115D01*
X22802Y-30948D01*
X22592Y-30737D01*
X22424Y-30667D01*
X22424Y-30259D01*
X22424Y-30203D01*
X22443Y-30158D01*
X22443Y-30095D01*
X22443Y-29645D01*
X22431Y-29616D01*
X22627Y-29419D01*
X22627Y-29419D01*
X22683Y-29336D01*
X22683Y-29336D01*
X22686Y-29320D01*
X22702Y-29238D01*
X22702Y-29238D01*
X22702Y-27537D01*
X22799Y-27440D01*
X22799Y-27440D01*
X22836Y-27385D01*
X22854Y-27357D01*
X22854Y-27357D01*
X22874Y-27259D01*
X22874Y-27259D01*
X22874Y-26409D01*
X23467Y-25815D01*
X23586Y-25815D01*
X23558Y-25834D01*
X23457Y-25986D01*
X23421Y-26165D01*
X23457Y-26344D01*
X23558Y-26495D01*
X23710Y-26597D01*
X23889Y-26632D01*
X24192Y-26632D01*
X24285Y-26614D01*
X24200Y-26699D01*
X24192Y-26697D01*
X23889Y-26697D01*
X23710Y-26733D01*
X23558Y-26834D01*
X23482Y-26948D01*
X23444Y-26948D01*
X23362Y-26965D01*
X23291Y-27012D01*
X23291Y-27012D01*
X22779Y-27524D01*
X22733Y-27594D01*
X22716Y-27677D01*
X22716Y-29496D01*
X22694Y-29519D01*
X22604Y-29519D01*
X22546Y-29542D01*
X22502Y-29587D01*
X22478Y-29645D01*
X22478Y-29707D01*
X22478Y-30157D01*
X22502Y-30215D01*
X22546Y-30260D01*
X22604Y-30284D01*
X22666Y-30284D01*
X22916Y-30284D01*
X22974Y-30260D01*
X23019Y-30215D01*
X23043Y-30158D01*
X23043Y-30095D01*
X23043Y-29782D01*
X23086Y-29739D01*
X23086Y-29739D01*
X23086Y-29739D01*
X23133Y-29669D01*
X23149Y-29586D01*
X23149Y-27766D01*
X23503Y-27413D01*
X23558Y-27495D01*
X23710Y-27597D01*
X23889Y-27632D01*
X24192Y-27632D01*
X24371Y-27597D01*
X24523Y-27495D01*
X24624Y-27344D01*
X24660Y-27165D01*
X24624Y-26986D01*
X24585Y-26927D01*
X24956Y-26556D01*
X24956Y-26556D01*
X24956Y-26556D01*
X25003Y-26486D01*
X25019Y-26403D01*
X25019Y-25787D01*
X25004Y-25712D01*
X25012Y-25707D01*
X25094Y-25584D01*
X25176Y-25707D01*
X25368Y-25835D01*
X25377Y-25837D01*
X25377Y-26836D01*
X25394Y-26919D01*
X25441Y-26989D01*
X26283Y-27831D01*
X26283Y-27926D01*
X26334Y-28049D01*
X26428Y-28143D01*
X26551Y-28194D01*
X26684Y-28194D01*
X26807Y-28143D01*
X26901Y-28049D01*
X26952Y-27926D01*
X26952Y-27793D01*
X26901Y-27670D01*
X26807Y-27576D01*
X26684Y-27525D01*
X26589Y-27525D01*
X25811Y-26746D01*
X25811Y-25837D01*
X25820Y-25835D01*
X26012Y-25707D01*
X26094Y-25584D01*
X26176Y-25707D01*
X26368Y-25835D01*
X26433Y-25848D01*
X26433Y-25976D01*
X26484Y-26099D01*
X26578Y-26193D01*
X26701Y-26244D01*
X26834Y-26244D01*
X26957Y-26193D01*
X27051Y-26099D01*
X27102Y-25976D01*
X27102Y-25843D01*
X27051Y-25720D01*
X27022Y-25691D01*
X27094Y-25584D01*
X27176Y-25707D01*
X27368Y-25835D01*
X27377Y-25837D01*
X27377Y-26669D01*
X27394Y-26752D01*
X27441Y-26822D01*
X28931Y-28312D01*
X28931Y-28312D01*
X29002Y-28359D01*
X29085Y-28376D01*
X31761Y-28376D01*
X31828Y-28443D01*
X31951Y-28494D01*
X32084Y-28494D01*
X32207Y-28443D01*
X32301Y-28349D01*
X32352Y-28226D01*
X32352Y-28093D01*
X32301Y-27970D01*
X32207Y-27876D01*
X32084Y-27825D01*
X31951Y-27825D01*
X31828Y-27875D01*
X31761Y-27943D01*
X29174Y-27943D01*
X27811Y-26579D01*
X27811Y-25837D01*
X27820Y-25835D01*
X28012Y-25707D01*
X28094Y-25584D01*
X28176Y-25707D01*
X28368Y-25835D01*
X28377Y-25837D01*
X28377Y-25937D01*
X28394Y-26019D01*
X28441Y-26090D01*
X28582Y-26231D01*
X28582Y-26326D01*
X28633Y-26449D01*
X28727Y-26543D01*
X28850Y-26594D01*
X28983Y-26594D01*
X29106Y-26543D01*
X29200Y-26449D01*
X29251Y-26326D01*
X29252Y-26193D01*
X29201Y-26070D01*
X29107Y-25976D01*
X28984Y-25925D01*
X28888Y-25925D01*
X28811Y-25847D01*
X28811Y-25837D01*
X28820Y-25835D01*
X29012Y-25707D01*
X29094Y-25584D01*
X29176Y-25707D01*
X29368Y-25835D01*
X29557Y-25873D01*
X29557Y-26215D01*
X29573Y-26298D01*
X29620Y-26368D01*
X30914Y-27662D01*
X30914Y-27662D01*
X30985Y-27709D01*
X30985Y-27709D01*
X31051Y-27723D01*
X31068Y-27726D01*
X31068Y-27726D01*
X31068Y-27726D01*
X32128Y-27726D01*
X32508Y-28106D01*
X32508Y-28201D01*
X32559Y-28324D01*
X32653Y-28418D01*
X32776Y-28469D01*
X32909Y-28469D01*
X33032Y-28418D01*
X33126Y-28324D01*
X33177Y-28201D01*
X33177Y-28068D01*
X33126Y-27945D01*
X33032Y-27851D01*
X32909Y-27800D01*
X32814Y-27800D01*
X32371Y-27356D01*
X32300Y-27309D01*
X32218Y-27293D01*
X31157Y-27293D01*
X31101Y-27237D01*
X31207Y-27193D01*
X31301Y-27099D01*
X31352Y-26976D01*
X31352Y-26843D01*
X31301Y-26720D01*
X31207Y-26626D01*
X31084Y-26575D01*
X30990Y-26575D01*
X30990Y-25722D01*
X31012Y-25707D01*
X31094Y-25584D01*
X31176Y-25707D01*
X31368Y-25835D01*
X31557Y-25873D01*
X31557Y-26265D01*
X31573Y-26348D01*
X31620Y-26418D01*
X33351Y-28149D01*
X33351Y-29670D01*
X33351Y-29670D01*
G37*
G54D38*
X33351Y-29670D02*
X32003Y-31017D01*
X32013Y-30970D01*
X32013Y-30970D01*
X32013Y-30379D01*
X31993Y-30281D01*
X31993Y-30281D01*
X31975Y-30254D01*
X31938Y-30198D01*
X31938Y-30198D01*
X31559Y-29819D01*
X31476Y-29764D01*
X31460Y-29761D01*
X31378Y-29744D01*
X30577Y-29744D01*
X30479Y-29764D01*
X30451Y-29782D01*
X30396Y-29819D01*
X29100Y-31115D01*
X28668Y-31115D01*
X24654Y-31115D01*
X24654Y-28280D01*
X24654Y-28050D01*
X24646Y-28015D01*
X24553Y-27848D01*
X24403Y-27730D01*
X24220Y-27678D01*
X24080Y-27678D01*
X24080Y-28125D01*
X24622Y-28125D01*
X24654Y-28050D01*
X24654Y-28280D01*
X24622Y-28204D01*
X24080Y-28204D01*
X24080Y-28652D01*
X24220Y-28652D01*
X24403Y-28600D01*
X24553Y-28481D01*
X24646Y-28315D01*
X24654Y-28280D01*
X24654Y-31115D01*
X24001Y-31115D01*
X24001Y-28652D01*
X24001Y-28204D01*
X24001Y-28125D01*
X24001Y-27678D01*
X23861Y-27678D01*
X23678Y-27730D01*
X23528Y-27848D01*
X23435Y-28015D01*
X23427Y-28050D01*
X23459Y-28125D01*
X24001Y-28125D01*
X24001Y-28204D01*
X23459Y-28204D01*
X23427Y-28280D01*
X23435Y-28315D01*
X23528Y-28481D01*
X23678Y-28600D01*
X23861Y-28652D01*
X24001Y-28652D01*
X24001Y-31115D01*
X22871Y-31115D01*
X22802Y-30948D01*
X22592Y-30737D01*
X22424Y-30667D01*
X22424Y-30259D01*
X22424Y-30203D01*
X22443Y-30158D01*
X22443Y-30095D01*
X22443Y-29645D01*
X22431Y-29616D01*
X22627Y-29419D01*
X22627Y-29419D01*
X22683Y-29336D01*
X22683Y-29336D01*
X22686Y-29320D01*
X22702Y-29238D01*
X22702Y-29238D01*
X22702Y-27537D01*
X22799Y-27440D01*
X22799Y-27440D01*
X22836Y-27385D01*
X22854Y-27357D01*
X22854Y-27357D01*
X22874Y-27259D01*
X22874Y-27259D01*
X22874Y-26409D01*
X23467Y-25815D01*
X23586Y-25815D01*
X23558Y-25834D01*
X23457Y-25986D01*
X23421Y-26165D01*
X23457Y-26344D01*
X23558Y-26495D01*
X23710Y-26597D01*
X23889Y-26632D01*
X24192Y-26632D01*
X24285Y-26614D01*
X24200Y-26699D01*
X24192Y-26697D01*
X23889Y-26697D01*
X23710Y-26733D01*
X23558Y-26834D01*
X23482Y-26948D01*
X23444Y-26948D01*
X23362Y-26965D01*
X23291Y-27012D01*
X23291Y-27012D01*
X22779Y-27524D01*
X22733Y-27594D01*
X22716Y-27677D01*
X22716Y-29496D01*
X22694Y-29519D01*
X22604Y-29519D01*
X22546Y-29542D01*
X22502Y-29587D01*
X22478Y-29645D01*
X22478Y-29707D01*
X22478Y-30157D01*
X22502Y-30215D01*
X22546Y-30260D01*
X22604Y-30284D01*
X22666Y-30284D01*
X22916Y-30284D01*
X22974Y-30260D01*
X23019Y-30215D01*
X23043Y-30158D01*
X23043Y-30095D01*
X23043Y-29782D01*
X23086Y-29739D01*
X23086Y-29739D01*
X23086Y-29739D01*
X23133Y-29669D01*
X23149Y-29586D01*
X23149Y-27766D01*
X23503Y-27413D01*
X23558Y-27495D01*
X23710Y-27597D01*
X23889Y-27632D01*
X24192Y-27632D01*
X24371Y-27597D01*
X24523Y-27495D01*
X24624Y-27344D01*
X24660Y-27165D01*
X24624Y-26986D01*
X24585Y-26927D01*
X24956Y-26556D01*
X24956Y-26556D01*
X24956Y-26556D01*
X25003Y-26486D01*
X25019Y-26403D01*
X25019Y-25787D01*
X25004Y-25712D01*
X25012Y-25707D01*
X25094Y-25584D01*
X25176Y-25707D01*
X25368Y-25835D01*
X25377Y-25837D01*
X25377Y-26836D01*
X25394Y-26919D01*
X25441Y-26989D01*
X26283Y-27831D01*
X26283Y-27926D01*
X26334Y-28049D01*
X26428Y-28143D01*
X26551Y-28194D01*
X26684Y-28194D01*
X26807Y-28143D01*
X26901Y-28049D01*
X26952Y-27926D01*
X26952Y-27793D01*
X26901Y-27670D01*
X26807Y-27576D01*
X26684Y-27525D01*
X26589Y-27525D01*
X25811Y-26746D01*
X25811Y-25837D01*
X25820Y-25835D01*
X26012Y-25707D01*
X26094Y-25584D01*
X26176Y-25707D01*
X26368Y-25835D01*
X26433Y-25848D01*
X26433Y-25976D01*
X26484Y-26099D01*
X26578Y-26193D01*
X26701Y-26244D01*
X26834Y-26244D01*
X26957Y-26193D01*
X27051Y-26099D01*
X27102Y-25976D01*
X27102Y-25843D01*
X27051Y-25720D01*
X27022Y-25691D01*
X27094Y-25584D01*
X27176Y-25707D01*
X27368Y-25835D01*
X27377Y-25837D01*
X27377Y-26669D01*
X27394Y-26752D01*
X27441Y-26822D01*
X28931Y-28312D01*
X28931Y-28312D01*
X29002Y-28359D01*
X29085Y-28376D01*
X31761Y-28376D01*
X31828Y-28443D01*
X31951Y-28494D01*
X32084Y-28494D01*
X32207Y-28443D01*
X32301Y-28349D01*
X32352Y-28226D01*
X32352Y-28093D01*
X32301Y-27970D01*
X32207Y-27876D01*
X32084Y-27825D01*
X31951Y-27825D01*
X31828Y-27875D01*
X31761Y-27943D01*
X29174Y-27943D01*
X27811Y-26579D01*
X27811Y-25837D01*
X27820Y-25835D01*
X28012Y-25707D01*
X28094Y-25584D01*
X28176Y-25707D01*
X28368Y-25835D01*
X28377Y-25837D01*
X28377Y-25937D01*
X28394Y-26019D01*
X28441Y-26090D01*
X28582Y-26231D01*
X28582Y-26326D01*
X28633Y-26449D01*
X28727Y-26543D01*
X28850Y-26594D01*
X28983Y-26594D01*
X29106Y-26543D01*
X29200Y-26449D01*
X29251Y-26326D01*
X29252Y-26193D01*
X29201Y-26070D01*
X29107Y-25976D01*
X28984Y-25925D01*
X28888Y-25925D01*
X28811Y-25847D01*
X28811Y-25837D01*
X28820Y-25835D01*
X29012Y-25707D01*
X29094Y-25584D01*
X29176Y-25707D01*
X29368Y-25835D01*
X29557Y-25873D01*
X29557Y-26215D01*
X29573Y-26298D01*
X29620Y-26368D01*
X30914Y-27662D01*
X30914Y-27662D01*
X30985Y-27709D01*
X30985Y-27709D01*
X31051Y-27723D01*
X31068Y-27726D01*
X31068Y-27726D01*
X31068Y-27726D01*
X32128Y-27726D01*
X32508Y-28106D01*
X32508Y-28201D01*
X32559Y-28324D01*
X32653Y-28418D01*
X32776Y-28469D01*
X32909Y-28469D01*
X33032Y-28418D01*
X33126Y-28324D01*
X33177Y-28201D01*
X33177Y-28068D01*
X33126Y-27945D01*
X33032Y-27851D01*
X32909Y-27800D01*
X32814Y-27800D01*
X32371Y-27356D01*
X32300Y-27309D01*
X32218Y-27293D01*
X31157Y-27293D01*
X31101Y-27237D01*
X31207Y-27193D01*
X31301Y-27099D01*
X31352Y-26976D01*
X31352Y-26843D01*
X31301Y-26720D01*
X31207Y-26626D01*
X31084Y-26575D01*
X30990Y-26575D01*
X30990Y-25722D01*
X31012Y-25707D01*
X31094Y-25584D01*
X31176Y-25707D01*
X31368Y-25835D01*
X31557Y-25873D01*
X31557Y-26265D01*
X31573Y-26348D01*
X31620Y-26418D01*
X33351Y-28149D01*
X33351Y-29670D01*
G54D10*
G36*
X34586Y-32650D02*
X32720Y-32650D01*
X32576Y-32506D01*
X32506Y-32459D01*
X32423Y-32443D01*
X31357Y-32443D01*
X30882Y-31968D01*
X30901Y-31949D01*
X30952Y-31826D01*
X30952Y-31693D01*
X30901Y-31570D01*
X30807Y-31476D01*
X30701Y-31432D01*
X31139Y-30994D01*
X31184Y-30994D01*
X31307Y-30943D01*
X31401Y-30849D01*
X31452Y-30726D01*
X31452Y-30593D01*
X31401Y-30470D01*
X31307Y-30376D01*
X31184Y-30325D01*
X31051Y-30325D01*
X30928Y-30375D01*
X30834Y-30470D01*
X30783Y-30592D01*
X30783Y-30726D01*
X30786Y-30734D01*
X30014Y-31506D01*
X30014Y-31506D01*
X29814Y-31706D01*
X29768Y-31776D01*
X29751Y-31859D01*
X29751Y-32209D01*
X29768Y-32292D01*
X29814Y-32362D01*
X30102Y-32650D01*
X29152Y-32650D01*
X29152Y-32593D01*
X29101Y-32470D01*
X29007Y-32376D01*
X28884Y-32325D01*
X28751Y-32325D01*
X28628Y-32375D01*
X28534Y-32470D01*
X28483Y-32592D01*
X28483Y-32650D01*
X27811Y-32650D01*
X27811Y-32307D01*
X27822Y-32296D01*
X27873Y-32173D01*
X27874Y-32040D01*
X27823Y-31916D01*
X27729Y-31822D01*
X27606Y-31771D01*
X27473Y-31771D01*
X27350Y-31822D01*
X27255Y-31916D01*
X27204Y-32039D01*
X27204Y-32172D01*
X27255Y-32295D01*
X27349Y-32389D01*
X27377Y-32401D01*
X27377Y-32650D01*
X26283Y-32650D01*
X26245Y-32643D01*
X24200Y-32643D01*
X24200Y-32603D01*
X24176Y-32545D01*
X24132Y-32501D01*
X24074Y-32477D01*
X24011Y-32477D01*
X23761Y-32477D01*
X23704Y-32501D01*
X23659Y-32545D01*
X23635Y-32603D01*
X23635Y-32666D01*
X23635Y-33116D01*
X23659Y-33173D01*
X23703Y-33218D01*
X23761Y-33242D01*
X23824Y-33242D01*
X24074Y-33242D01*
X24132Y-33218D01*
X24159Y-33191D01*
X24159Y-33370D01*
X24130Y-33370D01*
X24093Y-33385D01*
X24074Y-33377D01*
X24011Y-33377D01*
X23600Y-33377D01*
X23600Y-33053D01*
X23600Y-32603D01*
X23576Y-32545D01*
X23532Y-32501D01*
X23474Y-32477D01*
X23411Y-32477D01*
X23161Y-32477D01*
X23104Y-32501D01*
X23068Y-32537D01*
X23032Y-32501D01*
X22974Y-32477D01*
X22911Y-32477D01*
X22661Y-32477D01*
X22604Y-32501D01*
X22559Y-32545D01*
X22535Y-32603D01*
X22535Y-32666D01*
X22535Y-33116D01*
X22559Y-33173D01*
X22603Y-33218D01*
X22661Y-33242D01*
X22724Y-33242D01*
X22974Y-33242D01*
X23032Y-33218D01*
X23068Y-33182D01*
X23103Y-33218D01*
X23161Y-33242D01*
X23224Y-33242D01*
X23474Y-33242D01*
X23532Y-33218D01*
X23576Y-33174D01*
X23600Y-33116D01*
X23600Y-33053D01*
X23600Y-33377D01*
X23561Y-33377D01*
X23504Y-33401D01*
X23501Y-33403D01*
X22474Y-33403D01*
X22474Y-33176D01*
X22476Y-33174D01*
X22500Y-33116D01*
X22500Y-33053D01*
X22500Y-32603D01*
X22476Y-32545D01*
X22474Y-32543D01*
X22474Y-32054D01*
X22591Y-32006D01*
X22801Y-31795D01*
X22871Y-31627D01*
X28668Y-31627D01*
X29206Y-31627D01*
X29206Y-31627D01*
X29287Y-31611D01*
X29304Y-31608D01*
X29304Y-31608D01*
X29387Y-31552D01*
X30683Y-30256D01*
X31272Y-30256D01*
X31501Y-30485D01*
X31501Y-30864D01*
X31337Y-31028D01*
X31281Y-31111D01*
X31278Y-31128D01*
X31262Y-31209D01*
X31262Y-31659D01*
X31278Y-31741D01*
X31281Y-31757D01*
X31337Y-31840D01*
X31537Y-32040D01*
X31537Y-32040D01*
X31592Y-32077D01*
X31620Y-32096D01*
X31620Y-32096D01*
X31718Y-32115D01*
X31750Y-32115D01*
X31778Y-32143D01*
X31901Y-32194D01*
X32034Y-32194D01*
X32157Y-32143D01*
X32202Y-32099D01*
X32202Y-32099D01*
X32216Y-32096D01*
X32216Y-32096D01*
X32299Y-32040D01*
X34524Y-29815D01*
X34524Y-29815D01*
X34561Y-29760D01*
X34579Y-29732D01*
X34579Y-29732D01*
X34586Y-29697D01*
X34586Y-32650D01*
X34586Y-32650D01*
G37*
G54D38*
X34586Y-32650D02*
X32720Y-32650D01*
X32576Y-32506D01*
X32506Y-32459D01*
X32423Y-32443D01*
X31357Y-32443D01*
X30882Y-31968D01*
X30901Y-31949D01*
X30952Y-31826D01*
X30952Y-31693D01*
X30901Y-31570D01*
X30807Y-31476D01*
X30701Y-31432D01*
X31139Y-30994D01*
X31184Y-30994D01*
X31307Y-30943D01*
X31401Y-30849D01*
X31452Y-30726D01*
X31452Y-30593D01*
X31401Y-30470D01*
X31307Y-30376D01*
X31184Y-30325D01*
X31051Y-30325D01*
X30928Y-30375D01*
X30834Y-30470D01*
X30783Y-30592D01*
X30783Y-30726D01*
X30786Y-30734D01*
X30014Y-31506D01*
X30014Y-31506D01*
X29814Y-31706D01*
X29768Y-31776D01*
X29751Y-31859D01*
X29751Y-32209D01*
X29768Y-32292D01*
X29814Y-32362D01*
X30102Y-32650D01*
X29152Y-32650D01*
X29152Y-32593D01*
X29101Y-32470D01*
X29007Y-32376D01*
X28884Y-32325D01*
X28751Y-32325D01*
X28628Y-32375D01*
X28534Y-32470D01*
X28483Y-32592D01*
X28483Y-32650D01*
X27811Y-32650D01*
X27811Y-32307D01*
X27822Y-32296D01*
X27873Y-32173D01*
X27874Y-32040D01*
X27823Y-31916D01*
X27729Y-31822D01*
X27606Y-31771D01*
X27473Y-31771D01*
X27350Y-31822D01*
X27255Y-31916D01*
X27204Y-32039D01*
X27204Y-32172D01*
X27255Y-32295D01*
X27349Y-32389D01*
X27377Y-32401D01*
X27377Y-32650D01*
X26283Y-32650D01*
X26245Y-32643D01*
X24200Y-32643D01*
X24200Y-32603D01*
X24176Y-32545D01*
X24132Y-32501D01*
X24074Y-32477D01*
X24011Y-32477D01*
X23761Y-32477D01*
X23704Y-32501D01*
X23659Y-32545D01*
X23635Y-32603D01*
X23635Y-32666D01*
X23635Y-33116D01*
X23659Y-33173D01*
X23703Y-33218D01*
X23761Y-33242D01*
X23824Y-33242D01*
X24074Y-33242D01*
X24132Y-33218D01*
X24159Y-33191D01*
X24159Y-33370D01*
X24130Y-33370D01*
X24093Y-33385D01*
X24074Y-33377D01*
X24011Y-33377D01*
X23600Y-33377D01*
X23600Y-33053D01*
X23600Y-32603D01*
X23576Y-32545D01*
X23532Y-32501D01*
X23474Y-32477D01*
X23411Y-32477D01*
X23161Y-32477D01*
X23104Y-32501D01*
X23068Y-32537D01*
X23032Y-32501D01*
X22974Y-32477D01*
X22911Y-32477D01*
X22661Y-32477D01*
X22604Y-32501D01*
X22559Y-32545D01*
X22535Y-32603D01*
X22535Y-32666D01*
X22535Y-33116D01*
X22559Y-33173D01*
X22603Y-33218D01*
X22661Y-33242D01*
X22724Y-33242D01*
X22974Y-33242D01*
X23032Y-33218D01*
X23068Y-33182D01*
X23103Y-33218D01*
X23161Y-33242D01*
X23224Y-33242D01*
X23474Y-33242D01*
X23532Y-33218D01*
X23576Y-33174D01*
X23600Y-33116D01*
X23600Y-33053D01*
X23600Y-33377D01*
X23561Y-33377D01*
X23504Y-33401D01*
X23501Y-33403D01*
X22474Y-33403D01*
X22474Y-33176D01*
X22476Y-33174D01*
X22500Y-33116D01*
X22500Y-33053D01*
X22500Y-32603D01*
X22476Y-32545D01*
X22474Y-32543D01*
X22474Y-32054D01*
X22591Y-32006D01*
X22801Y-31795D01*
X22871Y-31627D01*
X28668Y-31627D01*
X29206Y-31627D01*
X29206Y-31627D01*
X29287Y-31611D01*
X29304Y-31608D01*
X29304Y-31608D01*
X29387Y-31552D01*
X30683Y-30256D01*
X31272Y-30256D01*
X31501Y-30485D01*
X31501Y-30864D01*
X31337Y-31028D01*
X31281Y-31111D01*
X31278Y-31128D01*
X31262Y-31209D01*
X31262Y-31659D01*
X31278Y-31741D01*
X31281Y-31757D01*
X31337Y-31840D01*
X31537Y-32040D01*
X31537Y-32040D01*
X31592Y-32077D01*
X31620Y-32096D01*
X31620Y-32096D01*
X31718Y-32115D01*
X31750Y-32115D01*
X31778Y-32143D01*
X31901Y-32194D01*
X32034Y-32194D01*
X32157Y-32143D01*
X32202Y-32099D01*
X32202Y-32099D01*
X32216Y-32096D01*
X32216Y-32096D01*
X32299Y-32040D01*
X34524Y-29815D01*
X34524Y-29815D01*
X34561Y-29760D01*
X34579Y-29732D01*
X34579Y-29732D01*
X34586Y-29697D01*
X34586Y-32650D01*
M02*
