G04 (created by PCBNEW (22-Jun-2014 BZR 4027)-stable) date sam. 02 janv. 2016 18:47:16 CET*
%MOIN*%
G04 Gerber Fmt 3.4, Leading zero omitted, Abs format*
%FSLAX34Y34*%
G01*
G70*
G90*
G04 APERTURE LIST*
%ADD10C,0.00590551*%
%ADD11R,0.055X0.055*%
%ADD12C,0.055*%
%ADD13R,0.0787402X0.0787402*%
%ADD14C,0.0787402*%
%ADD15R,0.283465X0.314961*%
%ADD16C,0.11811*%
%ADD17C,0.0354331*%
%ADD18C,0.011811*%
%ADD19C,0.01*%
G04 APERTURE END LIST*
G54D10*
G54D11*
X53590Y-24409D03*
G54D12*
X52590Y-24409D03*
X51590Y-24409D03*
X50590Y-24409D03*
X49590Y-24409D03*
X48590Y-24409D03*
X47590Y-24409D03*
G54D13*
X50393Y-30539D03*
G54D14*
X50393Y-29539D03*
G54D15*
X30708Y-28661D03*
X52755Y-28661D03*
G54D16*
X31299Y-24606D03*
X31299Y-31299D03*
X52362Y-31299D03*
G54D11*
X41594Y-24409D03*
G54D12*
X42594Y-24409D03*
X43594Y-24409D03*
X44594Y-24409D03*
X45594Y-24409D03*
X46594Y-24409D03*
G54D17*
X35433Y-26299D03*
X51535Y-25511D03*
X41692Y-27755D03*
X50275Y-25039D03*
X44094Y-27322D03*
X51299Y-26062D03*
X35354Y-29448D03*
X36811Y-28661D03*
X35433Y-25511D03*
X48622Y-25787D03*
X48858Y-25078D03*
X35118Y-27086D03*
X46456Y-25866D03*
G54D18*
X51535Y-25511D02*
X50905Y-25511D01*
X48937Y-25944D02*
X47165Y-27716D01*
X50472Y-25944D02*
X48937Y-25944D01*
X50905Y-25511D02*
X50472Y-25944D01*
X35433Y-26299D02*
X41377Y-26299D01*
X41377Y-26299D02*
X42795Y-27716D01*
X42795Y-27716D02*
X47165Y-27716D01*
X51574Y-26417D02*
X49881Y-26417D01*
X49881Y-26417D02*
X48110Y-28188D01*
X41692Y-27755D02*
X41692Y-27795D01*
X42086Y-28188D02*
X48110Y-28188D01*
X41692Y-27795D02*
X42086Y-28188D01*
X51574Y-26417D02*
X52125Y-25866D01*
X50393Y-24921D02*
X50275Y-25039D01*
X51811Y-24921D02*
X50393Y-24921D01*
X52125Y-25236D02*
X51811Y-24921D01*
X52125Y-25866D02*
X52125Y-25236D01*
X47590Y-24409D02*
X47590Y-25874D01*
X46141Y-27322D02*
X44094Y-27322D01*
X47590Y-25874D02*
X46141Y-27322D01*
X49409Y-26181D02*
X51181Y-26181D01*
X51181Y-26181D02*
X51299Y-26062D01*
X51653Y-25905D02*
X51456Y-25905D01*
X51456Y-25905D02*
X51299Y-26062D01*
X49409Y-26181D02*
X49409Y-26181D01*
X49409Y-26181D02*
X47637Y-27952D01*
X40590Y-27165D02*
X41692Y-27165D01*
X40590Y-27165D02*
X37637Y-27165D01*
X37637Y-27165D02*
X35354Y-29448D01*
X41692Y-27165D02*
X42480Y-27952D01*
X42480Y-27952D02*
X47637Y-27952D01*
X49590Y-25220D02*
X49590Y-24409D01*
X49881Y-25511D02*
X49590Y-25220D01*
X50354Y-25511D02*
X49881Y-25511D01*
X50708Y-25157D02*
X50354Y-25511D01*
X51692Y-25157D02*
X50708Y-25157D01*
X51889Y-25354D02*
X51692Y-25157D01*
X51889Y-25669D02*
X51889Y-25354D01*
X51653Y-25905D02*
X51889Y-25669D01*
X51590Y-24409D02*
X51771Y-24409D01*
X48188Y-28661D02*
X36811Y-28661D01*
X50196Y-26653D02*
X48188Y-28661D01*
X51732Y-26653D02*
X50196Y-26653D01*
X52362Y-26023D02*
X51732Y-26653D01*
X52362Y-25000D02*
X52362Y-26023D01*
X51771Y-24409D02*
X52362Y-25000D01*
X46594Y-24409D02*
X46594Y-24783D01*
X41377Y-25511D02*
X35433Y-25511D01*
X42244Y-26377D02*
X41377Y-25511D01*
X46574Y-26377D02*
X42244Y-26377D01*
X46929Y-26023D02*
X46574Y-26377D01*
X46929Y-25118D02*
X46929Y-26023D01*
X46594Y-24783D02*
X46929Y-25118D01*
X41594Y-25275D02*
X35787Y-25275D01*
X35039Y-27007D02*
X35118Y-27086D01*
X35039Y-25354D02*
X35039Y-27007D01*
X35275Y-25118D02*
X35039Y-25354D01*
X35629Y-25118D02*
X35275Y-25118D01*
X35787Y-25275D02*
X35629Y-25118D01*
X41594Y-24409D02*
X41594Y-25275D01*
X41594Y-25275D02*
X41594Y-25334D01*
X42125Y-25866D02*
X46456Y-25866D01*
X41594Y-25334D02*
X42125Y-25866D01*
G54D10*
G36*
X54142Y-31930D02*
X54056Y-32016D01*
X53124Y-32016D01*
X53124Y-31169D01*
X53016Y-30887D01*
X52993Y-30851D01*
X52885Y-30788D01*
X52873Y-30801D01*
X52873Y-30775D01*
X52809Y-30668D01*
X52533Y-30544D01*
X52232Y-30536D01*
X51950Y-30644D01*
X51914Y-30668D01*
X51851Y-30775D01*
X52362Y-31286D01*
X52873Y-30775D01*
X52873Y-30801D01*
X52375Y-31299D01*
X52885Y-31810D01*
X52993Y-31746D01*
X53116Y-31470D01*
X53124Y-31169D01*
X53124Y-32016D01*
X52609Y-32016D01*
X52774Y-31953D01*
X52809Y-31930D01*
X52873Y-31822D01*
X52362Y-31312D01*
X52349Y-31324D01*
X52349Y-31299D01*
X51838Y-30788D01*
X51731Y-30851D01*
X51607Y-31127D01*
X51599Y-31429D01*
X51707Y-31711D01*
X51731Y-31746D01*
X51838Y-31810D01*
X52349Y-31299D01*
X52349Y-31324D01*
X51851Y-31822D01*
X51914Y-31930D01*
X52108Y-32016D01*
X50955Y-32016D01*
X50955Y-29428D01*
X50870Y-29221D01*
X50712Y-29063D01*
X50505Y-28977D01*
X50282Y-28977D01*
X50075Y-29062D01*
X49917Y-29220D01*
X49831Y-29427D01*
X49831Y-29650D01*
X49917Y-29857D01*
X50037Y-29977D01*
X50033Y-29977D01*
X49966Y-29977D01*
X49904Y-30003D01*
X49857Y-30050D01*
X49831Y-30112D01*
X49831Y-30488D01*
X49873Y-30530D01*
X50384Y-30530D01*
X50384Y-30522D01*
X50402Y-30522D01*
X50402Y-30530D01*
X50913Y-30530D01*
X50955Y-30488D01*
X50955Y-30112D01*
X50930Y-30050D01*
X50882Y-30003D01*
X50820Y-29977D01*
X50754Y-29977D01*
X50749Y-29977D01*
X50869Y-29858D01*
X50955Y-29651D01*
X50955Y-29428D01*
X50955Y-32016D01*
X50955Y-32016D01*
X50955Y-30966D01*
X50955Y-30590D01*
X50913Y-30548D01*
X50402Y-30548D01*
X50402Y-31059D01*
X50444Y-31101D01*
X50754Y-31101D01*
X50820Y-31101D01*
X50882Y-31075D01*
X50930Y-31028D01*
X50955Y-30966D01*
X50955Y-32016D01*
X50384Y-32016D01*
X50384Y-31059D01*
X50384Y-30548D01*
X49873Y-30548D01*
X49831Y-30590D01*
X49831Y-30966D01*
X49857Y-31028D01*
X49904Y-31075D01*
X49966Y-31101D01*
X50033Y-31101D01*
X50342Y-31101D01*
X50384Y-31059D01*
X50384Y-32016D01*
X48652Y-32016D01*
X48652Y-30226D01*
X48599Y-30099D01*
X48502Y-30002D01*
X48375Y-29949D01*
X48238Y-29949D01*
X48111Y-30002D01*
X48014Y-30099D01*
X47961Y-30225D01*
X47961Y-30363D01*
X48014Y-30490D01*
X48111Y-30587D01*
X48237Y-30639D01*
X48375Y-30640D01*
X48502Y-30587D01*
X48599Y-30490D01*
X48651Y-30363D01*
X48652Y-30226D01*
X48652Y-32016D01*
X46920Y-32016D01*
X46920Y-30226D01*
X46867Y-30099D01*
X46770Y-30002D01*
X46643Y-29949D01*
X46506Y-29949D01*
X46379Y-30002D01*
X46282Y-30099D01*
X46229Y-30225D01*
X46229Y-30363D01*
X46282Y-30490D01*
X46379Y-30587D01*
X46505Y-30639D01*
X46643Y-30640D01*
X46770Y-30587D01*
X46867Y-30490D01*
X46919Y-30363D01*
X46920Y-30226D01*
X46920Y-32016D01*
X32294Y-32016D01*
X32294Y-30202D01*
X32294Y-27119D01*
X32294Y-27053D01*
X32268Y-26991D01*
X32221Y-26944D01*
X32159Y-26918D01*
X30759Y-26918D01*
X30717Y-26960D01*
X30717Y-28652D01*
X32252Y-28652D01*
X32294Y-28610D01*
X32294Y-27119D01*
X32294Y-30202D01*
X32294Y-28712D01*
X32252Y-28670D01*
X30717Y-28670D01*
X30717Y-30362D01*
X30759Y-30404D01*
X32159Y-30404D01*
X32221Y-30378D01*
X32268Y-30331D01*
X32294Y-30269D01*
X32294Y-30202D01*
X32294Y-32016D01*
X32061Y-32016D01*
X32061Y-31169D01*
X31953Y-30887D01*
X31930Y-30851D01*
X31822Y-30788D01*
X31810Y-30801D01*
X31810Y-30775D01*
X31746Y-30668D01*
X31470Y-30544D01*
X31169Y-30536D01*
X30887Y-30644D01*
X30851Y-30668D01*
X30788Y-30775D01*
X31299Y-31286D01*
X31810Y-30775D01*
X31810Y-30801D01*
X31312Y-31299D01*
X31822Y-31810D01*
X31930Y-31746D01*
X32053Y-31470D01*
X32061Y-31169D01*
X32061Y-32016D01*
X31546Y-32016D01*
X31711Y-31953D01*
X31746Y-31930D01*
X31810Y-31822D01*
X31299Y-31312D01*
X31286Y-31324D01*
X31286Y-31299D01*
X30775Y-30788D01*
X30668Y-30851D01*
X30544Y-31127D01*
X30536Y-31429D01*
X30644Y-31711D01*
X30668Y-31746D01*
X30775Y-31810D01*
X31286Y-31299D01*
X31286Y-31324D01*
X30788Y-31822D01*
X30851Y-31930D01*
X31045Y-32016D01*
X29408Y-32016D01*
X29321Y-31930D01*
X29321Y-30404D01*
X30657Y-30404D01*
X30699Y-30362D01*
X30699Y-28670D01*
X30691Y-28670D01*
X30691Y-28652D01*
X30699Y-28652D01*
X30699Y-26960D01*
X30657Y-26918D01*
X29321Y-26918D01*
X29321Y-25168D01*
X30788Y-25168D01*
X30868Y-25249D01*
X31147Y-25364D01*
X31449Y-25365D01*
X31728Y-25249D01*
X31810Y-25168D01*
X34904Y-25168D01*
X34878Y-25193D01*
X34829Y-25267D01*
X34812Y-25354D01*
X34812Y-25354D01*
X34812Y-26922D01*
X34772Y-27017D01*
X34772Y-27154D01*
X34825Y-27281D01*
X34922Y-27379D01*
X35049Y-27431D01*
X35186Y-27431D01*
X35313Y-27379D01*
X35410Y-27282D01*
X35463Y-27155D01*
X35463Y-27018D01*
X35410Y-26891D01*
X35313Y-26794D01*
X35266Y-26774D01*
X35266Y-26603D01*
X35364Y-26644D01*
X35501Y-26644D01*
X35628Y-26592D01*
X35694Y-26526D01*
X41283Y-26526D01*
X41696Y-26938D01*
X41692Y-26938D01*
X41692Y-26938D01*
X40590Y-26938D01*
X37637Y-26938D01*
X37550Y-26955D01*
X37477Y-27004D01*
X37477Y-27004D01*
X35378Y-29103D01*
X35285Y-29103D01*
X35159Y-29155D01*
X35061Y-29252D01*
X35009Y-29379D01*
X35008Y-29517D01*
X35061Y-29644D01*
X35158Y-29741D01*
X35285Y-29794D01*
X35422Y-29794D01*
X35549Y-29741D01*
X35646Y-29644D01*
X35699Y-29517D01*
X35699Y-29424D01*
X36465Y-28658D01*
X36465Y-28729D01*
X36518Y-28856D01*
X36615Y-28953D01*
X36742Y-29006D01*
X36879Y-29006D01*
X37006Y-28954D01*
X37072Y-28888D01*
X48188Y-28888D01*
X48188Y-28888D01*
X48188Y-28888D01*
X48275Y-28871D01*
X48349Y-28822D01*
X50290Y-26880D01*
X51732Y-26880D01*
X51732Y-26880D01*
X51732Y-26880D01*
X51819Y-26863D01*
X51892Y-26814D01*
X52522Y-26184D01*
X52522Y-26184D01*
X52522Y-26184D01*
X52572Y-26110D01*
X52572Y-26110D01*
X52589Y-26023D01*
X52589Y-25000D01*
X52572Y-24913D01*
X52530Y-24851D01*
X52670Y-24854D01*
X52834Y-24789D01*
X52848Y-24780D01*
X52873Y-24705D01*
X52590Y-24422D01*
X52584Y-24427D01*
X52572Y-24415D01*
X52577Y-24409D01*
X52294Y-24126D01*
X52219Y-24151D01*
X52149Y-24312D01*
X52146Y-24462D01*
X52033Y-24350D01*
X52033Y-24321D01*
X51966Y-24158D01*
X51841Y-24034D01*
X51679Y-23966D01*
X51502Y-23966D01*
X51339Y-24033D01*
X51215Y-24158D01*
X51147Y-24320D01*
X51147Y-24497D01*
X51214Y-24660D01*
X51248Y-24694D01*
X50932Y-24694D01*
X50965Y-24660D01*
X51033Y-24497D01*
X51033Y-24321D01*
X50966Y-24158D01*
X50841Y-24034D01*
X50679Y-23966D01*
X50502Y-23966D01*
X50339Y-24033D01*
X50215Y-24158D01*
X50147Y-24320D01*
X50147Y-24497D01*
X50214Y-24660D01*
X50248Y-24694D01*
X50207Y-24694D01*
X50080Y-24746D01*
X49983Y-24843D01*
X49930Y-24970D01*
X49930Y-25107D01*
X49982Y-25234D01*
X50032Y-25284D01*
X49975Y-25284D01*
X49817Y-25126D01*
X49817Y-24795D01*
X49841Y-24785D01*
X49965Y-24660D01*
X50033Y-24497D01*
X50033Y-24321D01*
X49966Y-24158D01*
X49841Y-24034D01*
X49679Y-23966D01*
X49502Y-23966D01*
X49339Y-24033D01*
X49215Y-24158D01*
X49147Y-24320D01*
X49147Y-24497D01*
X49214Y-24660D01*
X49339Y-24784D01*
X49363Y-24794D01*
X49363Y-25220D01*
X49363Y-25220D01*
X49380Y-25307D01*
X49429Y-25381D01*
X49721Y-25672D01*
X49789Y-25717D01*
X49033Y-25717D01*
X49033Y-24321D01*
X48966Y-24158D01*
X48841Y-24034D01*
X48679Y-23966D01*
X48502Y-23966D01*
X48339Y-24033D01*
X48215Y-24158D01*
X48147Y-24320D01*
X48147Y-24497D01*
X48214Y-24660D01*
X48339Y-24784D01*
X48502Y-24852D01*
X48678Y-24852D01*
X48841Y-24785D01*
X48965Y-24660D01*
X49033Y-24497D01*
X49033Y-24321D01*
X49033Y-25717D01*
X48937Y-25717D01*
X48937Y-25717D01*
X48850Y-25735D01*
X48776Y-25784D01*
X47071Y-27489D01*
X46293Y-27489D01*
X46302Y-27483D01*
X47751Y-26034D01*
X47751Y-26034D01*
X47751Y-26034D01*
X47800Y-25960D01*
X47800Y-25960D01*
X47814Y-25891D01*
X47817Y-25874D01*
X47817Y-25874D01*
X47817Y-25874D01*
X47817Y-24795D01*
X47841Y-24785D01*
X47965Y-24660D01*
X48033Y-24497D01*
X48033Y-24321D01*
X47966Y-24158D01*
X47841Y-24034D01*
X47679Y-23966D01*
X47502Y-23966D01*
X47339Y-24033D01*
X47215Y-24158D01*
X47147Y-24320D01*
X47147Y-24497D01*
X47214Y-24660D01*
X47339Y-24784D01*
X47363Y-24794D01*
X47363Y-25779D01*
X47156Y-25987D01*
X47156Y-25118D01*
X47139Y-25031D01*
X47139Y-25031D01*
X47119Y-25001D01*
X47089Y-24957D01*
X47089Y-24957D01*
X46881Y-24749D01*
X46969Y-24660D01*
X47037Y-24497D01*
X47037Y-24321D01*
X46970Y-24158D01*
X46845Y-24034D01*
X46683Y-23966D01*
X46506Y-23966D01*
X46343Y-24033D01*
X46219Y-24158D01*
X46151Y-24320D01*
X46151Y-24497D01*
X46218Y-24660D01*
X46343Y-24784D01*
X46369Y-24795D01*
X46384Y-24870D01*
X46433Y-24944D01*
X46701Y-25212D01*
X46701Y-25623D01*
X46652Y-25573D01*
X46525Y-25520D01*
X46388Y-25520D01*
X46261Y-25573D01*
X46195Y-25638D01*
X46037Y-25638D01*
X46037Y-24321D01*
X45970Y-24158D01*
X45845Y-24034D01*
X45683Y-23966D01*
X45506Y-23966D01*
X45343Y-24033D01*
X45219Y-24158D01*
X45151Y-24320D01*
X45151Y-24497D01*
X45218Y-24660D01*
X45343Y-24784D01*
X45505Y-24852D01*
X45682Y-24852D01*
X45845Y-24785D01*
X45969Y-24660D01*
X46037Y-24497D01*
X46037Y-24321D01*
X46037Y-25638D01*
X45037Y-25638D01*
X45037Y-24321D01*
X44970Y-24158D01*
X44845Y-24034D01*
X44683Y-23966D01*
X44506Y-23966D01*
X44343Y-24033D01*
X44219Y-24158D01*
X44151Y-24320D01*
X44151Y-24497D01*
X44218Y-24660D01*
X44343Y-24784D01*
X44505Y-24852D01*
X44682Y-24852D01*
X44845Y-24785D01*
X44969Y-24660D01*
X45037Y-24497D01*
X45037Y-24321D01*
X45037Y-25638D01*
X44037Y-25638D01*
X44037Y-24321D01*
X43970Y-24158D01*
X43845Y-24034D01*
X43683Y-23966D01*
X43506Y-23966D01*
X43343Y-24033D01*
X43219Y-24158D01*
X43151Y-24320D01*
X43151Y-24497D01*
X43218Y-24660D01*
X43343Y-24784D01*
X43505Y-24852D01*
X43682Y-24852D01*
X43845Y-24785D01*
X43969Y-24660D01*
X44037Y-24497D01*
X44037Y-24321D01*
X44037Y-25638D01*
X43039Y-25638D01*
X43039Y-24329D01*
X42974Y-24165D01*
X42965Y-24151D01*
X42890Y-24126D01*
X42877Y-24138D01*
X42877Y-24113D01*
X42852Y-24038D01*
X42691Y-23968D01*
X42514Y-23964D01*
X42350Y-24029D01*
X42336Y-24038D01*
X42311Y-24113D01*
X42594Y-24396D01*
X42877Y-24113D01*
X42877Y-24138D01*
X42607Y-24409D01*
X42890Y-24692D01*
X42965Y-24667D01*
X43035Y-24506D01*
X43039Y-24329D01*
X43039Y-25638D01*
X42877Y-25638D01*
X42877Y-24705D01*
X42594Y-24422D01*
X42581Y-24435D01*
X42581Y-24409D01*
X42298Y-24126D01*
X42223Y-24151D01*
X42153Y-24312D01*
X42149Y-24489D01*
X42214Y-24653D01*
X42223Y-24667D01*
X42298Y-24692D01*
X42581Y-24409D01*
X42581Y-24435D01*
X42311Y-24705D01*
X42336Y-24780D01*
X42497Y-24850D01*
X42674Y-24854D01*
X42838Y-24789D01*
X42852Y-24780D01*
X42877Y-24705D01*
X42877Y-25638D01*
X42220Y-25638D01*
X41821Y-25240D01*
X41821Y-24852D01*
X41902Y-24852D01*
X41964Y-24827D01*
X42011Y-24779D01*
X42037Y-24718D01*
X42037Y-24651D01*
X42037Y-24101D01*
X42012Y-24039D01*
X41964Y-23992D01*
X41903Y-23966D01*
X41836Y-23966D01*
X41286Y-23966D01*
X41224Y-23991D01*
X41191Y-24024D01*
X41191Y-23927D01*
X54056Y-23927D01*
X54142Y-24014D01*
X54142Y-26918D01*
X54139Y-26918D01*
X54033Y-26918D01*
X54033Y-24651D01*
X54033Y-24101D01*
X54008Y-24039D01*
X53960Y-23992D01*
X53899Y-23966D01*
X53832Y-23966D01*
X53282Y-23966D01*
X53220Y-23991D01*
X53173Y-24039D01*
X53147Y-24100D01*
X53147Y-24167D01*
X53147Y-24717D01*
X53172Y-24779D01*
X53220Y-24826D01*
X53281Y-24852D01*
X53348Y-24852D01*
X53898Y-24852D01*
X53960Y-24827D01*
X54007Y-24779D01*
X54033Y-24718D01*
X54033Y-24651D01*
X54033Y-26918D01*
X53035Y-26918D01*
X53035Y-24329D01*
X52970Y-24165D01*
X52961Y-24151D01*
X52886Y-24126D01*
X52873Y-24138D01*
X52873Y-24113D01*
X52848Y-24038D01*
X52687Y-23968D01*
X52510Y-23964D01*
X52346Y-24029D01*
X52332Y-24038D01*
X52307Y-24113D01*
X52590Y-24396D01*
X52873Y-24113D01*
X52873Y-24138D01*
X52603Y-24409D01*
X52886Y-24692D01*
X52961Y-24667D01*
X53031Y-24506D01*
X53035Y-24329D01*
X53035Y-26918D01*
X51305Y-26918D01*
X51243Y-26944D01*
X51196Y-26991D01*
X51170Y-27053D01*
X51170Y-27119D01*
X51170Y-30269D01*
X51195Y-30331D01*
X51243Y-30378D01*
X51304Y-30404D01*
X51371Y-30404D01*
X54142Y-30404D01*
X54142Y-31930D01*
X54142Y-31930D01*
G37*
G54D19*
X54142Y-31930D02*
X54056Y-32016D01*
X53124Y-32016D01*
X53124Y-31169D01*
X53016Y-30887D01*
X52993Y-30851D01*
X52885Y-30788D01*
X52873Y-30801D01*
X52873Y-30775D01*
X52809Y-30668D01*
X52533Y-30544D01*
X52232Y-30536D01*
X51950Y-30644D01*
X51914Y-30668D01*
X51851Y-30775D01*
X52362Y-31286D01*
X52873Y-30775D01*
X52873Y-30801D01*
X52375Y-31299D01*
X52885Y-31810D01*
X52993Y-31746D01*
X53116Y-31470D01*
X53124Y-31169D01*
X53124Y-32016D01*
X52609Y-32016D01*
X52774Y-31953D01*
X52809Y-31930D01*
X52873Y-31822D01*
X52362Y-31312D01*
X52349Y-31324D01*
X52349Y-31299D01*
X51838Y-30788D01*
X51731Y-30851D01*
X51607Y-31127D01*
X51599Y-31429D01*
X51707Y-31711D01*
X51731Y-31746D01*
X51838Y-31810D01*
X52349Y-31299D01*
X52349Y-31324D01*
X51851Y-31822D01*
X51914Y-31930D01*
X52108Y-32016D01*
X50955Y-32016D01*
X50955Y-29428D01*
X50870Y-29221D01*
X50712Y-29063D01*
X50505Y-28977D01*
X50282Y-28977D01*
X50075Y-29062D01*
X49917Y-29220D01*
X49831Y-29427D01*
X49831Y-29650D01*
X49917Y-29857D01*
X50037Y-29977D01*
X50033Y-29977D01*
X49966Y-29977D01*
X49904Y-30003D01*
X49857Y-30050D01*
X49831Y-30112D01*
X49831Y-30488D01*
X49873Y-30530D01*
X50384Y-30530D01*
X50384Y-30522D01*
X50402Y-30522D01*
X50402Y-30530D01*
X50913Y-30530D01*
X50955Y-30488D01*
X50955Y-30112D01*
X50930Y-30050D01*
X50882Y-30003D01*
X50820Y-29977D01*
X50754Y-29977D01*
X50749Y-29977D01*
X50869Y-29858D01*
X50955Y-29651D01*
X50955Y-29428D01*
X50955Y-32016D01*
X50955Y-32016D01*
X50955Y-30966D01*
X50955Y-30590D01*
X50913Y-30548D01*
X50402Y-30548D01*
X50402Y-31059D01*
X50444Y-31101D01*
X50754Y-31101D01*
X50820Y-31101D01*
X50882Y-31075D01*
X50930Y-31028D01*
X50955Y-30966D01*
X50955Y-32016D01*
X50384Y-32016D01*
X50384Y-31059D01*
X50384Y-30548D01*
X49873Y-30548D01*
X49831Y-30590D01*
X49831Y-30966D01*
X49857Y-31028D01*
X49904Y-31075D01*
X49966Y-31101D01*
X50033Y-31101D01*
X50342Y-31101D01*
X50384Y-31059D01*
X50384Y-32016D01*
X48652Y-32016D01*
X48652Y-30226D01*
X48599Y-30099D01*
X48502Y-30002D01*
X48375Y-29949D01*
X48238Y-29949D01*
X48111Y-30002D01*
X48014Y-30099D01*
X47961Y-30225D01*
X47961Y-30363D01*
X48014Y-30490D01*
X48111Y-30587D01*
X48237Y-30639D01*
X48375Y-30640D01*
X48502Y-30587D01*
X48599Y-30490D01*
X48651Y-30363D01*
X48652Y-30226D01*
X48652Y-32016D01*
X46920Y-32016D01*
X46920Y-30226D01*
X46867Y-30099D01*
X46770Y-30002D01*
X46643Y-29949D01*
X46506Y-29949D01*
X46379Y-30002D01*
X46282Y-30099D01*
X46229Y-30225D01*
X46229Y-30363D01*
X46282Y-30490D01*
X46379Y-30587D01*
X46505Y-30639D01*
X46643Y-30640D01*
X46770Y-30587D01*
X46867Y-30490D01*
X46919Y-30363D01*
X46920Y-30226D01*
X46920Y-32016D01*
X32294Y-32016D01*
X32294Y-30202D01*
X32294Y-27119D01*
X32294Y-27053D01*
X32268Y-26991D01*
X32221Y-26944D01*
X32159Y-26918D01*
X30759Y-26918D01*
X30717Y-26960D01*
X30717Y-28652D01*
X32252Y-28652D01*
X32294Y-28610D01*
X32294Y-27119D01*
X32294Y-30202D01*
X32294Y-28712D01*
X32252Y-28670D01*
X30717Y-28670D01*
X30717Y-30362D01*
X30759Y-30404D01*
X32159Y-30404D01*
X32221Y-30378D01*
X32268Y-30331D01*
X32294Y-30269D01*
X32294Y-30202D01*
X32294Y-32016D01*
X32061Y-32016D01*
X32061Y-31169D01*
X31953Y-30887D01*
X31930Y-30851D01*
X31822Y-30788D01*
X31810Y-30801D01*
X31810Y-30775D01*
X31746Y-30668D01*
X31470Y-30544D01*
X31169Y-30536D01*
X30887Y-30644D01*
X30851Y-30668D01*
X30788Y-30775D01*
X31299Y-31286D01*
X31810Y-30775D01*
X31810Y-30801D01*
X31312Y-31299D01*
X31822Y-31810D01*
X31930Y-31746D01*
X32053Y-31470D01*
X32061Y-31169D01*
X32061Y-32016D01*
X31546Y-32016D01*
X31711Y-31953D01*
X31746Y-31930D01*
X31810Y-31822D01*
X31299Y-31312D01*
X31286Y-31324D01*
X31286Y-31299D01*
X30775Y-30788D01*
X30668Y-30851D01*
X30544Y-31127D01*
X30536Y-31429D01*
X30644Y-31711D01*
X30668Y-31746D01*
X30775Y-31810D01*
X31286Y-31299D01*
X31286Y-31324D01*
X30788Y-31822D01*
X30851Y-31930D01*
X31045Y-32016D01*
X29408Y-32016D01*
X29321Y-31930D01*
X29321Y-30404D01*
X30657Y-30404D01*
X30699Y-30362D01*
X30699Y-28670D01*
X30691Y-28670D01*
X30691Y-28652D01*
X30699Y-28652D01*
X30699Y-26960D01*
X30657Y-26918D01*
X29321Y-26918D01*
X29321Y-25168D01*
X30788Y-25168D01*
X30868Y-25249D01*
X31147Y-25364D01*
X31449Y-25365D01*
X31728Y-25249D01*
X31810Y-25168D01*
X34904Y-25168D01*
X34878Y-25193D01*
X34829Y-25267D01*
X34812Y-25354D01*
X34812Y-25354D01*
X34812Y-26922D01*
X34772Y-27017D01*
X34772Y-27154D01*
X34825Y-27281D01*
X34922Y-27379D01*
X35049Y-27431D01*
X35186Y-27431D01*
X35313Y-27379D01*
X35410Y-27282D01*
X35463Y-27155D01*
X35463Y-27018D01*
X35410Y-26891D01*
X35313Y-26794D01*
X35266Y-26774D01*
X35266Y-26603D01*
X35364Y-26644D01*
X35501Y-26644D01*
X35628Y-26592D01*
X35694Y-26526D01*
X41283Y-26526D01*
X41696Y-26938D01*
X41692Y-26938D01*
X41692Y-26938D01*
X40590Y-26938D01*
X37637Y-26938D01*
X37550Y-26955D01*
X37477Y-27004D01*
X37477Y-27004D01*
X35378Y-29103D01*
X35285Y-29103D01*
X35159Y-29155D01*
X35061Y-29252D01*
X35009Y-29379D01*
X35008Y-29517D01*
X35061Y-29644D01*
X35158Y-29741D01*
X35285Y-29794D01*
X35422Y-29794D01*
X35549Y-29741D01*
X35646Y-29644D01*
X35699Y-29517D01*
X35699Y-29424D01*
X36465Y-28658D01*
X36465Y-28729D01*
X36518Y-28856D01*
X36615Y-28953D01*
X36742Y-29006D01*
X36879Y-29006D01*
X37006Y-28954D01*
X37072Y-28888D01*
X48188Y-28888D01*
X48188Y-28888D01*
X48188Y-28888D01*
X48275Y-28871D01*
X48349Y-28822D01*
X50290Y-26880D01*
X51732Y-26880D01*
X51732Y-26880D01*
X51732Y-26880D01*
X51819Y-26863D01*
X51892Y-26814D01*
X52522Y-26184D01*
X52522Y-26184D01*
X52522Y-26184D01*
X52572Y-26110D01*
X52572Y-26110D01*
X52589Y-26023D01*
X52589Y-25000D01*
X52572Y-24913D01*
X52530Y-24851D01*
X52670Y-24854D01*
X52834Y-24789D01*
X52848Y-24780D01*
X52873Y-24705D01*
X52590Y-24422D01*
X52584Y-24427D01*
X52572Y-24415D01*
X52577Y-24409D01*
X52294Y-24126D01*
X52219Y-24151D01*
X52149Y-24312D01*
X52146Y-24462D01*
X52033Y-24350D01*
X52033Y-24321D01*
X51966Y-24158D01*
X51841Y-24034D01*
X51679Y-23966D01*
X51502Y-23966D01*
X51339Y-24033D01*
X51215Y-24158D01*
X51147Y-24320D01*
X51147Y-24497D01*
X51214Y-24660D01*
X51248Y-24694D01*
X50932Y-24694D01*
X50965Y-24660D01*
X51033Y-24497D01*
X51033Y-24321D01*
X50966Y-24158D01*
X50841Y-24034D01*
X50679Y-23966D01*
X50502Y-23966D01*
X50339Y-24033D01*
X50215Y-24158D01*
X50147Y-24320D01*
X50147Y-24497D01*
X50214Y-24660D01*
X50248Y-24694D01*
X50207Y-24694D01*
X50080Y-24746D01*
X49983Y-24843D01*
X49930Y-24970D01*
X49930Y-25107D01*
X49982Y-25234D01*
X50032Y-25284D01*
X49975Y-25284D01*
X49817Y-25126D01*
X49817Y-24795D01*
X49841Y-24785D01*
X49965Y-24660D01*
X50033Y-24497D01*
X50033Y-24321D01*
X49966Y-24158D01*
X49841Y-24034D01*
X49679Y-23966D01*
X49502Y-23966D01*
X49339Y-24033D01*
X49215Y-24158D01*
X49147Y-24320D01*
X49147Y-24497D01*
X49214Y-24660D01*
X49339Y-24784D01*
X49363Y-24794D01*
X49363Y-25220D01*
X49363Y-25220D01*
X49380Y-25307D01*
X49429Y-25381D01*
X49721Y-25672D01*
X49789Y-25717D01*
X49033Y-25717D01*
X49033Y-24321D01*
X48966Y-24158D01*
X48841Y-24034D01*
X48679Y-23966D01*
X48502Y-23966D01*
X48339Y-24033D01*
X48215Y-24158D01*
X48147Y-24320D01*
X48147Y-24497D01*
X48214Y-24660D01*
X48339Y-24784D01*
X48502Y-24852D01*
X48678Y-24852D01*
X48841Y-24785D01*
X48965Y-24660D01*
X49033Y-24497D01*
X49033Y-24321D01*
X49033Y-25717D01*
X48937Y-25717D01*
X48937Y-25717D01*
X48850Y-25735D01*
X48776Y-25784D01*
X47071Y-27489D01*
X46293Y-27489D01*
X46302Y-27483D01*
X47751Y-26034D01*
X47751Y-26034D01*
X47751Y-26034D01*
X47800Y-25960D01*
X47800Y-25960D01*
X47814Y-25891D01*
X47817Y-25874D01*
X47817Y-25874D01*
X47817Y-25874D01*
X47817Y-24795D01*
X47841Y-24785D01*
X47965Y-24660D01*
X48033Y-24497D01*
X48033Y-24321D01*
X47966Y-24158D01*
X47841Y-24034D01*
X47679Y-23966D01*
X47502Y-23966D01*
X47339Y-24033D01*
X47215Y-24158D01*
X47147Y-24320D01*
X47147Y-24497D01*
X47214Y-24660D01*
X47339Y-24784D01*
X47363Y-24794D01*
X47363Y-25779D01*
X47156Y-25987D01*
X47156Y-25118D01*
X47139Y-25031D01*
X47139Y-25031D01*
X47119Y-25001D01*
X47089Y-24957D01*
X47089Y-24957D01*
X46881Y-24749D01*
X46969Y-24660D01*
X47037Y-24497D01*
X47037Y-24321D01*
X46970Y-24158D01*
X46845Y-24034D01*
X46683Y-23966D01*
X46506Y-23966D01*
X46343Y-24033D01*
X46219Y-24158D01*
X46151Y-24320D01*
X46151Y-24497D01*
X46218Y-24660D01*
X46343Y-24784D01*
X46369Y-24795D01*
X46384Y-24870D01*
X46433Y-24944D01*
X46701Y-25212D01*
X46701Y-25623D01*
X46652Y-25573D01*
X46525Y-25520D01*
X46388Y-25520D01*
X46261Y-25573D01*
X46195Y-25638D01*
X46037Y-25638D01*
X46037Y-24321D01*
X45970Y-24158D01*
X45845Y-24034D01*
X45683Y-23966D01*
X45506Y-23966D01*
X45343Y-24033D01*
X45219Y-24158D01*
X45151Y-24320D01*
X45151Y-24497D01*
X45218Y-24660D01*
X45343Y-24784D01*
X45505Y-24852D01*
X45682Y-24852D01*
X45845Y-24785D01*
X45969Y-24660D01*
X46037Y-24497D01*
X46037Y-24321D01*
X46037Y-25638D01*
X45037Y-25638D01*
X45037Y-24321D01*
X44970Y-24158D01*
X44845Y-24034D01*
X44683Y-23966D01*
X44506Y-23966D01*
X44343Y-24033D01*
X44219Y-24158D01*
X44151Y-24320D01*
X44151Y-24497D01*
X44218Y-24660D01*
X44343Y-24784D01*
X44505Y-24852D01*
X44682Y-24852D01*
X44845Y-24785D01*
X44969Y-24660D01*
X45037Y-24497D01*
X45037Y-24321D01*
X45037Y-25638D01*
X44037Y-25638D01*
X44037Y-24321D01*
X43970Y-24158D01*
X43845Y-24034D01*
X43683Y-23966D01*
X43506Y-23966D01*
X43343Y-24033D01*
X43219Y-24158D01*
X43151Y-24320D01*
X43151Y-24497D01*
X43218Y-24660D01*
X43343Y-24784D01*
X43505Y-24852D01*
X43682Y-24852D01*
X43845Y-24785D01*
X43969Y-24660D01*
X44037Y-24497D01*
X44037Y-24321D01*
X44037Y-25638D01*
X43039Y-25638D01*
X43039Y-24329D01*
X42974Y-24165D01*
X42965Y-24151D01*
X42890Y-24126D01*
X42877Y-24138D01*
X42877Y-24113D01*
X42852Y-24038D01*
X42691Y-23968D01*
X42514Y-23964D01*
X42350Y-24029D01*
X42336Y-24038D01*
X42311Y-24113D01*
X42594Y-24396D01*
X42877Y-24113D01*
X42877Y-24138D01*
X42607Y-24409D01*
X42890Y-24692D01*
X42965Y-24667D01*
X43035Y-24506D01*
X43039Y-24329D01*
X43039Y-25638D01*
X42877Y-25638D01*
X42877Y-24705D01*
X42594Y-24422D01*
X42581Y-24435D01*
X42581Y-24409D01*
X42298Y-24126D01*
X42223Y-24151D01*
X42153Y-24312D01*
X42149Y-24489D01*
X42214Y-24653D01*
X42223Y-24667D01*
X42298Y-24692D01*
X42581Y-24409D01*
X42581Y-24435D01*
X42311Y-24705D01*
X42336Y-24780D01*
X42497Y-24850D01*
X42674Y-24854D01*
X42838Y-24789D01*
X42852Y-24780D01*
X42877Y-24705D01*
X42877Y-25638D01*
X42220Y-25638D01*
X41821Y-25240D01*
X41821Y-24852D01*
X41902Y-24852D01*
X41964Y-24827D01*
X42011Y-24779D01*
X42037Y-24718D01*
X42037Y-24651D01*
X42037Y-24101D01*
X42012Y-24039D01*
X41964Y-23992D01*
X41903Y-23966D01*
X41836Y-23966D01*
X41286Y-23966D01*
X41224Y-23991D01*
X41191Y-24024D01*
X41191Y-23927D01*
X54056Y-23927D01*
X54142Y-24014D01*
X54142Y-26918D01*
X54139Y-26918D01*
X54033Y-26918D01*
X54033Y-24651D01*
X54033Y-24101D01*
X54008Y-24039D01*
X53960Y-23992D01*
X53899Y-23966D01*
X53832Y-23966D01*
X53282Y-23966D01*
X53220Y-23991D01*
X53173Y-24039D01*
X53147Y-24100D01*
X53147Y-24167D01*
X53147Y-24717D01*
X53172Y-24779D01*
X53220Y-24826D01*
X53281Y-24852D01*
X53348Y-24852D01*
X53898Y-24852D01*
X53960Y-24827D01*
X54007Y-24779D01*
X54033Y-24718D01*
X54033Y-24651D01*
X54033Y-26918D01*
X53035Y-26918D01*
X53035Y-24329D01*
X52970Y-24165D01*
X52961Y-24151D01*
X52886Y-24126D01*
X52873Y-24138D01*
X52873Y-24113D01*
X52848Y-24038D01*
X52687Y-23968D01*
X52510Y-23964D01*
X52346Y-24029D01*
X52332Y-24038D01*
X52307Y-24113D01*
X52590Y-24396D01*
X52873Y-24113D01*
X52873Y-24138D01*
X52603Y-24409D01*
X52886Y-24692D01*
X52961Y-24667D01*
X53031Y-24506D01*
X53035Y-24329D01*
X53035Y-26918D01*
X51305Y-26918D01*
X51243Y-26944D01*
X51196Y-26991D01*
X51170Y-27053D01*
X51170Y-27119D01*
X51170Y-30269D01*
X51195Y-30331D01*
X51243Y-30378D01*
X51304Y-30404D01*
X51371Y-30404D01*
X54142Y-30404D01*
X54142Y-31930D01*
M02*
