G04 (created by PCBNEW (22-Jun-2014 BZR 4027)-stable) date sam. 02 janv. 2016 18:47:16 CET*
%MOIN*%
G04 Gerber Fmt 3.4, Leading zero omitted, Abs format*
%FSLAX34Y34*%
G01*
G70*
G90*
G04 APERTURE LIST*
%ADD10C,0.00590551*%
%ADD11C,0.012*%
%ADD12C,0.0026*%
%ADD13C,4.72441e-06*%
%ADD14C,0.005*%
%ADD15C,0.0039*%
%ADD16C,0.015*%
%ADD17C,0.0075*%
%ADD18C,0.00472441*%
G04 APERTURE END LIST*
G54D10*
G54D11*
X54090Y-24909D02*
X54090Y-24909D01*
X54090Y-23909D02*
X47090Y-23909D01*
X47090Y-24909D02*
X47090Y-23909D01*
X54090Y-23909D02*
X54090Y-24909D01*
X53090Y-23909D02*
X53090Y-23909D01*
X53090Y-23909D02*
X53090Y-24909D01*
G54D10*
X48661Y-27086D02*
X48661Y-26299D01*
X48661Y-26299D02*
X49448Y-26299D01*
X49448Y-26299D02*
X49448Y-27086D01*
X49448Y-27086D02*
X48661Y-27086D01*
G54D12*
X47558Y-26988D02*
X47558Y-26850D01*
X47558Y-26850D02*
X46772Y-26850D01*
X46772Y-26988D02*
X46772Y-26850D01*
X47558Y-26988D02*
X46772Y-26988D01*
X47558Y-26142D02*
X47558Y-26004D01*
X47558Y-26004D02*
X46772Y-26004D01*
X46772Y-26142D02*
X46772Y-26004D01*
X47558Y-26142D02*
X46772Y-26142D01*
G54D13*
X47716Y-27283D02*
X46614Y-27283D01*
X46614Y-27283D02*
X46614Y-25709D01*
X46614Y-25709D02*
X47716Y-25709D01*
X47716Y-25709D02*
X47716Y-27283D01*
G54D14*
X46713Y-26653D02*
X46713Y-26339D01*
X47617Y-26653D02*
X47617Y-26339D01*
X47558Y-26988D02*
X46772Y-26988D01*
X46772Y-26988D02*
X46772Y-26004D01*
X46772Y-26004D02*
X47558Y-26004D01*
X47558Y-26004D02*
X47558Y-26988D01*
G54D10*
X43307Y-31220D02*
X44881Y-31220D01*
X44881Y-31220D02*
X44881Y-28858D01*
X44881Y-28858D02*
X43307Y-28858D01*
X43307Y-28858D02*
X43307Y-31220D01*
X29921Y-25511D02*
X29921Y-27086D01*
X29921Y-27086D02*
X32283Y-27086D01*
X32283Y-27086D02*
X32283Y-25511D01*
X32283Y-25511D02*
X29921Y-25511D01*
G54D15*
X32427Y-30767D02*
G75*
G03X32427Y-30767I-50J0D01*
G74*
G01*
X32377Y-31217D02*
X32377Y-30817D01*
X32377Y-30817D02*
X32977Y-30817D01*
X32977Y-30817D02*
X32977Y-31217D01*
X32977Y-31617D02*
X32977Y-32017D01*
X32977Y-32017D02*
X32377Y-32017D01*
X32377Y-32017D02*
X32377Y-31617D01*
X48381Y-26949D02*
G75*
G03X48381Y-26949I-50J0D01*
G74*
G01*
X48331Y-26499D02*
X48331Y-26899D01*
X48331Y-26899D02*
X47731Y-26899D01*
X47731Y-26899D02*
X47731Y-26499D01*
X47731Y-26099D02*
X47731Y-25699D01*
X47731Y-25699D02*
X48331Y-25699D01*
X48331Y-25699D02*
X48331Y-26099D01*
X49759Y-26161D02*
G75*
G03X49759Y-26161I-50J0D01*
G74*
G01*
X49709Y-25711D02*
X49709Y-26111D01*
X49709Y-26111D02*
X49109Y-26111D01*
X49109Y-26111D02*
X49109Y-25711D01*
X49109Y-25311D02*
X49109Y-24911D01*
X49109Y-24911D02*
X49709Y-24911D01*
X49709Y-24911D02*
X49709Y-25311D01*
X46644Y-27977D02*
G75*
G03X46644Y-27977I-50J0D01*
G74*
G01*
X47044Y-27977D02*
X46644Y-27977D01*
X46644Y-27977D02*
X46644Y-27377D01*
X46644Y-27377D02*
X47044Y-27377D01*
X47444Y-27377D02*
X47844Y-27377D01*
X47844Y-27377D02*
X47844Y-27977D01*
X47844Y-27977D02*
X47444Y-27977D01*
X32820Y-26830D02*
G75*
G03X32820Y-26830I-50J0D01*
G74*
G01*
X32770Y-27280D02*
X32770Y-26880D01*
X32770Y-26880D02*
X33370Y-26880D01*
X33370Y-26880D02*
X33370Y-27280D01*
X33370Y-27680D02*
X33370Y-28080D01*
X33370Y-28080D02*
X32770Y-28080D01*
X32770Y-28080D02*
X32770Y-27680D01*
X48218Y-27780D02*
G75*
G03X48218Y-27780I-50J0D01*
G74*
G01*
X48618Y-27780D02*
X48218Y-27780D01*
X48218Y-27780D02*
X48218Y-27180D01*
X48218Y-27180D02*
X48618Y-27180D01*
X49018Y-27180D02*
X49418Y-27180D01*
X49418Y-27180D02*
X49418Y-27780D01*
X49418Y-27780D02*
X49018Y-27780D01*
G54D10*
X36023Y-23937D02*
X40157Y-23937D01*
X40157Y-23937D02*
X40157Y-24330D01*
X40157Y-24330D02*
X36023Y-24330D01*
X36023Y-24330D02*
X36023Y-23937D01*
X36023Y-23937D02*
X36220Y-23937D01*
X36220Y-23937D02*
X36023Y-23937D01*
X36023Y-23937D02*
X36220Y-23937D01*
X35433Y-24133D02*
G75*
G03X35433Y-24133I-393J0D01*
G74*
G01*
X34251Y-25118D02*
X34251Y-23346D01*
X34251Y-23346D02*
X40551Y-23346D01*
X40551Y-23346D02*
X40551Y-25118D01*
X34251Y-31417D02*
X34251Y-31811D01*
X34251Y-31811D02*
X40551Y-31811D01*
X40551Y-31811D02*
X40551Y-31417D01*
G54D11*
X50893Y-31039D02*
X49893Y-31039D01*
X49893Y-31039D02*
X49893Y-29039D01*
X49893Y-29039D02*
X50893Y-29039D01*
X50893Y-29039D02*
X50893Y-31039D01*
G54D10*
X50007Y-26413D02*
X50007Y-25429D01*
X50007Y-25429D02*
X50992Y-25429D01*
X50992Y-25429D02*
X50992Y-26413D01*
X50992Y-26413D02*
X50007Y-26413D01*
G54D15*
X54090Y-26555D02*
G75*
G03X54090Y-26555I-50J0D01*
G74*
G01*
X54040Y-26105D02*
X54040Y-26505D01*
X54040Y-26505D02*
X53440Y-26505D01*
X53440Y-26505D02*
X53440Y-26105D01*
X53440Y-25705D02*
X53440Y-25305D01*
X53440Y-25305D02*
X54040Y-25305D01*
X54040Y-25305D02*
X54040Y-25705D01*
X51915Y-25255D02*
G75*
G03X51915Y-25255I-50J0D01*
G74*
G01*
X51865Y-25705D02*
X51865Y-25305D01*
X51865Y-25305D02*
X52465Y-25305D01*
X52465Y-25305D02*
X52465Y-25705D01*
X52465Y-26105D02*
X52465Y-26505D01*
X52465Y-26505D02*
X51865Y-26505D01*
X51865Y-26505D02*
X51865Y-26105D01*
X52702Y-25255D02*
G75*
G03X52702Y-25255I-50J0D01*
G74*
G01*
X52652Y-25705D02*
X52652Y-25305D01*
X52652Y-25305D02*
X53252Y-25305D01*
X53252Y-25305D02*
X53252Y-25705D01*
X53252Y-26105D02*
X53252Y-26505D01*
X53252Y-26505D02*
X52652Y-26505D01*
X52652Y-26505D02*
X52652Y-26105D01*
G54D16*
X32199Y-24606D02*
G75*
G03X32199Y-24606I-900J0D01*
G74*
G01*
X32199Y-31299D02*
G75*
G03X32199Y-31299I-900J0D01*
G74*
G01*
X53262Y-31299D02*
G75*
G03X53262Y-31299I-900J0D01*
G74*
G01*
X45924Y-32046D02*
X48956Y-32046D01*
X45924Y-32440D02*
X48956Y-32440D01*
X48956Y-32440D02*
X48956Y-28818D01*
X48956Y-28818D02*
X45924Y-28818D01*
X45924Y-28818D02*
X45924Y-32440D01*
G54D10*
X41338Y-31220D02*
X42913Y-31220D01*
X42913Y-31220D02*
X42913Y-28858D01*
X42913Y-28858D02*
X41338Y-28858D01*
X41338Y-28858D02*
X41338Y-31220D01*
G54D15*
X32505Y-29389D02*
G75*
G03X32505Y-29389I-50J0D01*
G74*
G01*
X32455Y-29839D02*
X32455Y-29439D01*
X32455Y-29439D02*
X33055Y-29439D01*
X33055Y-29439D02*
X33055Y-29839D01*
X33055Y-30239D02*
X33055Y-30639D01*
X33055Y-30639D02*
X32455Y-30639D01*
X32455Y-30639D02*
X32455Y-30239D01*
G54D14*
X46072Y-27130D02*
X46072Y-27830D01*
X46072Y-27830D02*
X44872Y-27830D01*
X44872Y-27830D02*
X44872Y-27130D01*
X44872Y-27130D02*
X46072Y-27130D01*
G54D11*
X41094Y-24909D02*
X41094Y-23909D01*
X41094Y-23909D02*
X47094Y-23909D01*
X47094Y-23909D02*
X47094Y-24909D01*
X47094Y-24909D02*
X41094Y-24909D01*
X42094Y-24909D02*
X42094Y-23909D01*
G54D15*
X42313Y-25614D02*
G75*
G03X42313Y-25614I-50J0D01*
G74*
G01*
X42713Y-25614D02*
X42313Y-25614D01*
X42313Y-25614D02*
X42313Y-25014D01*
X42313Y-25014D02*
X42713Y-25014D01*
X43113Y-25014D02*
X43513Y-25014D01*
X43513Y-25014D02*
X43513Y-25614D01*
X43513Y-25614D02*
X43113Y-25614D01*
G54D17*
X51318Y-31997D02*
X50256Y-31997D01*
X50256Y-31387D02*
X51318Y-31387D01*
X51063Y-31387D02*
X51063Y-31997D01*
X51063Y-31692D02*
X50826Y-31456D01*
X50826Y-31456D02*
X50826Y-31928D01*
X50826Y-31928D02*
X51063Y-31692D01*
X42116Y-25610D02*
X42116Y-26672D01*
X41506Y-26672D02*
X41506Y-25610D01*
X41506Y-25865D02*
X42116Y-25865D01*
X41811Y-25865D02*
X41575Y-26102D01*
X41575Y-26102D02*
X42047Y-26102D01*
X42047Y-26102D02*
X41811Y-25865D01*
X49349Y-28572D02*
X48287Y-28572D01*
X48287Y-27962D02*
X49349Y-27962D01*
X49094Y-27962D02*
X49094Y-28572D01*
X49094Y-28267D02*
X48857Y-28031D01*
X48857Y-28031D02*
X48857Y-28503D01*
X48857Y-28503D02*
X49094Y-28267D01*
G54D10*
X49655Y-27011D02*
X49910Y-27011D01*
X49940Y-26996D01*
X49955Y-26981D01*
X49970Y-26951D01*
X49970Y-26891D01*
X49955Y-26861D01*
X49940Y-26846D01*
X49910Y-26831D01*
X49655Y-26831D01*
X49970Y-26516D02*
X49970Y-26696D01*
X49970Y-26606D02*
X49655Y-26606D01*
X49700Y-26636D01*
X49730Y-26666D01*
X49745Y-26696D01*
X46584Y-26981D02*
X46584Y-27131D01*
X46269Y-27131D01*
X46584Y-26711D02*
X46584Y-26891D01*
X46584Y-26801D02*
X46269Y-26801D01*
X46314Y-26831D01*
X46344Y-26861D01*
X46359Y-26891D01*
X46269Y-26464D02*
X46269Y-26269D01*
X46389Y-26374D01*
X46389Y-26329D01*
X46404Y-26299D01*
X46419Y-26284D01*
X46449Y-26269D01*
X46524Y-26269D01*
X46554Y-26284D01*
X46569Y-26299D01*
X46584Y-26329D01*
X46584Y-26419D01*
X46569Y-26449D01*
X46554Y-26464D01*
X46554Y-26134D02*
X46569Y-26119D01*
X46584Y-26134D01*
X46569Y-26149D01*
X46554Y-26134D01*
X46584Y-26134D01*
X46269Y-26014D02*
X46269Y-25819D01*
X46389Y-25924D01*
X46389Y-25879D01*
X46404Y-25849D01*
X46419Y-25834D01*
X46449Y-25819D01*
X46524Y-25819D01*
X46554Y-25834D01*
X46569Y-25849D01*
X46584Y-25879D01*
X46584Y-25969D01*
X46569Y-25999D01*
X46554Y-26014D01*
X46374Y-25549D02*
X46584Y-25549D01*
X46374Y-25684D02*
X46539Y-25684D01*
X46569Y-25669D01*
X46584Y-25639D01*
X46584Y-25594D01*
X46569Y-25564D01*
X46554Y-25549D01*
X46584Y-25399D02*
X46269Y-25399D01*
X46419Y-25399D02*
X46419Y-25219D01*
X46584Y-25219D02*
X46269Y-25219D01*
X42887Y-31726D02*
X42932Y-31741D01*
X43007Y-31741D01*
X43037Y-31726D01*
X43052Y-31711D01*
X43067Y-31681D01*
X43067Y-31651D01*
X43052Y-31621D01*
X43037Y-31606D01*
X43007Y-31591D01*
X42947Y-31576D01*
X42917Y-31561D01*
X42902Y-31546D01*
X42887Y-31516D01*
X42887Y-31486D01*
X42902Y-31456D01*
X42917Y-31441D01*
X42947Y-31426D01*
X43022Y-31426D01*
X43067Y-31441D01*
X43172Y-31426D02*
X43247Y-31741D01*
X43307Y-31516D01*
X43367Y-31741D01*
X43442Y-31426D01*
X43547Y-31456D02*
X43562Y-31441D01*
X43592Y-31426D01*
X43667Y-31426D01*
X43697Y-31441D01*
X43712Y-31456D01*
X43727Y-31486D01*
X43727Y-31516D01*
X43712Y-31561D01*
X43532Y-31741D01*
X43727Y-31741D01*
X43466Y-28498D02*
X43481Y-28453D01*
X43496Y-28438D01*
X43526Y-28423D01*
X43571Y-28423D01*
X43601Y-28438D01*
X43616Y-28453D01*
X43631Y-28483D01*
X43631Y-28603D01*
X43316Y-28603D01*
X43316Y-28498D01*
X43331Y-28468D01*
X43346Y-28453D01*
X43376Y-28438D01*
X43406Y-28438D01*
X43436Y-28453D01*
X43451Y-28468D01*
X43466Y-28498D01*
X43466Y-28603D01*
X43316Y-28228D02*
X43316Y-28168D01*
X43331Y-28138D01*
X43361Y-28108D01*
X43421Y-28093D01*
X43526Y-28093D01*
X43586Y-28108D01*
X43616Y-28138D01*
X43631Y-28168D01*
X43631Y-28228D01*
X43616Y-28258D01*
X43586Y-28288D01*
X43526Y-28303D01*
X43421Y-28303D01*
X43361Y-28288D01*
X43331Y-28258D01*
X43316Y-28228D01*
X43316Y-27898D02*
X43316Y-27838D01*
X43331Y-27808D01*
X43361Y-27778D01*
X43421Y-27763D01*
X43526Y-27763D01*
X43586Y-27778D01*
X43616Y-27808D01*
X43631Y-27838D01*
X43631Y-27898D01*
X43616Y-27928D01*
X43586Y-27958D01*
X43526Y-27973D01*
X43421Y-27973D01*
X43361Y-27958D01*
X43331Y-27928D01*
X43316Y-27898D01*
X43316Y-27673D02*
X43316Y-27493D01*
X43631Y-27583D02*
X43316Y-27583D01*
X31272Y-24640D02*
X31317Y-24655D01*
X31392Y-24655D01*
X31422Y-24640D01*
X31437Y-24625D01*
X31452Y-24595D01*
X31452Y-24565D01*
X31437Y-24535D01*
X31422Y-24520D01*
X31392Y-24505D01*
X31332Y-24490D01*
X31302Y-24475D01*
X31287Y-24460D01*
X31272Y-24430D01*
X31272Y-24400D01*
X31287Y-24370D01*
X31302Y-24355D01*
X31332Y-24340D01*
X31407Y-24340D01*
X31452Y-24355D01*
X31557Y-24340D02*
X31632Y-24655D01*
X31692Y-24430D01*
X31752Y-24655D01*
X31827Y-24340D01*
X32112Y-24655D02*
X31932Y-24655D01*
X32022Y-24655D02*
X32022Y-24340D01*
X31992Y-24385D01*
X31962Y-24415D01*
X31932Y-24430D01*
X31520Y-25245D02*
X31415Y-25095D01*
X31340Y-25245D02*
X31340Y-24930D01*
X31460Y-24930D01*
X31490Y-24945D01*
X31505Y-24960D01*
X31520Y-24990D01*
X31520Y-25035D01*
X31505Y-25065D01*
X31490Y-25080D01*
X31460Y-25095D01*
X31340Y-25095D01*
X31640Y-25230D02*
X31685Y-25245D01*
X31760Y-25245D01*
X31790Y-25230D01*
X31805Y-25215D01*
X31820Y-25185D01*
X31820Y-25155D01*
X31805Y-25125D01*
X31790Y-25110D01*
X31760Y-25095D01*
X31700Y-25080D01*
X31670Y-25065D01*
X31655Y-25050D01*
X31640Y-25020D01*
X31640Y-24990D01*
X31655Y-24960D01*
X31670Y-24945D01*
X31700Y-24930D01*
X31775Y-24930D01*
X31820Y-24945D01*
X31910Y-24930D02*
X32090Y-24930D01*
X32000Y-25245D02*
X32000Y-24930D01*
X33365Y-31469D02*
X33380Y-31484D01*
X33395Y-31529D01*
X33395Y-31559D01*
X33380Y-31604D01*
X33350Y-31634D01*
X33320Y-31649D01*
X33260Y-31664D01*
X33215Y-31664D01*
X33155Y-31649D01*
X33125Y-31634D01*
X33095Y-31604D01*
X33080Y-31559D01*
X33080Y-31529D01*
X33095Y-31484D01*
X33110Y-31469D01*
X33080Y-31364D02*
X33080Y-31169D01*
X33200Y-31274D01*
X33200Y-31229D01*
X33215Y-31199D01*
X33230Y-31184D01*
X33260Y-31169D01*
X33335Y-31169D01*
X33365Y-31184D01*
X33380Y-31199D01*
X33395Y-31229D01*
X33395Y-31319D01*
X33380Y-31349D01*
X33365Y-31364D01*
X32214Y-31904D02*
X32214Y-32084D01*
X32214Y-31994D02*
X31899Y-31994D01*
X31944Y-32024D01*
X31974Y-32054D01*
X31989Y-32084D01*
X31899Y-31709D02*
X31899Y-31679D01*
X31914Y-31649D01*
X31929Y-31634D01*
X31959Y-31619D01*
X32019Y-31604D01*
X32094Y-31604D01*
X32154Y-31619D01*
X32184Y-31634D01*
X32199Y-31649D01*
X32214Y-31679D01*
X32214Y-31709D01*
X32199Y-31739D01*
X32184Y-31754D01*
X32154Y-31769D01*
X32094Y-31784D01*
X32019Y-31784D01*
X31959Y-31769D01*
X31929Y-31754D01*
X31914Y-31739D01*
X31899Y-31709D01*
X31899Y-31409D02*
X31899Y-31379D01*
X31914Y-31349D01*
X31929Y-31334D01*
X31959Y-31319D01*
X32019Y-31304D01*
X32094Y-31304D01*
X32154Y-31319D01*
X32184Y-31334D01*
X32199Y-31349D01*
X32214Y-31379D01*
X32214Y-31409D01*
X32199Y-31439D01*
X32184Y-31454D01*
X32154Y-31469D01*
X32094Y-31484D01*
X32019Y-31484D01*
X31959Y-31469D01*
X31929Y-31454D01*
X31914Y-31439D01*
X31899Y-31409D01*
X32004Y-31169D02*
X32214Y-31169D01*
X32034Y-31169D02*
X32019Y-31154D01*
X32004Y-31124D01*
X32004Y-31079D01*
X32019Y-31049D01*
X32049Y-31034D01*
X32214Y-31034D01*
X32049Y-30779D02*
X32049Y-30884D01*
X32214Y-30884D02*
X31899Y-30884D01*
X31899Y-30734D01*
X48719Y-26036D02*
X48734Y-26051D01*
X48749Y-26096D01*
X48749Y-26126D01*
X48734Y-26171D01*
X48704Y-26201D01*
X48674Y-26216D01*
X48614Y-26231D01*
X48569Y-26231D01*
X48509Y-26216D01*
X48479Y-26201D01*
X48449Y-26171D01*
X48434Y-26126D01*
X48434Y-26096D01*
X48449Y-26051D01*
X48464Y-26036D01*
X48464Y-25916D02*
X48449Y-25901D01*
X48434Y-25871D01*
X48434Y-25796D01*
X48449Y-25766D01*
X48464Y-25751D01*
X48494Y-25736D01*
X48524Y-25736D01*
X48569Y-25751D01*
X48749Y-25931D01*
X48749Y-25736D01*
X47395Y-25275D02*
X47410Y-25260D01*
X47440Y-25245D01*
X47515Y-25245D01*
X47545Y-25260D01*
X47560Y-25275D01*
X47575Y-25305D01*
X47575Y-25335D01*
X47560Y-25380D01*
X47380Y-25560D01*
X47575Y-25560D01*
X47695Y-25275D02*
X47710Y-25260D01*
X47740Y-25245D01*
X47815Y-25245D01*
X47845Y-25260D01*
X47860Y-25275D01*
X47875Y-25305D01*
X47875Y-25335D01*
X47860Y-25380D01*
X47680Y-25560D01*
X47875Y-25560D01*
X48145Y-25350D02*
X48145Y-25560D01*
X48010Y-25350D02*
X48010Y-25515D01*
X48025Y-25545D01*
X48055Y-25560D01*
X48100Y-25560D01*
X48130Y-25545D01*
X48145Y-25530D01*
X48400Y-25395D02*
X48295Y-25395D01*
X48295Y-25560D02*
X48295Y-25245D01*
X48445Y-25245D01*
X48955Y-25052D02*
X48970Y-25067D01*
X48985Y-25112D01*
X48985Y-25142D01*
X48970Y-25187D01*
X48940Y-25217D01*
X48910Y-25232D01*
X48850Y-25247D01*
X48805Y-25247D01*
X48745Y-25232D01*
X48715Y-25217D01*
X48685Y-25187D01*
X48670Y-25142D01*
X48670Y-25112D01*
X48685Y-25067D01*
X48700Y-25052D01*
X48775Y-24782D02*
X48985Y-24782D01*
X48655Y-24857D02*
X48880Y-24932D01*
X48880Y-24737D01*
G54D18*
X48943Y-25646D02*
X48786Y-25646D01*
X48864Y-25646D02*
X48864Y-25410D01*
X48838Y-25444D01*
X48812Y-25466D01*
X48786Y-25478D01*
X49114Y-25410D02*
X49140Y-25410D01*
X49166Y-25421D01*
X49179Y-25433D01*
X49192Y-25455D01*
X49206Y-25500D01*
X49206Y-25556D01*
X49192Y-25601D01*
X49179Y-25624D01*
X49166Y-25635D01*
X49140Y-25646D01*
X49114Y-25646D01*
X49087Y-25635D01*
X49074Y-25624D01*
X49061Y-25601D01*
X49048Y-25556D01*
X49048Y-25500D01*
X49061Y-25455D01*
X49074Y-25433D01*
X49087Y-25421D01*
X49114Y-25410D01*
X49376Y-25410D02*
X49402Y-25410D01*
X49429Y-25421D01*
X49442Y-25433D01*
X49455Y-25455D01*
X49468Y-25500D01*
X49468Y-25556D01*
X49455Y-25601D01*
X49442Y-25624D01*
X49429Y-25635D01*
X49402Y-25646D01*
X49376Y-25646D01*
X49350Y-25635D01*
X49337Y-25624D01*
X49324Y-25601D01*
X49311Y-25556D01*
X49311Y-25500D01*
X49324Y-25455D01*
X49337Y-25433D01*
X49350Y-25421D01*
X49376Y-25410D01*
X49586Y-25489D02*
X49586Y-25646D01*
X49586Y-25511D02*
X49599Y-25500D01*
X49625Y-25489D01*
X49665Y-25489D01*
X49691Y-25500D01*
X49704Y-25523D01*
X49704Y-25646D01*
X49927Y-25523D02*
X49835Y-25523D01*
X49835Y-25646D02*
X49835Y-25410D01*
X49967Y-25410D01*
G54D10*
X46584Y-27729D02*
X46434Y-27834D01*
X46584Y-27909D02*
X46269Y-27909D01*
X46269Y-27789D01*
X46284Y-27759D01*
X46299Y-27744D01*
X46329Y-27729D01*
X46374Y-27729D01*
X46404Y-27744D01*
X46419Y-27759D01*
X46434Y-27789D01*
X46434Y-27909D01*
X46584Y-27429D02*
X46584Y-27609D01*
X46584Y-27519D02*
X46269Y-27519D01*
X46314Y-27549D01*
X46344Y-27579D01*
X46359Y-27609D01*
G54D18*
X47355Y-27729D02*
X47355Y-27887D01*
X47355Y-27808D02*
X47080Y-27808D01*
X47119Y-27834D01*
X47145Y-27860D01*
X47158Y-27887D01*
X47080Y-27559D02*
X47080Y-27532D01*
X47093Y-27506D01*
X47106Y-27493D01*
X47132Y-27480D01*
X47185Y-27467D01*
X47250Y-27467D01*
X47303Y-27480D01*
X47329Y-27493D01*
X47342Y-27506D01*
X47355Y-27532D01*
X47355Y-27559D01*
X47342Y-27585D01*
X47329Y-27598D01*
X47303Y-27611D01*
X47250Y-27624D01*
X47185Y-27624D01*
X47132Y-27611D01*
X47106Y-27598D01*
X47093Y-27585D01*
X47080Y-27559D01*
G54D10*
X32607Y-27926D02*
X32457Y-28031D01*
X32607Y-28106D02*
X32292Y-28106D01*
X32292Y-27986D01*
X32307Y-27956D01*
X32322Y-27941D01*
X32352Y-27926D01*
X32397Y-27926D01*
X32427Y-27941D01*
X32442Y-27956D01*
X32457Y-27986D01*
X32457Y-28106D01*
X32322Y-27806D02*
X32307Y-27791D01*
X32292Y-27761D01*
X32292Y-27686D01*
X32307Y-27656D01*
X32322Y-27641D01*
X32352Y-27626D01*
X32382Y-27626D01*
X32427Y-27641D01*
X32607Y-27821D01*
X32607Y-27626D01*
X32607Y-27320D02*
X32607Y-27500D01*
X32607Y-27410D02*
X32292Y-27410D01*
X32337Y-27440D01*
X32367Y-27470D01*
X32382Y-27500D01*
X32607Y-27185D02*
X32292Y-27185D01*
X32487Y-27155D02*
X32607Y-27065D01*
X32397Y-27065D02*
X32517Y-27185D01*
X49632Y-27577D02*
X49617Y-27592D01*
X49572Y-27607D01*
X49542Y-27607D01*
X49497Y-27592D01*
X49467Y-27562D01*
X49452Y-27532D01*
X49437Y-27472D01*
X49437Y-27427D01*
X49452Y-27367D01*
X49467Y-27337D01*
X49497Y-27307D01*
X49542Y-27292D01*
X49572Y-27292D01*
X49617Y-27307D01*
X49632Y-27322D01*
X49932Y-27607D02*
X49752Y-27607D01*
X49842Y-27607D02*
X49842Y-27292D01*
X49812Y-27337D01*
X49782Y-27367D01*
X49752Y-27382D01*
G54D18*
X48720Y-27789D02*
X48707Y-27778D01*
X48694Y-27755D01*
X48694Y-27699D01*
X48707Y-27677D01*
X48720Y-27665D01*
X48746Y-27654D01*
X48772Y-27654D01*
X48812Y-27665D01*
X48969Y-27800D01*
X48969Y-27654D01*
X48720Y-27564D02*
X48707Y-27553D01*
X48694Y-27530D01*
X48694Y-27474D01*
X48707Y-27452D01*
X48720Y-27440D01*
X48746Y-27429D01*
X48772Y-27429D01*
X48812Y-27440D01*
X48969Y-27575D01*
X48969Y-27429D01*
X48786Y-27227D02*
X48969Y-27227D01*
X48786Y-27328D02*
X48930Y-27328D01*
X48956Y-27317D01*
X48969Y-27294D01*
X48969Y-27260D01*
X48956Y-27238D01*
X48943Y-27227D01*
X48825Y-27035D02*
X48825Y-27114D01*
X48969Y-27114D02*
X48694Y-27114D01*
X48694Y-27002D01*
G54D10*
X37161Y-29064D02*
X37161Y-29319D01*
X37176Y-29349D01*
X37191Y-29364D01*
X37221Y-29379D01*
X37281Y-29379D01*
X37311Y-29364D01*
X37326Y-29349D01*
X37341Y-29319D01*
X37341Y-29064D01*
X37461Y-29064D02*
X37656Y-29064D01*
X37551Y-29184D01*
X37596Y-29184D01*
X37626Y-29199D01*
X37641Y-29214D01*
X37656Y-29244D01*
X37656Y-29319D01*
X37641Y-29349D01*
X37626Y-29364D01*
X37596Y-29379D01*
X37506Y-29379D01*
X37476Y-29364D01*
X37461Y-29349D01*
X36246Y-27245D02*
X36351Y-27245D01*
X36396Y-27410D02*
X36246Y-27410D01*
X36246Y-27095D01*
X36396Y-27095D01*
X36516Y-27395D02*
X36561Y-27410D01*
X36636Y-27410D01*
X36666Y-27395D01*
X36681Y-27380D01*
X36696Y-27350D01*
X36696Y-27320D01*
X36681Y-27290D01*
X36666Y-27275D01*
X36636Y-27260D01*
X36576Y-27245D01*
X36546Y-27230D01*
X36531Y-27215D01*
X36516Y-27185D01*
X36516Y-27155D01*
X36531Y-27125D01*
X36546Y-27110D01*
X36576Y-27095D01*
X36651Y-27095D01*
X36696Y-27110D01*
X36831Y-27410D02*
X36831Y-27095D01*
X36951Y-27095D01*
X36981Y-27110D01*
X36996Y-27125D01*
X37011Y-27155D01*
X37011Y-27200D01*
X36996Y-27230D01*
X36981Y-27245D01*
X36951Y-27260D01*
X36831Y-27260D01*
X37146Y-27290D02*
X37386Y-27290D01*
X37596Y-27095D02*
X37626Y-27095D01*
X37656Y-27110D01*
X37671Y-27125D01*
X37686Y-27155D01*
X37701Y-27215D01*
X37701Y-27290D01*
X37686Y-27350D01*
X37671Y-27380D01*
X37656Y-27395D01*
X37626Y-27410D01*
X37596Y-27410D01*
X37566Y-27395D01*
X37551Y-27380D01*
X37536Y-27350D01*
X37521Y-27290D01*
X37521Y-27215D01*
X37536Y-27155D01*
X37551Y-27125D01*
X37566Y-27110D01*
X37596Y-27095D01*
X37806Y-27095D02*
X38016Y-27095D01*
X37881Y-27410D01*
X38091Y-27095D02*
X38196Y-27410D01*
X38301Y-27095D01*
X38391Y-27125D02*
X38406Y-27110D01*
X38436Y-27095D01*
X38511Y-27095D01*
X38541Y-27110D01*
X38556Y-27125D01*
X38571Y-27155D01*
X38571Y-27185D01*
X38556Y-27230D01*
X38376Y-27410D01*
X38571Y-27410D01*
X49964Y-31544D02*
X49964Y-31229D01*
X50084Y-31229D01*
X50114Y-31244D01*
X50129Y-31259D01*
X50144Y-31289D01*
X50144Y-31334D01*
X50129Y-31364D01*
X50114Y-31379D01*
X50084Y-31394D01*
X49964Y-31394D01*
X50444Y-31544D02*
X50264Y-31544D01*
X50354Y-31544D02*
X50354Y-31229D01*
X50324Y-31274D01*
X50294Y-31304D01*
X50264Y-31319D01*
X49679Y-30988D02*
X49694Y-30943D01*
X49694Y-30868D01*
X49679Y-30838D01*
X49664Y-30823D01*
X49634Y-30808D01*
X49604Y-30808D01*
X49574Y-30823D01*
X49559Y-30838D01*
X49544Y-30868D01*
X49529Y-30928D01*
X49514Y-30958D01*
X49499Y-30973D01*
X49469Y-30988D01*
X49439Y-30988D01*
X49409Y-30973D01*
X49394Y-30958D01*
X49379Y-30928D01*
X49379Y-30853D01*
X49394Y-30808D01*
X49694Y-30628D02*
X49679Y-30658D01*
X49664Y-30673D01*
X49634Y-30688D01*
X49544Y-30688D01*
X49514Y-30673D01*
X49499Y-30658D01*
X49484Y-30628D01*
X49484Y-30583D01*
X49499Y-30553D01*
X49514Y-30538D01*
X49544Y-30523D01*
X49634Y-30523D01*
X49664Y-30538D01*
X49679Y-30553D01*
X49694Y-30583D01*
X49694Y-30628D01*
X49694Y-30343D02*
X49679Y-30373D01*
X49649Y-30388D01*
X49379Y-30388D01*
X49694Y-30088D02*
X49529Y-30088D01*
X49499Y-30103D01*
X49484Y-30133D01*
X49484Y-30193D01*
X49499Y-30223D01*
X49679Y-30088D02*
X49694Y-30118D01*
X49694Y-30193D01*
X49679Y-30223D01*
X49649Y-30238D01*
X49619Y-30238D01*
X49589Y-30223D01*
X49574Y-30193D01*
X49574Y-30118D01*
X49559Y-30088D01*
X49694Y-29938D02*
X49484Y-29938D01*
X49544Y-29938D02*
X49514Y-29923D01*
X49499Y-29908D01*
X49484Y-29878D01*
X49484Y-29848D01*
X50389Y-24930D02*
X50389Y-25185D01*
X50404Y-25215D01*
X50419Y-25230D01*
X50449Y-25245D01*
X50509Y-25245D01*
X50539Y-25230D01*
X50554Y-25215D01*
X50569Y-25185D01*
X50569Y-24930D01*
X50704Y-24960D02*
X50719Y-24945D01*
X50749Y-24930D01*
X50824Y-24930D01*
X50854Y-24945D01*
X50869Y-24960D01*
X50884Y-24990D01*
X50884Y-25020D01*
X50869Y-25065D01*
X50689Y-25245D01*
X50884Y-25245D01*
X51222Y-26205D02*
X51237Y-26160D01*
X51252Y-26145D01*
X51282Y-26130D01*
X51327Y-26130D01*
X51357Y-26145D01*
X51372Y-26160D01*
X51387Y-26190D01*
X51387Y-26310D01*
X51072Y-26310D01*
X51072Y-26205D01*
X51087Y-26175D01*
X51102Y-26160D01*
X51132Y-26145D01*
X51162Y-26145D01*
X51192Y-26160D01*
X51207Y-26175D01*
X51222Y-26205D01*
X51222Y-26310D01*
X51387Y-25995D02*
X51072Y-25995D01*
X51297Y-25890D01*
X51072Y-25785D01*
X51387Y-25785D01*
X51222Y-25635D02*
X51222Y-25530D01*
X51387Y-25485D02*
X51387Y-25635D01*
X51072Y-25635D01*
X51072Y-25485D01*
X51111Y-27870D02*
X50796Y-27870D01*
X51111Y-27690D02*
X50931Y-27825D01*
X50796Y-27690D02*
X50976Y-27870D01*
X51111Y-27390D02*
X51111Y-27570D01*
X51111Y-27480D02*
X50796Y-27480D01*
X50841Y-27510D01*
X50871Y-27540D01*
X50886Y-27570D01*
X53884Y-25245D02*
X53779Y-25095D01*
X53704Y-25245D02*
X53704Y-24930D01*
X53824Y-24930D01*
X53854Y-24945D01*
X53869Y-24960D01*
X53884Y-24990D01*
X53884Y-25035D01*
X53869Y-25065D01*
X53854Y-25080D01*
X53824Y-25095D01*
X53704Y-25095D01*
X53989Y-24930D02*
X54184Y-24930D01*
X54079Y-25050D01*
X54124Y-25050D01*
X54154Y-25065D01*
X54169Y-25080D01*
X54184Y-25110D01*
X54184Y-25185D01*
X54169Y-25215D01*
X54154Y-25230D01*
X54124Y-25245D01*
X54034Y-25245D01*
X54004Y-25230D01*
X53989Y-25215D01*
X53205Y-26614D02*
X53220Y-26599D01*
X53250Y-26584D01*
X53325Y-26584D01*
X53355Y-26599D01*
X53370Y-26614D01*
X53385Y-26644D01*
X53385Y-26674D01*
X53370Y-26719D01*
X53190Y-26899D01*
X53385Y-26899D01*
X53520Y-26869D02*
X53535Y-26884D01*
X53520Y-26899D01*
X53505Y-26884D01*
X53520Y-26869D01*
X53520Y-26899D01*
X53655Y-26614D02*
X53670Y-26599D01*
X53700Y-26584D01*
X53775Y-26584D01*
X53805Y-26599D01*
X53820Y-26614D01*
X53835Y-26644D01*
X53835Y-26674D01*
X53820Y-26719D01*
X53640Y-26899D01*
X53835Y-26899D01*
X53970Y-26899D02*
X53970Y-26584D01*
X54075Y-26809D01*
X54180Y-26584D01*
X54180Y-26899D01*
X51601Y-25166D02*
X51496Y-25016D01*
X51421Y-25166D02*
X51421Y-24851D01*
X51541Y-24851D01*
X51571Y-24866D01*
X51586Y-24881D01*
X51601Y-24911D01*
X51601Y-24956D01*
X51586Y-24986D01*
X51571Y-25001D01*
X51541Y-25016D01*
X51421Y-25016D01*
X51871Y-24956D02*
X51871Y-25166D01*
X51796Y-24836D02*
X51721Y-25061D01*
X51916Y-25061D01*
X51158Y-26614D02*
X51173Y-26599D01*
X51203Y-26584D01*
X51278Y-26584D01*
X51308Y-26599D01*
X51323Y-26614D01*
X51338Y-26644D01*
X51338Y-26674D01*
X51323Y-26719D01*
X51143Y-26899D01*
X51338Y-26899D01*
X51473Y-26869D02*
X51488Y-26884D01*
X51473Y-26899D01*
X51458Y-26884D01*
X51473Y-26869D01*
X51473Y-26899D01*
X51608Y-26614D02*
X51623Y-26599D01*
X51653Y-26584D01*
X51728Y-26584D01*
X51758Y-26599D01*
X51773Y-26614D01*
X51788Y-26644D01*
X51788Y-26674D01*
X51773Y-26719D01*
X51593Y-26899D01*
X51788Y-26899D01*
X51923Y-26899D02*
X51923Y-26584D01*
X52028Y-26809D01*
X52133Y-26584D01*
X52133Y-26899D01*
X52624Y-26869D02*
X52609Y-26884D01*
X52564Y-26899D01*
X52534Y-26899D01*
X52489Y-26884D01*
X52459Y-26854D01*
X52444Y-26824D01*
X52429Y-26764D01*
X52429Y-26719D01*
X52444Y-26659D01*
X52459Y-26629D01*
X52489Y-26599D01*
X52534Y-26584D01*
X52564Y-26584D01*
X52609Y-26599D01*
X52624Y-26614D01*
X52894Y-26584D02*
X52834Y-26584D01*
X52804Y-26599D01*
X52789Y-26614D01*
X52759Y-26659D01*
X52744Y-26719D01*
X52744Y-26839D01*
X52759Y-26869D01*
X52774Y-26884D01*
X52804Y-26899D01*
X52864Y-26899D01*
X52894Y-26884D01*
X52909Y-26869D01*
X52924Y-26839D01*
X52924Y-26764D01*
X52909Y-26734D01*
X52894Y-26719D01*
X52864Y-26704D01*
X52804Y-26704D01*
X52774Y-26719D01*
X52759Y-26734D01*
X52744Y-26764D01*
X52347Y-25166D02*
X52167Y-25166D01*
X52257Y-25166D02*
X52257Y-24851D01*
X52227Y-24896D01*
X52197Y-24926D01*
X52167Y-24941D01*
X52542Y-24851D02*
X52572Y-24851D01*
X52602Y-24866D01*
X52617Y-24881D01*
X52632Y-24911D01*
X52647Y-24971D01*
X52647Y-25046D01*
X52632Y-25106D01*
X52617Y-25136D01*
X52602Y-25151D01*
X52572Y-25166D01*
X52542Y-25166D01*
X52512Y-25151D01*
X52497Y-25136D01*
X52482Y-25106D01*
X52467Y-25046D01*
X52467Y-24971D01*
X52482Y-24911D01*
X52497Y-24881D01*
X52512Y-24866D01*
X52542Y-24851D01*
X52842Y-24851D02*
X52872Y-24851D01*
X52902Y-24866D01*
X52917Y-24881D01*
X52932Y-24911D01*
X52947Y-24971D01*
X52947Y-25046D01*
X52932Y-25106D01*
X52917Y-25136D01*
X52902Y-25151D01*
X52872Y-25166D01*
X52842Y-25166D01*
X52812Y-25151D01*
X52797Y-25136D01*
X52782Y-25106D01*
X52767Y-25046D01*
X52767Y-24971D01*
X52782Y-24911D01*
X52797Y-24881D01*
X52812Y-24866D01*
X52842Y-24851D01*
X53082Y-24956D02*
X53082Y-25166D01*
X53082Y-24986D02*
X53097Y-24971D01*
X53127Y-24956D01*
X53172Y-24956D01*
X53202Y-24971D01*
X53217Y-25001D01*
X53217Y-25166D01*
X53472Y-25001D02*
X53367Y-25001D01*
X53367Y-25166D02*
X53367Y-24851D01*
X53517Y-24851D01*
X47335Y-30914D02*
X47335Y-31139D01*
X47320Y-31184D01*
X47290Y-31214D01*
X47245Y-31229D01*
X47215Y-31229D01*
X47650Y-31229D02*
X47470Y-31229D01*
X47560Y-31229D02*
X47560Y-30914D01*
X47530Y-30959D01*
X47500Y-30989D01*
X47470Y-31004D01*
X40721Y-31726D02*
X40766Y-31741D01*
X40841Y-31741D01*
X40871Y-31726D01*
X40886Y-31711D01*
X40901Y-31681D01*
X40901Y-31651D01*
X40886Y-31621D01*
X40871Y-31606D01*
X40841Y-31591D01*
X40781Y-31576D01*
X40751Y-31561D01*
X40736Y-31546D01*
X40721Y-31516D01*
X40721Y-31486D01*
X40736Y-31456D01*
X40751Y-31441D01*
X40781Y-31426D01*
X40856Y-31426D01*
X40901Y-31441D01*
X41006Y-31426D02*
X41081Y-31741D01*
X41141Y-31516D01*
X41201Y-31741D01*
X41276Y-31426D01*
X41366Y-31426D02*
X41561Y-31426D01*
X41456Y-31546D01*
X41501Y-31546D01*
X41531Y-31561D01*
X41546Y-31576D01*
X41561Y-31606D01*
X41561Y-31681D01*
X41546Y-31711D01*
X41531Y-31726D01*
X41501Y-31741D01*
X41411Y-31741D01*
X41381Y-31726D01*
X41366Y-31711D01*
X42844Y-28633D02*
X42529Y-28633D01*
X42529Y-28513D01*
X42544Y-28483D01*
X42559Y-28468D01*
X42589Y-28453D01*
X42634Y-28453D01*
X42664Y-28468D01*
X42679Y-28483D01*
X42694Y-28513D01*
X42694Y-28633D01*
X42529Y-28318D02*
X42784Y-28318D01*
X42814Y-28303D01*
X42829Y-28288D01*
X42844Y-28258D01*
X42844Y-28198D01*
X42829Y-28168D01*
X42814Y-28153D01*
X42784Y-28138D01*
X42529Y-28138D01*
X42829Y-28003D02*
X42844Y-27958D01*
X42844Y-27883D01*
X42829Y-27853D01*
X42814Y-27838D01*
X42784Y-27823D01*
X42754Y-27823D01*
X42724Y-27838D01*
X42709Y-27853D01*
X42694Y-27883D01*
X42679Y-27943D01*
X42664Y-27973D01*
X42649Y-27988D01*
X42619Y-28003D01*
X42589Y-28003D01*
X42559Y-27988D01*
X42544Y-27973D01*
X42529Y-27943D01*
X42529Y-27868D01*
X42544Y-27823D01*
X42844Y-27688D02*
X42529Y-27688D01*
X42679Y-27688D02*
X42679Y-27508D01*
X42844Y-27508D02*
X42529Y-27508D01*
X32624Y-29349D02*
X32609Y-29364D01*
X32564Y-29379D01*
X32534Y-29379D01*
X32489Y-29364D01*
X32459Y-29334D01*
X32444Y-29304D01*
X32429Y-29244D01*
X32429Y-29199D01*
X32444Y-29139D01*
X32459Y-29109D01*
X32489Y-29079D01*
X32534Y-29064D01*
X32564Y-29064D01*
X32609Y-29079D01*
X32624Y-29094D01*
X32729Y-29064D02*
X32939Y-29064D01*
X32804Y-29379D01*
X44497Y-27720D02*
X44752Y-27720D01*
X44782Y-27705D01*
X44797Y-27690D01*
X44812Y-27660D01*
X44812Y-27600D01*
X44797Y-27570D01*
X44782Y-27555D01*
X44752Y-27540D01*
X44497Y-27540D01*
X44602Y-27255D02*
X44812Y-27255D01*
X44482Y-27330D02*
X44707Y-27405D01*
X44707Y-27210D01*
X43963Y-26623D02*
X43813Y-26623D01*
X43813Y-26308D01*
X44068Y-26623D02*
X44068Y-26308D01*
X44188Y-26308D01*
X44218Y-26323D01*
X44233Y-26338D01*
X44248Y-26368D01*
X44248Y-26413D01*
X44233Y-26443D01*
X44218Y-26458D01*
X44188Y-26473D01*
X44068Y-26473D01*
X44368Y-26338D02*
X44383Y-26323D01*
X44413Y-26308D01*
X44488Y-26308D01*
X44518Y-26323D01*
X44533Y-26338D01*
X44548Y-26368D01*
X44548Y-26398D01*
X44533Y-26443D01*
X44353Y-26623D01*
X44548Y-26623D01*
X44698Y-26623D02*
X44758Y-26623D01*
X44788Y-26608D01*
X44803Y-26593D01*
X44833Y-26548D01*
X44848Y-26488D01*
X44848Y-26368D01*
X44833Y-26338D01*
X44818Y-26323D01*
X44788Y-26308D01*
X44728Y-26308D01*
X44698Y-26323D01*
X44683Y-26338D01*
X44668Y-26368D01*
X44668Y-26443D01*
X44683Y-26473D01*
X44698Y-26488D01*
X44728Y-26503D01*
X44788Y-26503D01*
X44818Y-26488D01*
X44833Y-26473D01*
X44848Y-26443D01*
X45028Y-26443D02*
X44998Y-26428D01*
X44983Y-26413D01*
X44968Y-26383D01*
X44968Y-26368D01*
X44983Y-26338D01*
X44998Y-26323D01*
X45028Y-26308D01*
X45088Y-26308D01*
X45118Y-26323D01*
X45133Y-26338D01*
X45148Y-26368D01*
X45148Y-26383D01*
X45133Y-26413D01*
X45118Y-26428D01*
X45088Y-26443D01*
X45028Y-26443D01*
X44998Y-26458D01*
X44983Y-26473D01*
X44968Y-26503D01*
X44968Y-26563D01*
X44983Y-26593D01*
X44998Y-26608D01*
X45028Y-26623D01*
X45088Y-26623D01*
X45118Y-26608D01*
X45133Y-26593D01*
X45148Y-26563D01*
X45148Y-26503D01*
X45133Y-26473D01*
X45118Y-26458D01*
X45088Y-26443D01*
X45433Y-26308D02*
X45283Y-26308D01*
X45268Y-26458D01*
X45283Y-26443D01*
X45313Y-26428D01*
X45388Y-26428D01*
X45418Y-26443D01*
X45433Y-26458D01*
X45448Y-26488D01*
X45448Y-26563D01*
X45433Y-26593D01*
X45418Y-26608D01*
X45388Y-26623D01*
X45313Y-26623D01*
X45283Y-26608D01*
X45268Y-26593D01*
X45508Y-26653D02*
X45748Y-26653D01*
X45823Y-26623D02*
X45823Y-26308D01*
X45898Y-26308D01*
X45943Y-26323D01*
X45973Y-26353D01*
X45988Y-26383D01*
X46003Y-26443D01*
X46003Y-26488D01*
X45988Y-26548D01*
X45973Y-26578D01*
X45943Y-26608D01*
X45898Y-26623D01*
X45823Y-26623D01*
X46107Y-26308D02*
X46302Y-26308D01*
X46197Y-26428D01*
X46242Y-26428D01*
X46272Y-26443D01*
X46287Y-26458D01*
X46302Y-26488D01*
X46302Y-26563D01*
X46287Y-26593D01*
X46272Y-26608D01*
X46242Y-26623D01*
X46152Y-26623D01*
X46122Y-26608D01*
X46107Y-26593D01*
X46437Y-26593D02*
X46452Y-26608D01*
X46437Y-26623D01*
X46422Y-26608D01*
X46437Y-26593D01*
X46437Y-26623D01*
X46557Y-26308D02*
X46752Y-26308D01*
X46647Y-26428D01*
X46692Y-26428D01*
X46722Y-26443D01*
X46737Y-26458D01*
X46752Y-26488D01*
X46752Y-26563D01*
X46737Y-26593D01*
X46722Y-26608D01*
X46692Y-26623D01*
X46602Y-26623D01*
X46572Y-26608D01*
X46557Y-26593D01*
X45200Y-25284D02*
X45200Y-24970D01*
X45320Y-24970D01*
X45350Y-24985D01*
X45365Y-25000D01*
X45380Y-25029D01*
X45380Y-25074D01*
X45365Y-25104D01*
X45350Y-25119D01*
X45320Y-25134D01*
X45200Y-25134D01*
X45500Y-25000D02*
X45515Y-24985D01*
X45545Y-24970D01*
X45620Y-24970D01*
X45650Y-24985D01*
X45665Y-25000D01*
X45680Y-25029D01*
X45680Y-25059D01*
X45665Y-25104D01*
X45485Y-25284D01*
X45680Y-25284D01*
X43845Y-25373D02*
X43830Y-25388D01*
X43785Y-25403D01*
X43755Y-25403D01*
X43710Y-25388D01*
X43680Y-25358D01*
X43665Y-25328D01*
X43650Y-25268D01*
X43650Y-25223D01*
X43665Y-25163D01*
X43680Y-25133D01*
X43710Y-25103D01*
X43755Y-25088D01*
X43785Y-25088D01*
X43830Y-25103D01*
X43845Y-25118D01*
X44130Y-25088D02*
X43980Y-25088D01*
X43965Y-25238D01*
X43980Y-25223D01*
X44010Y-25208D01*
X44085Y-25208D01*
X44115Y-25223D01*
X44130Y-25238D01*
X44145Y-25268D01*
X44145Y-25343D01*
X44130Y-25373D01*
X44115Y-25388D01*
X44085Y-25403D01*
X44010Y-25403D01*
X43980Y-25388D01*
X43965Y-25373D01*
X43577Y-25551D02*
X43592Y-25536D01*
X43622Y-25521D01*
X43697Y-25521D01*
X43727Y-25536D01*
X43742Y-25551D01*
X43757Y-25581D01*
X43757Y-25611D01*
X43742Y-25656D01*
X43562Y-25836D01*
X43757Y-25836D01*
X43877Y-25551D02*
X43892Y-25536D01*
X43922Y-25521D01*
X43997Y-25521D01*
X44026Y-25536D01*
X44041Y-25551D01*
X44056Y-25581D01*
X44056Y-25611D01*
X44041Y-25656D01*
X43862Y-25836D01*
X44056Y-25836D01*
X44326Y-25626D02*
X44326Y-25836D01*
X44191Y-25626D02*
X44191Y-25791D01*
X44206Y-25821D01*
X44236Y-25836D01*
X44281Y-25836D01*
X44311Y-25821D01*
X44326Y-25806D01*
X44581Y-25671D02*
X44476Y-25671D01*
X44476Y-25836D02*
X44476Y-25521D01*
X44626Y-25521D01*
X50791Y-30875D02*
X50791Y-30560D01*
X50866Y-30560D01*
X50911Y-30575D01*
X50941Y-30605D01*
X50956Y-30635D01*
X50971Y-30695D01*
X50971Y-30740D01*
X50956Y-30800D01*
X50941Y-30830D01*
X50911Y-30860D01*
X50866Y-30875D01*
X50791Y-30875D01*
X51271Y-30875D02*
X51091Y-30875D01*
X51181Y-30875D02*
X51181Y-30560D01*
X51151Y-30605D01*
X51121Y-30635D01*
X51091Y-30650D01*
X50404Y-31254D02*
X50449Y-31269D01*
X50524Y-31269D01*
X50554Y-31254D01*
X50569Y-31239D01*
X50584Y-31209D01*
X50584Y-31179D01*
X50569Y-31149D01*
X50554Y-31134D01*
X50524Y-31119D01*
X50464Y-31104D01*
X50434Y-31089D01*
X50419Y-31074D01*
X50404Y-31044D01*
X50404Y-31014D01*
X50419Y-30984D01*
X50434Y-30969D01*
X50464Y-30954D01*
X50539Y-30954D01*
X50584Y-30969D01*
X50719Y-31269D02*
X50719Y-30954D01*
X50794Y-30954D01*
X50839Y-30969D01*
X50869Y-30999D01*
X50884Y-31029D01*
X50899Y-31089D01*
X50899Y-31134D01*
X50884Y-31194D01*
X50869Y-31224D01*
X50839Y-31254D01*
X50794Y-31269D01*
X50719Y-31269D01*
X51199Y-31269D02*
X51019Y-31269D01*
X51109Y-31269D02*
X51109Y-30954D01*
X51079Y-30999D01*
X51049Y-31029D01*
X51019Y-31044D01*
X51394Y-30954D02*
X51424Y-30954D01*
X51454Y-30969D01*
X51469Y-30984D01*
X51484Y-31014D01*
X51499Y-31074D01*
X51499Y-31149D01*
X51484Y-31209D01*
X51469Y-31239D01*
X51454Y-31254D01*
X51424Y-31269D01*
X51394Y-31269D01*
X51364Y-31254D01*
X51349Y-31239D01*
X51334Y-31209D01*
X51319Y-31149D01*
X51319Y-31074D01*
X51334Y-31014D01*
X51349Y-30984D01*
X51364Y-30969D01*
X51394Y-30954D01*
X51604Y-30954D02*
X51799Y-30954D01*
X51694Y-31074D01*
X51739Y-31074D01*
X51769Y-31089D01*
X51784Y-31104D01*
X51799Y-31134D01*
X51799Y-31209D01*
X51784Y-31239D01*
X51769Y-31254D01*
X51739Y-31269D01*
X51649Y-31269D01*
X51619Y-31254D01*
X51604Y-31239D01*
X42647Y-26531D02*
X42332Y-26531D01*
X42332Y-26456D01*
X42347Y-26411D01*
X42377Y-26381D01*
X42407Y-26366D01*
X42467Y-26351D01*
X42512Y-26351D01*
X42572Y-26366D01*
X42602Y-26381D01*
X42632Y-26411D01*
X42647Y-26456D01*
X42647Y-26531D01*
X42332Y-26246D02*
X42332Y-26051D01*
X42452Y-26156D01*
X42452Y-26111D01*
X42467Y-26081D01*
X42482Y-26066D01*
X42512Y-26051D01*
X42587Y-26051D01*
X42617Y-26066D01*
X42632Y-26081D01*
X42647Y-26111D01*
X42647Y-26201D01*
X42632Y-26231D01*
X42617Y-26246D01*
X43104Y-27193D02*
X43119Y-27148D01*
X43119Y-27073D01*
X43104Y-27043D01*
X43089Y-27028D01*
X43059Y-27013D01*
X43029Y-27013D01*
X42999Y-27028D01*
X42984Y-27043D01*
X42969Y-27073D01*
X42954Y-27133D01*
X42939Y-27163D01*
X42924Y-27178D01*
X42894Y-27193D01*
X42864Y-27193D01*
X42834Y-27178D01*
X42819Y-27163D01*
X42804Y-27133D01*
X42804Y-27058D01*
X42819Y-27013D01*
X43119Y-26878D02*
X42804Y-26878D01*
X42804Y-26803D01*
X42819Y-26758D01*
X42849Y-26728D01*
X42879Y-26713D01*
X42939Y-26698D01*
X42984Y-26698D01*
X43044Y-26713D01*
X43074Y-26728D01*
X43104Y-26758D01*
X43119Y-26803D01*
X43119Y-26878D01*
X43119Y-26398D02*
X43119Y-26578D01*
X43119Y-26488D02*
X42804Y-26488D01*
X42849Y-26518D01*
X42879Y-26548D01*
X42894Y-26578D01*
X42804Y-26203D02*
X42804Y-26173D01*
X42819Y-26143D01*
X42834Y-26128D01*
X42864Y-26113D01*
X42924Y-26098D01*
X42999Y-26098D01*
X43059Y-26113D01*
X43089Y-26128D01*
X43104Y-26143D01*
X43119Y-26173D01*
X43119Y-26203D01*
X43104Y-26233D01*
X43089Y-26248D01*
X43059Y-26263D01*
X42999Y-26278D01*
X42924Y-26278D01*
X42864Y-26263D01*
X42834Y-26248D01*
X42819Y-26233D01*
X42804Y-26203D01*
X42804Y-25993D02*
X42804Y-25798D01*
X42924Y-25903D01*
X42924Y-25858D01*
X42939Y-25828D01*
X42954Y-25813D01*
X42984Y-25798D01*
X43059Y-25798D01*
X43089Y-25813D01*
X43104Y-25828D01*
X43119Y-25858D01*
X43119Y-25948D01*
X43104Y-25978D01*
X43089Y-25993D01*
X50009Y-28500D02*
X49694Y-28500D01*
X49694Y-28425D01*
X49709Y-28380D01*
X49739Y-28350D01*
X49769Y-28335D01*
X49829Y-28320D01*
X49874Y-28320D01*
X49934Y-28335D01*
X49964Y-28350D01*
X49994Y-28380D01*
X50009Y-28425D01*
X50009Y-28500D01*
X49724Y-28200D02*
X49709Y-28185D01*
X49694Y-28155D01*
X49694Y-28080D01*
X49709Y-28050D01*
X49724Y-28035D01*
X49754Y-28020D01*
X49784Y-28020D01*
X49829Y-28035D01*
X50009Y-28215D01*
X50009Y-28020D01*
X46434Y-28631D02*
X46254Y-28631D01*
X46344Y-28631D02*
X46344Y-28316D01*
X46314Y-28361D01*
X46284Y-28391D01*
X46254Y-28406D01*
X46569Y-28421D02*
X46569Y-28631D01*
X46569Y-28451D02*
X46584Y-28436D01*
X46614Y-28421D01*
X46659Y-28421D01*
X46689Y-28436D01*
X46704Y-28466D01*
X46704Y-28631D01*
X46989Y-28421D02*
X46989Y-28631D01*
X46914Y-28301D02*
X46839Y-28526D01*
X47034Y-28526D01*
X47319Y-28631D02*
X47139Y-28631D01*
X47229Y-28631D02*
X47229Y-28316D01*
X47199Y-28361D01*
X47169Y-28391D01*
X47139Y-28406D01*
X47589Y-28421D02*
X47589Y-28631D01*
X47514Y-28301D02*
X47439Y-28526D01*
X47634Y-28526D01*
X47799Y-28451D02*
X47769Y-28436D01*
X47754Y-28421D01*
X47739Y-28391D01*
X47739Y-28376D01*
X47754Y-28346D01*
X47769Y-28331D01*
X47799Y-28316D01*
X47859Y-28316D01*
X47889Y-28331D01*
X47904Y-28346D01*
X47919Y-28376D01*
X47919Y-28391D01*
X47904Y-28421D01*
X47889Y-28436D01*
X47859Y-28451D01*
X47799Y-28451D01*
X47769Y-28466D01*
X47754Y-28481D01*
X47739Y-28511D01*
X47739Y-28571D01*
X47754Y-28601D01*
X47769Y-28616D01*
X47799Y-28631D01*
X47859Y-28631D01*
X47889Y-28616D01*
X47904Y-28601D01*
X47919Y-28571D01*
X47919Y-28511D01*
X47904Y-28481D01*
X47889Y-28466D01*
X47859Y-28451D01*
M02*
