M48
;DRILL file {Pcbnew (2013-07-07 BZR 4022)-stable} date 20.04.2015 13:39:31
;FORMAT={2:4/ absolute / inch / keep zeros}
FMAT,2
INCH,TZ
T1C0.020
T2C0.031
T3C0.032
T4C0.040
T5C0.055
T6C0.059
T7C0.060
T8C0.067
%
G90
G05
M72
T1
X017559Y-030945
X019606Y-029331
X023868Y-025010
X025423Y-023455
X026618Y-027860
X026768Y-025910
X026968Y-026810
X027539Y-032106
X028818Y-032660
X028917Y-026260
X029018Y-030860
X029018Y-031860
X030276Y-024252
X030618Y-031760
X031018Y-026910
X031118Y-030660
X031118Y-031610
X031753Y-035005
X031918Y-031410
X031968Y-031860
X032018Y-028160
X032598Y-025866
X032843Y-028135
X033768Y-026510
X034343Y-027835
X034493Y-033085
T2
X019176Y-020348
X019176Y-031372
X022168Y-031372
X025160Y-020348
X026610Y-024118
X027362Y-024118
X028114Y-024118
X029303Y-035170
T3
X021102Y-017110
X021102Y-019110
X023133Y-035300
X024133Y-035300
X025653Y-035300
X026653Y-035300
X027653Y-035300
T4
X028218Y-021860
X029718Y-021860
X031218Y-021860
T5
X026591Y-017638
X028591Y-017638
X032591Y-017638
X034591Y-017638
T6
X029512Y-020079
X031512Y-020079
T7
X017386Y-022520
X019386Y-022520
X022701Y-017559
X024701Y-017559
T8
X024606Y-015693G85X026181Y-015693
G05
X028543Y-015693G85X030118Y-015693
G05
T0
M30
