G04 (created by PCBNEW (2013-07-07 BZR 4022)-stable) date 20.04.2015 13:36:37*
%MOIN*%
G04 Gerber Fmt 3.4, Leading zero omitted, Abs format*
%FSLAX34Y34*%
G01*
G70*
G90*
G04 APERTURE LIST*
%ADD10C,0.00590551*%
%ADD11C,0.00393701*%
G04 APERTURE END LIST*
G54D10*
G54D11*
X37165Y-19921D02*
X37165Y-25236D01*
X35984Y-18740D02*
X37165Y-19921D01*
X35984Y-16929D02*
X35984Y-18740D01*
X35275Y-16220D02*
X35984Y-16929D01*
X32047Y-16220D02*
X35275Y-16220D01*
X30826Y-15000D02*
X32047Y-16220D01*
X23385Y-15000D02*
X30826Y-15000D01*
X22007Y-16377D02*
X23385Y-15000D01*
X20472Y-16377D02*
X22007Y-16377D01*
X17519Y-23700D02*
X16811Y-22992D01*
X17519Y-29645D02*
X17519Y-23700D01*
X16929Y-30236D02*
X17519Y-29645D01*
X16929Y-31062D02*
X16929Y-30236D01*
X16811Y-21417D02*
X16811Y-22992D01*
X18346Y-19881D02*
X16811Y-21417D01*
X18346Y-18503D02*
X18346Y-19881D01*
X20472Y-16377D02*
X18346Y-18503D01*
X19094Y-34055D02*
X19921Y-34881D01*
X19094Y-33622D02*
X19094Y-34055D01*
X17244Y-31771D02*
X19094Y-33622D01*
X17244Y-31377D02*
X17244Y-31771D01*
X21653Y-35826D02*
X34094Y-35826D01*
X20708Y-34881D02*
X21653Y-35826D01*
X19921Y-34881D02*
X20708Y-34881D01*
X16929Y-31062D02*
X17244Y-31377D01*
X35354Y-34566D02*
X35354Y-33543D01*
X34094Y-35826D02*
X35354Y-34566D01*
X36732Y-25669D02*
X37165Y-25236D01*
X35748Y-25669D02*
X36732Y-25669D01*
X34763Y-26653D02*
X35748Y-25669D01*
X34763Y-32952D02*
X34763Y-26653D01*
X35354Y-33543D02*
X34763Y-32952D01*
X35354Y-34527D02*
X35354Y-33543D01*
M02*
