G04 (created by PCBNEW (25-Oct-2014 BZR 4029)-stable) date ven. 03 juil. 2015 20:46:30 CEST*
%MOIN*%
G04 Gerber Fmt 3.4, Leading zero omitted, Abs format*
%FSLAX34Y34*%
G01*
G70*
G90*
G04 APERTURE LIST*
%ADD10C,0.00590551*%
%ADD11R,0.0944882X0.137008*%
%ADD12R,0.0590551X0.0629921*%
%ADD13R,0.019685X0.0629921*%
%ADD14R,0.11811X0.0393701*%
%ADD15R,0.06X0.08*%
%ADD16R,0.08X0.06*%
%ADD17R,0.045X0.025*%
%ADD18R,0.025X0.045*%
%ADD19R,0.0708661X0.0708661*%
%ADD20C,0.0708661*%
%ADD21C,0.11811*%
%ADD22R,0.14X0.165*%
%ADD23O,0.062X0.09*%
%ADD24R,0.062X0.09*%
%ADD25C,0.0629921*%
%ADD26R,0.0551181X0.0393701*%
%ADD27O,0.0551181X0.0393701*%
%ADD28C,0.0787402*%
%ADD29R,0.0846457X0.0255906*%
%ADD30R,0.05X0.1*%
%ADD31R,0.1X0.05*%
%ADD32R,0.11811X0.11811*%
%ADD33R,0.0984252X0.0984252*%
%ADD34C,0.0984252*%
%ADD35R,0.036X0.036*%
%ADD36R,0.0394X0.0315*%
%ADD37C,0.19685*%
%ADD38C,0.102362*%
%ADD39R,0.0236X0.0236*%
%ADD40R,0.0335X0.0335*%
%ADD41R,0.0787402X0.051*%
G04 APERTURE END LIST*
G54D10*
G54D11*
X22149Y-28913D03*
X23550Y-28913D03*
G54D12*
X23834Y-26681D03*
X21865Y-26681D03*
G54D13*
X23007Y-26681D03*
X23322Y-26681D03*
X22692Y-26681D03*
X22377Y-26681D03*
G54D14*
X22700Y-17844D03*
X22700Y-18631D03*
X22700Y-19418D03*
X22700Y-20206D03*
X22700Y-20993D03*
X22700Y-21781D03*
X22700Y-22568D03*
X22700Y-23355D03*
X28999Y-23355D03*
X28999Y-22568D03*
X28999Y-21781D03*
X28999Y-20993D03*
X28999Y-20206D03*
X28999Y-19418D03*
X28999Y-18631D03*
X28999Y-17844D03*
G54D15*
X32050Y-17800D03*
X33350Y-17800D03*
G54D16*
X29600Y-30950D03*
X29600Y-32250D03*
X28600Y-32950D03*
X28600Y-34250D03*
X28600Y-32250D03*
X28600Y-30950D03*
X35400Y-18150D03*
X35400Y-19450D03*
G54D15*
X35350Y-21800D03*
X36650Y-21800D03*
G54D17*
X25100Y-26100D03*
X25100Y-26700D03*
X30025Y-23175D03*
X30025Y-22575D03*
X24500Y-26100D03*
X24500Y-26700D03*
X20000Y-20500D03*
X20000Y-19900D03*
X36650Y-20100D03*
X36650Y-20700D03*
G54D18*
X34315Y-19330D03*
X33715Y-19330D03*
G54D19*
X19200Y-21000D03*
G54D20*
X19200Y-20000D03*
X19200Y-19000D03*
G54D21*
X26800Y-32600D03*
X26800Y-34600D03*
G54D22*
X35200Y-26250D03*
X35200Y-23750D03*
G54D23*
X30300Y-26375D03*
G54D24*
X29300Y-26375D03*
X28300Y-26375D03*
X28300Y-29575D03*
X29300Y-29575D03*
X30300Y-29575D03*
G54D25*
X33625Y-25400D03*
X33625Y-23400D03*
G54D26*
X33870Y-21100D03*
G54D27*
X33870Y-20100D03*
X30129Y-20100D03*
X30129Y-21100D03*
G54D28*
X34400Y-17139D03*
X34400Y-22052D03*
G54D29*
X20768Y-25250D03*
X20768Y-25750D03*
X20768Y-26250D03*
X20768Y-26750D03*
X19331Y-25250D03*
X19331Y-25750D03*
X19331Y-26250D03*
X19331Y-26750D03*
G54D30*
X19200Y-22300D03*
X18000Y-22300D03*
G54D31*
X20875Y-20850D03*
X20875Y-19650D03*
G54D32*
X22400Y-33600D03*
G54D21*
X24400Y-33600D03*
G54D33*
X31600Y-32600D03*
G54D34*
X31600Y-29800D03*
X31600Y-31200D03*
G54D32*
X35842Y-28149D03*
G54D21*
X33842Y-28149D03*
G54D35*
X25750Y-26000D03*
X26450Y-26000D03*
X26100Y-26800D03*
G54D36*
X34367Y-20400D03*
X35233Y-20025D03*
X35233Y-20775D03*
G54D17*
X21700Y-19300D03*
X21700Y-18700D03*
G54D18*
X21800Y-17575D03*
X21200Y-17575D03*
X21800Y-18100D03*
X21200Y-18100D03*
G54D37*
X30511Y-16338D03*
X20078Y-32677D03*
X34350Y-31900D03*
G54D28*
X32011Y-24742D03*
G54D33*
X32011Y-18757D03*
G54D28*
X20988Y-21750D03*
G54D19*
X20988Y-18757D03*
G54D38*
X27135Y-30150D03*
G54D21*
X25560Y-30150D03*
X20639Y-30150D03*
X19064Y-30150D03*
G54D39*
X35800Y-19987D03*
X35800Y-20813D03*
G54D40*
X33474Y-18582D03*
X34792Y-18582D03*
G54D41*
X29138Y-25100D03*
X26540Y-25100D03*
X23011Y-25100D03*
X25609Y-25100D03*
M02*
