G04 (created by PCBNEW (25-Oct-2014 BZR 4029)-stable) date ven. 03 juil. 2015 20:46:30 CEST*
%MOIN*%
G04 Gerber Fmt 3.4, Leading zero omitted, Abs format*
%FSLAX34Y34*%
G01*
G70*
G90*
G04 APERTURE LIST*
%ADD10C,0.00590551*%
%ADD11R,0.0708661X0.0708661*%
%ADD12C,0.0708661*%
%ADD13C,0.11811*%
%ADD14C,0.0629921*%
%ADD15C,0.0787402*%
%ADD16R,0.0846457X0.0255906*%
%ADD17R,0.11811X0.11811*%
%ADD18R,0.0984252X0.0984252*%
%ADD19C,0.0984252*%
%ADD20C,0.19685*%
%ADD21C,0.102362*%
G04 APERTURE END LIST*
G54D10*
G54D11*
X19200Y-21000D03*
G54D12*
X19200Y-20000D03*
X19200Y-19000D03*
G54D13*
X26800Y-32600D03*
X26800Y-34600D03*
G54D14*
X33625Y-25400D03*
X33625Y-23400D03*
G54D15*
X34400Y-17139D03*
X34400Y-22052D03*
G54D16*
X17881Y-22050D03*
X17881Y-22550D03*
X17881Y-23050D03*
X17881Y-23550D03*
X19318Y-22050D03*
X19318Y-22550D03*
X19318Y-23050D03*
X19318Y-23550D03*
X17881Y-25250D03*
X17881Y-25750D03*
X17881Y-26250D03*
X17881Y-26750D03*
X19318Y-25250D03*
X19318Y-25750D03*
X19318Y-26250D03*
X19318Y-26750D03*
G54D17*
X22400Y-33600D03*
G54D13*
X24400Y-33600D03*
G54D18*
X31600Y-32600D03*
G54D19*
X31600Y-29800D03*
X31600Y-31200D03*
G54D17*
X35842Y-28149D03*
G54D13*
X33842Y-28149D03*
G54D20*
X30511Y-16338D03*
X20078Y-32677D03*
X34350Y-31900D03*
G54D15*
X32011Y-24742D03*
G54D18*
X32011Y-18757D03*
G54D15*
X20988Y-21750D03*
G54D11*
X20988Y-18757D03*
G54D21*
X27135Y-30150D03*
G54D13*
X25560Y-30150D03*
X20639Y-30150D03*
X19064Y-30150D03*
M02*
