M48
;DRILL file {Pcbnew (25-Oct-2014 BZR 4029)-stable} date ven. 03 juil. 2015 20:46:32 CEST
;FORMAT={-:-/ absolute / metric / decimal}
FMAT,2
METRIC,TZ
T1C0.500
T2C0.800
T3C0.813
T4C1.000
T5C1.016
T6C1.397
T7C1.500
T8C1.524
T9C3.200
%
G90
G05
M71
T1
X44.45Y-62.484
X45.339Y-69.088
X45.466Y-60.96
X46.Y-54.5
X49.022Y-63.246
X50.546Y-62.484
X50.546Y-65.405
X50.546Y-66.675
X50.546Y-67.945
X52.324Y-61.214
X53.086Y-58.42
X54.038Y-67.945
X54.61Y-57.658
X55.626Y-55.372
X55.626Y-64.77
X56.642Y-62.738
X56.642Y-66.04
X58.674Y-62.484
X60.452Y-66.548
X63.754Y-61.976
X65.278Y-68.072
X68.326Y-66.04
X70.612Y-46.228
X70.866Y-64.008
X71.374Y-49.276
X71.501Y-55.372
X72.644Y-76.962
T2
X53.31Y-47.645
X53.31Y-55.245
X81.31Y-47.645
X81.31Y-62.845
T3
X48.768Y-48.26
X48.768Y-50.8
X48.768Y-53.34
X85.407Y-59.436
X85.407Y-64.516
X87.376Y-43.534
X87.376Y-56.014
T4
X61.722Y-71.628
X63.754Y-71.628
X66.167Y-71.628
T5
X80.264Y-75.692
X80.264Y-79.248
X80.264Y-82.804
T6
X48.424Y-76.581
X52.424Y-76.581
X64.924Y-76.581
X68.924Y-76.581
T7
X68.072Y-87.884
T8
X56.896Y-85.344
X61.976Y-85.344
X68.072Y-82.804
X85.96Y-71.5
X91.04Y-71.5
T9
X51.Y-83.
X77.5Y-41.5
X87.249Y-81.026
T0
M30
