G04 (created by PCBNEW (25-Oct-2014 BZR 4029)-stable) date ven. 03 juil. 2015 20:46:30 CEST*
%MOIN*%
G04 Gerber Fmt 3.4, Leading zero omitted, Abs format*
%FSLAX34Y34*%
G01*
G70*
G90*
G04 APERTURE LIST*
%ADD10C,0.00590551*%
%ADD11C,0.011811*%
%ADD12C,0.012*%
%ADD13C,0.015*%
%ADD14C,0.008*%
%ADD15C,0.00393701*%
G04 APERTURE END LIST*
G54D10*
G54D11*
X32131Y-35060D02*
X32046Y-35089D01*
X31906Y-35089D01*
X31849Y-35060D01*
X31821Y-35032D01*
X31793Y-34976D01*
X31793Y-34920D01*
X31821Y-34864D01*
X31849Y-34835D01*
X31906Y-34807D01*
X32018Y-34779D01*
X32074Y-34751D01*
X32102Y-34723D01*
X32131Y-34667D01*
X32131Y-34610D01*
X32102Y-34554D01*
X32074Y-34526D01*
X32018Y-34498D01*
X31878Y-34498D01*
X31793Y-34526D01*
X31343Y-34779D02*
X31540Y-34779D01*
X31540Y-35089D02*
X31540Y-34498D01*
X31259Y-34498D01*
X30668Y-34498D02*
X30471Y-35089D01*
X30275Y-34498D01*
X30106Y-34554D02*
X30078Y-34526D01*
X30021Y-34498D01*
X29881Y-34498D01*
X29825Y-34526D01*
X29797Y-34554D01*
X29768Y-34610D01*
X29768Y-34667D01*
X29797Y-34751D01*
X30134Y-35089D01*
X29768Y-35089D01*
G54D10*
X33218Y-16450D02*
X33218Y-22749D01*
X33218Y-22749D02*
X35581Y-22749D01*
X35581Y-22749D02*
X35581Y-16450D01*
X35581Y-16450D02*
X33218Y-16450D01*
G54D12*
X21400Y-31700D02*
X21400Y-35600D01*
X25400Y-35600D02*
X25400Y-31600D01*
X25400Y-32600D02*
X21400Y-32600D01*
X25400Y-35600D02*
X21400Y-35600D01*
X21400Y-31600D02*
X25400Y-31600D01*
G54D13*
X32350Y-33200D02*
X32600Y-33200D01*
X32600Y-33200D02*
X32600Y-29200D01*
X32600Y-29200D02*
X32350Y-29200D01*
X30850Y-33200D02*
X32350Y-33200D01*
X32350Y-33200D02*
X32350Y-29200D01*
X32350Y-29200D02*
X30850Y-29200D01*
X30850Y-29200D02*
X30850Y-33200D01*
G54D12*
X36842Y-30049D02*
X36842Y-26149D01*
X32842Y-26149D02*
X32842Y-30149D01*
X32842Y-29149D02*
X36842Y-29149D01*
X32842Y-26149D02*
X36842Y-26149D01*
X36842Y-30149D02*
X32842Y-30149D01*
G54D10*
X33153Y-17379D02*
X19846Y-17379D01*
X19846Y-17379D02*
X19846Y-26120D01*
X19846Y-26120D02*
X33153Y-26120D01*
X33153Y-26120D02*
X33153Y-17379D01*
X18375Y-28772D02*
X18375Y-31527D01*
X18375Y-31527D02*
X27824Y-31527D01*
X27824Y-31527D02*
X27824Y-28772D01*
X27824Y-28772D02*
X18375Y-28772D01*
G54D14*
X34523Y-19533D02*
X34542Y-19514D01*
X34561Y-19457D01*
X34561Y-19419D01*
X34542Y-19361D01*
X34504Y-19323D01*
X34466Y-19304D01*
X34390Y-19285D01*
X34333Y-19285D01*
X34257Y-19304D01*
X34219Y-19323D01*
X34180Y-19361D01*
X34161Y-19419D01*
X34161Y-19457D01*
X34180Y-19514D01*
X34200Y-19533D01*
X34333Y-19761D02*
X34314Y-19723D01*
X34295Y-19704D01*
X34257Y-19685D01*
X34238Y-19685D01*
X34200Y-19704D01*
X34180Y-19723D01*
X34161Y-19761D01*
X34161Y-19838D01*
X34180Y-19876D01*
X34200Y-19895D01*
X34238Y-19914D01*
X34257Y-19914D01*
X34295Y-19895D01*
X34314Y-19876D01*
X34333Y-19838D01*
X34333Y-19761D01*
X34352Y-19723D01*
X34371Y-19704D01*
X34409Y-19685D01*
X34485Y-19685D01*
X34523Y-19704D01*
X34542Y-19723D01*
X34561Y-19761D01*
X34561Y-19838D01*
X34542Y-19876D01*
X34523Y-19895D01*
X34485Y-19914D01*
X34409Y-19914D01*
X34371Y-19895D01*
X34352Y-19876D01*
X34333Y-19838D01*
G54D10*
X18890Y-24259D02*
X18890Y-23865D01*
X18740Y-23865D01*
X18703Y-23884D01*
X18684Y-23903D01*
X18665Y-23940D01*
X18665Y-23996D01*
X18684Y-24034D01*
X18703Y-24053D01*
X18740Y-24071D01*
X18890Y-24071D01*
X18328Y-23996D02*
X18328Y-24259D01*
X18421Y-23846D02*
X18515Y-24128D01*
X18271Y-24128D01*
G54D15*
X18587Y-21462D02*
X18482Y-21462D01*
X18437Y-21627D02*
X18587Y-21627D01*
X18587Y-21312D01*
X18437Y-21312D01*
X18332Y-21312D02*
X18122Y-21627D01*
X18122Y-21312D02*
X18332Y-21627D01*
X18047Y-21312D02*
X17867Y-21312D01*
X17957Y-21627D02*
X17957Y-21312D01*
X17597Y-21627D02*
X17777Y-21627D01*
X17687Y-21627D02*
X17687Y-21312D01*
X17717Y-21357D01*
X17747Y-21387D01*
X17777Y-21402D01*
G54D10*
X18832Y-27427D02*
X18832Y-27112D01*
X18712Y-27112D01*
X18682Y-27127D01*
X18667Y-27142D01*
X18652Y-27172D01*
X18652Y-27217D01*
X18667Y-27247D01*
X18682Y-27262D01*
X18712Y-27277D01*
X18832Y-27277D01*
X18532Y-27142D02*
X18517Y-27127D01*
X18487Y-27112D01*
X18412Y-27112D01*
X18382Y-27127D01*
X18367Y-27142D01*
X18352Y-27172D01*
X18352Y-27202D01*
X18367Y-27247D01*
X18547Y-27427D01*
X18352Y-27427D01*
G54D15*
X18987Y-24762D02*
X18882Y-24762D01*
X18837Y-24927D02*
X18987Y-24927D01*
X18987Y-24612D01*
X18837Y-24612D01*
X18732Y-24612D02*
X18522Y-24927D01*
X18522Y-24612D02*
X18732Y-24927D01*
X18447Y-24612D02*
X18267Y-24612D01*
X18357Y-24927D02*
X18357Y-24612D01*
X18177Y-24642D02*
X18162Y-24627D01*
X18132Y-24612D01*
X18057Y-24612D01*
X18027Y-24627D01*
X18012Y-24642D01*
X17997Y-24672D01*
X17997Y-24702D01*
X18012Y-24747D01*
X18192Y-24927D01*
X17997Y-24927D01*
G54D12*
X23892Y-35142D02*
X23892Y-34542D01*
X23664Y-34542D01*
X23607Y-34571D01*
X23578Y-34600D01*
X23550Y-34657D01*
X23550Y-34742D01*
X23578Y-34800D01*
X23607Y-34828D01*
X23664Y-34857D01*
X23892Y-34857D01*
X23350Y-34542D02*
X22978Y-34542D01*
X23178Y-34771D01*
X23092Y-34771D01*
X23035Y-34800D01*
X23007Y-34828D01*
X22978Y-34885D01*
X22978Y-35028D01*
X23007Y-35085D01*
X23035Y-35114D01*
X23092Y-35142D01*
X23264Y-35142D01*
X23321Y-35114D01*
X23350Y-35085D01*
G54D14*
X29842Y-31495D02*
X30328Y-31495D01*
X30385Y-31514D01*
X30414Y-31533D01*
X30442Y-31571D01*
X30442Y-31647D01*
X30414Y-31685D01*
X30385Y-31704D01*
X30328Y-31723D01*
X29842Y-31723D01*
X29842Y-31876D02*
X29842Y-32142D01*
X30442Y-31971D01*
X33735Y-33628D02*
X33678Y-33657D01*
X33659Y-33685D01*
X33640Y-33742D01*
X33640Y-33828D01*
X33659Y-33885D01*
X33678Y-33914D01*
X33716Y-33942D01*
X33869Y-33942D01*
X33869Y-33342D01*
X33735Y-33342D01*
X33697Y-33371D01*
X33678Y-33400D01*
X33659Y-33457D01*
X33659Y-33514D01*
X33678Y-33571D01*
X33697Y-33600D01*
X33735Y-33628D01*
X33869Y-33628D01*
X33526Y-33342D02*
X33297Y-33342D01*
X33411Y-33942D02*
X33411Y-33342D01*
X33183Y-33771D02*
X32992Y-33771D01*
X33221Y-33942D02*
X33088Y-33342D01*
X32954Y-33942D01*
X32859Y-33342D02*
X32611Y-33342D01*
X32745Y-33571D01*
X32688Y-33571D01*
X32650Y-33600D01*
X32630Y-33628D01*
X32611Y-33685D01*
X32611Y-33828D01*
X32630Y-33885D01*
X32650Y-33914D01*
X32688Y-33942D01*
X32802Y-33942D01*
X32840Y-33914D01*
X32859Y-33885D01*
X32230Y-33942D02*
X32459Y-33942D01*
X32345Y-33942D02*
X32345Y-33342D01*
X32383Y-33428D01*
X32421Y-33485D01*
X32459Y-33514D01*
X32078Y-33400D02*
X32059Y-33371D01*
X32021Y-33342D01*
X31926Y-33342D01*
X31888Y-33371D01*
X31869Y-33400D01*
X31850Y-33457D01*
X31850Y-33514D01*
X31869Y-33600D01*
X32097Y-33942D01*
X31850Y-33942D01*
X31678Y-33714D02*
X31373Y-33714D01*
X31011Y-33342D02*
X31088Y-33342D01*
X31126Y-33371D01*
X31145Y-33400D01*
X31183Y-33485D01*
X31202Y-33600D01*
X31202Y-33828D01*
X31183Y-33885D01*
X31164Y-33914D01*
X31126Y-33942D01*
X31050Y-33942D01*
X31011Y-33914D01*
X30992Y-33885D01*
X30973Y-33828D01*
X30973Y-33685D01*
X30992Y-33628D01*
X31011Y-33600D01*
X31050Y-33571D01*
X31126Y-33571D01*
X31164Y-33600D01*
X31183Y-33628D01*
X31202Y-33685D01*
X30726Y-33342D02*
X30688Y-33342D01*
X30650Y-33371D01*
X30630Y-33400D01*
X30611Y-33457D01*
X30592Y-33571D01*
X30592Y-33714D01*
X30611Y-33828D01*
X30630Y-33885D01*
X30650Y-33914D01*
X30688Y-33942D01*
X30726Y-33942D01*
X30764Y-33914D01*
X30783Y-33885D01*
X30802Y-33828D01*
X30821Y-33714D01*
X30821Y-33571D01*
X30802Y-33457D01*
X30783Y-33400D01*
X30764Y-33371D01*
X30726Y-33342D01*
X30345Y-33342D02*
X30307Y-33342D01*
X30269Y-33371D01*
X30250Y-33400D01*
X30230Y-33457D01*
X30211Y-33571D01*
X30211Y-33714D01*
X30230Y-33828D01*
X30250Y-33885D01*
X30269Y-33914D01*
X30307Y-33942D01*
X30345Y-33942D01*
X30383Y-33914D01*
X30402Y-33885D01*
X30421Y-33828D01*
X30440Y-33714D01*
X30440Y-33571D01*
X30421Y-33457D01*
X30402Y-33400D01*
X30383Y-33371D01*
X30345Y-33342D01*
X29907Y-33628D02*
X29850Y-33657D01*
X29830Y-33685D01*
X29811Y-33742D01*
X29811Y-33828D01*
X29830Y-33885D01*
X29850Y-33914D01*
X29888Y-33942D01*
X30040Y-33942D01*
X30040Y-33342D01*
X29907Y-33342D01*
X29869Y-33371D01*
X29850Y-33400D01*
X29830Y-33457D01*
X29830Y-33514D01*
X29850Y-33571D01*
X29869Y-33600D01*
X29907Y-33628D01*
X30040Y-33628D01*
G54D12*
X35142Y-25942D02*
X35142Y-25342D01*
X34914Y-25342D01*
X34857Y-25371D01*
X34828Y-25400D01*
X34800Y-25457D01*
X34800Y-25542D01*
X34828Y-25600D01*
X34857Y-25628D01*
X34914Y-25657D01*
X35142Y-25657D01*
X34228Y-25942D02*
X34571Y-25942D01*
X34400Y-25942D02*
X34400Y-25342D01*
X34457Y-25428D01*
X34514Y-25485D01*
X34571Y-25514D01*
X36414Y-31242D02*
X36414Y-30642D01*
X36128Y-31242D02*
X36128Y-30642D01*
X35785Y-31242D01*
X35785Y-30642D01*
G54D10*
X26799Y-21515D02*
X26574Y-21515D01*
X26687Y-21909D02*
X26687Y-21515D01*
X26237Y-21909D02*
X26462Y-21909D01*
X26350Y-21909D02*
X26350Y-21515D01*
X26387Y-21571D01*
X26425Y-21609D01*
X26462Y-21628D01*
X27906Y-21109D02*
X28037Y-20921D01*
X28131Y-21109D02*
X28131Y-20715D01*
X27981Y-20715D01*
X27943Y-20734D01*
X27924Y-20753D01*
X27906Y-20790D01*
X27906Y-20846D01*
X27924Y-20884D01*
X27943Y-20903D01*
X27981Y-20921D01*
X28131Y-20921D01*
X27756Y-20996D02*
X27568Y-20996D01*
X27793Y-21109D02*
X27662Y-20715D01*
X27531Y-21109D01*
X27174Y-21071D02*
X27193Y-21090D01*
X27249Y-21109D01*
X27287Y-21109D01*
X27343Y-21090D01*
X27381Y-21053D01*
X27399Y-21015D01*
X27418Y-20940D01*
X27418Y-20884D01*
X27399Y-20809D01*
X27381Y-20771D01*
X27343Y-20734D01*
X27287Y-20715D01*
X27249Y-20715D01*
X27193Y-20734D01*
X27174Y-20753D01*
X26931Y-20715D02*
X26893Y-20715D01*
X26856Y-20734D01*
X26837Y-20753D01*
X26818Y-20790D01*
X26799Y-20865D01*
X26799Y-20959D01*
X26818Y-21034D01*
X26837Y-21071D01*
X26856Y-21090D01*
X26893Y-21109D01*
X26931Y-21109D01*
X26968Y-21090D01*
X26987Y-21071D01*
X27006Y-21034D01*
X27024Y-20959D01*
X27024Y-20865D01*
X27006Y-20790D01*
X26987Y-20753D01*
X26968Y-20734D01*
X26931Y-20715D01*
X26425Y-21109D02*
X26649Y-21109D01*
X26537Y-21109D02*
X26537Y-20715D01*
X26574Y-20771D01*
X26612Y-20809D01*
X26649Y-20828D01*
X25993Y-20715D02*
X25750Y-20715D01*
X25881Y-20865D01*
X25825Y-20865D01*
X25787Y-20884D01*
X25768Y-20903D01*
X25750Y-20940D01*
X25750Y-21034D01*
X25768Y-21071D01*
X25787Y-21090D01*
X25825Y-21109D01*
X25937Y-21109D01*
X25975Y-21090D01*
X25993Y-21071D01*
X25581Y-21071D02*
X25562Y-21090D01*
X25581Y-21109D01*
X25600Y-21090D01*
X25581Y-21071D01*
X25581Y-21109D01*
X25431Y-20715D02*
X25187Y-20715D01*
X25318Y-20865D01*
X25262Y-20865D01*
X25225Y-20884D01*
X25206Y-20903D01*
X25187Y-20940D01*
X25187Y-21034D01*
X25206Y-21071D01*
X25225Y-21090D01*
X25262Y-21109D01*
X25375Y-21109D01*
X25412Y-21090D01*
X25431Y-21071D01*
X25075Y-20715D02*
X24943Y-21109D01*
X24812Y-20715D01*
G54D12*
X23309Y-30067D02*
X23518Y-30067D01*
X23518Y-30651D02*
X23518Y-29535D01*
X23219Y-29535D01*
X23010Y-29642D02*
X22980Y-29588D01*
X22920Y-29535D01*
X22771Y-29535D01*
X22711Y-29588D01*
X22681Y-29642D01*
X22651Y-29748D01*
X22651Y-29854D01*
X22681Y-30014D01*
X23040Y-30651D01*
X22651Y-30651D01*
X22976Y-28080D02*
X23242Y-28080D01*
X23242Y-28604D02*
X23242Y-27604D01*
X22861Y-27604D01*
X22557Y-27604D02*
X22557Y-28414D01*
X22519Y-28509D01*
X22480Y-28557D01*
X22404Y-28604D01*
X22252Y-28604D01*
X22176Y-28557D01*
X22138Y-28509D01*
X22100Y-28414D01*
X22100Y-27604D01*
X21757Y-28557D02*
X21642Y-28604D01*
X21452Y-28604D01*
X21376Y-28557D01*
X21338Y-28509D01*
X21300Y-28414D01*
X21300Y-28319D01*
X21338Y-28223D01*
X21376Y-28176D01*
X21452Y-28128D01*
X21604Y-28080D01*
X21680Y-28033D01*
X21719Y-27985D01*
X21757Y-27890D01*
X21757Y-27795D01*
X21719Y-27700D01*
X21680Y-27652D01*
X21604Y-27604D01*
X21414Y-27604D01*
X21300Y-27652D01*
X20957Y-28080D02*
X20690Y-28080D01*
X20576Y-28604D02*
X20957Y-28604D01*
X20957Y-27604D01*
X20576Y-27604D01*
X19280Y-27604D02*
X19433Y-27604D01*
X19509Y-27652D01*
X19547Y-27700D01*
X19623Y-27842D01*
X19661Y-28033D01*
X19661Y-28414D01*
X19623Y-28509D01*
X19585Y-28557D01*
X19509Y-28604D01*
X19357Y-28604D01*
X19280Y-28557D01*
X19242Y-28509D01*
X19204Y-28414D01*
X19204Y-28176D01*
X19242Y-28080D01*
X19280Y-28033D01*
X19357Y-27985D01*
X19509Y-27985D01*
X19585Y-28033D01*
X19623Y-28080D01*
X19661Y-28176D01*
X18900Y-28319D02*
X18519Y-28319D01*
X18976Y-28604D02*
X18709Y-27604D01*
X18442Y-28604D01*
M02*
